<?xml version="1.0" encoding="UTF-8" standalone="no"?>
<!-- Created with Inkscape (http://www.inkscape.org/) -->

<svg
   width="1080"
   height="1080"
   viewBox="0 0 285.75 285.75001"
   version="1.1"
   id="svg1"
   xml:space="preserve"
   xmlns="http://www.w3.org/2000/svg"
   xmlns:svg="http://www.w3.org/2000/svg"><defs
     id="defs1" /><g
     id="layer1"><path
       style="fill:#000000;stroke-width:2.03591"
       d="m 28.672212,281.75001 c -3.323629,-1.05709 -6.10092,-3.50334 -7.762083,-6.83686 L 19.514836,272.1132 V 144.66022 17.207248 l 1.395293,-2.799952 C 21.677526,12.867331 23.184855,10.882417 24.259736,9.9964078 28.484603,6.5139171 20.006489,6.73687 142.36237,6.8906018 l 111.22689,0.1396637 3.602,1.7733003 c 3.91742,1.9286012 6.65347,4.6845152 8.62733,8.6900332 l 1.21456,2.464717 V 144.66014 269.36196 l -1.2425,2.49734 c -2.00751,4.03497 -4.68355,6.72955 -8.59792,8.65741 l -3.60054,1.7733 -20.75162,0.17428 c -22.56433,0.18954 -24.91956,-0.0214 -28.40189,-2.54402 -1.1406,-0.82623 -4.45696,-4.69127 -7.36968,-8.58897 l -5.29588,-7.08671 H 131.88465 71.996148 l -4.289894,5.7876 c -9.323487,12.57852 -8.617961,12.22207 -24.489984,12.37324 -9.285985,0.0884 -12.686857,-0.0647 -14.544058,-0.65552 z m 26.343521,-10.40816 c 1.065129,-1.13313 2.726597,-3.17562 3.692149,-4.53887 l 1.755548,-2.47866 -7.80215,-0.17448 c -7.227127,-0.16165 -7.890468,-0.26294 -9.000631,-1.37453 -1.76642,-1.76865 -1.632966,-4.76055 0.285923,-6.41113 l 1.484446,-1.27686 h 86.382252 c 47.51024,0 86.77465,0.15066 87.25423,0.3346 1.06486,0.40865 2.44814,2.96714 2.44814,4.5281 0,0.63005 -0.70856,1.85408 -1.57457,2.7201 l -1.57458,1.57457 h -7.60699 -7.60701 l 3.22843,4.24106 c 1.77565,2.33258 3.62438,4.39299 4.10829,4.57869 0.4839,0.18567 6.31402,0.33761 12.95583,0.33761 h 12.076 V 144.66022 15.918392 H 133.41881 31.316579 l -1.322183,1.322183 -1.322184,1.322184 v 79.208782 79.208809 h 4.567959 4.567939 l 0.145364,-50.50021 0.145364,-50.50018 1.493343,-2.540433 c 0.821348,-1.397227 2.292398,-3.149884 3.269005,-3.894784 4.133027,-3.152409 -0.15819,-2.99149 79.780414,-2.99149 80.74282,0 75.95989,-0.19667 80.20103,3.299136 1.10299,0.909199 2.54383,2.65984 3.20184,3.890326 l 1.19636,2.237245 0.26933,50.36553 0.26936,50.36553 6.29133,0.26933 c 5.24757,0.22464 6.53789,0.4536 7.77742,1.37996 3.72283,2.78226 4.48962,5.26058 4.48962,14.51077 0,9.46619 -0.81724,11.95662 -4.81685,14.67871 l -1.78082,1.212 H 124.20618 28.672131 v 30.73955 c 0,20.72037 0.1871,31.08903 0.573883,31.81184 0.315628,0.58977 1.103445,1.28566 1.750682,1.54644 0.647238,0.26078 5.880533,0.48952 11.629566,0.50829 l 10.452767,0.0342 z m -8.028788,-26.43793 c -3.556456,-1.25375 -7.522253,-5.22285 -8.508918,-8.51602 -1.624639,-5.42255 5.91e-4,-11.24824 4.122196,-14.77617 7.331549,-6.27554 19.182602,-2.90238 21.908934,6.23592 0.99548,3.33672 0.99489,4.81599 -0.0041,8.17735 -2.181013,7.34431 -10.258765,11.43827 -17.518873,8.87892 z m 8.00057,-10.13117 c 1.008856,-1.13097 1.204365,-1.81321 0.959058,-3.34639 -0.393644,-2.46006 -2.049493,-3.81115 -4.670854,-3.81115 -5.013824,0 -5.851806,6.96881 -1.056761,8.78814 1.412883,0.53608 3.46036,-0.16409 4.768557,-1.6306 z m 154.317575,10.66603 c -6.28674,-1.59164 -10.52128,-7.03074 -10.52128,-13.51421 0,-3.72579 1.17611,-6.64453 3.77006,-9.35625 2.80278,-2.93004 5.57792,-4.08681 9.80439,-4.08681 4.22648,0 7.00163,1.15677 9.80441,4.08681 4.78811,5.00548 5.09665,12.52739 0.74776,18.22908 -2.63926,3.46024 -9.29808,5.73187 -13.60534,4.64138 z m 5.17621,-9.45784 c 1.64277,-0.8495 2.88633,-3.49992 2.35266,-5.01423 -0.17978,-0.51012 -0.81781,-1.47288 -1.41783,-2.1395 -2.14928,-2.3877 -6.35942,-1.19205 -7.53354,2.1395 -0.51714,1.46734 0.68605,4.14296 2.24348,4.98903 1.82367,0.99071 2.48076,0.99452 4.35523,0.0252 z M 45.64029,51.264051 C 35.331238,46.39046 35.189233,31.886083 45.399543,26.677177 53.69927,22.442966 64.018848,28.037005 65.120175,37.367312 66.361961,47.887325 55.256256,55.810022 45.64029,51.264051 Z m 8.874323,-8.937193 c 2.362718,-2.362718 1.847266,-5.827782 -1.114194,-7.490004 -2.775337,-1.557759 -6.413474,0.768598 -6.413474,4.101002 0,3.760109 4.934851,5.98182 7.527668,3.389002 z m 153.088597,9.537461 c -2.60258,-0.832831 -6.82284,-4.854595 -7.8985,-7.526996 -3.16865,-7.872226 1.50693,-16.938496 9.67847,-18.767214 10.68047,-2.390183 19.74523,8.49715 15.6255,18.767214 -1.13798,2.836903 -5.33929,6.708885 -8.21404,7.570178 -2.55936,0.766807 -6.72134,0.747241 -9.19143,-0.04316 z m 7.9274,-9.756973 c 3.37149,-3.588786 -0.37526,-9.115803 -4.99015,-7.361232 -1.64966,0.627204 -3.22017,3.707805 -2.67525,5.247587 1.21548,3.434688 5.35264,4.575451 7.6654,2.113645 z m 37.55045,230.268324 c 1.21438,-0.55151 2.78999,-1.81879 3.50134,-2.81618 l 1.29338,-1.81345 V 144.66022 21.574404 l -1.29338,-1.813449 c -1.72132,-2.413453 -4.94566,-3.815994 -8.80665,-3.830734 l -3.09736,-0.01222 V 144.65983 273.40166 l 3.09736,-0.0122 c 1.84725,-0.006 3.98848,-0.41653 5.30531,-1.01456 z m -35.87478,-79.50459 v -6.73335 H 122.93925 28.672212 v 6.73335 6.73336 h 94.267038 94.26703 z M 161.7234,169.14516 c 0,-7.6006 -0.0395,-7.87475 -1.32218,-9.15736 -1.22888,-1.22888 -1.70532,-1.32218 -6.75066,-1.32218 -5.86496,0 -8.6674,-0.75787 -9.65986,-2.61235 -0.95477,-1.78394 -0.66681,-3.81589 0.74015,-5.22285 1.27261,-1.27261 1.59072,-1.32173 8.48404,-1.31035 6.03606,0.0102 7.54288,0.18425 9.58586,1.10908 3.25522,1.47354 5.26589,3.45271 6.79622,6.68979 1.16978,2.47441 1.27371,3.38298 1.27854,11.17737 l 0.006,8.48404 h 4.62147 4.62146 l -0.17753,-9.83072 c -0.17652,-9.77947 -0.18649,-9.84966 -1.90197,-13.47131 -3.44864,-7.28035 -9.98266,-12.18901 -17.71221,-13.30622 -2.04931,-0.29621 -6.10045,-0.54337 -9.00252,-0.54923 -4.87675,-0.0102 -5.37669,-0.11075 -6.5987,-1.33285 -1.71408,-1.71408 -1.72137,-4.08028 -0.0183,-6.05448 l 1.30356,-1.51136 8.25783,0.077 c 7.28219,0.068 8.76695,0.24152 12.56716,1.46926 10.55674,3.41058 19.04996,12.51533 21.54461,23.09587 0.53188,2.25594 0.79686,6.34886 0.80219,12.39131 l 0.008,9.0227 h 4.57869 4.57869 V 127.66759 78.354914 l -1.32218,-1.322183 -1.32221,-1.322183 H 122.67118 49.632594 l -1.322183,1.322183 -1.322204,1.322183 v 49.312676 49.31268 h 57.368233 57.36822 z m -104.256896,1.66499 c -1.853332,-1.85334 -1.756647,-4.25158 0.252393,-6.26062 0.949224,-0.94923 2.14231,-1.57458 3.004112,-1.57458 1.740951,0 4.578689,2.66707 4.578689,4.30333 0,4.21844 -4.927461,6.43958 -7.835194,3.53187 z m 78.105756,-0.10322 c -0.7775,-0.83892 -1.32097,-2.07489 -1.32097,-3.00414 0,-2.04039 2.6027,-4.72792 4.57869,-4.72792 1.74095,0 4.57869,2.66707 4.57869,4.30333 0,4.28597 -5.0103,6.47816 -7.83641,3.42873 z m -48.523076,-4.45951 c -14.4002,-3.88444 -25.626431,-15.14091 -29.618715,-29.69848 -1.31349,-4.78957 -1.34804,-15.63276 -0.06515,-20.43825 3.318763,-12.43109 13.058044,-23.478138 24.866343,-28.205326 19.066468,-7.632843 41.204148,0.343439 51.371338,18.509286 5.84319,10.44012 6.58186,24.51789 1.87953,35.82149 -2.0385,4.90022 -5.62378,9.93833 -10.00613,14.06085 -4.80709,4.52205 -8.58249,6.8196 -14.78588,8.99803 -4.25561,1.49444 -5.46051,1.67356 -12.260763,1.82267 -6.126431,0.13437 -8.261697,-0.0289 -11.380635,-0.87027 z m 21.217356,-9.7901 c 1.55871,-0.53345 3.81679,-1.55597 5.01792,-2.27224 l 2.18388,-1.30231 -2.86323,-1.62037 c -1.57478,-0.8912 -4.15013,-2.98428 -5.72297,-4.65129 -2.7448,-2.90907 -2.94465,-3.01732 -4.97252,-2.69304 -1.16204,0.18588 -2.392644,0.67505 -2.734698,1.08718 -0.933446,1.12476 -0.284743,6.99643 1.138498,10.30486 1.21367,2.82122 1.2334,2.83665 3.17019,2.47801 1.07189,-0.1985 3.22421,-0.79733 4.78293,-1.3308 z m -17.282607,0.37742 c -0.8719,-2.27214 -1.552119,-7.76396 -1.302537,-10.51631 l 0.28625,-3.15678 -2.186164,-1.43133 -2.186164,-1.43131 -2.38147,2.31522 c -2.501058,2.43151 -4.984099,6.65086 -4.984099,8.46932 0,1.20113 3.037339,3.18633 7.995175,5.22556 3.52722,1.45081 5.184271,1.63384 4.759009,0.52563 z M 123.99214,144.1558 c 1.49277,-2.0964 4.15656,-7.95059 4.59198,-10.09172 l 0.34735,-1.708 -2.5921,0.79414 c -1.46173,0.44782 -4.70903,0.79542 -7.4464,0.79706 l -4.85429,0.002 -1.2564,2.18303 -1.25639,2.18305 2.07067,2.15849 c 1.72123,1.79423 7.58543,5.26076 8.90202,5.26229 0.20196,2.2e-4 0.87414,-0.71133 1.49356,-1.58125 z m -46.869826,-8.65304 c 3.029459,-2.95863 3.03292,-2.96575 2.538397,-5.22476 -0.416772,-1.90381 -0.747811,-2.31756 -2.09011,-2.61238 -2.173032,-0.47728 -6.075614,0.16267 -9.232114,1.51396 l -2.619244,1.12126 0.309255,2.25628 c 0.372349,2.71658 2.078953,7.38141 3.620221,9.89558 l 1.123438,1.83259 1.658272,-2.90993 c 0.912048,-1.60046 3.023392,-4.24311 4.691885,-5.8726 z m 25.658166,-1.88031 c 4.40322,-3.3585 5.08625,-9.24461 1.52959,-13.18142 -2.39263,-2.64833 -4.405741,-3.45411 -7.811947,-3.12681 -3.04139,0.29223 -4.989454,1.49267 -6.868867,4.2327 -1.695264,2.47158 -1.490451,7.45839 0.416324,10.13618 2.823589,3.96537 8.871188,4.88634 12.7349,1.93935 z m 23.39078,-10.13956 c 2.73664,-1.12083 2.95073,-1.33533 2.806,-2.81145 -0.23541,-2.401 -2.11012,-7.79442 -3.51672,-10.11741 l -1.24453,-2.05532 -2.05615,3.13266 c -1.13089,1.72295 -3.23763,4.23947 -4.68166,5.59223 -2.58468,2.42131 -2.62014,2.49884 -2.2797,4.98269 l 0.34582,2.52311 3.83214,-0.0163 c 2.70923,-0.0122 4.70025,-0.3721 6.7948,-1.22995 z m -54.176476,-4.75373 c 1.755466,-0.28475 4.421882,-0.37003 5.925363,-0.18955 l 2.733601,0.32821 1.237306,-2.20257 1.237286,-2.2026 -1.072051,-1.50555 c -2.1281,-2.98864 -8.645364,-6.62584 -10.160206,-5.67031 -1.233377,0.77801 -4.17967,6.35332 -5.190318,9.82176 l -0.84014,2.88324 1.468708,-0.37247 c 0.80779,-0.20485 2.904984,-0.60544 4.660451,-0.8902 z m 43.271816,-13.5666 c 2.06334,-4.23067 2.05772,-4.2575 -1.31876,-6.303859 -2.53315,-1.53524 -9.84591,-4.49041 -10.21023,-4.126063 -0.0562,0.05619 0.24162,1.427196 0.66173,3.046763 0.42011,1.61957 0.76383,4.919459 0.76383,7.333099 v 4.38841 l 2.02002,1.3662 2.02001,1.36622 2.48323,-2.41077 c 1.36575,-1.32591 2.97685,-3.42292 3.58017,-4.66 z m -20.946904,3.12067 1.815241,-0.36653 -0.240889,-4.38704 c -0.171424,-3.12198 -0.587687,-5.059269 -1.443545,-6.718253 -1.192882,-2.312268 -1.221039,-2.32825 -3.459689,-1.96376 -2.773199,0.451524 -9.768985,3.285964 -10.609308,4.298504 -0.493363,0.59445 -0.152897,0.977299 1.713628,1.927219 1.281119,0.65196 3.783705,2.70377 5.561302,4.55955 1.777617,1.85579 3.595627,3.29378 4.040026,3.19551 0.444399,-0.0983 1.624863,-0.3436 2.623234,-0.5452 z m 73.059734,17.07669 c -5.17932,-2.44472 -5.65874,-4.13251 -5.6442,-19.87064 0.0143,-14.532427 0.31797,-15.942012 4.06134,-18.798562 1.96822,-1.501934 2.26954,-1.559245 9.08134,-1.727574 6.58139,-0.16267 7.20528,-0.08897 9.46958,1.117757 1.51741,0.808665 2.874,2.082597 3.62717,3.406104 1.15884,2.036422 1.20346,2.627244 1.21199,16.046315 0.008,13.38744 -0.0377,14.0149 -1.18262,16.052 -2.08958,3.71788 -3.98654,4.46804 -11.73657,4.64119 -5.68916,0.12704 -7.06749,-0.008 -8.88803,-0.86659 z m 12.6587,-19.75327 V 94.02528 h -4.57866 -4.57869 v 11.58137 11.58138 h 4.57869 4.57866 z M 57.569644,92.704318 c -1.96822,-1.824097 -1.91158,-4.201026 0.149232,-6.261839 0.949225,-0.949224 2.142311,-1.574575 3.004113,-1.574575 1.889654,0 4.578688,2.689034 4.578688,4.578688 0,1.975996 -2.687528,4.578688 -4.727941,4.578688 -0.929232,0 -2.165194,-0.543467 -3.004112,-1.320962 z M 136.3593,93.3348 c -1.15947,-0.890203 -2.10801,-2.763671 -2.10801,-4.163566 0,-1.636263 2.83774,-4.30333 4.57869,-4.30333 1.71139,0 4.57869,2.656806 4.57869,4.242579 0,3.679812 -4.35753,6.291054 -7.04937,4.224317 z"
       id="path1" /></g></svg>
