<?xml version="1.0" encoding="UTF-8" standalone="no"?>
<!-- Created with Inkscape (http://www.inkscape.org/) -->

<svg
   width="1080"
   height="1080"
   viewBox="0 0 285.75 285.75001"
   version="1.1"
   id="svg1"
   xml:space="preserve"
   xmlns:inkscape="http://www.inkscape.org/namespaces/inkscape"
   xmlns:sodipodi="http://sodipodi.sourceforge.net/DTD/sodipodi-0.dtd"
   xmlns="http://www.w3.org/2000/svg"
   xmlns:svg="http://www.w3.org/2000/svg"><sodipodi:namedview
     id="namedview1"
     pagecolor="#ffffff"
     bordercolor="#000000"
     borderopacity="0.25"
     inkscape:showpageshadow="2"
     inkscape:pageopacity="0.0"
     inkscape:pagecheckerboard="0"
     inkscape:deskcolor="#d1d1d1"
     inkscape:document-units="mm" /><defs
     id="defs1" /><g
     inkscape:label="Capa 1"
     inkscape:groupmode="layer"
     id="layer1"><path
       style="fill:#000000;stroke-width:1.97621"
       d="m 49.243113,263.64773 -5.31e-4,-12.67965 -2.616371,-1.46949 c -3.360126,-1.88722 -8.927695,-7.45478 -10.814916,-10.81491 l -1.46949,-2.61636 -12.679632,-5.3e-4 -12.6796357,-5.4e-4 v -4.44441 -4.44441 H 20.239898 31.497256 l -0.146338,-6.6666 -0.146339,-6.66662 -11.111019,-0.1411 -11.1110207,-0.1411 v -4.16217 -4.16217 l 11.1110207,-0.1411 11.111019,-0.1411 0.146339,-6.6666 0.146338,-6.66662 H 20.239898 8.9825373 v -4.4444 -4.44441 H 20.224276 31.466012 v -6.79733 -6.79732 H 20.224276 8.9825373 v -4.44441 -4.44441 H 20.239898 31.497256 l -0.146338,-6.66662 -0.146339,-6.6666 -11.111019,-0.1411 -11.1110207,-0.1411 v -4.16217 -4.16219 l 11.1110207,-0.1411 11.111019,-0.1411 0.146339,-6.66662 0.146338,-6.6666 H 20.239898 8.9825373 v -4.44441 -4.44441 H 20.224276 31.466012 v -6.79738 -6.79735 H 20.224276 8.9825373 V 97.766831 93.322419 H 20.239898 31.497256 L 31.350918,86.655802 31.204579,79.989184 20.09356,79.848083 8.9825393,79.706982 v -4.16217 -4.162169 L 20.09356,71.241541 31.204579,71.10044 31.350918,64.433823 31.497256,57.767205 H 20.239898 8.9825373 v -4.444392 -4.444392 l 12.6796357,-5.33e-4 12.679632,-5.34e-4 1.46949,-2.61638 c 1.887221,-3.360126 7.45479,-8.927695 10.814916,-10.814914 l 2.616371,-1.469488 5.31e-4,-12.679644 5.32e-4,-12.6796237 h 4.444407 4.44441 V 19.874671 31.132019 l 6.666612,-0.14624 6.666611,-0.146239 0.141121,-11.11101 0.141121,-11.1110281 h 4.162174 4.162175 l 0.141121,11.1110281 0.141121,11.11101 6.666612,0.146239 6.666612,0.14624 V 19.874671 8.6173043 h 4.444407 4.444411 V 19.859039 31.100775 h 6.79733 6.79733 V 19.859039 8.6173043 h 4.44441 4.44441 V 19.874671 31.132019 l 6.66661,-0.14624 6.66661,-0.146239 0.14112,-11.11101 0.14112,-11.1110281 h 4.16218 4.16217 l 0.14112,11.1110281 0.14113,11.11101 6.66661,0.146239 6.66661,0.14624 V 19.874671 8.6173043 h 4.44441 4.44441 V 19.859039 31.100775 h 6.79733 6.79733 V 19.859039 8.6173043 h 4.4444 4.44442 V 19.874671 31.132019 l 6.66659,-0.14624 6.66662,-0.146239 0.1411,-11.11101 0.1411,-11.1110281 h 4.16217 4.16217 l 0.1411,11.1110281 0.14111,11.11101 6.66659,0.146239 6.66662,0.14624 V 19.874671 8.6173043 h 4.44441 4.44441 l 5.4e-4,12.6796237 5.3e-4,12.679644 2.61636,1.469488 c 3.36013,1.887219 8.9277,7.454788 10.81492,10.814914 l 1.46948,2.61638 12.67965,5.34e-4 12.67962,5.33e-4 v 4.444392 4.444412 H 265.43536 254.178 l 0.14624,6.666617 0.14624,6.666618 11.11103,0.141101 11.111,0.141101 v 4.16217 4.16217 l -11.111,0.141101 -11.11103,0.141101 -0.14624,6.666618 -0.14624,6.666617 h 11.25736 11.25735 v 4.444412 4.444389 h -11.24173 -11.24174 v 6.79735 6.79732 h 11.24174 11.24173 v 4.44441 4.44441 H 265.43536 254.178 l 0.14624,6.6666 0.14624,6.66662 11.11103,0.1411 11.111,0.1411 v 4.16217 4.16219 l -11.111,0.1411 -11.11103,0.1411 -0.14624,6.6666 -0.14624,6.66662 h 11.25736 11.25735 v 4.44441 4.44441 h -11.24173 -11.24174 v 6.79732 6.79733 h 11.24174 11.24173 v 4.44441 4.4444 H 265.43536 254.178 l 0.14624,6.66662 0.14624,6.6666 11.11103,0.1411 11.111,0.1411 v 4.16217 4.16217 l -11.111,0.1411 -11.11103,0.1411 -0.14624,6.66662 -0.14624,6.6666 h 11.25736 11.25735 v 4.44441 4.44441 l -12.67962,5.4e-4 -12.67965,5.3e-4 -1.46948,2.61636 c -1.88722,3.36013 -7.45479,8.9277 -10.81492,10.81491 l -2.61636,1.46949 -5.3e-4,12.67965 -5.4e-4,12.67964 h -4.44441 -4.44441 V 265.06996 253.8126 l -6.66662,0.14623 -6.66659,0.14624 -0.14111,11.11103 -0.1411,11.11103 h -4.16217 -4.16217 l -0.1411,-11.11103 -0.1411,-11.11103 -6.66662,-0.14624 -6.66659,-0.14623 v 11.25736 11.25737 h -4.44442 -4.4444 v -11.24176 -11.24173 h -6.79733 -6.79733 v 11.24173 11.24176 h -4.44441 -4.44441 V 265.06996 253.8126 l -6.66661,0.14623 -6.66661,0.14624 -0.14113,11.11103 -0.14112,11.11103 h -4.16217 -4.16218 l -0.14112,-11.11103 -0.14112,-11.11103 -6.66661,-0.14624 -6.66661,-0.14623 v 11.25736 11.25737 h -4.44441 -4.44441 v -11.24176 -11.24173 h -6.79733 -6.79733 v 11.24173 11.24176 H 98.132149 93.687742 V 265.06996 253.8126 l -6.666612,0.14623 -6.666612,0.14624 -0.141121,11.11103 -0.141121,11.11103 h -4.162175 -4.162174 l -0.141121,-11.11103 -0.141121,-11.11103 -6.666611,-0.14624 -6.666612,-0.14623 v 11.25736 11.25737 h -4.44441 -4.444407 z M 231.26136,243.50665 c 5.59986,-2.2653 10.34539,-7.01085 12.61072,-12.61071 l 1.18696,-2.93419 V 142.47226 56.982769 l -1.18696,-2.934194 c -2.26533,-5.59988 -7.01086,-10.345406 -12.61072,-12.610733 l -2.93419,-1.18697 H 142.83765 57.348155 l -2.934194,1.18697 c -5.599873,2.265327 -10.345405,7.010853 -12.610726,12.610733 l -1.186971,2.934194 -0.13541,84.686831 c -0.123809,77.43087 -0.06168,84.9124 0.725268,87.31954 1.407024,4.30386 2.669343,6.39204 5.690197,9.41289 3.037532,3.03753 4.617123,4.02538 8.85642,5.5387 2.508133,0.89532 6.920833,0.93802 87.607791,0.84785 l 84.96664,-0.0949 z M 64.577584,231.34227 c -4.385127,-0.87724 -7.872845,-3.66063 -9.797699,-7.81907 l -1.091833,-2.35878 V 142.47226 63.780093 l 1.091833,-2.358801 c 1.390873,-3.004824 4.001975,-5.615927 7.006808,-7.006802 l 2.358792,-1.091835 h 78.692165 78.69217 l 2.35881,1.091835 c 3.00482,1.390875 5.61592,4.001978 7.0068,7.006802 l 1.09183,2.358801 v 78.692167 78.69216 l -1.09183,2.35878 c -1.39088,3.00483 -4.00198,5.61593 -7.0068,7.00681 -2.35592,1.09051 -2.45335,1.09193 -79.7438,1.17033 -42.56174,0.0431 -78.367004,-0.11798 -79.567246,-0.35807 z m 155.852536,-9.07588 c 1.18114,-0.49349 1.93374,-1.27665 2.33614,-2.43093 0.84718,-2.43024 0.84718,-152.296185 0,-154.726407 -1.16539,-3.343012 3.48478,-3.159007 -79.83379,-3.159007 -55.174612,0 -76.217769,0.161258 -77.458027,0.593633 -3.343016,1.165369 -3.15901,-3.484785 -3.15901,79.833761 0,55.13622 0.161437,76.21821 0.593118,77.45654 1.150512,3.30036 -3.495912,3.11757 79.815179,3.14002 63.76642,0.0178 76.24368,-0.0964 77.70639,-0.70761 z M 71.727122,209.3998 v -4.18298 h 4.182971 4.182973 v 4.18298 4.18298 h -4.182973 -4.182971 z m 120.260458,0.0158 v -4.16737 l 6.66661,-0.14624 6.66662,-0.14623 0.14624,-6.6666 0.14624,-6.66662 h 4.16735 4.16735 v 10.9803 10.98031 h -10.98031 -10.9803 z M 71.727122,85.295143 c 0,-7.483542 0.08051,-8.146658 1.188902,-9.791396 0.653897,-0.970318 1.9828,-2.299219 2.953118,-2.953107 1.644732,-1.108395 2.307861,-1.188906 9.791399,-1.188906 h 8.027185 v 4.167348 4.167347 l -6.666612,0.146239 -6.666611,0.14624 -0.146339,6.666617 -0.146338,6.666618 H 75.894471 71.727122 Z M 205.58224,75.544694 v -4.18296 h 4.18298 4.18296 v 4.18296 4.182979 h -4.18296 -4.18298 z"
       id="path1" /></g></svg>
