<?xml version="1.0" encoding="UTF-8" standalone="no"?>
<!-- Created with Inkscape (http://www.inkscape.org/) -->

<svg
   width="1080"
   height="1080"
   viewBox="0 0 285.75 285.75001"
   version="1.1"
   id="svg1"
   xml:space="preserve"
   xmlns="http://www.w3.org/2000/svg"
   xmlns:svg="http://www.w3.org/2000/svg"><defs
     id="defs1" /><g
     id="layer1"><path
       style="fill:#000000;stroke-width:2.22928"
       d="m 53.826492,265.46127 c -1.296883,-1.38046 -1.326176,-1.68819 -1.108933,-11.64915 0.195954,-8.97878 0.381096,-10.57713 1.513525,-13.05696 1.910025,-4.18273 6.584826,-8.81551 10.912705,-10.81457 l 3.670153,-1.69528 19.611846,-0.18347 19.611872,-0.18347 V 216.13572 204.39305 L 63.652914,204.22786 C 19.735717,204.06423 19.23948,204.04929 16.541761,202.8019 12.628371,200.99242 9.2298111,197.68006 7.3417,193.83522 L 5.7020868,190.49648 V 110.86909 31.241992 L 7.3477636,27.890804 C 9.2649891,23.986666 12.096398,21.302702 16.3541,19.353464 l 3.038041,-1.39087 124.097309,0.151591 124.09729,0.151591 2.84876,1.455162 c 3.42076,1.747355 6.56153,5.084565 8.27702,8.794666 l 1.26066,2.726432 v 79.627094 79.6271 l -1.63959,3.33875 c -1.88813,3.84484 -5.28669,7.15719 -9.20006,8.96668 -2.69772,1.24739 -3.19396,1.26239 -47.11117,1.42596 l -44.38473,0.16518 v 11.74267 11.74266 l 19.61185,0.18347 19.61187,0.18347 3.6041,1.66563 c 4.31417,1.99377 8.38147,5.97135 10.66113,10.42589 1.60127,3.12891 1.66719,3.60722 1.85724,13.47529 0.19149,9.94361 0.15961,10.27109 -1.13502,11.64915 l -1.33206,1.41793 H 142.83763 55.158554 Z M 223.6444,252.22621 c 0,-6.93671 -1.23711,-9.94272 -5.25711,-12.77413 l -2.51231,-1.76949 H 142.83763 69.800287 L 67.288,239.45208 c -4.020016,2.83141 -5.25711,5.83742 -5.25711,12.77413 v 5.80554 h 80.80674 80.80677 z M 168.20035,216.1538 v -11.79662 h -25.36272 -25.36269 v 11.79662 11.7966 h 25.36269 25.36272 z m 97.72977,-22.38218 c 3.91564,-1.77771 4.9007,-4.3283 4.9007,-12.68924 v -6.80652 H 142.83763 14.844454 v 6.80652 c 0,8.30231 0.895502,10.63037 4.840079,12.58288 l 2.532797,1.25371 120.6203,-0.0134 c 117.29458,-0.0111 120.68848,-0.0435 123.09249,-1.13486 z m 4.9007,-94.611914 V 33.480835 l -1.32712,-1.949929 c -0.72991,-1.072462 -2.07648,-2.505198 -2.9924,-3.183835 l -1.66528,-1.233907 H 142.83763 20.829269 l -1.665295,1.233907 c -0.9159,0.678637 -2.262474,2.111373 -2.992385,3.183835 l -1.327135,1.949929 V 99.159706 164.83855 H 142.83763 270.83082 Z"
       id="path1" /></g></svg>
