<?xml version="1.0" encoding="UTF-8" standalone="no"?>
<!-- Created with Inkscape (http://www.inkscape.org/) -->

<svg
   width="1080"
   height="1080"
   viewBox="0 0 285.75 285.75001"
   version="1.1"
   id="svg1"
   xml:space="preserve"
   sodipodi:docname="gabinete.svg"
   xmlns:inkscape="http://www.inkscape.org/namespaces/inkscape"
   xmlns:sodipodi="http://sodipodi.sourceforge.net/DTD/sodipodi-0.dtd"
   xmlns="http://www.w3.org/2000/svg"
   xmlns:svg="http://www.w3.org/2000/svg"><sodipodi:namedview
     id="namedview1"
     pagecolor="#ffffff"
     bordercolor="#000000"
     borderopacity="0.25"
     inkscape:showpageshadow="2"
     inkscape:pageopacity="0.0"
     inkscape:pagecheckerboard="0"
     inkscape:deskcolor="#d1d1d1" /><defs
     id="defs1" /><path
     style="fill:#000000;stroke-width:2.09059"
     d="m 31.802287,227.42393 c -2.275291,-1.14297 -2.413919,-2.44266 -2.413919,-22.63218 v -19.3337 h -5.844283 c -3.214365,0 -6.299553,-0.24366 -6.856004,-0.54146 -1.982192,-1.06083 -2.234358,-3.50923 -2.234358,-21.69395 0,-18.48378 0.208222,-20.23395 2.51389,-21.11866 0.49246,-0.18899 3.488609,-0.34361 6.658067,-0.34361 h 5.762688 v -5.53134 -5.53135 h -5.844283 c -3.214365,0 -6.299553,-0.24365 -6.856004,-0.54145 -1.97613,-1.0576 -2.234358,-3.5202 -2.234358,-21.30739 0,-17.787176 0.258228,-20.249786 2.234358,-21.307373 0.556451,-0.297804 3.641639,-0.541462 6.856004,-0.541462 h 5.844283 V 71.235666 55.471306 H 16.91769 4.446993 L 3.0893016,54.113615 C 0.63888012,51.663195 1.7733592,47.740204 5.1796609,46.885279 5.8746563,46.710924 13.121745,46.64229 21.284283,46.732875 c 18.625164,0.206759 16.954239,-1.01427 16.954239,12.38998 v 9.613532 l 117.402948,0.143416 117.4029,0.143414 2.76569,1.471733 c 3.29622,1.754067 5.7679,4.261457 7.54597,7.655006 l 1.30418,2.489096 v 55.590078 55.59008 l -1.47172,2.76567 c -1.88113,3.53502 -4.44328,5.97667 -7.93157,7.55862 -2.26757,1.02836 -3.98602,1.29276 -9.54159,1.46805 l -6.77589,0.21382 v 9.54839 c 0,8.8223 -0.0872,9.65922 -1.14641,11.00582 l -1.14642,1.45743 h -56.89263 -56.89263 l -1.14641,-1.45743 c -1.05982,-1.34737 -1.14642,-2.18285 -1.14642,-11.0627 v -9.60526 h -7.46731 -7.46734 v 9.86001 c 0,9.59137 -0.035,9.89276 -1.28018,11.0627 l -1.28023,1.20268 H 90.375998 57.678555 l -1.146416,-1.45743 c -1.059844,-1.34737 -1.146417,-2.18285 -1.146417,-11.0627 v -9.60526 h -8.57361 -8.57359 v 10.72485 c 0,9.40125 -0.119373,10.86874 -0.967984,11.89074 -1.152647,1.38828 -3.82212,1.92372 -5.468251,1.09682 z M 75.851713,213.6254 c 0,-2.9777 0.184599,-3.54594 1.616862,-4.97822 1.759502,-1.75951 2.599355,-1.94034 4.657163,-1.00273 1.811558,0.82539 2.576129,2.70294 2.576129,6.32608 v 3.01622 h 5.807929 5.807907 l 0.008,-2.90396 c 0.01042,-3.51049 0.890381,-5.4219 2.953338,-6.41104 1.244129,-0.59655 1.866549,-0.60873 3.185479,-0.0626 2.19476,0.9091 2.70322,2.04184 2.70322,6.02225 v 3.35517 h 6.08447 6.0845 v -6.63762 -6.63762 H 90.786151 64.235668 v 6.63762 6.63762 h 5.807909 5.807928 z m 82.987877,-0.0957 c 0.0187,-3.59498 0.53466,-4.77 2.57342,-5.85585 1.86776,-0.99476 2.88807,-0.78083 4.64228,0.97338 1.43231,1.43228 1.61686,2.00052 1.61686,4.97822 v 3.36135 h 4.70163 4.70165 v -3.36135 c 0,-2.9777 0.1846,-3.54594 1.61686,-4.97822 0.88929,-0.88928 2.15298,-1.61686 2.80823,-1.61686 0.65525,0 1.91896,0.72758 2.80822,1.61686 1.43231,1.43228 1.61687,2.00052 1.61687,4.97822 v 3.36135 h 4.70163 4.70165 v -3.36135 c 0,-2.9777 0.18461,-3.54594 1.61687,-4.97822 0.88926,-0.88928 2.15297,-1.61686 2.80822,-1.61686 0.65526,0 1.91895,0.72758 2.80822,1.61686 1.43231,1.43228 1.61686,2.00052 1.61686,4.97822 v 3.36135 h 4.70166 4.70164 v -3.36135 c 0,-2.9777 0.18459,-3.54594 1.61686,-4.97822 1.75421,-1.75421 2.77451,-1.96814 4.64226,-0.97338 2.03877,1.08585 2.55515,2.26087 2.57344,5.85585 l 0.0166,3.4571 h 4.70165 4.70164 v -3.24422 c 0,-2.39802 0.28627,-3.60813 1.09754,-4.63948 1.92305,-2.44477 5.12814,-2.40296 7.04361,0.0917 0.37062,0.48273 0.68176,2.43334 0.69142,4.33473 l 0.0167,3.4571 h 4.70165 4.70164 v -6.63762 -6.63761 h -50.33523 -50.33528 v 6.63761 6.63762 h 4.70163 4.70165 z m 113.34098,-19.67903 c 1.03652,-0.55589 2.33942,-1.85879 2.89533,-2.89532 0.95866,-1.78757 1.01072,-4.60603 1.01072,-54.72627 0,-50.120244 -0.052,-52.938713 -1.01072,-54.726272 -0.55591,-1.036515 -1.85881,-2.339432 -2.89533,-2.895319 -1.80806,-0.969718 -6.5971,-1.010756 -117.91332,-1.010756 H 38.238522 v 58.632307 58.63232 H 154.26725 c 111.31622,0 116.10526,-0.041 117.91332,-1.01073 z M 93.246941,187.104 c -7.205299,-0.90224 -16.302728,-4.34203 -22.373444,-8.45954 -3.661959,-2.48373 -10.287727,-9.0227 -12.992949,-12.82274 -6.380688,-8.96295 -9.299693,-18.24404 -9.307303,-29.59273 -0.0084,-11.1308 3.076093,-20.89737 9.392557,-29.7491 14.287086,-20.021576 41.189334,-27.15958 63.080238,-16.737177 14.4236,6.867188 24.22381,18.576877 28.22601,33.725557 1.9205,7.26932 2.02124,17.41158 0.24415,24.58509 -6.2855,25.37233 -30.62251,42.26211 -56.269259,39.05064 z m 6.48455,-12.17279 c 3.106789,-5.13809 4.331849,-9.57923 4.321649,-15.66709 -0.004,-2.78203 -0.1913,-5.33082 -0.41486,-5.66394 -0.2235,-0.33314 -1.27756,-0.49776 -2.34235,-0.36582 -1.647689,0.20425 -2.265455,0.73398 -4.148518,3.55793 -3.681168,5.52047 -10.939693,11.37015 -16.768926,13.51416 -1.424945,0.52408 -2.808518,1.14192 -3.074608,1.37293 -0.637045,0.55309 6.303044,4.02611 10.460305,5.23466 3.20019,0.93032 8.342869,1.85145 9.322019,1.6697 0.27057,-0.0501 1.460948,-1.69387 2.645289,-3.65253 z m 15.320569,0.77046 c 3.62613,-1.34469 8.5079,-4.14624 11.38909,-6.53597 l 1.63698,-1.35775 -0.7135,-3.48224 c -1.0595,-5.1709 -3.5897,-9.97794 -7.39061,-14.04113 -4.50616,-4.81709 -5.16823,-5.13833 -6.9395,-3.36706 -1.34849,1.34849 -1.37557,1.51125 -0.76049,4.57383 1.45064,7.22328 0.37101,16.96276 -2.63317,23.75417 l -1.09469,2.47474 1.49139,-0.35604 c 0.82026,-0.19591 3.07679,-0.94398 5.0145,-1.66255 z M 72.780533,163.5935 c 5.447929,-1.41899 10.417886,-4.40694 14.463428,-8.69545 l 3.657757,-3.8774 -1.578792,-1.31732 c -1.156952,-0.96535 -2.022206,-1.24282 -3.238218,-1.03853 -0.912667,0.15325 -4.197172,0.44 -7.298873,0.63703 -6.480598,0.41167 -10.587602,-0.21888 -16.619432,-2.55156 l -4.005464,-1.54902 0.339239,1.46009 c 1.358256,5.84594 8.123361,17.77757 10.079692,17.77757 0.525219,0 2.415509,-0.38042 4.200663,-0.84541 z m 66.187647,-11.60011 c 0.95151,-2.4338 2.07873,-6.41191 2.50493,-8.84021 0.89493,-5.09884 0.93824,-5.02639 -4.77652,-7.98856 -4.6944,-2.43323 -8.52577,-3.36068 -13.88355,-3.36068 -6.18436,0 -6.37979,0.0849 -6.13364,2.66597 0.16934,1.7765 0.56405,2.32091 2.62969,3.62773 5.99947,3.79555 11.77321,10.77699 14.64715,17.71082 l 1.30871,3.1575 0.98658,-1.27375 c 0.54266,-0.70057 1.76514,-3.26505 2.71665,-5.69882 z m -35.67068,-8.36523 c 5.68069,-2.69567 6.11254,-10.88497 0.76411,-14.48985 -3.84775,-2.59338 -9.814678,-0.80504 -11.88733,3.56275 -3.326565,7.01022 4.068394,14.27482 11.12322,10.9271 z m -21.032151,-3.39737 c 0.333135,-0.22351 0.498416,-1.28985 0.367294,-2.36961 -0.196724,-1.62044 -0.683435,-2.2448 -2.786964,-3.57559 -5.675552,-3.59062 -12.104782,-11.3825 -14.286626,-17.3146 -0.524091,-1.42493 -1.13565,-2.80225 -1.35903,-3.0607 -1.120032,-1.2959 -5.672039,9.89628 -6.481203,15.93556 -0.488508,3.64614 -0.480333,3.68187 1.155427,5.05826 2.242533,1.88697 6.440541,3.95672 9.933037,4.89729 3.052679,0.82214 12.426902,1.12121 13.458065,0.42939 z m 57.769471,-17.06617 c -1.53244,-4.74336 -2.86512,-7.37342 -5.92269,-11.68838 -1.81459,-2.56084 -2.78581,-3.4571 -3.74629,-3.4571 -2.29682,0 -8.79222,2.27049 -11.95163,4.17773 -2.94383,1.7771 -9.37439,7.92344 -9.37439,8.96004 0,0.27378 0.61436,1.07494 1.36527,1.78036 1.29023,1.2121 1.53843,1.2478 4.51731,0.64955 7.33479,-1.47303 16.8078,-0.45688 23.43359,2.51371 1.369,0.61377 2.57778,1.04306 2.68616,0.95401 0.10829,-0.0891 -0.34494,-1.83953 -1.00733,-3.88992 z m -53.706977,2.31387 c 1.200898,-1.27829 1.234138,-1.52833 0.649547,-4.88525 -1.3468,-7.73395 -0.339052,-16.6127 2.653417,-23.377676 0.601337,-1.359405 0.902026,-2.471662 0.668195,-2.471662 -0.233833,0 -2.264422,0.625588 -4.512433,1.39018 -4.07945,1.387503 -9.88347,4.587878 -12.924984,7.126898 -1.601747,1.33715 -1.60505,1.35285 -0.961023,4.57108 1.107992,5.53663 4.056349,10.91628 8.318831,15.17879 2.098199,2.09818 4.046167,3.81487 4.328837,3.81487 0.282668,0 1.083489,-0.60624 1.779613,-1.34723 z m 15.139037,-8.86156 c 3.82247,-6.042 9.70676,-10.99013 17.02955,-14.32023 l 4.04757,-1.84064 -2.62601,-1.538945 c -3.19281,-1.871119 -11.21538,-4.471101 -15.12691,-4.902369 l -2.86591,-0.315971 -1.77303,2.763006 c -3.218071,5.014909 -4.531105,9.091769 -4.820651,14.967699 -0.363219,7.37104 -0.154705,8.01423 2.514556,7.75965 1.80318,-0.17204 2.346505,-0.5579 3.620835,-2.5722 z m 108.5201,70.72553 c -7.57191,-1.0572 -12.74195,-2.59452 -18.53002,-5.50995 -13.03473,-6.56549 -23.09435,-19.32386 -26.63393,-33.77911 -1.67502,-6.84064 -1.67502,-16.8081 0,-23.64875 4.62125,-18.87266 19.10824,-33.365 38.04123,-38.055278 7.17349,-1.777105 17.31575,-1.676382 24.5851,0.244138 18.46939,4.879498 32.55605,19.2343 37.10485,37.81114 1.67503,6.84065 1.67503,16.80811 0,23.64875 -5.46132,22.30353 -24.73877,38.20648 -47.60698,39.27343 -2.91546,0.1361 -6.04759,0.143 -6.96025,0.0146 z m 4.16642,-11.31562 c 3.4589,-5.39021 4.57404,-9.04111 4.80659,-15.73643 0.11624,-3.34647 0.0125,-6.35706 -0.23233,-6.69019 -0.24401,-0.33314 -1.32713,-0.49843 -2.40689,-0.36731 -1.62044,0.19673 -2.24479,0.68343 -3.57557,2.78695 -3.59063,5.67555 -11.38251,12.10478 -17.31462,14.28663 -1.42493,0.52408 -2.79395,1.12737 -3.04225,1.34059 -1.26259,1.08426 9.99262,5.67964 16.10699,6.57635 1.73308,0.25415 3.3118,0.49245 3.50826,0.52953 0.19652,0.0371 1.16388,-1.18964 2.14982,-2.72612 z m 16.31815,-0.5276 c 4.15553,-1.63175 5.70871,-2.49907 9.82132,-5.48445 3.0897,-2.24282 3.17497,-2.8551 1.21226,-8.70194 -1.80472,-5.37615 -4.23864,-9.11198 -8.50566,-13.0553 l -3.44396,-3.18272 -1.42007,1.68767 c -1.3579,1.61377 -1.39274,1.82381 -0.79582,4.79608 1.43725,7.15664 0.34622,16.92109 -2.64665,23.68698 l -1.09469,2.47474 1.49138,-0.34668 c 0.82025,-0.19066 3.24211,-1.03415 5.38189,-1.87438 z m -42.72236,-11.884 c 5.22731,-1.36153 9.75156,-3.99942 13.79582,-8.04367 2.05719,-2.05717 3.73249,-4.07721 3.72295,-4.48895 -0.0105,-0.41177 -0.64687,-1.20719 -1.4162,-1.76761 -1.24291,-0.90542 -1.78538,-0.95164 -4.86785,-0.41486 -7.68714,1.33867 -16.18235,0.3679 -23.15303,-2.64575 -1.44504,-0.62475 -2.62738,-0.91066 -2.62738,-0.63539 0,1.09792 2.98667,8.73678 4.33053,11.07601 2.37481,4.13378 5.25626,7.74389 6.18089,7.74389 0.47959,0 2.295,-0.37063 4.03427,-0.82367 z m 66.27108,-11.62185 c 0.95151,-2.4338 2.07872,-6.41191 2.50493,-8.84021 0.89494,-5.09884 0.93826,-5.02639 -4.77653,-7.98856 -4.69437,-2.43323 -8.52574,-3.36068 -13.88353,-3.36068 -6.18437,0 -6.37978,0.0849 -6.13363,2.66597 0.16933,1.7765 0.56404,2.32091 2.62969,3.62773 6.0442,3.82386 11.7919,10.79525 14.59555,17.70303 l 1.31116,3.23043 1.01117,-1.30632 c 0.55614,-0.71847 1.78969,-3.29762 2.74119,-5.73139 z m -34.49228,-9.02787 c 3.4963,-2.48958 4.46088,-8.2234 1.95804,-11.63962 -2.49706,-3.40835 -8.33221,-4.36301 -11.67853,-1.91069 -4.85884,3.56076 -4.22905,11.48843 1.12986,14.22228 2.36852,1.2083 6.39201,0.89358 8.59063,-0.67197 z m -22.21055,-2.73473 c 0.33412,-0.22417 0.49771,-1.29622 0.36481,-2.39094 -0.17583,-1.44914 -0.66301,-2.2339 -1.80546,-2.90875 -5.94438,-3.51146 -11.57501,-9.99424 -14.91763,-17.17533 l -2.03333,-4.36831 -1.19489,1.93338 c -1.8793,3.04076 -4.02135,9.17137 -4.85947,13.90795 -0.7559,4.2719 -0.74858,4.355 0.47354,5.36983 2.12604,1.76546 7.31657,4.34389 10.43018,5.18123 3.11979,0.83902 12.49835,1.1513 13.54225,0.45094 z m 57.47312,-17.83124 c -1.39453,-4.10004 -4.54952,-9.87069 -7.09831,-12.98316 l -1.34708,-1.64498 -3.52102,0.71956 c -5.04844,1.03173 -10.16019,3.73442 -14.18689,7.50088 -4.69776,4.39419 -5.02414,5.07516 -3.27208,6.82722 1.36516,1.36515 1.44288,1.3756 5.10122,0.68531 7.30258,-1.37788 18.27482,0.0166 24.04795,3.05695 0.76056,0.4005 1.44821,0.55219 1.52809,0.3371 0.0798,-0.2151 -0.48346,-2.23958 -1.25188,-4.49888 z m -53.3937,3.06095 c 1.21212,-1.29024 1.2478,-1.53848 0.64956,-4.51736 -1.44568,-7.19859 -0.36236,-16.94815 2.6365,-23.727576 0.60134,-1.359405 0.88228,-2.471662 0.6243,-2.471662 -0.25798,0 -2.24952,0.602382 -4.42566,1.338605 -3.94445,1.334506 -9.91046,4.607743 -12.97568,7.119063 l -1.6151,1.32326 0.65406,3.26828 c 1.11557,5.57427 4.05464,10.94571 8.32666,15.21774 2.0982,2.09818 4.04617,3.81487 4.32883,3.81487 0.28268,0 1.09111,-0.61436 1.79653,-1.36522 z m 15.12212,-8.84357 c 3.79846,-6.00403 9.64395,-10.93588 17.00077,-14.3435 l 4.00894,-1.85688 -2.49015,-1.459315 c -3.30187,-1.93505 -9.39072,-3.969946 -14.07125,-4.702635 -4.38449,-0.686341 -4.47213,-0.626654 -7.41128,5.048856 -2.28201,4.406504 -3.29247,8.715834 -3.29247,14.041444 0,5.86696 0.0999,6.08596 2.66596,5.84125 1.76707,-0.1685 2.32193,-0.56568 3.58948,-2.56922 z M 29.388368,163.30375 V 149.9996 l -2.903953,0.16724 -2.903975,0.16724 -0.148223,13.13695 -0.148223,13.13697 h 3.052261 3.052259 z m 0,-54.45491 V 95.85018 h -3.042246 -3.042247 v 12.99866 12.99867 h 3.042247 3.042246 z"
     id="path1" /></svg>
