<?xml version="1.0" encoding="UTF-8" standalone="no"?>
<!-- Created with Inkscape (http://www.inkscape.org/) -->

<svg
   width="1080"
   height="1080"
   viewBox="0 0 285.75 285.75001"
   version="1.1"
   id="svg1"
   xml:space="preserve"
   inkscape:export-filename="mother.png"
   inkscape:export-xdpi="96"
   inkscape:export-ydpi="96"
   inkscape:version="1.3.2 (091e20e, 2023-11-25, custom)"
   sodipodi:docname="mother.svg"
   xmlns:inkscape="http://www.inkscape.org/namespaces/inkscape"
   xmlns:sodipodi="http://sodipodi.sourceforge.net/DTD/sodipodi-0.dtd"
   xmlns="http://www.w3.org/2000/svg"
   xmlns:svg="http://www.w3.org/2000/svg"><sodipodi:namedview
     id="namedview1"
     pagecolor="#ffffff"
     bordercolor="#000000"
     borderopacity="0.25"
     inkscape:showpageshadow="2"
     inkscape:pageopacity="0.0"
     inkscape:pagecheckerboard="0"
     inkscape:deskcolor="#d1d1d1"
     inkscape:document-units="mm"
     inkscape:zoom="0.36213173"
     inkscape:cx="397.64535"
     inkscape:cy="766.29573"
     inkscape:window-width="1920"
     inkscape:window-height="1009"
     inkscape:window-x="1432"
     inkscape:window-y="-8"
     inkscape:window-maximized="1"
     inkscape:current-layer="layer1" /><defs
     id="defs1" /><g
     inkscape:label="Capa 1"
     inkscape:groupmode="layer"
     id="layer1"><path
       style="fill:#000000;stroke-width:2.04019"
       d="m 20.598324,266.37139 -1.582021,-1.58202 v -44.57502 -44.57499 h -6.772036 c -6.4703282,0 -6.8310642,-0.059 -8.0969976,-1.32496 l -1.3249636,-1.32498 v -23.17611 c 0,-22.00462 0.052107,-23.24057 1.0306747,-24.4505 0.9727398,-1.20271 1.4278827,-1.28434 8.0969985,-1.45218 l 7.066324,-0.17791 v -2.92602 -2.92599 h -6.772036 c -6.4703282,0 -6.8310642,-0.059 -8.0969976,-1.32497 -0.7287308,-0.72873 -1.3249636,-1.95432 -1.3249636,-2.72352 0,-0.76921 0.5962328,-1.99482 1.3249636,-2.72355 1.2659334,-1.26591 1.6266694,-1.32496 8.0969976,-1.32496 h 6.772036 v -2.9689 -2.96888 h -6.234507 c -6.4672059,0 -8.9229827,-0.62601 -9.624177,-2.45329 C 2.9731858,100.91203 2.8223058,90.203982 2.8223058,77.596943 V 54.675056 l 1.3249636,-1.324959 c 1.2659334,-1.265938 1.6266694,-1.324959 8.0969976,-1.324959 h 6.772036 v -2.968904 -2.968903 h -5.902658 c -3.2464632,0 -6.5666794,-0.252452 -7.3782575,-0.561011 -2.9644353,-1.127081 -3.7123174,-3.675317 -1.794303,-6.11369 1.1055549,-1.405486 1.2012582,-1.422297 8.0969985,-1.422297 h 6.97822 V 29.851817 21.7133 l 1.61508,-1.615095 1.61508,-1.615075 8.690007,0.172192 c 8.38179,0.166072 8.726564,0.217362 9.720716,1.446514 1.396153,1.726163 1.305894,3.946827 -0.21863,5.37904 -1.129006,1.060653 -1.830915,1.173701 -7.287298,1.173701 H 27.113301 V 143.25134 259.84811 H 127.15208 227.19086 l 1.1737,1.24933 c 1.44862,1.542 1.50421,3.62087 0.14179,5.30341 l -1.03189,1.27435 -102.64706,0.13914 -102.647073,0.13914 z M 19.016303,149.72896 v -17.81339 h -4.048499 -4.0485 v 17.81339 17.8134 h 4.0485 4.048499 z m 0,-71.793367 V 60.122197 h -4.048499 -4.0485 V 77.935593 95.74899 h 4.0485 4.048499 z M 242.68997,267.32553 c -1.15081,-0.56896 -2.35573,-2.57464 -2.35573,-3.92131 0,-0.39133 0.50344,-1.35154 1.11879,-2.1338 l 1.11877,-1.42229 h 14.26551 14.26553 V 143.25136 26.654597 H 163.20267 c -104.056701,0 -107.943966,-0.0355 -109.129542,-0.995469 -1.781174,-1.442312 -1.665749,-4.198036 0.244666,-5.841306 l 1.474036,-1.267896 110.67212,0.138733 110.67211,0.138733 1.03189,1.274342 c 1.00916,1.246291 1.03188,3.957171 1.03188,123.149506 0,119.16833 -0.0228,121.90346 -1.03131,123.14951 l -1.03131,1.27435 -16.64712,0.11017 c -10.82057,0.0716 -17.05069,-0.0894 -17.80012,-0.45987 z M 42.227695,250.13174 c -1.049919,-1.04993 -1.079601,-1.79935 -1.079601,-27.2599 0,-25.46057 0.02969,-26.20997 1.079601,-27.25989 1.018346,-1.01834 1.799334,-1.07961 13.764898,-1.07961 11.965562,0 12.746549,0.0612 13.764895,1.07961 1.049805,1.04979 1.0796,1.79932 1.0796,27.1581 0,25.49844 -0.02448,26.10479 -1.100627,27.25991 -1.071825,1.15045 -1.432053,1.18136 -13.764897,1.18136 -11.944535,0 -12.725625,-0.0614 -13.743869,-1.07958 z m 20.512394,-27.2599 v -20.78229 h -6.747496 -6.7475 v 20.78229 20.7823 h 6.7475 6.747496 z m 18.571809,27.20322 c -0.981333,-1.08436 -1.028312,-2.32716 -1.028312,-27.20322 0,-24.87607 0.04698,-26.11886 1.028312,-27.20321 0.990472,-1.09447 1.500513,-1.13629 13.860667,-1.13629 h 12.832365 l 1.11877,1.4223 c 1.09598,1.3933 1.11878,1.94206 1.11878,26.9172 0,24.97513 -0.0228,25.5239 -1.11878,26.91719 l -1.11877,1.42229 H 95.172565 c -12.360154,0 -12.870195,-0.0419 -13.860667,-1.13626 z m 20.563692,-27.20322 v -20.51239 h -6.747509 -6.747497 l -0.141732,19.97045 c -0.07796,10.98375 -0.02197,20.28258 0.124411,20.66403 0.201285,0.52453 1.88054,0.65664 6.889235,0.54194 l 6.623092,-0.15159 z m 39.924,27.58104 c -0.74482,-0.54461 -1.1163,-1.64792 -1.31772,-3.91355 l -0.2805,-3.15511 -4.43628,-0.2699 c -5.03961,-0.3066 -6.26975,-1.05969 -6.26975,-3.83833 0,-1.2142 0.43847,-2.10767 1.46957,-2.99458 1.25645,-1.08075 2.05233,-1.26409 5.48796,-1.26409 h 4.0184 v -2.92971 c 0,-2.52208 0.1979,-3.08539 1.4223,-4.0485 1.41568,-1.11355 1.65535,-1.11879 51.47809,-1.11879 49.82273,0 50.06241,0.006 51.47807,1.11879 1.2244,0.96311 1.4223,1.52642 1.4223,4.0485 v 2.92971 h 4.01839 c 3.43154,0 4.23227,0.18404 5.48271,1.25955 1.07698,0.92636 1.45083,1.7334 1.41338,3.0508 -0.08,2.81024 -1.17909,3.48069 -6.20829,3.78665 l -4.43629,0.2699 -0.28048,3.15511 c -0.20137,2.26563 -0.57292,3.36894 -1.31773,3.91355 -1.55166,1.13462 -101.59247,1.13462 -103.14413,0 z m 96.37544,-11.11715 v -4.31841 h -44.80337 -44.80339 v 4.31841 4.31841 h 44.80339 44.80337 z m -96.28146,-21.63118 c -1.2182,-0.95821 -1.4223,-1.531 -1.4223,-3.99135 v -2.87256 l -4.30688,-0.19565 c -4.97014,-0.22571 -6.66905,-1.30401 -6.66905,-4.23284 0,-2.72123 1.25378,-3.47772 6.26975,-3.78289 l 4.43628,-0.26989 0.2805,-3.15512 c 0.20142,-2.26563 0.5729,-3.36892 1.31772,-3.91355 1.55166,-1.13459 101.59247,-1.13459 103.14413,0 0.74481,0.54463 1.1163,1.64792 1.31773,3.91355 l 0.28048,3.15512 4.43629,0.26989 c 5.00778,0.30468 6.12846,0.97878 6.20678,3.73346 0.0849,2.98242 -1.56741,4.05345 -6.60607,4.28227 l -4.3069,0.19565 v 2.87256 c 0,2.46035 -0.2041,3.03314 -1.4223,3.99135 -1.41566,1.11358 -1.65534,1.11878 -51.47807,1.11878 -49.82274,0 -50.06241,-0.006 -51.47809,-1.11878 z m 96.28146,-11.2966 v -4.3184 h -44.80337 -44.80339 v 4.3184 4.31838 h 44.80339 44.80337 z M 42.321791,183.56662 c -1.660783,-1.76783 -1.550298,-4.31386 0.2486,-5.7289 1.617077,-1.27197 6.222376,-1.54766 8.502119,-0.50894 1.78593,0.81372 2.704917,3.07561 2.001397,4.92599 -0.752664,1.97966 -2.144102,2.56117 -6.12833,2.56117 -2.908397,0 -3.634373,-0.19605 -4.623786,-1.24932 z m 20.793224,0.64955 c -1.491629,-0.86775 -2.153794,-3.11002 -1.432593,-4.85116 0.906471,-2.18843 2.957118,-2.77903 8.903209,-2.56423 4.701763,0.16995 5.306175,0.31156 6.23755,1.46242 1.336242,1.65115 1.30715,3.35749 -0.08746,5.13045 -1.08555,1.38006 -1.289964,1.42181 -6.882448,1.4059 -3.170018,-0.008 -6.202228,-0.27156 -6.738245,-0.58338 z m 23.916069,-0.47981 c -1.607339,-1.60734 -1.439471,-4.49678 0.342698,-5.89864 2.106922,-1.6573 7.158282,-1.57965 9.158402,0.14078 1.854827,1.59544 1.946377,4.46467 0.187882,5.8886 -1.765011,1.4292 -8.216069,1.34218 -9.688982,-0.13079 z m 99.353286,-5.3679 c -1.5671,-1.56711 -1.7276,-3.41056 -1.54596,-17.75709 0.16542,-13.06433 0.17356,-13.14451 1.4407,-14.16974 1.65255,-1.33706 4.10934,-1.31527 5.47315,0.0485 1.02692,1.02691 1.0796,1.79932 1.0796,15.83 0,14.72048 -0.002,14.75277 -1.24935,15.92409 -1.54957,1.45574 -3.81252,1.50981 -5.19814,0.12424 z m 14.09879,-0.19973 c -1.14565,-1.21948 -1.1737,-1.60012 -1.1737,-15.92411 0,-13.95503 0.0528,-14.72771 1.07961,-15.75435 1.45439,-1.45442 4.37708,-1.42599 5.71918,0.0555 0.94387,1.04198 1.04161,2.24892 1.19041,14.69958 0.0892,7.4604 0.0222,14.12159 -0.14874,14.80263 -0.81297,3.23916 -4.51096,4.41546 -6.66682,2.12066 z m 14.18606,-0.0757 -1.32497,-1.32496 v -14.50504 c 0,-14.46401 0.004,-14.50835 1.24935,-15.67873 1.76782,-1.6608 4.31385,-1.5503 5.72886,0.2486 1.06772,1.35735 1.11879,2.07323 1.11879,15.67873 v 14.25644 l -1.32497,1.32496 c -0.72871,0.72874 -1.95432,1.32497 -2.72353,1.32497 -0.76921,0 -1.99481,-0.59623 -2.72353,-1.32497 z m 14.25409,0.29377 -1.27437,-1.03117 -0.15913,-14.51941 c -0.15445,-14.09405 -0.12567,-14.56197 0.98384,-15.97252 1.42606,-1.81295 4.30204,-1.9943 5.92285,-0.37349 1.02711,1.02711 1.07961,1.79932 1.07961,15.88491 v 14.80531 l -1.4223,1.11879 c -1.77292,1.39459 -3.47925,1.42372 -5.13046,0.0875 z m -109.25887,-2.45295 -1.32496,-1.32499 v -12.09723 c 0,-11.42109 0.0626,-12.17673 1.11877,-13.51954 l 1.11879,-1.4223 h 26.31691 26.31692 l 1.1737,1.24936 c 1.134,1.20707 1.17369,1.66436 1.17369,13.51952 v 12.27019 l -1.32496,1.32499 -1.32497,1.32495 h -25.95946 -25.95946 z m 47.79683,-13.51954 v -6.74752 h -20.5124 -20.5124 v 6.74752 6.74749 h 20.5124 20.5124 z m -124.890879,7.24814 c -1.966963,-1.54722 -1.966963,-4.31223 0,-5.85945 1.075777,-0.8462 2.202288,-1.11878 4.623786,-1.11878 3.739829,0 5.137436,0.60879 5.87973,2.56118 0.709039,1.86491 -0.317938,4.37951 -2.058952,5.04143 -2.42857,0.92334 -6.89697,0.59295 -8.444564,-0.62438 z m 20.930297,0.59391 c -2.600952,-1.0518 -2.786656,-5.65913 -0.282123,-6.99951 0.588472,-0.31495 3.52606,-0.57263 6.527973,-0.57263 5.075204,0 5.550953,0.0929 6.782984,1.32496 1.688642,1.68865 1.688642,3.75844 0,5.44709 -1.232186,1.23217 -1.695206,1.32254 -6.612547,1.29074 -2.908172,-0.0183 -5.7955,-0.23963 -6.416287,-0.49065 z m 23.873094,-0.59391 c -1.859177,-1.46244 -1.939118,-4.14533 -0.172968,-5.80455 1.001021,-0.9404 1.904221,-1.17368 4.544151,-1.17368 4.17028,0 4.961461,0.31824 5.810306,2.33706 0.8815,2.09644 0.16298,4.31067 -1.669768,5.14574 -2.288147,1.04254 -6.891827,0.76964 -8.511731,-0.50457 z M 51.561621,151.60777 c -1.719349,-0.72292 -2.316528,-1.70567 -2.316528,-3.81221 0,-1.22238 -0.188717,-1.30535 -2.968899,-1.30535 -2.249165,0 -3.23062,-0.26172 -4.048499,-1.07961 -1.064287,-1.06428 -1.079601,-1.79932 -1.079601,-51.820783 0,-50.021445 0.0153,-50.756484 1.079601,-51.820769 0.817879,-0.817891 1.799334,-1.079607 4.048499,-1.079607 2.93891,0 2.968899,-0.01632 2.968899,-1.6194 0,-3.609603 4.734778,-5.208376 6.97822,-2.356295 0.615329,0.78225 1.118779,1.996794 1.118779,2.698987 0,1.185594 0.209098,1.276708 2.92972,1.276708 2.522083,0 3.085386,0.197899 4.0485,1.422297 1.113569,1.415667 1.118778,1.655349 1.118778,51.478079 0,49.822743 -0.0053,50.062413 -1.118778,51.478083 -0.963114,1.22441 -1.526417,1.42231 -4.0485,1.42231 -2.720622,0 -2.92972,0.0912 -2.92972,1.2767 0,1.53478 -1.740392,3.88585 -3.149236,4.25427 -0.558844,0.14608 -1.7429,-0.0397 -2.631235,-0.41341 z M 57.342092,93.859714 V 48.786399 h -4.0485 -4.048499 v 45.073274 45.073287 h 4.048499 4.0485 z m 27.192071,57.997596 c -1.491324,-0.55167 -2.237971,-1.61222 -2.448462,-3.47781 -0.176436,-1.56374 -0.287296,-1.62491 -3.225636,-1.77947 -5.559343,-0.29244 -5.054078,5.01082 -5.054078,-53.047609 0,-57.805152 -0.515258,-52.365826 5.007131,-52.857675 2.960658,-0.263695 3.0974,-0.342935 3.26998,-1.894601 0.247751,-2.227559 1.554551,-3.508696 3.578978,-3.508696 2.289438,0 3.543162,1.023665 3.998979,3.265159 0.369456,1.816829 0.454795,1.869752 3.448747,2.138138 5.498979,0.49293 4.987189,-4.931482 4.987189,52.857675 0,58.058429 0.50525,52.755169 -5.054086,53.047609 -2.939019,0.15465 -3.04907,0.21536 -3.223033,1.77947 -0.312614,2.81075 -2.751331,4.41533 -5.285709,3.47781 z M 90.138035,93.724776 90.276094,48.78644 h -4.321509 -4.3215 v 44.713425 c 0,24.592365 0.171579,44.884975 0.381268,45.094675 0.209697,0.20971 2.092248,0.3109 4.18345,0.22493 l 3.802181,-0.15629 z m 38.454145,42.544674 c -4.59386,-1.3974 -8.71138,-5.5683 -10.05303,-10.18344 -2.86809,-9.86588 5.24749,-19.783 15.43337,-18.85937 5.35316,0.4854 9.82816,3.4653 12.12468,8.07381 2.93806,5.89593 1.38387,13.68749 -3.57731,17.93408 -3.57779,3.06244 -9.55524,4.36496 -13.92771,3.03492 z m 7.93109,-8.64538 c 0.94595,-0.57678 2.01144,-1.59342 2.36776,-2.25922 0.91449,-1.70876 0.80391,-4.792 -0.24458,-6.81955 -2.57879,-4.98683 -10.25664,-4.18047 -12.15874,1.27697 -0.97668,2.80226 -0.47158,4.76356 1.81591,7.05103 1.49309,1.49309 2.20763,1.80317 4.15163,1.80149 1.37183,-0.001 3.06322,-0.43804 4.06802,-1.05072 z m 48.72707,1.68139 c -1.04226,-0.84397 -1.26133,-1.64373 -1.47866,-5.398 l -0.25513,-4.40726 h -3.91935 c -5.6362,0 -6.39498,-0.72669 -6.65126,-6.37003 l -0.19602,-4.31661 -4.3166,-0.19606 c -3.74968,-0.17036 -4.45145,-0.36256 -5.34333,-1.46398 -1.33185,-1.64478 -1.30117,-3.35284 0.0921,-5.12403 1.04054,-1.32284 1.41802,-1.4223 5.39799,-1.4223 h 4.27922 v -3.181655 -3.181633 l -4.37127,-0.19851 c -3.80573,-0.172805 -4.50411,-0.362563 -5.398,-1.466468 -1.3982,-1.726693 -1.28926,-3.633861 0.29824,-5.221372 1.17262,-1.172619 1.79328,-1.324961 5.398,-1.324961 h 4.07303 v -3.238799 -3.238799 h -4.07303 c -3.60472,0 -4.22538,-0.152402 -5.398,-1.32498 -0.72873,-0.728714 -1.32496,-1.954317 -1.32496,-2.723529 0,-0.769213 0.59623,-1.994795 1.32496,-2.72353 1.17262,-1.172619 1.79328,-1.324959 5.398,-1.324959 h 4.07303 v -3.238799 -3.2388 h -4.07303 c -3.60472,0 -4.22538,-0.152402 -5.398,-1.32496 -0.72873,-0.728735 -1.32496,-1.954337 -1.32496,-2.72355 0,-0.769211 0.59623,-1.994794 1.32496,-2.723528 1.17262,-1.172619 1.79328,-1.324961 5.398,-1.324961 h 4.07303 v -4.073032 c 0,-3.604728 0.15234,-4.225373 1.32497,-5.398013 1.16928,-1.169272 1.7968,-1.324959 5.34084,-1.324959 h 4.01588 l 0.19361,-4.263382 c 0.2282,-5.024862 1.16361,-6.532603 4.05287,-6.532603 3.08073,0 3.96483,1.444413 3.96483,6.477599 v 4.318386 h 3.18165 3.18163 l 0.19362,-4.263382 c 0.22819,-5.024862 1.16362,-6.532603 4.05288,-6.532603 3.08072,0 3.96483,1.444413 3.96483,6.477599 v 4.318386 h 3.2388 3.2388 v -3.975695 c 0,-4.913346 1.14292,-6.82029 4.08766,-6.82029 3.12985,0 4.00934,1.42089 4.00934,6.477599 v 4.318386 h 3.2388 3.2388 v -3.975695 c 0,-4.913346 1.14292,-6.82029 4.08766,-6.82029 3.12987,0 4.00934,1.42089 4.00934,6.477599 v 4.318386 h 4.31839 c 5.88494,0 6.47759,0.592655 6.47759,6.477598 v 4.318406 h 4.00436 c 2.20239,0 4.4156,0.157911 4.91822,0.350689 1.39753,0.536284 2.38608,3.344664 1.78463,5.06997 -0.6878,1.973026 -2.5152,2.67634 -6.954,2.67634 h -3.75321 v 3.2388 3.238799 h 4.3184 c 3.59868,0 4.49834,0.179944 5.398,1.079586 1.75436,1.754358 1.62479,4.048672 -0.32774,5.802847 -1.14612,1.029704 -1.96346,1.214565 -5.37027,1.214565 h -4.01839 v 3.238799 3.238799 h 4.3184 c 3.59868,0 4.49834,0.179945 5.398,1.079587 1.75436,1.754358 1.62479,4.048672 -0.32774,5.802847 -1.14612,1.029704 -1.96346,1.214565 -5.37027,1.214565 h -4.01839 v 3.2388 3.2388 h 4.3184 c 3.59868,0 4.49834,0.17994 5.398,1.07959 1.75436,1.75435 1.62479,4.04867 -0.32774,5.80284 -1.14612,1.02971 -1.96346,1.21457 -5.37027,1.21457 h -4.01839 v 4.2792 c 0,3.97996 -0.0993,4.35746 -1.4223,5.398 -1.14648,0.90182 -2.19324,1.11877 -5.39799,1.11877 h -3.97569 v 4.22431 c 0,3.71768 -0.14975,4.36508 -1.24935,5.398 -1.65727,1.55693 -3.87524,1.49617 -5.52269,-0.15117 -1.17262,-1.17263 -1.32496,-1.79329 -1.32496,-5.39802 v -4.07304 h -3.2388 -3.2388 v 4.22432 c 0,3.71767 -0.14975,4.36506 -1.24935,5.39799 -1.54008,1.44684 -3.62046,1.50456 -5.297,0.14689 -1.1039,-0.89388 -1.29363,-1.59226 -1.46647,-5.39799 l -0.19851,-4.37129 h -3.18163 -3.18164 v 4.22431 c 0,3.71768 -0.14975,4.36508 -1.24935,5.398 -1.54008,1.44684 -3.62046,1.50456 -5.297,0.14689 -1.1039,-0.89388 -1.29363,-1.59227 -1.46645,-5.39799 l -0.19851,-4.37129 h -3.18165 -3.18164 v 4.29737 c 0,3.72566 -0.15718,4.4438 -1.18139,5.398 -1.46755,1.36725 -3.71056,1.41356 -5.32054,0.10996 z M 238.17503,82.793792 V 54.184391 h -28.60938 -28.60939 v 28.609401 28.609378 h 28.60939 28.60938 z m -45.88297,20.129438 c -0.44534,-0.16383 -1.23479,-0.66804 -1.75434,-1.12065 -0.86479,-0.75334 -0.94466,-2.364398 -0.94466,-19.053284 v -18.23035 l 1.4223,-1.118778 c 1.37245,-1.079566 2.03544,-1.118778 18.91753,-1.118778 h 17.49523 l 1.32497,1.324959 1.32496,1.32496 v 17.523893 c 0,9.638137 -0.15097,17.917098 -0.33532,18.397688 -0.86222,2.24696 -2.59233,2.45533 -20.01532,2.41067 -9.1441,-0.0235 -16.99002,-0.17669 -17.43535,-0.34033 z M 221.98105,82.793792 V 70.378388 h -12.4154 -12.41538 v 12.055536 c 0,6.630531 0.16199,12.217464 0.35987,12.415384 0.19789,0.197898 5.78484,0.359868 12.41538,0.359868 h 12.05553 z m -92.12959,17.781058 c -9.55601,-1.853999 -14.6451,-12.528715 -10.15688,-21.304749 1.96326,-3.838839 5.06849,-6.372815 9.32639,-7.610617 7.18112,-2.087603 15.40064,2.270178 17.84414,9.460497 1.06497,3.133791 0.76834,8.093305 -0.6651,11.120293 -2.89611,6.115669 -9.75706,9.613426 -16.34855,8.334576 z m 6.67053,-8.889733 c 2.94623,-1.930446 3.95817,-6.339988 2.10426,-9.169402 -1.16619,-1.77984 -3.97223,-3.495904 -5.7206,-3.498515 -3.28083,-0.0041 -7.00898,3.678806 -7.00898,6.925378 0,5.205684 6.27159,8.595213 10.62532,5.742539 z m -7.38651,-27.176004 c -4.57139,-1.509087 -7.69121,-4.085907 -9.62803,-7.952247 -4.89963,-9.780828 2.33771,-21.25491 13.40663,-21.25491 8.44814,0 14.535,6.151067 14.56274,14.71633 0.0189,5.881271 -2.51575,10.283264 -7.47597,12.982943 -2.90442,1.580779 -8.35371,2.337036 -10.86537,1.507884 z m 6.12071,-8.132458 c 4.70465,-1.788694 5.78934,-8.347451 1.91908,-11.604061 -1.28792,-1.083708 -2.23368,-1.384187 -4.3566,-1.384187 -2.35461,0 -2.94896,0.237397 -4.51505,1.803486 -2.28749,2.28748 -2.79259,4.248795 -1.81591,7.051055 1.27932,3.670564 5.16662,5.503143 8.76848,4.133707 z"
       id="path1" /></g></svg>
