<?xml version="1.0" encoding="UTF-8" standalone="no"?>
<!-- Created with Inkscape (http://www.inkscape.org/) -->

<svg
   width="1080"
   height="1080"
   viewBox="0 0 285.75 285.75001"
   version="1.1"
   id="svg1"
   xml:space="preserve"
   xmlns="http://www.w3.org/2000/svg"
   xmlns:svg="http://www.w3.org/2000/svg"><defs
     id="defs1" /><g
     id="layer1"><path
       style="fill:#000000;stroke-width:1.94434"
       d="m 248.19539,275.05012 c -2.20222,-1.08545 -4.05945,-3.33557 -4.72188,-5.72066 -0.72926,-2.62589 -0.69218,-20.07259 0.0474,-22.28545 1.02151,-3.05646 4.57976,-6.12145 7.10663,-6.12145 1.03025,0 1.05442,-0.25363 1.05442,-11.06049 V 218.80159 H 158.6491 65.616175 l -2.240157,-1.1846 c -1.531132,-0.80971 -2.615085,-1.89364 -3.424767,-3.4248 -1.082728,-2.04743 -1.184632,-2.89705 -1.184632,-9.87586 v -7.63569 h -4.397892 -4.397893 l 0.153798,12.73242 c 0.149714,12.3948 0.18549,12.77704 1.354566,14.41599 0.660455,0.92597 2.098083,2.14133 3.194752,2.7008 1.961357,1.00061 3.318277,1.01725 82.98472,1.01725 79.9871,0 81.03276,0.0136 84.37833,1.04631 4.30395,1.32935 8.84935,5.32075 10.66572,9.36573 1.76407,3.92857 1.74241,10.87723 -0.0452,14.53834 -1.84905,3.7867 -5.87008,7.59038 -9.43344,8.92362 -2.95377,1.10514 -3.08425,1.10798 -50.7208,1.10798 h -47.75942 l -0.3327,1.66352 c -0.49374,2.4687 -2.55201,5.26457 -4.58634,6.22992 -1.50192,0.71272 -3.64242,0.85207 -13.08806,0.85207 -10.893861,0 -11.353762,-0.0412 -13.028266,-1.16975 -0.954673,-0.64334 -2.262148,-1.95081 -2.905492,-2.90549 -1.072851,-1.59198 -1.169737,-2.3096 -1.169737,-8.66321 0,-6.1955 0.12016,-7.14137 1.137888,-8.95206 2.194018,-3.9037 3.403711,-4.2661 14.871607,-4.45519 6.2643,-0.10325 10.89054,0.0482 12.19457,0.39937 2.96068,0.79722 5.07165,2.77123 6.12,5.72297 l 0.89941,2.53237 h 46.96715 c 38.9958,0 47.25841,-0.12172 48.68332,-0.71707 3.43498,-1.43525 5.48875,-5.70565 4.71854,-9.81123 -0.35594,-1.89733 -2.69552,-4.98456 -4.60918,-6.0821 -0.83374,-0.47816 -20.38136,-0.6833 -83.91196,-0.88061 l -82.825048,-0.25722 -3.254366,-1.76446 c -3.576738,-1.93923 -6.087255,-4.54231 -7.905606,-8.19712 -1.123287,-2.25769 -1.200341,-3.09893 -1.443831,-15.76047 L 41.01849,196.93785 30.215227,196.68064 c -10.710634,-0.25503 -10.824418,-0.26965 -13.268556,-1.70635 -2.889198,-1.69828 -5.117222,-4.55738 -5.967329,-7.65758 -0.456512,-1.66476 -0.570061,-22.35568 -0.459584,-83.7499 l 0.146603,-81.538912 1.112419,-2.057757 c 1.311362,-2.425784 3.833585,-4.907234 6.346981,-6.244321 1.74149,-0.926441 5.807678,-0.957861 123.980289,-0.957861 118.1726,0 122.23882,0.03149 123.98031,0.957861 2.51337,1.337087 5.03562,3.818537 6.34697,6.244321 l 1.11242,2.057757 0.13494,81.514312 c 0.14816,89.55243 0.31082,84.66071 -2.94583,88.59064 -0.8581,1.0355 -2.7635,2.48236 -4.2342,3.21526 l -2.67402,1.33253 H 165.66938 67.512164 v 6.68772 6.68775 l 92.985206,0.0116 c 89.56791,0.0116 93.06272,0.0465 95.0939,0.96893 1.15975,0.52671 2.66449,1.73698 3.34387,2.68951 1.2031,1.68688 1.24188,2.05807 1.49242,14.27968 l 0.25721,12.5478 2.2497,0.66349 c 2.50708,0.7394 4.83646,2.70711 5.71474,4.82746 0.38848,0.93787 0.52813,5.2041 0.42321,12.9292 -0.15244,11.22514 -0.18918,11.57518 -1.3918,13.26133 -2.05146,2.87634 -4.50899,3.64722 -11.62582,3.64673 -4.64389,-3.1e-4 -6.59098,-0.20627 -7.85929,-0.83141 z m 12.23205,-16.63656 v -8.7455 h -4.37276 -4.37274 v 8.7455 8.74549 h 4.37274 4.37276 z m -144.55795,-0.25721 v -4.37275 h -8.7455 -8.74548 v 4.37275 4.37273 h 8.74548 8.7455 z m 147.71623,-71.20461 1.21447,-0.98339 0.13338,-80.84754 0.13339,-80.847563 -1.50851,-1.5085 -1.5085,-1.5085 H 142.10603 22.162122 l -1.503756,1.503736 -1.503756,1.503756 v 80.572981 80.57298 l 1.262735,1.26271 1.262716,1.26272 H 142.02565 c 117.72354,0 120.37207,-0.0214 121.56011,-0.98339 z M 29.91327,178.53022 c -3.2266,-2.47731 -2.068568,-7.07185 1.986867,-7.88293 1.348675,-0.26974 1.877556,-0.0636 3.181512,1.24041 1.980061,1.98008 2.093144,4.24728 0.301217,6.03921 -1.387932,1.38793 -4.06331,1.68304 -5.469596,0.60331 z m 61.520278,-0.0912 c -5.286031,-0.8333 -9.886057,-2.01919 -14.404343,-3.71337 C 52.230551,165.42706 34.906521,145.15725 29.40218,119.0001 27.922592,111.96896 27.769786,99.024981 29.082005,91.876932 32.389782,73.858402 41.874488,57.897124 56.055582,46.48462 70.735945,34.670338 90.275517,28.720255 108.7966,30.42422 c 33.64423,3.095299 59.94672,26.724429 67.10181,60.281634 1.30048,6.099232 1.31603,22.133016 0.0273,28.037026 -3.40851,15.61382 -9.9692,27.83388 -20.70987,38.57455 -11.28456,11.28454 -24.57474,18.18615 -40.147,20.84837 -6.90919,1.18119 -17.126873,1.29932 -23.635152,0.27327 z m 25.464832,-9.45485 c 23.31087,-5.46087 41.45222,-22.17055 48.53486,-44.70458 10.62402,-33.801257 -8.19754,-70.739656 -41.73832,-81.913862 -7.65757,-2.551135 -12.45005,-3.309274 -20.94368,-3.313163 -18.45085,-0.0078 -33.58195,6.238935 -46.571686,19.228652 -13.011631,13.01165 -19.23711,28.089708 -19.228652,46.571703 0.0078,17.91005 6.372238,33.38778 18.933072,46.04631 9.757225,9.83309 21.912683,16.24704 35.549574,18.75807 5.833869,1.07421 19.554092,0.71153 25.464832,-0.67313 z m -32.15256,-9.27489 c -2.263547,-0.78361 -5.432302,-2.05558 -7.041695,-2.82661 -4.097551,-1.96306 -10.41072,-6.1627 -11.411045,-7.59084 -1.140767,-1.62871 -1.053874,-3.6431 0.22741,-5.27202 1.747091,-2.22106 3.927322,-1.86349 8.92876,1.46435 4.776029,3.17785 8.270638,4.83562 13.616768,6.45946 3.959734,1.20273 5.196959,2.33702 5.196959,4.76465 0,1.82357 -2.515378,4.48627 -4.204566,4.45085 -0.658394,-0.0136 -3.049063,-0.66623 -5.312591,-1.44984 z m 28.80868,0.8809 c -1.66264,-0.90942 -2.31498,-2.05191 -2.31498,-4.05452 0,-2.46945 0.94017,-3.24803 5.93912,-4.91835 5.08032,-1.69748 8.84144,-3.56849 13.2748,-6.60368 3.9939,-2.73434 6.18232,-3.05282 7.96178,-1.15864 1.10245,1.17349 1.45679,3.50262 0.79519,5.22675 -0.41484,1.08105 -6.60534,5.26126 -11.25155,7.59774 -3.38749,1.7035 -11.40258,4.52351 -12.75897,4.48908 -0.33908,-0.008 -1.07949,-0.26888 -1.64539,-0.57838 z M 90.6611,143.25739 c -10.413948,-3.3743 -19.021599,-10.99494 -23.76576,-21.04062 -3.34573,-7.08457 -3.140718,-11.39417 0.580951,-12.21158 2.741681,-0.60218 4.213821,0.59117 5.702003,4.62212 2.097694,5.68192 4.106183,8.94915 7.740921,12.59226 3.498478,3.50654 8.190376,6.33289 13.225021,7.96665 4.042386,1.31178 5.427827,4.54164 3.076772,7.17285 -1.572105,1.75945 -3.209979,1.98375 -6.559908,0.89832 z m 18.77789,0.35625 c -1.6608,-0.90841 -2.315,-2.05135 -2.315,-4.0446 0,-2.37066 1.36458,-3.65667 5.14442,-4.84814 4.4975,-1.41772 8.20971,-3.78807 12.1513,-7.75899 3.6459,-3.67299 5.96124,-7.57044 8.13642,-13.69611 1.3271,-3.7373 4.90397,-4.6155 7.52479,-1.84751 1.66101,1.75428 1.04514,5.11831 -2.1254,11.60958 -2.30986,4.72915 -3.21527,5.97075 -7.34453,10.07182 -5.26315,5.22719 -8.77286,7.51308 -14.82226,9.6538 -4.5729,1.61823 -4.88616,1.66064 -6.34974,0.86015 z m -54.330362,-7.27178 c -3.683852,-2.80534 -9.856562,-19.8675 -8.55669,-23.65174 1.013198,-2.94965 4.461298,-3.86625 6.743161,-1.79251 0.944524,0.85839 1.607448,2.51746 2.565368,6.42037 0.777873,3.16929 2.254408,7.18922 3.711753,10.10535 2.624359,5.25127 2.723988,6.59231 0.634421,8.53903 -1.248951,1.16358 -3.817351,1.35476 -5.098013,0.3795 z m 89.896162,-0.40259 c -1.98165,-1.55876 -1.76474,-3.65311 0.96376,-9.30537 1.27559,-2.64241 2.81859,-6.88791 3.42889,-9.43438 1.53564,-6.40745 3.6862,-8.45975 7.04489,-6.72292 2.64595,1.3683 2.92087,3.10666 1.4289,9.03596 -1.50291,5.97278 -5.79277,15.3922 -7.58025,16.64418 -1.64205,1.15014 -3.65271,1.06743 -5.28619,-0.21747 z M 91.14843,124.22778 c -4.689312,-2.99352 -8.864714,-8.85623 -8.323525,-11.6872 0.321712,-1.68295 2.452752,-3.31492 4.328656,-3.31492 1.56473,0 2.749808,1.00063 5.051658,4.26538 0.707353,1.00326 2.397941,2.55457 3.756881,3.44735 3.738433,2.4561 4.33808,5.51002 1.517561,7.72866 -1.788761,1.40702 -3.640239,1.27858 -6.331231,-0.43927 z m 16.20941,0.19729 c -1.39903,-1.39903 -1.70935,-4.15941 -0.61968,-5.51231 0.35369,-0.43911 1.73725,-1.5325 3.07458,-2.42971 1.35173,-0.9069 3.03278,-2.6573 3.78547,-3.94165 1.53726,-2.62315 2.54676,-3.31574 4.83306,-3.31574 2.18213,0 4.12595,1.99173 4.12595,4.22764 0,4.25844 -8.21541,12.23449 -12.60164,12.23449 -0.73427,0 -1.90326,-0.56822 -2.59774,-1.26272 z M 84.077394,99.951503 c -0.615813,-0.57372 -1.260344,-1.603654 -1.432302,-2.288748 -1.011545,-4.030314 8.89032,-13.926366 12.92203,-12.914471 2.115278,0.530904 3.325823,2.123361 3.325823,4.375067 0,1.660839 -0.284201,2.230726 -1.603445,3.215264 -2.248377,1.677911 -5.086905,4.504288 -6.778154,6.74911 -1.21156,1.608125 -1.740422,1.906895 -3.375479,1.906895 -1.236564,0 -2.344373,-0.37783 -3.058473,-1.043117 z m 31.704806,0.400067 c -0.43912,-0.353677 -1.53248,-1.737231 -2.42971,-3.074573 -0.90691,-1.351746 -2.6573,-3.032787 -3.94166,-3.785463 -2.54994,-1.494364 -3.31571,-2.553585 -3.31571,-4.58628 0,-3.155885 2.69074,-4.922749 5.88925,-3.867146 3.91058,1.290598 10.57285,8.830182 10.57285,11.965086 0,3.038366 -4.4372,5.231346 -6.77502,3.348376 z M 47.939792,99.095367 c -1.596812,-1.343619 -1.636341,-1.47496 -1.329037,-4.415158 0.625787,-5.987239 5.837407,-18.710094 8.634735,-21.07957 1.406578,-1.191435 3.59099,-1.140786 5.194413,0.120549 2.322928,1.827218 2.207083,3.06069 -0.87896,9.359724 -1.814443,3.70351 -3.223159,7.493191 -3.942411,10.605776 -0.999102,4.323618 -1.290364,4.947554 -2.715276,5.816455 -2.137982,1.303697 -3.015232,1.231637 -4.963464,-0.407694 z m 18.800583,0.790786 c -2.672617,-1.46182 -2.957814,-3.761472 -1.100926,-8.877139 3.687624,-10.159277 11.963395,-18.826326 21.881768,-22.916333 4.743402,-1.95603 6.521213,-2.296231 8.252317,-1.579177 2.344802,0.971239 3.358799,4.378664 1.882134,6.32466 -0.37958,0.500202 -2.681664,1.691308 -5.115768,2.646894 -9.983314,3.919274 -15.615943,9.957921 -19.605951,21.01916 -1.201352,3.330465 -3.746654,4.720282 -6.193574,3.381935 z m 67.094985,-0.909719 c -0.82707,-0.827066 -1.50376,-1.909776 -1.50376,-2.406031 0,-0.496235 -0.92647,-2.816363 -2.05883,-5.155798 -3.54985,-7.333989 -9.55843,-12.773 -17.11638,-15.493839 -4.75473,-1.711703 -6.0324,-2.829623 -6.0324,-5.278155 0,-2.54816 1.68469,-4.11851 4.40591,-4.106883 1.11354,0.0039 3.87658,0.763078 6.14014,1.685164 10.03709,4.088761 17.65493,11.684536 21.86999,21.806637 2.1782,5.230811 2.26518,7.564491 0.34352,9.217432 -1.98864,1.710559 -4.16576,1.613899 -6.04819,-0.268527 z m 18.14724,0.651839 c -0.82547,-0.675002 -1.53006,-2.412017 -2.44266,-6.021828 -0.70539,-2.790251 -2.14343,-6.841487 -3.19561,-9.002723 -1.0522,-2.161235 -2.17499,-4.616982 -2.49511,-5.457211 -1.79431,-4.709454 4.60148,-7.96798 7.53987,-3.841421 3.3455,4.698334 8.09924,18.555345 7.42251,21.63643 -0.64173,2.921823 -4.62505,4.48899 -6.829,2.686753 z M 67.769264,67.497537 c -1.686116,-0.956948 -2.314994,-2.083734 -2.314994,-4.147909 0,-1.762859 0.286518,-2.17784 2.958048,-4.284362 5.893929,-4.647411 19.456236,-10.491643 22.547024,-9.715908 1.495901,0.375453 3.303635,2.507951 3.303635,3.897166 0,2.584811 -1.383303,3.857521 -5.769044,5.307866 -5.264001,1.740771 -9.441658,3.804614 -13.711399,6.773687 -3.58333,2.491735 -5.435765,3.064772 -7.01327,2.16946 z m 61.747916,-2.774074 c -4.78917,-3.135547 -10.72358,-5.85724 -14.53405,-6.665737 -1.71629,-0.364156 -4.25804,-2.870941 -4.25804,-4.199473 0,-1.493217 1.5218,-3.659567 3.00125,-4.272366 4.02592,-1.667585 24.12245,8.136595 25.81765,12.595249 0.93311,2.454326 -1.5384,5.889263 -4.23747,5.889263 -0.3725,0 -2.9777,-1.506128 -5.78934,-3.346936 z M 169.62873,177.5527 c -1.08505,-1.28951 -1.31047,-1.97159 -1.0621,-3.21347 0.40092,-2.0046 1.6663,-3.26999 3.67093,-3.67092 2.29793,-0.45959 4.85043,1.75996 4.85043,4.2177 0,4.10504 -4.80388,5.82242 -7.45926,2.66669 z m 79.2004,0.37422 c -1.79192,-1.79192 -1.67884,-4.05912 0.30122,-6.0392 1.30395,-1.30395 1.83282,-1.51015 3.18149,-1.24041 2.06878,0.41376 3.34283,1.5767 3.74794,3.42111 0.9006,4.1004 -4.24361,6.84555 -7.23065,3.8585 z m -38.55969,-8.23584 c -3.32894,-1.53755 -12.88425,-8.34493 -13.96537,-9.94917 -1.55087,-2.30134 -1.85665,-5.45414 -1.63626,-16.87036 0.20021,-10.37111 0.44602,-11.48408 3.07755,-13.93423 2.27161,-2.11505 3.38329,-2.22065 23.37735,-2.22065 20.94716,0 21.33981,0.0474 23.93012,2.89469 2.23253,2.45394 2.51358,4.21141 2.51358,15.71848 0,14.3789 0.0739,14.20523 -8.48828,19.95906 -8.0923,5.43812 -7.11879,5.15809 -17.85127,5.13512 -6.90132,-0.0155 -9.82604,-0.21039 -10.95742,-0.73294 z m 23.53959,-11.34395 5.01189,-3.35153 v -9.76672 -9.76672 H 221.0727 203.32447 v 9.69575 9.69574 l 5.01581,3.38879 5.01581,3.38875 7.72054,0.0336 7.72054,0.0336 z m -24.59187,-11.28664 c -2.66072,-2.66074 -0.73818,-6.96836 3.11004,-6.96836 2.38048,0 4.37275,1.87509 4.37275,4.11554 0,3.67644 -4.82109,5.51449 -7.48279,2.85282 z m 17.71168,0.28875 c -0.91636,-0.74202 -1.2028,-1.49016 -1.2028,-3.14157 0,-2.70756 1.4947,-4.11554 4.36902,-4.11554 1.50841,0 2.21055,0.31415 3.02966,1.35548 2.284,2.90365 0.5338,6.87559 -3.02966,6.87559 -1.16001,0 -2.45559,-0.39853 -3.16622,-0.97396 z m -26.31005,-30.11338 c -2.41861,-0.86305 -3.15861,-1.4757 -4.61887,-3.8239 -1.07831,-1.73399 -1.17697,-2.56973 -1.34446,-11.38847 -0.24615,-12.960608 0.37528,-15.385576 4.60323,-17.963115 1.69237,-1.031728 2.41798,-1.067425 21.73626,-1.069292 22.51079,-0.002 22.44076,-0.01361 24.94543,3.768859 1.3506,2.03913 1.37107,2.204089 1.53889,12.394783 0.10558,6.416215 -0.0404,11.032455 -0.3856,12.187655 -0.78301,2.62016 -2.44688,4.54432 -4.88845,5.65321 -1.92138,0.87267 -3.68055,0.95202 -20.8753,0.94169 -14.3773,-0.008 -19.23028,-0.17304 -20.71113,-0.70142 z m 16.08116,-16.75569 v -8.745507 h -6.68773 -6.68775 v 8.402537 c 0,4.62139 0.15439,8.55686 0.34297,8.7455 0.1886,0.18861 3.19811,0.34294 6.68772,0.34294 h 6.34479 z m 22.12097,0 v -8.745507 h -6.68773 -6.68773 v 8.745507 8.74547 h 6.68773 6.68773 z M 209.60101,72.686117 c -1.44157,-1.343037 -1.92883,-3.329807 -1.20582,-4.916645 0.31422,-0.689658 3.34502,-3.276938 6.73509,-5.749522 3.39006,-2.472584 6.17184,-4.619763 6.1817,-4.771499 0.009,-0.151659 -2.55444,-1.540718 -5.69849,-3.086647 -7.42425,-3.650506 -8.9642,-5.605621 -6.8231,-8.6625 1.11589,-1.593138 19.02987,-14.966921 20.14905,-15.042362 3.82247,-0.257683 6.20168,2.643356 4.91589,5.994083 -0.18451,0.481031 -3.13619,2.963395 -6.55911,5.516358 -3.42294,2.552982 -6.15158,4.782698 -6.06366,4.954947 0.088,0.172269 2.86592,1.702177 6.1733,3.399822 4.78159,2.454366 6.11281,3.376452 6.49856,4.501371 0.95627,2.788579 0.006,3.867146 -10.20802,11.574915 -10.44414,7.882157 -11.75585,8.467289 -14.09539,6.287679 z M 29.231914,37.164444 c -1.745302,-2.074168 -1.693058,-3.79398 0.171879,-5.658955 1.864977,-1.864977 3.584769,-1.917222 5.658956,-0.171881 1.20528,1.014189 1.582794,1.755938 1.582794,3.110037 0,4.062475 -4.80187,5.824789 -7.413669,2.720837 z m 140.554126,0.01944 c -1.30395,-1.303955 -1.51014,-1.832836 -1.24041,-3.181491 0.41376,-2.068783 1.57671,-3.342853 3.42113,-3.747938 4.1004,-0.900601 6.84555,4.243609 3.8585,7.230647 -1.79192,1.791928 -4.05914,1.678844 -6.03922,-0.301218 z m 79.04309,0.301218 c -1.85918,-1.859182 -1.72541,-4.42978 0.32008,-6.150952 2.07417,-1.745303 3.79398,-1.693058 5.65896,0.17188 1.86497,1.864975 1.91722,3.584787 0.17188,5.658955 -1.72117,2.045489 -4.29178,2.17926 -6.15095,0.320078 z"
       id="path1" /></g></svg>
