<?xml version="1.0" encoding="UTF-8" standalone="no"?>
<!-- Created with Inkscape (http://www.inkscape.org/) -->

<svg
   width="1080"
   height="1080"
   viewBox="0 0 285.75 285.75001"
   version="1.1"
   id="svg1"
   xml:space="preserve"
   xmlns="http://www.w3.org/2000/svg"
   xmlns:svg="http://www.w3.org/2000/svg"><defs
     id="defs1" /><g
     id="layer1"><path
       style="fill:#000000;stroke-width:1.83598"
       d="m 30.746695,128.25511 c -2.0719,-0.90045 -2.546592,-2.31043 -2.546592,-7.56391 v -4.34031 h -2.709095 c -2.346582,0 -2.899119,-0.19001 -4.12904,-1.41995 l -1.419945,-1.41992 V 87.703766 c 0,-28.914608 -0.08042,-28.200927 3.279716,-29.134062 1.001471,-0.278114 2.078235,-0.506895 2.392811,-0.508382 0.933412,-0.0037 2.585553,-2.462156 2.585553,-3.846281 0,-2.071589 -1.279273,-3.364062 -4.157994,-4.200937 -3.914855,-1.138086 -4.100086,-1.693873 -4.100086,-12.302041 0,-4.804991 0.217214,-9.307634 0.482678,-10.005894 1.085081,-2.853972 -6.963091,-2.679848 123.874189,-2.679848 130.83729,0 122.78912,-0.17405 123.8742,2.679848 0.26548,0.69826 0.48268,5.200903 0.48268,10.005894 0,10.608168 -0.18524,11.163955 -4.10009,12.302041 -2.87872,0.836875 -4.15799,2.129348 -4.15799,4.200937 0,1.384125 1.65214,3.841856 2.58555,3.846281 0.31457,0.0015 1.39134,0.230268 2.39281,0.508382 3.36006,0.933135 3.27972,0.219454 3.27972,29.134062 v 25.807254 l -1.41995,1.41992 c -1.22992,1.22994 -1.78246,1.41995 -4.12904,1.41995 h -2.70909 v 4.34031 c 0,2.38715 -0.2172,4.91159 -0.48268,5.60983 -1.07363,2.82386 2.21527,2.705 -70.96799,2.56515 l -67.07774,-0.12815 -1.1723,-1.36296 c -1.06926,-1.24316 -1.17231,-1.78756 -1.17231,-6.19356 v -4.8306 h -4.12904 -4.12902 v 4.05656 c 0,5.21287 -0.62288,7.02002 -2.72188,7.89703 -2.42294,1.01238 -75.461718,0.96602 -77.798035,-0.0494 z m 72.168325,-9.8397 0.14926,-2.06452 H 69.761179 36.458071 v 2.18933 2.18933 l 33.153751,-0.12485 33.153728,-0.12484 z m 149.2246,0.12136 v -2.18597 h -62.17845 -62.17842 v 2.18597 2.18595 h 62.17842 62.17845 z m 8.25807,-31.587022 v -21.14297 l -1.16045,-0.441204 c -1.83561,-0.697891 -4.63643,-3.396209 -5.71042,-5.501414 -1.24746,-2.445228 -1.65444,-6.313266 -0.9417,-8.950317 0.74066,-2.740306 3.27168,-5.96107 5.77074,-7.343359 l 2.04183,-1.129365 V 37.862705 33.284292 H 144.29889 28.200103 v 4.516321 4.516339 l 2.541396,1.67722 c 1.550868,1.023521 3.112881,2.609053 4.00759,4.067994 1.296071,2.11332 1.464889,2.817913 1.454938,6.07211 -0.0092,2.825386 -0.256119,4.143838 -1.064371,5.670416 -1.110693,2.097862 -3.846685,4.772863 -5.784926,5.655986 l -1.154627,0.526081 V 87.039748 108.09272 H 144.29889 260.39769 Z M 47.15466,90.952638 C 44.768862,89.745483 44.731059,89.373036 44.723403,66.99629 44.716103,45.415237 44.8712,43.470864 46.678481,42.503653 c 0.520756,-0.278702 6.697407,-0.475519 14.923063,-0.475519 h 14.034561 l 1.056219,1.124298 c 1.052566,1.120405 1.05622,1.200858 1.05622,23.277183 0,12.184079 -0.135862,22.506752 -0.301761,22.939235 -0.757616,1.974355 -2.464139,2.208057 -16.068824,2.200566 -9.465951,-0.0055 -13.347226,-0.1735 -14.223299,-0.616778 z M 69.490464,66.547724 V 49.776951 l -8.13663,0.133108 -8.13663,0.133292 -0.127784,16.637591 -0.127784,16.637573 h 8.264451 8.264451 z M 88.678338,91.027417 C 86.46336,89.789069 86.492387,90.114055 86.492387,66.551304 V 44.140573 l 1.124279,-1.056219 c 1.101311,-1.034629 1.413996,-1.05622 15.301734,-1.05622 13.39415,0 14.2296,0.05214 15.12186,0.944446 0.51945,0.519453 1.07634,1.667067 1.23756,2.550282 0.1612,0.883216 0.22805,11.054237 0.14853,22.60226 l -0.14449,20.996422 -1.10574,1.106066 c -1.09226,1.092591 -1.27304,1.107535 -14.81595,1.224524 -9.410612,0.08133 -14.014895,-0.05196 -14.681758,-0.424717 z m 22.473192,-24.346493 -0.12779,-16.637591 -8.13663,-0.133292 -8.136625,-0.133109 v 16.770773 16.770773 h 8.264445 8.26445 z m 19.23348,24.425165 c -2.62481,-1.08745 -2.60226,-0.873779 -2.60226,-24.676786 V 44.41283 l 1.19234,-1.192357 1.19234,-1.192339 h 14.13146 14.13146 l 1.19234,1.192339 1.19234,1.192357 v 22.097476 22.097476 l -1.1717,1.362957 -1.17172,1.362956 -13.5228,0.101897 c -7.43753,0.056 -13.99125,-0.09217 -14.5638,-0.329448 z M 152.55697,66.559474 V 49.800451 h -8.25808 -8.25808 v 16.759023 16.759023 h 8.25808 8.25808 z m 18.95456,24.393164 c -2.3858,-1.207155 -2.4236,-1.579602 -2.43126,-23.956348 -0.007,-21.581053 0.1478,-23.525426 1.95508,-24.492637 0.52075,-0.278702 6.6974,-0.475519 14.92306,-0.475519 h 14.03457 l 1.05622,1.124298 c 1.05257,1.120405 1.05622,1.200858 1.05622,23.277183 0,12.184079 -0.13586,22.506752 -0.30176,22.939235 -0.75762,1.974355 -2.46414,2.208057 -16.06883,2.200566 -9.46596,-0.0055 -13.34723,-0.1735 -14.2233,-0.616778 z m 22.3358,-24.404914 V 49.776951 l -8.13663,0.133108 -8.13663,0.133292 -0.12778,16.637591 -0.12779,16.637573 h 8.26445 8.26445 z m 19.18788,24.479693 c -2.21497,-1.238348 -2.18595,-0.913362 -2.18595,-24.476113 V 44.140573 l 1.12428,-1.056219 c 1.10131,-1.034629 1.414,-1.05622 15.30174,-1.05622 13.39415,0 14.22959,0.05214 15.12186,0.944446 0.51945,0.519453 1.07634,1.667067 1.23756,2.550282 0.1612,0.883216 0.22804,11.054237 0.14853,22.60226 l -0.14449,20.996422 -1.10574,1.106066 c -1.09226,1.092591 -1.27305,1.107535 -14.81595,1.224524 -9.41062,0.08133 -14.0149,-0.05196 -14.68176,-0.424717 z m 22.47319,-24.346493 -0.12778,-16.637591 -8.13663,-0.133292 -8.13663,-0.133109 v 16.770773 16.770773 h 8.26445 8.26445 z"
       id="path1" /><path
       style="fill:#000000;stroke-width:1.83598"
       d="m 29.657243,255.05887 c -2.0719,-0.90045 -2.54659,-2.31043 -2.54659,-7.56391 v -4.34031 h -2.70909 c -2.34659,0 -2.89912,-0.19001 -4.12904,-1.41995 l -1.41995,-1.41992 v -25.80725 c 0,-28.91461 -0.0804,-28.20093 3.27972,-29.13406 1.00147,-0.27812 2.07823,-0.5069 2.39281,-0.50838 0.93341,-0.004 2.58555,-2.46216 2.58555,-3.84629 0,-2.07158 -1.27927,-3.36406 -4.15799,-4.20093 -3.91486,-1.13809 -4.10009,-1.69388 -4.10009,-12.30204 0,-4.80499 0.21722,-9.30764 0.48268,-10.0059 1.08508,-2.85397 -6.96309,-2.67984 123.874187,-2.67984 130.83729,0 122.78912,-0.17406 123.8742,2.67984 0.26548,0.69826 0.48268,5.20091 0.48268,10.0059 0,10.60816 -0.18524,11.16395 -4.10009,12.30204 -2.87872,0.83687 -4.15799,2.12935 -4.15799,4.20093 0,1.38413 1.65214,3.84186 2.58555,3.84629 0.31457,0.002 1.39134,0.23026 2.39281,0.50838 3.36006,0.93313 3.27972,0.21945 3.27972,29.13406 v 25.80725 l -1.41995,1.41992 c -1.22992,1.22994 -1.78246,1.41995 -4.12904,1.41995 h -2.70909 v 4.34031 c 0,2.38715 -0.2172,4.91159 -0.48268,5.60983 -1.07363,2.82386 2.21527,2.705 -70.96799,2.56515 l -67.07774,-0.12815 -1.1723,-1.36296 c -1.06926,-1.24316 -1.17231,-1.78756 -1.17231,-6.19356 v -4.8306 h -4.12904 -4.12902 v 4.05656 c 0,5.21287 -0.62288,7.02002 -2.72188,7.89703 -2.42294,1.01238 -75.461717,0.96602 -77.798037,-0.0494 z m 72.168327,-9.8397 0.14926,-2.06452 H 68.671733 35.368623 v 2.18933 2.18933 l 33.15375,-0.12485 33.153727,-0.12484 z m 149.2246,0.12136 v -2.18597 H 188.87172 126.6933 v 2.18597 2.18595 h 62.17842 62.17845 z m 8.25807,-31.58702 v -21.14297 l -1.16045,-0.4412 c -1.83561,-0.69789 -4.63643,-3.39621 -5.71042,-5.50142 -1.24746,-2.44522 -1.65444,-6.31326 -0.9417,-8.95031 0.74066,-2.74031 3.27168,-5.96107 5.77074,-7.34336 l 2.04183,-1.12937 v -4.57841 -4.57841 H 143.20944 27.110653 v 4.51632 4.51634 l 2.5414,1.67722 c 1.55087,1.02352 3.11288,2.60905 4.00759,4.06799 1.29607,2.11332 1.46489,2.81791 1.45493,6.07211 -0.009,2.82539 -0.25611,4.14384 -1.06437,5.67042 -1.11069,2.09786 -3.84668,4.77286 -5.78492,5.65598 l -1.15463,0.52608 v 21.05299 21.05297 H 143.20944 259.30824 Z M 46.065213,217.7564 c -2.3858,-1.20716 -2.4236,-1.5796 -2.43126,-23.95635 -0.007,-21.58105 0.1478,-23.52542 1.95508,-24.49263 0.52075,-0.27871 6.69741,-0.47552 14.92306,-0.47552 h 14.03456 l 1.05622,1.1243 c 1.05257,1.1204 1.05622,1.20085 1.05622,23.27718 0,12.18407 -0.13586,22.50675 -0.30176,22.93923 -0.75762,1.97436 -2.46414,2.20806 -16.06882,2.20057 -9.46595,-0.005 -13.34723,-0.1735 -14.2233,-0.61678 z m 22.3358,-24.40491 v -16.77078 l -8.13663,0.13311 -8.13663,0.13329 -0.12778,16.6376 -0.12779,16.63757 h 8.26445 8.26446 z m 19.18788,24.47969 c -2.21498,-1.23835 -2.18596,-0.91336 -2.18596,-24.47611 v -22.41073 l 1.12428,-1.05622 c 1.10132,-1.03463 1.414,-1.05622 15.301737,-1.05622 13.39415,0 14.2296,0.0521 15.12186,0.94444 0.51945,0.51946 1.07634,1.66707 1.23756,2.55029 0.1612,0.88321 0.22805,11.05423 0.14853,22.60226 l -0.14449,20.99641 -1.10574,1.10607 c -1.09226,1.09259 -1.27304,1.10754 -14.81595,1.22452 -9.410607,0.0813 -14.014897,-0.052 -14.681757,-0.42471 z m 22.473187,-24.34649 -0.12779,-16.63759 -8.13663,-0.1333 -8.136627,-0.1331 v 16.77077 16.77077 h 8.264447 8.26445 z m 19.23348,24.42516 c -2.62481,-1.08745 -2.60226,-0.87378 -2.60226,-24.67678 v -22.01648 l 1.19234,-1.19235 1.19234,-1.19234 h 14.13146 14.13146 l 1.19234,1.19234 1.19234,1.19235 v 22.09748 22.09747 l -1.1717,1.36296 -1.17172,1.36296 -13.5228,0.10189 c -7.43753,0.056 -13.99125,-0.0922 -14.5638,-0.32945 z m 22.17196,-24.54661 v -16.75903 h -8.25808 -8.25808 v 16.75903 16.75902 h 8.25808 8.25808 z m 18.95456,24.39316 c -2.3858,-1.20716 -2.4236,-1.5796 -2.43126,-23.95635 -0.007,-21.58105 0.1478,-23.52542 1.95508,-24.49263 0.52075,-0.27871 6.6974,-0.47552 14.92306,-0.47552 h 14.03457 l 1.05622,1.1243 c 1.05257,1.1204 1.05622,1.20085 1.05622,23.27718 0,12.18407 -0.13586,22.50675 -0.30176,22.93923 -0.75762,1.97436 -2.46414,2.20806 -16.06883,2.20057 -9.46596,-0.005 -13.34723,-0.1735 -14.2233,-0.61678 z m 22.3358,-24.40491 v -16.77078 l -8.13663,0.13311 -8.13663,0.13329 -0.12778,16.6376 -0.12779,16.63757 h 8.26445 8.26445 z m 19.18788,24.47969 c -2.21497,-1.23835 -2.18595,-0.91336 -2.18595,-24.47611 v -22.41073 l 1.12428,-1.05622 c 1.10131,-1.03463 1.414,-1.05622 15.30174,-1.05622 13.39415,0 14.22959,0.0521 15.12186,0.94444 0.51945,0.51946 1.07634,1.66707 1.23756,2.55029 0.1612,0.88321 0.22804,11.05423 0.14853,22.60226 l -0.14449,20.99641 -1.10574,1.10607 c -1.09226,1.09259 -1.27305,1.10754 -14.81595,1.22452 -9.41062,0.0813 -14.0149,-0.052 -14.68176,-0.42471 z m 22.47319,-24.34649 -0.12778,-16.63759 -8.13663,-0.1333 -8.13663,-0.1331 v 16.77077 16.77077 h 8.26445 8.26445 z"
       id="path1-1" /></g></svg>
