<?xml version="1.0" encoding="UTF-8" standalone="no"?>
<!-- Created with Inkscape (http://www.inkscape.org/) -->

<svg
   width="1080"
   height="1080"
   viewBox="0 0 285.75 285.75001"
   version="1.1"
   id="svg1"
   xml:space="preserve"
   inkscape:export-filename="mother.svg"
   inkscape:export-xdpi="96"
   inkscape:export-ydpi="96"
   inkscape:version="1.3.2 (091e20e, 2023-11-25, custom)"
   sodipodi:docname="mother.svg"
   xmlns:inkscape="http://www.inkscape.org/namespaces/inkscape"
   xmlns:sodipodi="http://sodipodi.sourceforge.net/DTD/sodipodi-0.dtd"
   xmlns="http://www.w3.org/2000/svg"
   xmlns:svg="http://www.w3.org/2000/svg"><sodipodi:namedview
     id="namedview1"
     pagecolor="#ffffff"
     bordercolor="#000000"
     borderopacity="0.25"
     inkscape:showpageshadow="2"
     inkscape:pageopacity="0.0"
     inkscape:pagecheckerboard="0"
     inkscape:deskcolor="#d1d1d1"
     inkscape:document-units="mm"
     inkscape:zoom="0.36213173"
     inkscape:cx="397.64535"
     inkscape:cy="766.29573"
     inkscape:window-width="1920"
     inkscape:window-height="1009"
     inkscape:window-x="1432"
     inkscape:window-y="-8"
     inkscape:window-maximized="1"
     inkscape:current-layer="layer1" /><defs
     id="defs1" /><g
     inkscape:label="Capa 1"
     inkscape:groupmode="layer"
     id="layer1"><path
       style="fill:#000000;stroke-width:2.03025"
       d="m 40.775022,278.74452 c -3.022984,-1.07043 -6.796586,-5.27281 -7.600037,-8.46355 -0.440565,-1.74966 -0.605422,-36.68838 -0.605422,-128.30409 0,-140.3967742 -0.315378,-129.308236 3.795799,-133.4605045 4.194209,-4.2361377 -4.313532,-3.9147692 103.638288,-3.9147692 86.79563,0 96.75139,0.08588 99.00596,0.8541057 3.25961,1.1106485 6.98037,5.152512 7.82272,8.497838 0.86395,3.431063 0.86395,252.89634 0,256.32742 -0.84235,3.34533 -4.56311,7.38719 -7.82272,8.49783 -2.25653,0.76889 -12.1584,0.84987 -99.23595,0.8117 -84.421376,-0.037 -97.018028,-0.14476 -98.998638,-0.84598 z m 26.267141,-14.73825 c 0.166481,-7.20355 0.236138,-7.61861 1.443042,-8.59474 1.2336,-0.9977 3.180874,-1.02564 71.518445,-1.02564 68.33757,0 70.28485,0.028 71.51847,1.02564 1.2069,0.97613 1.27657,1.39119 1.44303,8.59474 l 0.17482,7.56908 h 11.5499 11.54987 l 1.57019,-1.5702 1.5702,-1.57019 V 142.11726 15.799535 l -1.5702,-1.570176 -1.57019,-1.570196 H 140.00357 43.767408 l -1.570176,1.570196 -1.570195,1.570176 v 126.317725 126.3177 l 1.570195,1.57019 1.570176,1.5702 h 11.549894 11.549874 z m -15.719562,-2.56796 c -0.898386,-0.72746 -1.241295,-1.56273 -1.241295,-3.02363 0,-3.58577 3.446492,-5.17568 6.319886,-2.91546 1.850229,1.45538 1.891138,3.83144 0.09685,5.62572 -1.57381,1.57381 -3.476602,1.68903 -5.175454,0.31337 z m 172.186649,-0.31337 c -1.79427,-1.79428 -1.75336,-4.17034 0.0969,-5.62572 1.89734,-1.49246 3.7156,-1.40288 5.3837,0.26521 1.11196,1.11195 1.31468,1.70924 1.04831,3.08872 -0.66647,3.45153 -4.14035,4.6603 -6.52888,2.27179 z M 69.365745,189.04968 c -4.880034,-1.22007 -7.58583,-3.16105 -9.566441,-6.86236 l -1.176977,-2.19955 v -37.87051 -37.87054 l 1.176977,-2.19953 c 1.472602,-2.751957 4.284337,-5.255127 6.968796,-6.204022 1.687097,-0.596365 12.935479,-0.728332 62.07431,-0.728332 h 60.01386 l 1.17881,1.178786 c 1.42329,1.423251 1.55549,4.135948 0.2645,5.427128 -0.8469,0.84702 -5.34906,0.93428 -61.04359,1.18306 l -60.129267,0.26858 -1.223409,1.22356 -1.223429,1.22355 v 36.49776 36.49773 l 1.182905,1.18291 c 0.953284,0.95328 2.03218,1.24531 5.558259,1.50439 3.453659,0.25378 4.534077,0.53859 5.128839,1.35197 1.049092,1.4347 0.939945,3.69888 -0.24907,5.16723 -0.830901,1.02613 -1.589707,1.26026 -4.431653,1.36746 -1.886001,0.071 -3.912537,0.008 -4.50342,-0.13927 z m 22.005339,-0.17257 c -2.556836,-1.03639 -3.475525,-4.55094 -1.663344,-6.36339 0.8469,-0.84702 5.349042,-0.93426 61.04358,-1.18304 l 60.12925,-0.26858 1.22344,-1.22355 1.22343,-1.22358 v -36.49773 -36.49776 l -1.18291,-1.18288 c -0.95328,-0.95331 -2.03218,-1.24532 -5.55826,-1.50442 -3.45368,-0.25376 -4.53409,-0.53856 -5.12885,-1.35195 -1.05665,-1.44504 -0.93742,-3.702257 0.27454,-5.197277 0.92462,-1.140576 1.45147,-1.266472 5.2374,-1.251489 2.31515,0.01016 5.13659,0.3369 6.26985,0.728332 2.67343,0.923377 5.49033,3.424427 6.9688,6.187374 l 1.17697,2.19953 v 37.87054 37.87051 l -1.34291,2.39218 c -1.7593,3.13386 -5.17988,5.6886 -8.59808,6.42167 -3.2739,0.70214 -118.348471,0.7745 -120.072906,0.0755 z m 2.34961,-21.61077 c -3.958278,-0.50592 -7.431164,-2.17426 -10.117065,-4.86013 -3.848929,-3.84893 -4.683402,-10.05176 -1.576023,-11.71477 2.359294,-1.26266 5.870511,0.57216 5.870511,3.06766 0,0.81695 0.698976,2.05663 1.755051,3.1127 3.345833,3.34583 10.667222,3.57968 14.375732,0.45917 1.27844,-1.07571 1.59584,-1.7689 1.59584,-3.48506 0,-2.78988 -1.78485,-4.58775 -6.446041,-6.49304 -1.920395,-0.78496 -5.349041,-2.17915 -7.619247,-3.09821 -4.341814,-1.75773 -8.517086,-4.95324 -9.856726,-7.5438 -4.015085,-7.76432 -0.274307,-16.04048 8.593483,-19.01236 6.270451,-2.10144 14.815731,-0.59174 19.242961,3.39967 4.13369,3.72677 5.50121,9.66659 2.72777,11.84818 -1.63052,1.28257 -2.29543,1.35754 -4.22827,0.47688 -0.99675,-0.45414 -1.57893,-1.31732 -2.03264,-3.01378 -0.79605,-2.97629 -2.75859,-4.6741 -6.274474,-5.42812 -3.916739,-0.84 -7.791534,0.0945 -10.143296,2.44623 -1.552187,1.55219 -1.769667,2.07138 -1.478204,3.52875 0.627489,3.13739 3.066632,4.73047 12.948734,8.45714 5.74444,2.1663 9.27653,4.88354 11.14631,8.57485 5.47462,10.80801 -4.37568,21.08129 -18.484406,19.27804 z m 42.947456,0.041 c -7.4589,-1.06073 -13.31678,-6.5623 -13.31678,-12.50679 0,-2.62875 0.85838,-3.87906 3.03876,-4.42632 1.88874,-0.47403 4.07928,1.28552 4.66062,3.74364 0.60191,2.54521 2.87293,4.41075 6.25136,5.1353 5.49793,1.17909 11.47532,-1.52524 11.47532,-5.19176 0,-3.53417 -2.67068,-5.45082 -12.95593,-9.29787 -5.11171,-1.91197 -8.26255,-4.11754 -10.56764,-7.39729 -1.36344,-1.93994 -1.64735,-2.91184 -1.81387,-6.20957 -0.15835,-3.13439 0.0162,-4.32606 0.88424,-6.00932 3.13093,-6.07745 10.63039,-9.32698 18.91164,-8.19445 7.57037,1.03534 13.42006,6.47543 13.42006,12.48046 0,1.9526 -0.26369,2.6071 -1.41535,3.51301 -0.77846,0.61232 -1.83364,1.11333 -2.34484,1.11333 -1.58702,0 -3.61884,-2.03259 -3.98548,-3.98696 -0.71905,-3.8329 -6.20425,-6.25031 -11.57067,-5.09942 -4.8703,1.04447 -7.09298,3.86449 -5.69088,7.22021 0.96939,2.32011 2.75207,3.40453 10.67352,6.49281 6.97773,2.72035 9.98277,4.69818 12.43123,8.18193 1.36344,1.93992 1.64732,2.91184 1.81386,6.20958 0.15837,3.13439 -0.0162,4.32604 -0.88425,6.00932 -2.09762,4.07168 -6.8543,7.40185 -11.46706,8.02812 -1.28273,0.1742 -2.81571,0.38672 -3.40659,0.4724 -0.59089,0.0856 -2.45448,-0.0404 -4.14127,-0.28036 z m 32.48172,0.21564 c -2.80266,-0.5405 -2.82487,-0.74056 -2.82487,-25.46573 0,-26.6212 -0.31023,-25.0711 5.11335,-25.55016 4.52512,-0.39971 11.06204,0.644 14.65861,2.34044 9.27892,4.37669 15.08106,16.03478 13.51946,27.16422 -1.14399,8.15321 -6.74053,16.17776 -13.50951,19.37055 -4.25823,2.0085 -12.34721,3.02968 -16.95704,2.14068 z m 13.39813,-9.38824 c 6.49374,-2.79352 10.58098,-11.54448 9.04306,-19.36158 -1.62087,-8.2387 -6.58335,-13.11146 -14.41028,-14.14973 l -2.79823,-0.37119 v 17.86503 17.86503 l 2.79823,-0.37119 c 1.53902,-0.20417 3.95427,-0.86852 5.36722,-1.47637 z M 51.322601,28.84351 c -0.898386,-0.727479 -1.241295,-1.562744 -1.241295,-3.023652 0,-3.691524 3.821419,-5.305594 6.416749,-2.710263 1.794275,1.794275 1.753366,4.170317 -0.09685,5.625703 -1.756085,1.381363 -3.461456,1.417683 -5.078591,0.108212 z M 223.60612,28.735298 c -1.85023,-1.455386 -1.89114,-3.831428 -0.0969,-5.625703 2.38853,-2.388529 5.86241,-1.179758 6.52888,2.271769 0.26637,1.379495 0.0637,1.976775 -1.04831,3.088743 -1.6681,1.668094 -3.48636,1.757669 -5.3837,0.265191 z M 84.137931,267.00942 v -4.56596 h -4.565953 -4.565954 v 4.56596 4.56595 h 4.565954 4.565953 z m 17.189449,0 v -4.56596 h -4.565959 -4.565932 v 4.56596 4.56595 h 4.565932 4.565959 z m 17.18946,0 v -4.56596 h -4.56595 -4.56596 v 4.56596 4.56595 h 4.56596 4.56595 z m 17.72662,0 v -4.56596 h -4.83453 -4.83454 v 4.56596 4.56595 h 4.83454 4.83453 z m 17.18947,0 v -4.56596 h -4.83454 -4.83454 v 4.56596 4.56595 h 4.83454 4.83454 z m 17.18944,0 v -4.56596 h -4.56595 -4.56596 v 4.56596 4.56595 h 4.56596 4.56595 z m 17.18946,0 v -4.56596 h -4.56595 -4.56595 v 4.56596 4.56595 h 4.56595 4.56595 z m 17.18944,0 v -4.56596 h -4.56593 -4.56595 v 4.56596 4.56595 h 4.56595 4.56593 z"
       id="path1" /></g></svg>
