<?xml version="1.0" standalone="no"?>
<!DOCTYPE svg PUBLIC "-//W3C//DTD SVG 1.1//EN" "http://www.w3.org/Graphics/SVG/1.1/DTD/svg11.dtd" >
<svg>
<metadata>
Created by FontForge 20090914 at Fri Feb  4 16:56:23 2022
 By www-data
Digitized data copyright (c) 2014 by Hussain KH, Rajeesh K Nambiar, Kavya Manohar, Swathanthra Malayalam Computing.
</metadata>
<defs>
<font id="Keraleeyam" horiz-adv-x="1502" >
  <font-face 
    font-family="Keraleeyam"
    font-weight="700"
    font-stretch="normal"
    units-per-em="2048"
    panose-1="0 0 8 0 0 0 0 0 0 0"
    ascent="1304"
    descent="-744"
    x-height="902"
    cap-height="1254"
    bbox="-367.001 -799.999 3084 1370"
    underline-thickness="20"
    underline-position="-723"
    unicode-range="U+000C-U+25CC"
  />
<missing-glyph horiz-adv-x="602" 
d="M92 884v-838h374v838h-374zM512 0h-466v932h466v-932z" />
    <glyph glyph-name=".notdef" horiz-adv-x="602" 
d="M92 884v-838h374v838h-374zM512 0h-466v932h466v-932z" />
    <glyph glyph-name="NULL" horiz-adv-x="0" 
 />
    <glyph glyph-name="NULL" horiz-adv-x="0" 
 />
    <glyph glyph-name="CR.001" horiz-adv-x="682" 
 />
    <glyph glyph-name="nonmarkingreturn" unicode="&#xd;" horiz-adv-x="466" 
 />
    <glyph glyph-name="space" unicode=" " horiz-adv-x="566" 
 />
    <glyph glyph-name="exclam" unicode="!" horiz-adv-x="336" 
d="M303 885c0 -214 -28 -385 -84 -513h-55c-52.667 127.333 -79 298.333 -79 513v60c0 67.333 2.66699 124 8 170h201c6 -50 9 -96.333 9 -139v-91zM193 -21c-34.667 0 -60.668 9 -78.001 27c-31.333 32.667 -47 67 -47 103c0 35.333 9 62.333 27 81
c31.333 32.667 64 49 98 49c54.667 0 93.334 -26.333 116.001 -79c6.66699 -16 10 -33 10 -51c0 -36 -9 -63.333 -27 -82c-30.667 -32 -63.667 -48 -99 -48z" />
    <glyph glyph-name="quotedbl" unicode="&#x22;" horiz-adv-x="633" 
d="M524 710l-42 0.00195312c-11.333 0 -18 5 -20 15c-44 232 -66 373 -66 423c0 25.333 8 49.166 24 71.499s37 38.166 63 47.499c16 6 31 9 45 9c47.333 0 80 -20.333 98 -61c5.33301 -13.333 8 -27 8 -41c0 -64.667 -17.667 -179 -53 -343l-14 -82
c0 -2.66699 -0.666992 -5.66699 -2 -9s-3.5 -7.5 -6.5 -12.5s-7.5 -9.16699 -13.5 -12.5s-13 -5 -21 -5zM178 710.002l-42 0.000976562c-11.333 0 -18 5 -20 15c-44 232 -66 373 -66 423c0 16.667 3.33301 32.667 10 48s16.667 29.5 30 42.5s29 22.833 47 29.5
c16 5.33301 31 8 45 8c47.333 0 80 -20.333 98 -61c5.33301 -13.333 8 -27 8 -41c0 -64.667 -17.667 -179 -53 -343l-14 -82c-0.666992 -4.66699 -2 -9.33398 -4 -14.001s-6.5 -10 -13.5 -16s-15.5 -9 -25.5 -9z" />
    <glyph glyph-name="numbersign" unicode="#" horiz-adv-x="923" 
d="M698 251l-83 -366h-174l81 366h-170l-84 -366h-176l82 366h-111v157h146l41 186h-187v155h224l81 367h176l-81 -367h169l86 367h176l-85 -367h110v-155h-144l-42 -186h186v-157h-221zM428 594l-42 -186h170l43 186h-171z" />
    <glyph glyph-name="dollar" unicode="$" horiz-adv-x="801" 
d="M781.5 357.5c18.333 -31.667 27.5029 -68.167 27.5029 -109.5s-8.66699 -76.5 -26 -105.5s-40.333 -54.5 -69 -76.5c-55.333 -42.667 -126 -69.667 -212 -81v-109h-159v105c-92.667 8 -176 40.667 -250 98l3 190c28 -50 62.167 -86.333 102.5 -109
s88.5 -36.667 144.5 -42v312c-84 31.333 -142.333 61.666 -175 90.999c-62.667 57.333 -94 126.666 -94 207.999c0 70.667 25.333 134.334 76 191.001c49.333 56 113.666 92 192.999 108v85h159v-79c108 -5.33301 198 -39.666 270 -102.999l-5 -247
c-28.667 123.333 -117 193 -265 209v-357c101.333 -36.667 168.666 -67.667 201.999 -93s59.166 -53.833 77.499 -85.5zM343.003 604v273c-26.667 -15.333 -46.667 -37 -60 -65s-20 -56 -20 -84c0 -48.667 26.667 -90 80 -124zM502.003 127
c75.333 22.667 113 60.667 113 114c0 52.667 -37.667 95.667 -113 129v-243z" />
    <glyph glyph-name="percent" unicode="%" horiz-adv-x="871" 
d="M866 1113l-620 -1238h-193l615 1238h198zM203 774c0 -54.667 15.667 -82.001 47 -82.001s47 28 47 84c0 34.667 -5.66699 57.334 -17 68.001s-22.333 16 -33 16c-29.333 0 -44 -28.667 -44 -86zM246 567.999c-66 0 -114.333 22.998 -145 68.998
c-23.333 35.333 -35 72.833 -35 112.5s2.33301 71.834 7 96.501s13.667 47.334 27 68.001c29.333 46.667 78 70 146 70c66.667 0 116 -23 148 -69c24.667 -35.333 37 -82 37 -140c0 -92 -31.333 -154.667 -94 -188c-24 -12.667 -54.333 -19 -91 -19zM623 195.997
c0 -54.667 15.667 -82.001 47 -82.001s47 28 47 84c0 34.667 -5.66699 57.334 -17 68.001s-22.333 16 -33 16c-29.333 0 -44 -28.667 -44 -86zM666 -9.00391c-66.667 0 -115 22.6641 -145 67.9971c-23.333 35.333 -35 72.833 -35 112.5s2.33301 71.834 7 96.501
s13.667 47.334 27 68.001c29.333 46.667 78 70 146 70c66.667 0 116 -23 148 -69c24.667 -35.333 37 -82 37 -140c0 -91.333 -31.333 -153.666 -94 -186.999c-24 -12.667 -54.333 -19 -91 -19z" />
    <glyph glyph-name="ampersand" unicode="&#x26;" horiz-adv-x="940" 
d="M928 486c0 -116.667 -34 -219.669 -102 -309.002c72.667 -72.667 109 -131 109 -175h-210c0 14.667 -8 33.667 -24 57c-88.667 -58.667 -188.334 -88 -299.001 -88c-90 0 -168.667 26.667 -236 80c-71.333 56.667 -107 126.334 -107 209.001c0 88.667 39 162 117 220
c23.333 16.667 48 32.667 74 48c-76 107.333 -114 213 -114 317c0 73.333 33.333 139.666 100 198.999c64.667 57.333 136.334 86 215.001 86c88.667 0 164.334 -24.667 227.001 -74c66.667 -51.333 100 -118.666 100 -201.999c0 -120.667 -59.667 -222 -179 -304
c-33.333 -23.333 -67.333 -44.666 -102 -63.999c35.333 -38.667 100.666 -100.667 195.999 -186c36 52.667 54 113 54 181zM589.5 771.998c11 24 16.5 48.999 16.5 74.999s-4.33301 46.333 -13 61s-20.334 26.667 -35.001 36c-26.667 16.667 -55.167 25 -85.5 25
s-53.5 -3.5 -69.5 -10.5s-30.333 -16.5 -43 -28.5c-29.333 -26 -44 -57 -44 -93c0 -70 27.667 -146.667 83 -230c66.667 34.667 112.334 64.834 137.001 90.501s42.5 50.5 53.5 74.5zM574 188.997c-110.667 102 -185 173.331 -223 213.998
c-32 -20.667 -58.167 -42.167 -78.5 -64.5s-30.5 -45.666 -30.5 -69.999s4.83301 -43.666 14.5 -57.999s22.167 -26.5 37.5 -36.5c30.667 -20 64 -30 100 -30c68 0 128 15 180 45z" />
    <glyph glyph-name="quotesingle" unicode="'" horiz-adv-x="386" 
d="M308 825l-42.002 0.00195312c-11.333 0 -17.666 5 -18.999 15l-67 344c0 25.333 7.66699 49 23 71c16 23.333 37.333 39.666 64 48.999c16 5.33301 31 8 45 8c50 0 82.667 -20.333 98 -61c5.33301 -13.333 8 -27 8 -41c0 -12 -17.667 -100 -53 -264l-14 -82
c0 -0.666992 -1.33301 -5.33398 -4 -14.001c-1.33301 -4.66699 -5.66602 -10 -12.999 -16s-16 -9 -26 -9z" />
    <glyph glyph-name="parenleft" unicode="(" horiz-adv-x="419" 
d="M246 -342c-114 229.333 -171.001 485.331 -171.001 767.998c0 300.667 55.667 568.334 167 803.001h202c-64.667 -194.667 -110 -387.667 -136 -579c-8.66699 -68 -13 -132.167 -13 -192.5s3.83301 -125.166 11.5 -194.499s17.834 -139 30.501 -209
c26 -145.333 57.667 -277.333 95 -396h-186z" />
    <glyph glyph-name="parenright" unicode=")" horiz-adv-x="410" 
d="M218 -352h-186c60.667 195.333 102.667 398.333 126 609c7.33301 70 11 135.333 11 196s-4.33301 125 -13 193s-20 136 -34 204c-28 131.333 -62 258 -102 380h202c112 -238.667 168 -504 168 -796s-57.333 -554 -172 -786z" />
    <glyph glyph-name="asterisk" unicode="*" horiz-adv-x="865" 
d="M837 500h-215l158 -158l-86 -85l-162 162v-240h-121v230l-166 -166l-86 85l172 172h-240v121h239l-166 166l86 86l161 -162v218h121v-228l157 158l86 -86l-152 -152h214v-121z" />
    <glyph glyph-name="plus" unicode="+" horiz-adv-x="1139" 
d="M695 460v-444h-191v444h-444v193h444v443h191v-443h445v-193h-445z" />
    <glyph glyph-name="comma" unicode="," horiz-adv-x="329" 
d="M82 -275l-73.001 0.00195312c62 59.333 100.5 102.333 115.5 129s24.167 49.667 27.5 69c-34.667 8 -60 22 -76 42c-28.667 34.667 -43 65.667 -43 93s4 50.166 12 68.499s18.667 34.166 32 47.499c29.333 29.333 64.666 44 105.999 44
c40.667 0 76.334 -14.667 107.001 -44c29.333 -28.667 44 -63 44 -103c0 -75.333 -24.167 -144.5 -72.5 -207.5s-108.166 -109.167 -179.499 -138.5z" />
    <glyph glyph-name="hyphen" unicode="-" horiz-adv-x="633" 
d="M81 503h529v-163h-529v163z" />
    <glyph glyph-name="period" unicode="." horiz-adv-x="329" 
d="M193 -21c-65.333 0 -111.334 30.333 -138.001 91c-8 18 -12 37.333 -12 58c0 42 15 77.333 45 106c30 29.333 65 44 105 44c40.667 0 76.334 -14.667 107.001 -44c29.333 -28.667 44 -64 44 -106c0 -40 -14.667 -75.333 -44 -106c-28 -28.667 -63.667 -43 -107 -43z" />
    <glyph glyph-name="slash" unicode="/" horiz-adv-x="771" 
d="M246 -204h-193l516 1434h198z" />
    <glyph glyph-name="zero" unicode="0" horiz-adv-x="759" 
d="M408 -13c-170.667 0 -280.332 112.667 -328.999 338c-17.333 80 -26 175 -26 285c0 331.333 75 535 225 611c37.333 18.667 80.666 28 129.999 28c170 0 278.667 -113 326 -339c16.667 -82 25 -177.333 25 -286c0 -330.667 -74 -533.667 -222 -609
c-36.667 -18.667 -79.667 -28 -129 -28zM404.002 1062c-47.333 0 -85.999 -29.998 -115.999 -89.998c-38.667 -78.667 -58 -201.334 -58 -368.001c0 -214 35.667 -349.333 107 -406c18.667 -15.333 41 -23 67 -23c46.667 0 84.667 28.333 114 85
c38.667 74.667 58 191.667 58 351c0 225.333 -34.667 367.666 -104 426.999c-18.667 16 -41.334 24 -68.001 24z" />
    <glyph glyph-name="one" unicode="1" horiz-adv-x="386" 
d="M142 6l-0.000976562 959l-53 -21l-6.5 80c-2.33301 28 -2.16602 56.667 0.500977 86c6 62.667 31.667 94 77 94h192v-1198h-210z" />
    <glyph glyph-name="two" unicode="2" horiz-adv-x="825" 
d="M80 641c-44.667 61.333 -66.998 124.669 -66.998 190.002s11 121.5 33 168.5s51.333 88.167 88 123.5c81.333 77.333 175.333 116 282 116c120 0 218 -45 294 -135c72 -84.667 108 -188.334 108 -311.001c0 -142.667 -52.667 -268.334 -158 -377.001
c-18.667 -20 -36 -37.667 -52 -53l-41 -39.5l-38 -35.5l-107 -103l376 1v-185h-738c7.33301 77.333 48.333 154.333 123 231l46.5 44.5c16.333 15 33.166 29.667 50.499 44l65.5 55l91.5 80c34.667 31 65.667 63.833 93 98.5c60 77.333 90 157 90 239
c0 117.333 -36.333 197.333 -109 240c-27.333 16 -60.333 24 -99 24s-71.334 -7.5 -98.001 -22.5s-48.667 -34.5 -66 -58.5c-34.667 -46.667 -52 -102 -52 -166s20 -118 60 -162z" />
    <glyph glyph-name="three" unicode="3" horiz-adv-x="809" 
d="M669 623c54.667 -49.333 89.6689 -89.6689 105.002 -121.002c24 -50.667 36 -103 36 -157s-10.833 -102.5 -32.5 -145.5s-50.167 -80.5 -85.5 -112.5c-77.333 -69.333 -166.666 -104 -267.999 -104c-104 0 -193.333 37 -268 111
c-74.667 73.333 -113.334 161.333 -116.001 264l164 -8c-0.666992 -3.33301 -1 -6.66602 -1 -9.99902v-8c0 -50 19.333 -94.667 58 -134c40 -41.333 85.667 -62 137 -62c52 0 98.667 19.667 140 59c42.667 40 64 85 64 135c0 38.667 -10.667 72.334 -32 101.001
c-40 53.333 -82 80 -126 80h-67l9 175h58c46.667 0 86 23.333 118 70c26.667 40 40 76.833 40 110.5s-5.66699 61.667 -17 84s-26.333 41.5 -45 57.5c-40.667 34 -88.334 51 -143.001 51c-50 0 -94.333 -16.333 -133 -49c-39.333 -33.333 -59 -75 -59 -125v-13l-165 -8
c-1.33301 104.667 36 193.667 112 267c76 74 166.667 111 272 111c97.333 0 186 -32.333 266 -97c83.333 -68 125 -147 125 -237c0 -57.333 -8 -102 -24 -134c-28.667 -58 -69.334 -108.333 -122.001 -151z" />
    <glyph glyph-name="four" unicode="4" horiz-adv-x="960" 
d="M788 241l-0.000976562 -237.999h-172v238h-556c2.66699 246 43.334 458.667 122.001 638c60 135.333 142 230.333 246 285c54 28 115.667 42 185 42h175v-786h138c23.333 0 39 -23 47 -69c3.33301 -18.667 5 -38.334 5 -59.001v-51h-190zM615.999 1028h-23.999
c-116.667 0 -201.334 -88.333 -254.001 -265c-30.667 -104 -46 -218.333 -46 -343h324v608z" />
    <glyph glyph-name="five" unicode="5" horiz-adv-x="867" 
d="M247 821c82 42 153.999 63.002 215.999 63.002s117.667 -13.333 167 -40s91.333 -61.334 126 -104.001c74 -90.667 111 -195 111 -313c0 -121.333 -36 -227 -108 -317c-76.667 -96 -174 -144 -292 -144c-112 0 -207.333 32.667 -286 98c-84 70.667 -126 157.667 -126 261
l1 26l182 -9c5.33301 -56.667 28.333 -102.834 69 -138.501s85.5 -53.5 134.5 -53.5s86.833 8.83301 113.5 26.5s48.334 40.167 65.001 67.5c30 50 45 109.333 45 178c0 70.667 -17.667 132 -53 184c-42.667 62.667 -103 94 -181 94s-139.333 -33.667 -184 -101l-188 -8v612
h694c36 0 60 -40.667 72 -122c2.66699 -18 5 -35.333 7 -52h-585v-208z" />
    <glyph glyph-name="six" unicode="6" horiz-adv-x="802" 
d="M438 -22c-56.667 0 -107.998 11.999 -153.998 35.999s-83.333 54.167 -112 90.5s-51.334 76.5 -68.001 120.5c-32 82 -48 176 -48 282c0 142.667 5.33301 247.667 16 315s25 125.5 43 174.5s42.333 91.833 73 128.5c68 80 164.333 120 289 120
c100.667 0 178.334 -33 233.001 -99c50.667 -60.667 78 -143.334 82 -248.001l-172 9c-6.66699 46.667 -17 79.334 -31 98.001c-26.667 38 -59.834 57 -99.501 57s-70.834 -5.83301 -93.501 -17.5s-41.834 -27.5 -57.501 -47.5s-28.167 -43.167 -37.5 -69.5
s-16.666 -54.166 -21.999 -83.499c-8.66699 -48.667 -13 -108.667 -13 -180c66.667 64.667 120.667 102.334 162 113.001c16 4 32 6 48 6c101.333 0 182 -40 242 -120c54.667 -72.667 82 -162.334 82 -269.001c0 -115.333 -31.333 -212 -94 -290
c-66.667 -84 -156 -126 -268 -126zM513.502 575.999c-21.667 15.333 -48.8301 23 -81.4971 23s-59.834 -8.33301 -81.501 -25s-38.5 -37 -50.5 -61c-22.667 -43.333 -34 -84.333 -34 -123s2.66699 -70.5 8 -95.5s14.666 -48.167 27.999 -69.5c30 -50 73.667 -75 131 -75
c58 0 102 27.333 132 82c23.333 42 35 81.667 35 119s-2.66699 69 -8 95s-14.333 50.333 -27 73s-29.834 41.667 -51.501 57z" />
    <glyph glyph-name="seven" unicode="7" horiz-adv-x="727" 
d="M57 1056c0 108.667 27.666 163.001 82.999 163.001h405c54.667 0 98.334 -17.667 131.001 -53c32 -34.667 48 -81 48 -139c0 -108 -52.667 -277 -158 -507l-49 -105c-80 -170 -126 -276.833 -138 -320.5s-19.333 -74.834 -22 -93.501h-199
c7.33301 94 65.333 251.333 174 472l64 132c75.333 152.667 113 262.5 113 329.5s-34.333 100.5 -103 100.5h-349v21z" />
    <glyph glyph-name="eight" unicode="8" horiz-adv-x="805" 
d="M582 2c-47.333 -20 -97.4971 -29.999 -150.497 -29.999s-103 10.333 -150 31s-87.833 48.667 -122.5 84c-96.667 98 -126.334 215 -89.001 351c13.333 48.667 35 88.5 65 119.5s59.667 57.5 89 79.5c-52.667 42.667 -87.667 80 -105 112
c-26.667 52 -40 103.167 -40 153.5s9.33301 95.666 28 135.999s44 75.5 76 105.5c69.333 64 151.666 96 246.999 96c98 0 181.333 -32.667 250 -98c70.667 -65.333 105.334 -144.333 104.001 -237c0 -54 -8 -96.667 -24 -128c-26.667 -50.667 -67.334 -98 -122.001 -142
c85.333 -62.667 137.666 -129.667 156.999 -201c22 -80.667 18.667 -156 -10 -226c-38 -95.333 -105.667 -164 -203 -206zM432.003 1078c-24 0 -46.1689 -4.16699 -66.502 -12.5s-38.166 -19.833 -53.499 -34.5c-32.667 -30 -51.667 -63.167 -57 -99.5
s-4.16602 -67.666 3.50098 -93.999s19.5 -49.5 35.5 -69.5c37.333 -46.667 83.666 -69.334 138.999 -68.001c54 0 98.333 22 133 66c52 64.667 60.667 134 26 208c-33.333 69.333 -86.666 104 -159.999 104zM430.001 559.001
c-28.667 -0.666992 -54.6689 -6.33105 -78.002 -16.998s-43.666 -25.334 -60.999 -44.001c-36 -37.333 -55.5 -77 -58.5 -119s0.333008 -76.5 10 -103.5s23.5 -50.833 41.5 -71.5c40 -47.333 90 -71 150 -71c58.667 0 107.334 22.667 146.001 68
c37.333 43.333 55.333 94.666 54 153.999c-2.66699 58 -22.667 106 -60 144c-40.667 41.333 -88.667 61.333 -144 60z" />
    <glyph glyph-name="nine" unicode="9" horiz-adv-x="802" 
d="M547.5 28.5c-47 -21.667 -100.501 -32.5 -160.501 -32.5s-109.333 8.66699 -148 26s-71 41.333 -97 72c-50.667 60.667 -78 143 -82 247l172 -8c6.66699 -46 17 -78.667 31 -98c26.667 -38 63.834 -57 111.501 -57s85.5 12.667 113.5 38s49.333 57.333 64 96
c23.333 62.667 35 150.667 35 264c-66 -64 -120.333 -101.667 -163 -113c-15.333 -4 -31 -6 -47 -6c-102 0 -183 40 -243 120c-54 72.667 -81 162.334 -81 269.001c0 115.333 31.333 212 94 290c67.333 84.667 157.333 127 270 127c108 0 195.667 -42.333 263 -127
c78 -97.333 117 -231.666 117 -402.999c0 -142.667 -5.33301 -247.667 -16 -315s-25 -125.333 -43 -174s-42.5 -91.334 -73.5 -128.001s-70 -65.834 -117 -87.501zM419.999 1090c-58 0 -102 -27.3311 -132 -81.998c-23.333 -42 -35 -81.833 -35 -119.5
s2.66699 -69.334 8 -95.001s14.333 -49.834 27 -72.501c30 -53.333 74 -80 132 -80c59.333 0 104 28.667 134 86c22 43.333 33 84.333 33 123s-2.66699 70.5 -8 95.5s-14.333 48.167 -27 69.5c-30.667 50 -74.667 75 -132 75z" />
    <glyph glyph-name="colon" unicode=":" horiz-adv-x="329" 
d="M173 498c-38.667 0 -71.667 13.667 -99 41s-41 60.333 -41 99s13.667 71.667 41 99s60.333 41 99 41c39.333 0 72.666 -13.667 99.999 -41s41 -60.333 41 -99s-13.667 -71.667 -41 -99s-60.666 -41 -99.999 -41zM173 48c-38.667 0 -71.667 13.667 -99 41
s-41 60.333 -41 99s13.667 71.667 41 99s60.333 41 99 41c39.333 0 72.666 -13.667 99.999 -41s41 -60.333 41 -99s-13.667 -71.667 -41 -99s-60.666 -41 -99.999 -41z" />
    <glyph glyph-name="semicolon" unicode=";" horiz-adv-x="329" 
d="M82 -275l-73.001 0.00195312c62 59.333 100.5 102.333 115.5 129s24.167 49.667 27.5 69c-34.667 8 -60 22 -76 42c-28.667 34.667 -43 65.667 -43 93s4 50.166 12 68.499s18.667 34.166 32 47.499c29.333 29.333 64.666 44 105.999 44
c40.667 0 76.334 -14.667 107.001 -44c29.333 -28.667 44 -63 44 -103c0 -75.333 -24.167 -144.5 -72.5 -207.5s-108.166 -109.167 -179.499 -138.5zM172.999 298.002c-38.667 0 -71.667 13.667 -99 41s-41 60.333 -41 99s13.667 71.667 41 99s60.333 41 99 41
c39.333 0 72.666 -13.667 99.999 -41s41 -60.333 41 -99s-13.667 -71.667 -41 -99s-60.666 -41 -99.999 -41z" />
    <glyph glyph-name="less" unicode="&#x3c;" horiz-adv-x="989" 
d="M989 -20l-931 393v174l931 389v-189l-697 -288l697 -291v-188z" />
    <glyph glyph-name="equal" unicode="=" horiz-adv-x="1008" 
d="M91 633h879v-163h-879v163zM91 323h879v-163h-879v163z" />
    <glyph glyph-name="greater" unicode="&#x3e;" horiz-adv-x="989" 
d="M61 168l697 291l-697 288v189l931 -389v-174l-931 -393v188z" />
    <glyph glyph-name="question" unicode="?" horiz-adv-x="745" 
d="M389 959c-78.667 0 -120.333 -66.666 -125 -199.999h-206c1.33301 98 32.333 181 93 249c64 72.667 146.667 109 248 109s184.666 -32.333 249.999 -97c62.667 -61.333 94 -138.333 94 -231c0 -86 -47 -174 -141 -264c-58 -56 -96.167 -99.5 -114.5 -130.5
s-27.833 -60.167 -28.5 -87.5h-203c1.33301 83.333 48.333 168.333 141 255c57.333 53.333 94.833 96.5 112.5 129.5s26.5 62.667 26.5 89s-2.66699 49.666 -8 69.999s-13.666 38.5 -24.999 54.5c-25.333 36 -63.333 54 -114 54zM353.001 -20.999
c-37.333 0 -65.667 9.33301 -85 28c-33.333 32 -50 66 -50 102c0 56 27.333 95.667 82 119c16.667 7.33301 34.334 11 53.001 11c37.333 0 69.666 -13 96.999 -39c26 -24.667 39 -55 39 -91s-13 -66.667 -39 -92c-26.667 -25.333 -59 -38 -97 -38z" />
    <glyph glyph-name="at" unicode="@" horiz-adv-x="1186" 
d="M1080 48c-116.667 -89.333 -249 -134.001 -397 -134.001c-174.667 0 -325.334 57.333 -452.001 172c-80.667 73.333 -137 163.666 -169 270.999c-16 53.333 -24 117 -24 191s15.167 147.167 45.5 219.5s72.5 133.833 126.5 184.5c112.667 106 257.334 159 434.001 159
c150.667 0 277 -41.667 379 -125c109.333 -90 164 -208.667 164 -356c0 -103.333 -37.333 -201 -112 -293c-78.667 -96.667 -169 -145 -271 -145c-45.333 0 -83.333 21.667 -114 65c-44.667 -38.667 -89.5 -58 -134.5 -58s-83.167 8 -114.5 24s-58.333 37 -81 63
c-48 55.333 -72 120 -72 194c0 92.667 26.667 174 80 244c58.667 76.667 129.667 115 213 115s151.666 -21.667 204.999 -65l7 28h172c-36.667 52 -82.834 91.667 -138.501 119s-115.167 41 -178.5 41s-122.166 -10.5 -176.499 -31.5s-101.166 -50.5 -140.499 -88.5
c-83.333 -81.333 -125 -186.666 -125 -315.999c0 -135.333 50 -246.666 150 -333.999c94 -82.667 213.333 -124 358 -124s266.667 51 366 153v-173zM893 427.499c-0.666992 -2.33301 -0.999023 -8.99902 -0.999023 -19.999s4 -16.5 12 -16.5c36 0 68 21 96 63
c24.667 37.333 37 75.666 37 114.999c0 84.667 -23.333 161 -70 229l-72 -363c-0.666992 -2.66699 -1.33398 -5.16699 -2.00098 -7.5zM730.001 473.5c8.66699 16.333 12.999 33.999 12.999 52.999s-3 36 -9 51s-14 27.833 -24 38.5c-22.667 24 -47.667 36 -75 36
s-50.666 -3.5 -69.999 -10.5s-36.333 -16.833 -51 -29.5c-34 -29.333 -51 -64.666 -51 -105.999c0 -34 13 -61.333 39 -82c22.667 -18.667 47.667 -28 75 -28s50.333 3 69 9s35.167 14.833 49.5 26.5s25.833 25.667 34.5 42z" />
    <glyph glyph-name="A" unicode="A" horiz-adv-x="1068" 
d="M819 0l-109 359h-357l-110 -359h-212l395 1257h220l390 -1257h-217zM533 953l-128 -402h248z" />
    <glyph glyph-name="B" unicode="B" horiz-adv-x="951" 
d="M738 664c107.333 -66.667 161.001 -163.667 161.001 -291c0 -114 -30.667 -204.333 -92 -271c-62.667 -68 -144.667 -102 -246 -102h-504v1254h457c107.333 0 190.666 -29.667 249.999 -89c59.333 -60.667 89 -143.5 89 -248.5s-38.333 -189.167 -115 -252.5z
M552.001 752c70 26 105.001 80 105.001 162c0 32.667 -9.83301 60.167 -29.5 82.5s-40.334 37.833 -62.001 46.5s-50.167 13 -85.5 13h-226v-315h226c26.667 0 50.667 3.66699 72 11zM547.002 198c104.667 0 157 61.333 157 184c0 65.333 -19.833 108.5 -59.5 129.5
s-92.167 31.5 -157.5 31.5h-233v-345h293z" />
    <glyph glyph-name="C" unicode="C" horiz-adv-x="1055" 
d="M887.5 108.5c-77 -87 -185.83 -130.5 -326.497 -130.5s-259.334 54 -356.001 162c-96 106 -144 267 -144 483c0 190 42.667 345 128 465c88.667 126.667 216.667 190 384 190c120.667 0 217.5 -36.167 290.5 -108.5s123.167 -185.833 150.5 -340.5h-199
c-27.333 131.333 -82 210.333 -164 237c-28 8.66699 -63.667 13 -107 13c-92.667 0 -163.167 -43 -211.5 -129s-72.5 -194.333 -72.5 -325c0 -154 29.167 -267.333 87.5 -340s132.166 -109 221.499 -109c107.333 0 183 59.333 227 178c15.333 42 27.666 93.667 36.999 155
h202c-21.333 -180 -70.5 -313.5 -147.5 -400.5z" />
    <glyph glyph-name="D" unicode="D" horiz-adv-x="1001" 
d="M955 628c0 -238 -49.333 -402.667 -148 -494c-97.333 -89.333 -201.333 -134 -312 -134h-434v1254h434c157.333 0 274 -61.667 350 -185c73.333 -118 110 -265 110 -441zM473 1056h-216.001v-858h216c188.667 0 283 143 283 429c0 221.333 -54 356.333 -162 405
c-35.333 16 -75.666 24 -120.999 24z" />
    <glyph glyph-name="E" unicode="E" horiz-adv-x="898" 
d="M59 0v1254h783v-198h-587v-315h566v-198h-566v-345h613v-198h-809z" />
    <glyph glyph-name="F" unicode="F" horiz-adv-x="846" 
d="M253 1056v-315h495v-198h-495v-543h-194v1254h758v-198h-564z" />
    <glyph glyph-name="G" unicode="G" horiz-adv-x="1132" 
d="M940 10l-25.999 119.999c-100.667 -100.667 -217 -151 -349 -151c-156.667 0 -280.834 63.167 -372.501 189.5s-137.5 274.5 -137.5 444.5c0 196 47 354.667 141 476c96 125.333 229 188 399 188c132 0 238.333 -34.833 319 -104.5s134.667 -181.167 162 -334.5h-201
c-20 88.667 -53.833 150.834 -101.5 186.501s-103.5 53.5 -167.5 53.5c-118 0 -205.833 -41.333 -263.5 -124s-86.5 -190.834 -86.5 -324.501s30 -243.5 90 -329.5c58 -82 143.333 -123 256 -123c86 0 157.333 29.333 214 88c56 58.667 84 138.334 84 239.001l-319 2v198
h504v-694h-145z" />
    <glyph glyph-name="H" unicode="H" horiz-adv-x="977" 
d="M730 0v543h-474v-543h-197v1254h197v-513h474v513h196v-1254h-196z" />
    <glyph glyph-name="I" unicode="I" horiz-adv-x="258" 
d="M73 0v1254h128v-1254h-128z" />
    <glyph glyph-name="J" unicode="J" horiz-adv-x="737" 
d="M691 341c0 -110.667 -28.332 -199 -84.999 -265c-56.667 -65.333 -133.334 -98 -230.001 -98c-96 0 -172.667 30 -230 90c-56.667 62 -85 146.333 -85 253v136h190v-109c0 -64 10.667 -108.667 32 -134s46.833 -38 76.5 -38s52 3.5 67 10.5s28.167 18.833 39.5 35.5
c22.667 36 34 94 34 174v858h191v-913z" />
    <glyph glyph-name="K" unicode="K" horiz-adv-x="967" 
d="M747 0l-357 590l-133 -154v-436h-198v1254h198v-549l475 549h256l-457 -521l448 -733h-232z" />
    <glyph glyph-name="L" unicode="L" horiz-adv-x="803" 
d="M59 0v1254h193v-1056h507v-198h-700z" />
    <glyph glyph-name="M" unicode="M" horiz-adv-x="1187" 
d="M937 0v808l-241 -808h-192l-242 809v-809h-202l9 1254h243l289 -958l284 958h253v-1254h-201z" />
    <glyph glyph-name="N" unicode="N" horiz-adv-x="1008" 
d="M750 0l-491 878v-878h-198v1257h203l498 -883v883h198v-1257h-210z" />
    <glyph glyph-name="O" unicode="O" horiz-adv-x="1193" 
d="M999.5 159.5c-99 -121 -231.167 -181.5 -396.5 -181.5c-168 0 -300.667 62 -398 186c-96 120.667 -144 274.334 -144 461.001c0 185.333 47.333 339.666 142 462.999c98 126 232.167 189 402.5 189s303.833 -63.333 400.5 -190c94.667 -123.333 142 -278.5 142 -465.5
s-49.5 -341 -148.5 -462zM947 625c0 130.667 -29.999 240 -89.999 328c-56.667 83.333 -140 125 -250 125c-108.667 0 -193 -41.333 -253 -124c-61.333 -86.667 -92 -195.167 -92 -325.5s29.667 -238.5 89 -324.5s142.666 -129 249.999 -129c108.667 0 193 41.333 253 124
c62 87.333 93 196 93 326z" />
    <glyph glyph-name="P" unicode="P" horiz-adv-x="916" 
d="M780.5 1156.5c58.333 -65 87.5 -156 87.5 -273s-28.333 -208.833 -85 -275.5c-57.333 -68.667 -135.333 -103 -234 -103h-294v-505h-196v1254h460c116 0 203.167 -32.5 261.5 -97.5zM672 899c0 45.333 -15.333 82.667 -46 112c-31.333 30 -73.333 45 -126 45h-245v-353
h245c52 0 93.667 14.333 125 43s47 79.667 47 153z" />
    <glyph glyph-name="Q" unicode="Q" horiz-adv-x="1181" 
d="M1006 171l138 -126l-107 -144l-162 147c-84 -48 -171.667 -72 -263 -72c-176.667 0 -314 62 -412 186c-95.333 122 -143 276.333 -143 463s48.333 342 145 466s229.5 186 398.5 186s302.833 -62.667 401.5 -188c96.667 -123.333 145 -275.5 145 -456.5
s-47 -334.833 -141 -461.5zM857 306c59.333 87.333 89 191.001 89 311.001c0 136.667 -30.333 248.667 -91 336c-58 83.333 -142.333 125 -253 125c-110 0 -194 -41.667 -252 -125c-61.333 -88.667 -92 -197.834 -92 -327.501s29.333 -238.5 88 -326.5
c55.333 -83.333 142 -125 260 -125c37.333 0 74.333 7.66699 111 23l-94 81l106 144z" />
    <glyph glyph-name="R" unicode="R" horiz-adv-x="993" 
d="M905 327c0 -128 19.999 -209.332 59.999 -243.999v-83h-215c-26 71.333 -39 186.333 -39 345c0 60.667 -11.667 103.834 -35 129.501s-58.666 38.5 -105.999 38.5h-313v-513h-198v1254h515c114 0 200.833 -29.333 260.5 -88s89.5 -146 89.5 -262
c0 -76.667 -13.167 -135.834 -39.5 -177.501s-58.833 -76.834 -97.5 -105.501c60 -43.333 96.333 -104 109 -182c6 -34 9 -71.333 9 -112zM548.999 1056h-292v-345h292c57.333 0 99.166 13.5 125.499 40.5s39.5 70.833 39.5 131.5s-13.167 104.667 -39.5 132
s-68.166 41 -125.499 41z" />
    <glyph glyph-name="S" unicode="S" horiz-adv-x="953" 
d="M915 368c0 -131.333 -43.335 -230.003 -130.002 -296.003c-82 -62.667 -188 -94 -318 -94c-127.333 0 -231 36 -311 108c-80.667 72 -123.667 194.333 -129 367h193c1.33301 -99.333 22.666 -170.333 63.999 -213s107 -64 197 -64c124 0 199 34 225 102
c8 22.667 12 45.334 12 68.001s-3 41.834 -9 57.501s-15.667 30.5 -29 44.5c-28 28 -72 51 -132 69l-259 77c-152.667 46.667 -229 148.334 -229 305.001c0 124.667 39.667 219.667 119 285c74.667 62 171.334 93 290.001 93s215.334 -31.667 290.001 -95
c40 -33.333 67.333 -69.666 82 -108.999c24 -65.333 37.333 -140 40 -224h-190c-4 120.667 -46.667 193 -128 217c-28.667 8 -61.667 12 -99 12c-103.333 0 -167.666 -27.333 -192.999 -82c-8.66699 -18.667 -13 -43.334 -13 -74.001c0 -66.667 49.333 -115 148 -145
l264 -80c163.333 -50 245 -159.667 245 -329z" />
    <glyph glyph-name="T" unicode="T" horiz-adv-x="933" 
d="M571 1056v-1056h-198v1056h-343v198h885v-198h-344z" />
    <glyph glyph-name="U" unicode="U" horiz-adv-x="973" 
d="M924 398c0 -134 -41.498 -237.5 -124.498 -310.5s-186.833 -109.5 -311.5 -109.5s-227 35 -307 105c-81.333 71.333 -122 176.333 -122 315v856h197v-856c0 -75.333 18.667 -131.166 56 -167.499s97.166 -54.5 179.499 -54.5s142.166 18.167 179.499 54.5
s56 92.166 56 167.499v856h197v-856z" />
    <glyph glyph-name="V" unicode="V" horiz-adv-x="998" 
d="M606 0h-192l-398 1254h213l283 -927l268 927h209z" />
    <glyph glyph-name="W" unicode="W" horiz-adv-x="1447" 
d="M1147 0h-203l-220 874l-215 -874h-205l-288 1254h221l178 -851l209 851h199l216 -852l173 852h222z" />
    <glyph glyph-name="X" unicode="X" horiz-adv-x="1016" 
d="M778 0l-267 464l-271 -464h-238l392 644l-369 610h239l251 -435l252 435h236l-373 -610l389 -644h-241z" />
    <glyph glyph-name="Y" unicode="Y" horiz-adv-x="1052" 
d="M629 491v-491h-199v491l-428 763h241l289 -542l281 542h233z" />
    <glyph glyph-name="Z" unicode="Z" horiz-adv-x="928" 
d="M25 0v177l598 879h-558v198h814v-181l-595 -875h599v-198h-858z" />
    <glyph glyph-name="bracketleft" unicode="[" horiz-adv-x="478" 
d="M65 -342v1580h437v-173h-225v-1231h225v-176h-437z" />
    <glyph glyph-name="backslash" unicode="\" horiz-adv-x="741" 
d="M43 1230h198l516 -1434h-193z" />
    <glyph glyph-name="bracketright" unicode="]" horiz-adv-x="464" 
d="M28 -342v176h225v1231h-225v173h437v-1580h-437z" />
    <glyph glyph-name="asciicircum" unicode="^" horiz-adv-x="798" 
d="M623 600l-178 346l-179 -346h-210l365 639h52l359 -639h-209z" />
    <glyph glyph-name="underscore" unicode="_" horiz-adv-x="833" 
d="M81 243h729v-163h-729v163z" />
    <glyph glyph-name="grave" unicode="`" horiz-adv-x="458" 
d="M241 1238l223 -296h-132l-296 296h205z" />
    <glyph glyph-name="a" unicode="a" horiz-adv-x="849" 
d="M817 1c-54 -15.333 -92.3359 -23.0039 -115.003 -23.0039c-68.667 0 -116 33 -142 99c-81.333 -66 -158.666 -99 -231.999 -99c-137.333 0 -226.666 52.667 -267.999 158c-14 34.667 -21 73.334 -21 116.001c0 88 23.333 154 70 198
c45.333 42.667 120.333 72.834 225 90.501s162.667 28.667 174 33s18 7.5 20 9.5s4 5.33301 6 10c5.33301 12.667 8 30.334 8 53.001c0 30.667 -7 51.667 -21 63c-24.667 20 -55.667 30 -93 30s-65 -2.66699 -83 -8s-33.333 -13.666 -46 -24.999
c-24 -21.333 -39.333 -59.333 -46 -114h-181c12.667 221.333 124 332 334 332c154.667 0 253.334 -47.667 296.001 -143c14.667 -32.667 22 -71 22 -115v-480c0 -13.333 2.33301 -22.333 7 -27s13.667 -7 27 -7h59v-151zM541.997 410.996
c-22 -6 -44.667 -11.001 -68 -15.001c-53.333 -9.33301 -92.833 -17.166 -118.5 -23.499s-46.5 -13.5 -62.5 -21.5s-29 -16.667 -39 -26c-17.333 -17.333 -26 -41 -26 -71c0 -64 39.333 -96 118 -96c76 0 126.667 18 152 54c29.333 40 44 72.333 44 97v102z" />
    <glyph glyph-name="b" unicode="b" horiz-adv-x="840" 
d="M243 860c58.667 57.333 121.335 86.001 188.002 86.001s121.667 -11.833 165 -35.5s79.666 -58.834 108.999 -105.501c56.667 -90 85 -201 85 -333c0 -141.333 -30.333 -259 -91 -353s-148.334 -141 -263.001 -141c-76.667 0 -144.667 29.667 -204 89v-67h-170v1254h181
v-394zM422.001 757.001c-58 0 -102.333 -29.833 -133 -89.5s-46 -132.167 -46 -217.5s16.667 -153.833 50 -205.5s78.333 -77.5 135 -77.5c56 0 99.333 27.833 130 83.5s46 125 46 208s-15.833 153.5 -47.5 211.5s-76.5 87 -134.5 87z" />
    <glyph glyph-name="c" unicode="c" horiz-adv-x="788" 
d="M417 -22c-118.667 0 -208.333 46.168 -269 138.501s-91 205.333 -91 339s31.667 245.167 95 334.5s147.833 134 253.5 134s185.834 -29.333 240.501 -88s88 -151.334 100 -278.001h-180c-9.33301 68 -23 112.333 -41 133c-28 32 -61 48 -99 48
c-68 0 -114.667 -25.667 -140 -77c-28.667 -60 -43 -121 -43 -183c0 -100.667 15.333 -181 46 -241c26 -50 70.333 -75 133 -75c61.333 0 104.666 34.333 129.999 103c10 26 18.333 58.333 25 97h179c-12 -126.667 -47 -222.5 -105 -287.5s-136 -97.5 -234 -97.5z" />
    <glyph glyph-name="d" unicode="d" horiz-adv-x="835" 
d="M617 0l-0.000976562 71c-62 -62 -133 -93 -213 -93c-115.333 0 -202.666 49.333 -261.999 148c-55.333 93.333 -83 206 -83 338c0 133.333 28.333 245 85 335c59.333 98 146.333 147 261 147c76.667 0 143 -26.333 199 -79v387h180v-1254h-167zM427.499 757
c-60.333 0 -106 -29.002 -137 -87.002s-46.5 -128.167 -46.5 -210.5s15.5 -151.666 46.5 -207.999s76 -84.5 135 -84.5s102.5 26.333 130.5 79c32 62.667 48 134.834 48 216.501s-14.333 151.167 -43 208.5s-73.167 86 -133.5 86z" />
    <glyph glyph-name="e" unicode="e" horiz-adv-x="839" 
d="M241 384c6.66699 -60.667 20.335 -107 41.002 -139s42.167 -53.667 64.5 -65s46.666 -17 72.999 -17s48 2.66699 65 8s32.833 14.333 47.5 27c29.333 27.333 52.666 70.333 69.999 129h183c-24.667 -122.667 -66.834 -211.5 -126.501 -266.5s-137.5 -82.5 -233.5 -82.5
c-123.333 0 -216.666 46 -279.999 138c-60.667 87.333 -91 195.5 -91 324.5s31.333 241.833 94 338.5s151.5 145 266.5 145s206.833 -37.667 275.5 -113c66 -76 100.333 -218.333 103 -427h-552zM596.001 554c-6 46.667 -22.5 89.167 -49.5 127.5s-67.333 57.5 -121 57.5
s-94.667 -19.5 -123 -58.5s-46.833 -81.167 -55.5 -126.5h349z" />
    <glyph glyph-name="f" unicode="f" horiz-adv-x="461" 
d="M324 1254c14 0 43.667 -3 89 -9v-173h-66c-18 0 -30.5 -4 -37.5 -12s-10.5 -22.333 -10.5 -43v-97h114v-176h-114v-744h-164v744h-93v176h93v108c0 72.667 16 128.5 48 167.5s79 58.5 141 58.5z" />
    <glyph glyph-name="g" unicode="g" horiz-adv-x="815" 
d="M768 163c0 -266 -61.999 -427.002 -185.999 -483.002c-49.333 -22.667 -102.666 -34 -159.999 -34s-104.833 6 -142.5 18s-70.5 30.667 -98.5 56c-56 52 -90.667 134.333 -104 247h180c8 -48 20.333 -79.667 37 -95c26 -24 56.333 -36 91 -36s60.834 1.5 78.501 4.5
s32.5 7.5 44.5 13.5c21.333 10 37.166 27.333 47.499 52s18.166 66.334 23.499 125.001c-54 -50 -116.333 -75 -187 -75c-110 0 -193.333 48.333 -250 145s-85 211.334 -85 344.001c0 134.667 30.833 248.167 92.5 340.5s145.167 138.5 250.5 138.5
c73.333 0 138.666 -29.667 195.999 -89v68h172v-740zM584.001 433.998c0 200.667 -56 301 -168 301c-60 0 -103.333 -26.333 -130 -79c-30.667 -62.667 -46 -134.667 -46 -216s15.333 -153.333 46 -216c26.667 -52.667 69.667 -79 129 -79c60 0 103.167 27.167 129.5 81.5
s39.5 123.5 39.5 207.5z" />
    <glyph glyph-name="h" unicode="h" horiz-adv-x="751" 
d="M234 856c61.333 60 129.668 90.002 205.001 90.002c76.667 0 139 -22 187 -66c50 -44.667 75 -110.334 75 -197.001v-683h-177v628c0 44 -10.833 77.333 -32.5 100s-48.834 34 -81.501 34c-60 0 -104.333 -23.833 -133 -71.5s-43 -108.834 -43 -183.501v-507h-177v1254
h177v-398z" />
    <glyph glyph-name="i" unicode="i" horiz-adv-x="219" 
d="M55 1020v234h114v-234h-114zM56 0v922h113v-922h-113z" />
    <glyph glyph-name="j" unicode="j" horiz-adv-x="287" 
d="M88 1016v238h150v-238h-150zM50 -354c-17.333 0 -41.667 4.33398 -73 13.001v175h50c22.667 0 38.5 5.66699 47.5 17s13.5 31.666 13.5 60.999v1005h150v-1057c0 -72.667 -16.667 -126.5 -50 -161.5s-79.333 -52.5 -138 -52.5z" />
    <glyph glyph-name="k" unicode="k" horiz-adv-x="758" 
d="M549 0l-237 442l-77 -87v-355h-178v1254h178v-644l269 312h233l-288 -332l315 -590h-215z" />
    <glyph glyph-name="l" unicode="l" horiz-adv-x="217" 
d="M59 0v1254h112v-1254h-112z" />
    <glyph glyph-name="m" unicode="m" horiz-adv-x="1178" 
d="M876 924c168 0 252.002 -88.002 252.002 -264.002v-660h-186v609c0 50.667 -9 85.834 -27 105.501s-46.5 29.5 -85.5 29.5s-72.667 -18.167 -101 -54.5s-42.5 -80.833 -42.5 -133.5v-556h-186v609c0 50.667 -9.16699 85.834 -27.5 105.501s-41.5 29.5 -69.5 29.5
c-48 0 -86.333 -18.167 -115 -54.5s-43 -80.833 -43 -133.5v-556h-186v904h176v-68c61.333 58.667 132.666 88 213.999 88s147.333 -35 198 -105c67.333 70 143.666 105 228.999 105z" />
    <glyph glyph-name="n" unicode="n" horiz-adv-x="751" 
d="M226 821c60.667 68.667 130.167 103 208.5 103s141.5 -21.667 189.5 -65c50.667 -45.333 76 -110.333 76 -195v-664h-177v612c0 44 -10.833 77 -32.5 99s-49.167 33 -82.5 33c-58 0 -100.667 -22 -128 -66c-30 -50.667 -45 -111.667 -45 -183v-495h-178v904h169v-83z" />
    <glyph glyph-name="o" unicode="o" horiz-adv-x="837" 
d="M54 448.5c0 136.333 29.002 248.834 87.002 337.501c63.333 92 156.333 138 279 138c123.333 0 215.666 -46.333 276.999 -139c58 -86.667 87 -198.834 87 -336.501s-30.333 -250.5 -91 -338.5s-151.834 -132 -273.501 -132s-213 44.333 -274 133
s-91.5 201.167 -91.5 337.5zM419.002 739.001c-120 0 -180 -95.6689 -180 -287.002c0 -151.333 34.667 -242.666 104 -273.999c22 -10 47 -15 75 -15s53.333 5 76 15s42 26 58 48c32 46.667 48 120.334 48 221.001c0 152 -35.333 244.333 -106 277c-22 10 -47 15 -75 15z
" />
    <glyph glyph-name="p" unicode="p" horiz-adv-x="827" 
d="M229 830c61.333 62.667 131.666 93.999 210.999 93.999c116 0 201.833 -47.833 257.5 -143.5s83.5 -209.167 83.5 -340.5s-27.667 -243.666 -83 -336.999c-58 -97.333 -142.333 -146 -253 -146c-75.333 0 -143.666 26 -204.999 78v-389h-181v1257h170v-73zM417.5 734.999
c-60.333 0 -103.832 -26.667 -130.499 -80c-31.333 -64 -47 -141.333 -47 -232c0 -88 18.333 -157.333 55 -208c33.333 -46.667 76.166 -70 128.499 -70s94.166 28.833 125.499 86.5s47 127 47 208s-14.667 150.5 -44 208.5s-74.166 87 -134.499 87z" />
    <glyph glyph-name="q" unicode="q" horiz-adv-x="829" 
d="M600 -354v391.999c-58 -54 -120.5 -81 -187.5 -81s-122 11.5 -165 34.5s-79.167 57.833 -108.5 104.5c-56 89.333 -84 205.333 -84 348s32.667 258.334 98 347.001s152 133 260 133c74.667 0 141.667 -28 201 -84v63h167v-1257h-181zM550 658.499
c-33.333 51 -77.333 76.499 -132 76.499c-56 0 -99.833 -29.167 -131.5 -87.5s-47.5 -128.166 -47.5 -209.499s15.667 -150.5 47 -207.5s77.333 -85.5 138 -85.5c60 0 103 26 129 78c31.333 61.333 47 136.5 47 225.5s-16.667 159 -50 210z" />
    <glyph glyph-name="r" unicode="r" horiz-adv-x="489" 
d="M375 924c14 0 37.667 -2.33398 71 -7.00098v-176c-88 -3.33301 -146.333 -27.666 -175 -72.999c-32.667 -50 -49 -116.667 -49 -200v-468h-165v908h157v-83c49.333 66 103 99 161 99z" />
    <glyph glyph-name="s" unicode="s" horiz-adv-x="751" 
d="M381 -22c-215.333 0 -326.667 115.001 -334 345.001h181c11.333 -84.667 43.333 -135 96 -151c18.667 -6 40.667 -9 66 -9s46.5 2.16699 63.5 6.5s30.5 10.5 40.5 18.5c18.667 15.333 28 39 28 71c0 40 -37 71 -111 93l-160 47c-122.667 35.333 -184 118 -184 248
c0 138.667 64.333 226 193 262c36 10 76.333 15 121 15s85.334 -5.83301 122.001 -17.5s67.667 -30.5 93 -56.5c52 -52.667 79.333 -133.334 82 -242.001h-184c-4 49.333 -13 81 -27 95c-23.333 24 -51.5 36 -84.5 36s-56.833 -2 -71.5 -6s-26.334 -9.66699 -35.001 -17
c-16.667 -14 -25 -36.333 -25 -67c0 -34.667 44 -66 132 -94l131 -41c128.667 -40 193 -124 193 -252c0 -96 -28.667 -167.333 -86 -214s-137.333 -70 -240 -70z" />
    <glyph glyph-name="t" unicode="t" horiz-adv-x="459" 
d="M409 -8c-57.333 -9.33301 -96.667 -14 -118 -14c-48.667 0 -87.334 13.5 -116.001 40.5s-43 68.167 -43 123.5v603h-95v175h95v234h163v-234h114v-175h-114v-543c0 -17.333 2.33301 -28.5 7 -33.5s11.334 -7.5 20.001 -7.5h18c14.667 0 37.667 1.66699 69 5v-174z" />
    <glyph glyph-name="u" unicode="u" horiz-adv-x="752" 
d="M537 75c-63.333 -64.667 -133.667 -97 -211 -97s-141 21 -191 63c-52 44.667 -78 108.667 -78 192v669h177v-617c0 -42 11.167 -74.333 33.5 -97s56 -34 101 -34s82.5 23.833 112.5 71.5s45 106.5 45 176.5v500h177v-903h-166v76z" />
    <glyph glyph-name="v" unicode="v" horiz-adv-x="784" 
d="M476 0h-174l-280 902h198l176 -602l186 602h198z" />
    <glyph glyph-name="w" unicode="w" horiz-adv-x="1124" 
d="M875 0h-189l-127 545l-122 -545h-188l-236 902h200l129 -539l120 539h200l125 -539l124 539h205z" />
    <glyph glyph-name="x" unicode="x" horiz-adv-x="756" 
d="M543 0l-167 292l-169 -292h-207l279 460l-263 442h204l160 -273l161 273h202l-265 -436l271 -466h-206z" />
    <glyph glyph-name="y" unicode="y" horiz-adv-x="758" 
d="M77 -140c50 -10 82 -15 96 -15c30 0 51.333 20.333 64 61l41 136l-259 860h191l166 -564l180 564h194l-342 -1057c-42.667 -132.667 -116 -199 -220 -199c-30.667 0 -67.667 11.667 -111 35v179z" />
    <glyph glyph-name="z" unicode="z" horiz-adv-x="751" 
d="M52 0v163l403 559h-373v180h608v-159l-406 -563h426v-180h-658z" />
    <glyph glyph-name="braceleft" unicode="{" horiz-adv-x="411" 
d="M330 -115c0 -61.333 28.334 -136.335 85.001 -225.002h-12c-128.667 0 -212.334 35.333 -251.001 106c-12.667 24 -19 52 -19 84v399c0 66 -11 116.333 -33 151c-9.33301 16 -22.333 31.333 -39 46c32.667 31.333 52.334 61.333 59.001 90c8.66699 37.333 13 81 13 131
v415c0 50 24.333 90 73 120c50.667 30 118 44.333 202 43h6l-26.5 -34.5c-9.66699 -12.333 -18.834 -25.833 -27.501 -40.5c-20 -36 -30 -71.667 -30 -107v-501c0 -35.333 -3.83301 -58.166 -11.5 -68.499s-14.334 -18.166 -20.001 -23.499s-11.5 -13.333 -17.5 -24
c6 -10 11.833 -17.333 17.5 -22s10.834 -9.66699 15.501 -15c10.667 -12 16 -34.333 16 -67v-457z" />
    <glyph glyph-name="bar" unicode="|" horiz-adv-x="290" 
d="M271 1238l-8 -1234h-183l6 1234h185z" />
    <glyph glyph-name="braceright" unicode="}" horiz-adv-x="411" 
d="M45 -340c56.667 88.667 85 163.667 85 225v457c0 32.667 3.83301 53.334 11.5 62.001s14.334 15.334 20.001 20.001s11.5 12 17.5 22c-6 10.667 -11.833 18.667 -17.5 24s-10.834 11.333 -15.501 18c-10.667 14 -16 38.667 -16 74v501c0 49.333 -19.333 98.333 -58 147
l-26 35h6c130 2 215.333 -29.667 256 -95c12.667 -20.667 19 -43.334 19 -68.001v-415c0 -76 7.5 -127.5 22.5 -154.5s31.5 -49.167 49.5 -66.5c-30.667 -26.667 -49.667 -53.334 -57 -80.001c-10 -35.333 -15 -74.333 -15 -117v-399c0 -94 -53.667 -153.333 -161 -178
c-32.667 -8 -69 -12 -109 -12h-12z" />
    <glyph glyph-name="asciitilde" unicode="~" horiz-adv-x="1077" 
d="M614.5 388.5c-73 19.667 -129 33.834 -168 42.501s-78.833 13 -119.5 13c-16 0 -33.667 -18 -53 -54c-5.33301 -10 -11.333 -19.667 -18 -29h-217c31.333 80.667 59 135 83 163c47.333 56.667 107 85 179 85c59.333 0 126.333 -10.167 201 -30.5s132 -35 172 -44
s81 -13.5 123 -13.5c12.667 0 23.334 6.66699 32.001 20s15.667 25.166 21 35.499s11.333 20.5 18 30.5h231c-36.667 -82.667 -67.334 -137.667 -92.001 -165c-48.667 -55.333 -108 -83 -178 -83s-141.5 9.83301 -214.5 29.5z" />
    <glyph glyph-name="uni0D02" unicode="&#xd02;" horiz-adv-x="581" 
d="M446 8c-33.333 -18.667 -74.499 -28.002 -123.499 -28.002s-90.333 9.33301 -124 28s-60.834 43.334 -81.501 74.001c-38.667 58.667 -58 135.334 -58 230.001c0 150.667 46 251.667 138 303c33.333 18.667 74.333 28 123 28c90.667 0 158.667 -35 204 -105
c38.667 -58.667 58 -135.667 58 -231c0 -149.333 -45.333 -249 -136 -299zM234.001 302.998c0 -109.333 28.334 -164 85.001 -164c57.333 0 86 56 86 168c0 74 -14.333 124.333 -43 151c-10.667 10 -24.334 15 -41.001 15s-30.5 -5.16699 -41.5 -15.5
s-20.167 -23.5 -27.5 -39.5c-12 -28 -18 -66.333 -18 -115z" />
    <glyph glyph-name="uni0D03" unicode="&#xd03;" horiz-adv-x="384" 
d="M60 663c0 130.667 51.668 195.999 155.001 195.999c106 0 159 -65 159 -195c0 -89.333 -27.333 -148.666 -82 -177.999c-20.667 -10.667 -46.334 -16 -77.001 -16c-103.333 0 -155 64.333 -155 193zM60.001 192.999c0 130.667 51.668 196 155.001 196
c106 0 159 -65.333 159 -196c0 -88.667 -27.333 -147.667 -82 -177c-20.667 -10.667 -46.334 -16 -77.001 -16c-103.333 0 -155 64.333 -155 193zM216.002 752.999c-30 0 -45 -29.5 -45 -88.5s15.667 -88.5 47 -88.5c32 0 48 29.333 48 88
c0 37.333 -5.83301 61.5 -17.5 72.5s-22.5 16.5 -32.5 16.5zM216.002 282.999c-30 0 -45 -29.5 -45 -88.5s15.667 -88.5 47 -88.5c32 0 48 29.333 48 88c0 37.333 -5.83301 61.5 -17.5 72.5s-22.5 16.5 -32.5 16.5z" />
    <glyph glyph-name="uni0D05" unicode="&#xd05;" horiz-adv-x="1736" 
d="M1065 829c76 67.333 165.335 100.994 268.002 100.994c131.333 0 233 -48.333 305 -145c64 -86 96 -197 96 -333c0 -238.667 -51.333 -388 -154 -448c-27.333 -16 -62.166 -24 -104.499 -24s-80.5 10.333 -114.5 31s-62.333 47.334 -85 80.001
c-43.333 64 -65 141 -65 231c0 152 38.333 255.333 115 310c30 21.333 60.667 32 92 32c53.333 0 90 -10 110 -30c-25.333 73.333 -91 110 -197 110c-94 0 -155.667 -32 -185 -96c-10.667 -22 -16 -48.333 -16 -79v-569h-184v612c3.33301 74 -28.667 120 -96 138
c-15.333 4 -33.333 6 -54 6c53.333 -54.667 80 -116.5 80 -185.5s-24.333 -120.833 -73 -155.5c60.667 -31.333 91 -87.666 91 -168.999c0 -75.333 -22.667 -139 -68 -191c-47.333 -53.333 -103.833 -80 -169.5 -80s-117.834 13.833 -156.501 41.5
s-69.334 62.834 -92.001 105.501c-42 78 -63 175 -63 291c0 91.333 25 185 75 281c14 27.333 28.667 49 44 65l-14 1h-28.5c-14.333 0 -30.833 -5.16699 -49.5 -15.5s-35.334 -24.166 -50.001 -41.499s-27.167 -37 -37.5 -59s-18.833 -44.667 -25.5 -68
c-12.667 -45.333 -19 -89.666 -19 -132.999c0 -177.333 39.667 -325 119 -443h-204c-66 150.667 -99 298.334 -99 443.001c0 188.667 50.667 326.334 152 413.001c57.333 48.667 123.5 73 198.5 73s150.833 -13.667 227.5 -41c112.667 55.333 225 58.666 337 9.99902
c40.667 -18 72 -41 94 -69zM1541 320.994c0 61.333 -14.334 109.666 -43.001 144.999c-10 13.333 -22.5 20 -37.5 20s-27.167 -6.5 -36.5 -19.5s-16.666 -28.5 -21.999 -46.5c-9.33301 -31.333 -14 -64.333 -14 -99c0 -63.333 12 -111.666 36 -144.999
c9.33301 -13.333 21.5 -20 36.5 -20s27.667 6.5 38 19.5s18.833 28.5 25.5 46.5c11.333 32 17 65 17 99zM656.001 491.994c37.333 0 56.001 26.3301 56.001 78.9971c0 60.667 -21.333 103.334 -64 128.001c-86 -55.333 -129 -150.666 -129 -285.999
c0 -52.667 6.66699 -99.5 20 -140.5s28.166 -72 44.499 -93s33.333 -31.5 51 -31.5s31 3.33301 40 10s16.833 15.334 23.5 26.001c15.333 22 23 44.333 23 67c0 53.333 -21.333 80 -64 80h-43v161h42z" />
    <glyph glyph-name="uni0D06" unicode="&#xd06;" horiz-adv-x="2030" 
d="M1065 829c78 68.667 167.671 102.996 269.004 102.996c84 0 160.667 -24 230 -72c72 -50.667 122.333 -119 151 -205c100 -22 177.667 -77.333 233 -166c50.667 -82 76 -179.667 76 -293c0 -152.667 -42.667 -284.334 -128 -395.001c-95.333 -124 -221 -186 -377 -186
c-78 0 -157.333 17.667 -238 53v211c74.667 -55.333 146 -83 214 -83s122.667 12.833 164 38.5s75.666 58.5 102.999 98.5c52 77.333 78 170.333 78 279c0 90 -19.333 160 -58 210c-12 16 -26.333 28 -43 36c5.33301 -26 9.33301 -52.333 12 -79v-30
c0 -167.333 -48.667 -281 -146 -341c-35.333 -21.333 -76.833 -32 -124.5 -32s-88.334 9.66699 -122.001 29s-61.834 44.333 -84.501 75c-47.333 64 -71 138.333 -71 223c0 92 27.667 171 83 237c55.333 65.333 129 105.333 221 120c-36.667 57.333 -94.334 86 -173.001 86
c-55.333 0 -102 -15.333 -140 -46c-42.667 -33.333 -64 -77 -64 -131v-569h-184v621c0 54 -22 93.667 -66 119c-20 10.667 -47 16 -81 16h-3c53.333 -54.667 80 -116.5 80 -185.5s-24.333 -120.833 -73 -155.5c60.667 -31.333 91 -87.666 91 -168.999
c0 -75.333 -22.667 -139 -68 -191c-47.333 -53.333 -103.833 -80 -169.5 -80s-117.834 13.833 -156.501 41.5s-69.334 62.834 -92.001 105.501c-42 78 -63 175 -63 291c0 91.333 25 185 75 281c14 27.333 28.667 49 44 65l-14 1h-28.5
c-14.333 0 -30.833 -5.16699 -49.5 -15.5s-35.334 -24.166 -50.001 -41.499s-27.167 -37 -37.5 -59s-18.833 -44.667 -25.5 -68c-12.667 -45.333 -19 -89.666 -19 -132.999c0 -177.333 39.667 -325 119 -443h-204c-66 150.667 -99 298.334 -99 443.001
c0 188.667 50.667 326.334 152 413.001c57.333 48.667 123.5 73 198.5 73s150.833 -13.667 227.5 -41c58.667 28.667 116.334 43 173.001 43h12c4 0 13.333 -0.5 28 -1.5s33.834 -4.33301 57.501 -10s45.834 -12.834 66.501 -21.501c40.667 -18 72 -41 94 -69zM1476 162.996
c64 0 95.999 79.334 95.999 238.001v5c0 17.333 -4 46 -12 86c-49.333 -6.66699 -89.333 -28.667 -120 -66c-30.667 -36.667 -46 -80 -46 -130c0 -52.667 14.667 -92.334 44 -119.001c10.667 -9.33301 23.334 -14 38.001 -14zM648.003 698.997
c-86 -55.333 -128.999 -150.669 -128.999 -286.002c0 -52.667 6.66699 -99.5 20 -140.5s28.166 -72 44.499 -93s33.333 -31.5 51 -31.5s31 3.33301 40 10s16.833 15.334 23.5 26.001c15.333 22 23 44.333 23 67c0 53.333 -21.333 80 -64 80h-43v161h42
c37.333 0 56 26.333 56 79c0 60.667 -21.333 103.334 -64 128.001z" />
    <glyph glyph-name="uni0D07" unicode="&#xd07;" horiz-adv-x="1300" 
d="M239 575c26 23.333 57.0039 35.002 93.0039 35.002s68 -8.16699 96 -24.5s51 -37.5 69 -63.5c36 -52 54 -114.667 54 -188c0 -72.667 -22.333 -134 -67 -184c-46 -52 -100.333 -78 -163 -78s-110.834 11.833 -144.501 35.5s-59.834 54.167 -78.501 91.5
c-32 64 -48 139.167 -48 225.5s7 158 21 215s36.667 107.167 68 150.5c68 92.667 169.333 139 304 139c94.667 0 171.667 -23.667 231 -71c20.667 -17.333 37.334 -38.333 50.001 -63c18.667 41.333 51.334 75 98.001 101c41.333 22.667 85.333 34 132 34s87 -7.5 121 -22.5
s64 -35.167 90 -60.5s48.167 -54.833 66.5 -88.5s33.166 -69.167 44.499 -106.5c22 -71.333 33 -136.166 33 -194.499s-3 -108.5 -9 -150.5s-15.333 -83.667 -28 -125s-28.834 -80.833 -48.501 -118.5s-43.5 -70.834 -71.5 -99.501
c-60.667 -63.333 -134.334 -95 -221.001 -95h-651c-11.333 0 -20.833 -4.66699 -28.5 -14s-11.5 -19.5 -11.5 -30.5s3.83301 -20.667 11.5 -29s17.167 -12.5 28.5 -12.5h1018v-163h-1048c-54 0 -99.667 20 -137 60c-37.333 39.333 -56 85.666 -56 138.999
c0 55.333 18.333 102.666 55 141.999c38 40.667 84 61 138 61h649c52.667 0 97.667 27 135 81c43.333 62 70.666 151 81.999 267c3.33301 29.333 5 55.833 5 79.5s-2 53.5 -6 89.5s-12 70.667 -24 104c-28.667 80 -72.667 120 -132 120c-43.333 0 -78 -21 -104 -63
c-22.667 -36 -34 -76.667 -34 -122v-485l-184 1v443c0 150.667 -65.333 226 -196 226c-85.333 0 -145.333 -37.667 -180 -113c-10.667 -22.667 -18 -47.667 -22 -75zM380.004 334.002c0 42.667 -12.334 74 -37.001 94c-8.66699 6.66699 -19.334 10 -32.001 10
c-22 0 -39.667 -12 -53 -36c-10.667 -19.333 -16 -42 -16 -68c0 -42 12.333 -72.667 37 -92c8.66699 -7.33301 19.334 -11 32.001 -11c32.667 0 54.334 23.333 65.001 70c2.66699 12 4 23 4 33z" />
    <glyph glyph-name="uni0D08" unicode="&#xd08;" horiz-adv-x="2150" 
d="M1470.5 850c31 18 71.498 26.9971 121.498 26.9971s88.333 -24.667 115 -74c20 35.333 52.333 59.666 97 72.999c14.667 4.66699 29.334 7 44.001 7c96 0 171.333 -45.667 226 -137c46.667 -78 70 -159.667 70 -245s-10.5 -158 -31.5 -218s-51.167 -112 -90.5 -156
c-86 -94.667 -194 -142 -324 -142s-219.333 27.667 -268 83v189c30 -37.333 66.667 -67.166 110 -89.499s89.666 -33.5 138.999 -33.5s92.5 9.83301 129.5 29.5s67.5 45.834 91.5 78.501c48 64.667 72 146.334 72 245.001c0 82 -17.333 144.667 -52 188
c-13.333 16.667 -28 25 -44 25s-29.167 -2.83301 -39.5 -8.5s-19.166 -13.167 -26.499 -22.5c-16.667 -20 -25 -42.667 -25 -68v-141h-150v160c0 32.667 -11 56.334 -33 71.001c-7.33301 4.66699 -16.666 7 -27.999 7s-22.5 -3.83301 -33.5 -11.5
s-19.833 -17.167 -26.5 -28.5c-14.667 -24 -22 -51.667 -22 -83s5.66699 -63.333 17 -96l34 -101h-168c-6.66699 32 -13.5 62.667 -20.5 92s-10.5 62 -10.5 98s4 72.833 12 110.5s21.333 71.167 40 100.5s43.5 53 74.5 71zM238.998 574.997
c26 23.333 57.0039 35.002 93.0039 35.002s68 -8.16699 96 -24.5s51 -37.5 69 -63.5c36 -52 54 -114.667 54 -188c0 -72.667 -22.333 -134 -67 -184c-46 -52 -100.333 -78 -163 -78s-110.834 11.833 -144.501 35.5s-59.834 54.167 -78.501 91.5
c-32 64 -48 139.167 -48 225.5s7 158 21 215s36.667 107.167 68 150.5c68 92.667 169.333 139 304 139c94.667 0 171.667 -23.667 231 -71c20.667 -17.333 37.334 -38.333 50.001 -63c18.667 41.333 51.334 75 98.001 101c41.333 22.667 85.333 34 132 34s87 -7.5 121 -22.5
s64 -35.167 90 -60.5s48.167 -54.833 66.5 -88.5s33.166 -69.167 44.499 -106.5c22 -71.333 33 -136.166 33 -194.499s-3 -108.5 -9 -150.5s-15.333 -83.667 -28 -125s-28.834 -80.833 -48.501 -118.5s-43.5 -70.834 -71.5 -99.501
c-60.667 -63.333 -134.334 -95 -221.001 -95h-651c-11.333 0 -20.833 -4.66699 -28.5 -14s-11.5 -19.5 -11.5 -30.5s3.83301 -20.667 11.5 -29s17.167 -12.5 28.5 -12.5h1018v-163h-1048c-54 0 -99.667 20 -137 60c-37.333 39.333 -56 85.666 -56 138.999
c0 55.333 18.333 102.666 55 141.999c38 40.667 84 61 138 61h649c52.667 0 97.667 27 135 81c43.333 62 70.666 151 81.999 267c3.33301 29.333 5 55.833 5 79.5s-2 53.5 -6 89.5s-12 70.667 -24 104c-28.667 80 -72.667 120 -132 120c-43.333 0 -78 -21 -104 -63
c-22.667 -36 -34 -76.667 -34 -122v-485l-184 1v443c0 150.667 -65.333 226 -196 226c-85.333 0 -145.333 -37.667 -180 -113c-10.667 -22.667 -18 -47.667 -22 -75zM380.002 333.999c0 42.667 -12.334 74 -37.001 94c-8.66699 6.66699 -19.334 10 -32.001 10
c-22 0 -39.667 -12 -53 -36c-10.667 -19.333 -16 -42 -16 -68c0 -42 12.333 -72.667 37 -92c8.66699 -7.33301 19.334 -11 32.001 -11c32.667 0 54.334 23.333 65.001 70c2.66699 12 4 23 4 33z" />
    <glyph glyph-name="uni0D09" unicode="&#xd09;" horiz-adv-x="979" 
d="M239 585c26 23.333 57.002 35.0039 93.002 35.0039s67.833 -8.16699 95.5 -24.5s50.5 -37.5 68.5 -63.5c36.667 -51.333 55 -114 55 -188c0 -72 -22.333 -135.333 -67 -190c-46.667 -58 -105.334 -87 -176.001 -87c-172 0 -258 133.333 -258 400
c0 137.333 39.333 248.666 118 333.999c82 88 191.333 132 328 132c152 0 271.333 -51 358 -153c80.667 -96 121 -220.667 121 -374c0 -128.667 -30.667 -246.334 -92 -353.001c-43.333 -75.333 -100.333 -128.666 -171 -159.999c-36.667 -16 -77.334 -24 -122.001 -24h-310
c-11.333 0 -20.833 -4.66699 -28.5 -14s-11.5 -19.5 -11.5 -30.5s3.83301 -20.667 11.5 -29s17.167 -12.5 28.5 -12.5h678v-163h-708c-53.333 0 -99 20.667 -137 62c-37.333 41.333 -56 88.666 -56 141.999c0 54.667 18.333 102.667 55 144c37.333 42.667 83.333 64 138 64
h318c48.667 0 91.667 24 129 72c44 58 73 138 87 240c4 26.667 6 56.667 6 90s-5.5 70.666 -16.5 111.999s-28.167 77.666 -51.5 108.999c-52 68 -126.333 102 -223 102c-104.667 0 -181 -30.667 -229 -92c-16.667 -22 -27 -48.667 -31 -80zM311.002 448.004
c-22 0 -39.667 -12 -53 -36c-10.667 -19.333 -16 -38 -16 -56s1.16699 -33 3.5 -45s6.5 -23 12.5 -33c13.333 -24.667 31 -37 53 -37s39.667 12.333 53 37c10.667 18.667 16 37 16 55c0 33.333 -6 60.833 -18 82.5s-29 32.5 -51 32.5z" />
    <glyph glyph-name="uni0D0A" unicode="&#xd0a;" horiz-adv-x="1824" 
d="M1150.5 850c31 18 71.498 26.9971 121.498 26.9971s88.333 -24.667 115 -74c20 35.333 52.333 59.666 97 72.999c14.667 4.66699 29.334 7 44.001 7c96 0 171.333 -45.667 226 -137c46.667 -78 70 -159.667 70 -245s-10.5 -158 -31.5 -218s-51.167 -112 -90.5 -156
c-86 -94.667 -194 -142 -324 -142s-219.333 27.667 -268 83v189c30 -37.333 66.667 -67.166 110 -89.499s89.666 -33.5 138.999 -33.5s92.5 9.83301 129.5 29.5s67.5 45.834 91.5 78.501c48 64.667 72 146.334 72 245.001c0 82 -17.333 144.667 -52 188
c-13.333 16.667 -28 25 -44 25s-29.167 -2.83301 -39.5 -8.5s-19.166 -13.167 -26.499 -22.5c-16.667 -20 -25 -42.667 -25 -68v-141h-150v160c0 32.667 -11 56.334 -33 71.001c-7.33301 4.66699 -16.666 7 -27.999 7s-22.5 -3.83301 -33.5 -11.5
s-19.833 -17.167 -26.5 -28.5c-14.667 -24 -22 -51.667 -22 -83s5.66699 -63.333 17 -96l34 -101h-168c-6.66699 32 -13.5 62.667 -20.5 92s-10.5 62 -10.5 98s4 72.833 12 110.5s21.333 71.167 40 100.5s43.5 53 74.5 71zM238.998 584.997
c26 23.333 57.002 35.0039 93.002 35.0039s67.833 -8.16699 95.5 -24.5s50.5 -37.5 68.5 -63.5c36.667 -51.333 55 -114 55 -188c0 -72 -22.333 -135.333 -67 -190c-46.667 -58 -105.334 -87 -176.001 -87c-172 0 -258 133.333 -258 400
c0 137.333 39.333 248.666 118 333.999c82 88 191.333 132 328 132c152 0 271.333 -51 358 -153c80.667 -96 121 -220.667 121 -374c0 -128.667 -30.667 -246.334 -92 -353.001c-43.333 -75.333 -100.333 -128.666 -171 -159.999c-36.667 -16 -77.334 -24 -122.001 -24h-310
c-11.333 0 -20.833 -4.66699 -28.5 -14s-11.5 -19.5 -11.5 -30.5s3.83301 -20.667 11.5 -29s17.167 -12.5 28.5 -12.5h678v-163h-708c-53.333 0 -99 20.667 -137 62c-37.333 41.333 -56 88.666 -56 141.999c0 54.667 18.333 102.667 55 144c37.333 42.667 83.333 64 138 64
h318c48.667 0 91.667 24 129 72c44 58 73 138 87 240c4 26.667 6 56.667 6 90s-5.5 70.666 -16.5 111.999s-28.167 77.666 -51.5 108.999c-52 68 -126.333 102 -223 102c-104.667 0 -181 -30.667 -229 -92c-16.667 -22 -27 -48.667 -31 -80zM311 448.001
c-22 0 -39.667 -12 -53 -36c-10.667 -19.333 -16 -38 -16 -56s1.16699 -33 3.5 -45s6.5 -23 12.5 -33c13.333 -24.667 31 -37 53 -37s39.667 12.333 53 37c10.667 18.667 16 37 16 55c0 33.333 -6 60.833 -18 82.5s-29 32.5 -51 32.5z" />
    <glyph glyph-name="uni0D0B" unicode="&#xd0b;" horiz-adv-x="930" 
d="M299 543c53.333 -40.667 118.998 -61.001 196.998 -61.001c77.333 0 142 20.333 194 61c-51.333 -1.33301 -94 17.667 -128 57c-30.667 36.667 -46 74.834 -46 114.501s4.5 71.834 13.5 96.501s21.833 45.667 38.5 63c36.667 38 78.834 57 126.501 57
s85.334 -7.5 113.001 -22.5s50.5 -34.5 68.5 -58.5c36.667 -48.667 55 -108.334 55 -179.001c0 -70 -19.333 -129.667 -58 -179c-13.333 -16.667 -29 -31 -47 -43c50 -30 75 -82 75 -156c0 -98 -45.333 -173.667 -136 -227c-78 -45.333 -167.333 -68 -268 -68
c-104.667 0 -195.667 23 -273 69c-92.667 55.333 -139 131 -139 227c0 72.667 25.667 124.334 77 155.001c-70.667 47.333 -106 119.666 -106 216.999c0 72 17.667 132.667 53 182c40 55.333 95 83 165 83c91.333 0 152 -38.667 182 -116c9.33301 -24 14 -49 14 -75
s-4 -50.667 -12 -74s-19.333 -44 -34 -62c-32 -40.667 -73.667 -61 -125 -61zM712.998 791.999c-23.333 0 -39 -14 -47 -42c-2.66699 -8 -4 -16 -4 -24c0 -29.333 10 -51.333 30 -66c6 -4.66699 13.333 -7 22 -7c24 0 39.667 15.667 47 47c2 8.66699 3 17 3 25
c0 28 -10 48.333 -30 61c-6 4 -13 6 -21 6zM277.998 791.999c-23.333 0 -39.334 -14 -48.001 -42c-2 -8 -3 -16 -3 -24c0 -29.333 9.66699 -51.333 29 -66c6.66699 -4.66699 14.334 -7 23.001 -7c24 0 39.667 15.667 47 47c2 8.66699 3 17 3 25c0 28 -9.66699 48.333 -29 61
c-6.66699 4 -14 6 -22 6zM333.997 367.999c-36.667 -21.333 -54.999 -48.1689 -54.999 -80.502s7.16699 -56.666 21.5 -72.999s32.166 -29.166 53.499 -38.499c38 -18 83.333 -27 136 -27c90 0 155.333 21.667 196 65c14.667 16.667 22 36 22 58
c0 43.333 -18.667 75.333 -56 96c-52.667 -15.333 -105.167 -23 -157.5 -23s-105.833 7.66699 -160.5 23z" />
    <glyph glyph-name="l1" unicode="&#xd0c;" horiz-adv-x="1476" 
d="M765 784c71.333 94 177.33 141 317.997 141c136 0 237.667 -53 305 -159c57.333 -90 86 -206.333 86 -349c0 -106.667 -19 -200.334 -57 -281.001c-48 -102 -120.333 -153 -217 -153c-80 0 -143.333 38 -190 114c-39.333 65.333 -59 140.333 -59 225
c0 148 38.333 248.667 115 302c30 20 60.667 30 92 30c52 0 88.667 -10 110 -30c-11.333 34.667 -34.666 63 -69.999 85c-32 20 -67 30 -105 30s-71.333 -7.16699 -100 -21.5s-53 -33.5 -73 -57.5c-41.333 -50.667 -62 -111.334 -62 -182.001v-478h-185v478
c0 70.667 -20.667 131.334 -62 182.001c-43.333 52.667 -100.333 79 -171 79c-61.333 0 -111.333 -22.333 -150 -67c-12 -14 -21.333 -30 -28 -48c21.333 20 52.833 30 94.5 30s77.334 -10.167 107.001 -30.5s53.167 -46.5 70.5 -78.5c30.667 -56.667 46 -131 46 -223
c0 -84.667 -20 -159.667 -60 -225c-46 -76 -109 -114 -189 -114c-65.333 0 -120.666 25 -165.999 75c-72.667 80 -109 199.667 -109 359c0 228.667 68.667 383.334 206 464.001c50 29.333 111.667 44 185 44c140.667 0 246.667 -47 318 -141zM1277 311
c0 57.333 -14.334 102.332 -43.001 134.999c-10.667 12 -23.5 18 -38.5 18s-27.167 -6 -36.5 -18s-16.666 -26 -21.999 -42c-9.33301 -28.667 -14 -59.667 -14 -93c0 -59.333 12 -104.333 36 -135c9.33301 -12 21.5 -18 36.5 -18s27.667 5.83301 38 17.5
s18.833 25.834 25.5 42.501c12 29.333 18 60.333 18 93zM407.996 310.999c0 58 -12.333 103.001 -37 135.001c-9.33301 12 -21.5 18 -36.5 18s-27.5 -5.83301 -37.5 -17.5s-18.333 -25.834 -25 -42.501c-12 -29.333 -18 -60.333 -18 -93c0 -56.667 14.333 -101.667 43 -135
c10 -12 22.5 -18 37.5 -18s27.167 6 36.5 18s17 26 23 42c9.33301 28 14 59 14 93z" />
    <glyph glyph-name="uni0D0E" unicode="&#xd0e;" horiz-adv-x="1484" 
d="M589 375.5c12 -38.333 18.002 -71.999 18.002 -100.999s-3.66699 -64.167 -11 -105.5h87v178c0 195.333 35.667 342.166 107 440.499s171 147.5 299 147.5c147.333 0 252.333 -59.333 315 -178c48.667 -93.333 73 -228 73 -404c0 -198 -28.667 -396.333 -86 -595h-192
c39.333 115.333 68.333 258 87 428c6.66699 61.333 10 120 10 176s-3.5 108 -10.5 156s-18.833 90 -35.5 126c-36.667 78.667 -91.334 118 -164.001 118s-128.834 -35.667 -168.501 -107s-59.5 -176.333 -59.5 -315v-171h122v340h184v-504h-2
c0 -91.333 -11.333 -157.833 -34 -199.5s-48.5 -72.167 -77.5 -91.5s-66.833 -29 -113.5 -29c-169.333 0 -254 106.667 -254 320h-299c5.33301 24.667 10.833 47 16.5 67s10.834 39.333 15.501 58c9.33301 42.667 14 78.167 14 106.5s-1.66699 49.833 -5 64.5
s-8.66602 28 -15.999 40c-16.667 27.333 -37.334 41 -62.001 41s-43.5 -4.33301 -56.5 -13s-23.5 -19.667 -31.5 -33c-15.333 -25.333 -23 -52.833 -23 -82.5s1.33301 -54.167 4 -73.5s6.16699 -38 10.5 -56s9.66602 -36.5 15.999 -55.5l20.5 -63.5h-184
c-6 24 -11.667 45.333 -17 64s-10 37 -14 55c-8.66699 40 -13 80.667 -13 122s6 81.833 18 121.5s29.667 75.167 53 106.5c50.667 68.667 119 103 205 103c84 0 151 -33 201 -99c23.333 -30 41 -64.167 53 -102.5zM932.002 -154.999c40.667 0 61.001 30 61.001 90v11l-1 59
h-134v-46c0 -45.333 13.333 -79.333 40 -102c9.33301 -8 20.666 -12 33.999 -12z" />
    <glyph glyph-name="uni0D0F" unicode="&#xd0f;" horiz-adv-x="1563" 
d="M993 -48l0.000976562 26.999c0 8.66699 -0.333008 17.334 -1 26.001h-134v-46c0 -41.333 13.667 -71 41 -89c9.33301 -6.66699 20.166 -10 32.499 -10s22.5 3 30.5 9s14.333 13.667 19 23c8 15.333 12 35.333 12 60zM1455 207.999c65.333 -48 98 -124.338 98 -229.005
c0 -80 -22.333 -144.333 -67 -193c-45.333 -49.333 -102.666 -74 -171.999 -74h-101v166h52c32.667 0 57.667 8 75 24c31.333 27.333 47 58.833 47 94.5s-11.833 63.334 -35.5 83.001s-52.5 29.5 -86.5 29.5h-52v172h22c73.333 0 119.666 45.667 138.999 137
c5.33301 27.333 8 57.5 8 90.5s-6.5 65 -19.5 96s-30.833 57.833 -53.5 80.5c-48.667 48.667 -107.667 73 -177 73c-116 0 -194 -50.667 -234 -152c-22.667 -55.333 -35 -107.166 -37 -155.499s-3 -85.166 -3 -110.499v-171h122v340h184v-504h-2v-4
c0 -142.667 -37.667 -238.334 -113 -287.001c-29.333 -19.333 -67.5 -29 -114.5 -29s-86.833 8.5 -119.5 25.5s-58.667 39.833 -78 68.5c-36 53.333 -54 127 -54 221v5h-299c9.33301 42 19.333 83.833 30 125.5s16 76.834 16 105.501s-1.83301 50.334 -5.5 65.001
s-9.16699 28 -16.5 40c-16.667 27.333 -37.167 41 -61.5 41s-42.833 -4.16699 -55.5 -12.5s-23 -19.166 -31 -32.499c-16 -26.667 -24 -59 -24 -97c0 -49.333 17 -127.666 51 -234.999h-184c-29.333 103.333 -44 179.666 -44 228.999s6 93.666 18 132.999
s29.667 74.333 53 105c52.667 70 121 105 205 105c82.667 0 149.667 -33 201 -99c47.333 -60.667 71 -134 71 -220c0 -27.333 -3.66699 -57 -11 -89h87v178c0 389.333 148.667 584 446 584c129.333 0 233 -37.667 311 -113c78.667 -76.667 118 -179.667 118 -309
c0 -73.333 -5.33301 -126.666 -16 -159.999c-18.667 -60.667 -47.667 -107.667 -87 -141z" />
    <glyph glyph-name="uni0D10" unicode="&#xd10;" horiz-adv-x="2320" 
d="M1430 375.5c12 -38.333 18.0029 -70.999 18.0029 -97.999s-4 -63.167 -12 -108.5h87v178c0 195.333 35.667 342.166 107 440.499s171 147.5 299 147.5c147.333 0 252.333 -59.333 315 -178c48.667 -93.333 73 -228 73 -404c0 -198 -28.667 -396.333 -86 -595h-192
c39.333 115.333 68.333 258 87 428c6.66699 61.333 10 120 10 176s-3.5 108 -10.5 156s-18.833 90 -35.5 126c-36.667 78.667 -91.334 118 -164.001 118s-128.834 -35.667 -168.501 -107s-59.5 -176.333 -59.5 -315v-171h122v340h184v-504h-2
c0 -91.333 -11.333 -157.833 -34 -199.5s-48.5 -72.167 -77.5 -91.5s-66.833 -29 -113.5 -29c-169.333 0 -254 106.667 -254 320h-299c5.33301 24.667 10.833 47 16.5 67s10.834 39.333 15.501 58c9.33301 42.667 14 78.167 14 106.5s-1.66699 49.833 -5 64.5
s-8.66602 28 -15.999 40c-16.667 27.333 -37.334 41 -62.001 41s-43.5 -4.33301 -56.5 -13s-23.5 -19.667 -31.5 -33c-15.333 -25.333 -23 -52.833 -23 -82.5s1.33301 -54.167 4 -73.5s6.16699 -38 10.5 -56s9.66602 -36.5 15.999 -55.5l20.5 -63.5h-184
c-6 24 -11.667 45.333 -17 64s-10 37 -14 55c-8.66699 40 -13 80.667 -13 122s6 81.833 18 121.5s29.667 75.167 53 106.5c50.667 68.667 119 103 205 103c83.333 0 150.666 -33 201.999 -99c23.333 -30 41 -64.167 53 -102.5zM261.003 593.001
c19.333 17.333 49.8311 26.002 91.498 26.002s77.167 -8.33301 106.5 -25s53 -38.667 71 -66c33.333 -51.333 50 -120 50 -206c0 -84.667 -20 -159.667 -60 -225c-46 -76 -109 -114 -189 -114c-133.333 0 -218.666 82.333 -255.999 247
c-12.667 55.333 -19 116.166 -19 182.499s6.66699 129.833 20 190.5s35.333 115 66 163c67.333 106 169 159 305 159c140.667 0 246.334 -46.667 317.001 -140c63.333 -82.667 95 -189.834 95 -321.501s-26 -286.167 -78 -463.5h-190c56 156 84 303.667 84 443
c0 129.333 -43 219.333 -129 270c-30 17.333 -59.833 26 -89.5 26s-54.167 -4.16699 -73.5 -12.5s-37.333 -19.166 -54 -32.499c-37.333 -30.667 -60 -64.334 -68 -101.001zM1772 -154.997c40.667 0 61.001 30 61.001 90v11l-1 59h-134v-46
c0 -45.333 13.333 -79.333 40 -102c9.33301 -8 20.666 -12 33.999 -12zM407.002 294.003c0 56 -12.333 98.6689 -37 128.002c-10 11.333 -22.5 17 -37.5 17s-27.667 -5.5 -38 -16.5s-18.833 -24.167 -25.5 -39.5c-12 -27.333 -18 -57 -18 -89
c0 -54.667 14.333 -97.334 43 -128.001c10.667 -11.333 23.5 -17 38.5 -17s27.333 5.66699 37 17s17.167 24.666 22.5 39.999c10 28.667 15 58 15 88z" />
    <glyph glyph-name="uni0D12" unicode="&#xd12;" horiz-adv-x="966" 
d="M243 573c27.333 23.333 62.5029 34.998 105.503 34.998s78.833 -7.66699 107.5 -23s52 -36 70 -62c36.667 -51.333 55 -115.666 55 -192.999c0 -156 -43.333 -261.333 -130 -316c-32 -20.667 -70.333 -31 -115 -31s-81.834 6.83301 -111.501 20.5
s-54.667 31.834 -75 54.501s-36.5 48.834 -48.5 78.501s-21 60.5 -27 92.5c-10.667 52 -16 119.833 -16 203.5s14 158.167 42 223.5s64.667 118.333 110 159c87.333 77.333 197 116 329 116c114 0 211 -27.333 291 -82c86 -59.333 129 -136 129 -230
c0 -58.667 -17.333 -109.334 -52 -152.001c-12 -14.667 -26.333 -27.334 -43 -38.001c63.333 -38.667 95 -102.667 95 -192c0 -72 -19.667 -131.667 -59 -179c-43.333 -53.333 -103.666 -80 -180.999 -80c-26 0 -53.667 3.33301 -83 10l-9 171c23.333 -19.333 46 -29 68 -29
s37.167 3.66699 45.5 11s15.166 16.333 20.499 27c10.667 22.667 16 44.334 16 65.001s-3.33301 37.667 -10 51s-15 24 -25 32c-19.333 14.667 -44 22 -74 22h-29v154h46c25.333 0 44.666 12.667 57.999 38c10.667 19.333 16 42.666 16 69.999s-6 49.5 -18 66.5
s-28.333 31.167 -49 42.5c-41.333 23.333 -85.833 35 -133.5 35s-85.834 -2.66699 -114.501 -8s-56 -14.666 -82 -27.999c-56 -28 -95.667 -73 -119 -135zM368.003 423.998c-10 11.333 -23.167 16.999 -39.5 16.999s-30 -5.66699 -41 -17s-20.167 -24.666 -27.5 -39.999
c-12.667 -29.333 -19 -54.5 -19 -75.5s1.5 -39.833 4.5 -56.5s7.83301 -32.667 14.5 -48c17.333 -38.667 40.333 -58 69 -58c40 0 65 36 75 108c2.66699 16.667 4 30 4 40c0 56.667 -13.333 100 -40 130z" />
    <glyph glyph-name="uni0D13" unicode="&#xd13;" horiz-adv-x="1446" 
d="M1253 463c0 181.333 -43.334 271.999 -130.001 271.999c-25.333 0 -50.166 -7.83301 -74.499 -23.5s-43.5 -37.5 -57.5 -65.5l-5 204c18 37.333 60 61 126 71c17.333 2.66699 39 4 65 4s53.5 -7 82.5 -21s54 -32.667 75 -56s38.333 -50.333 52 -81s24.5 -63 32.5 -97
c14.667 -61.333 22 -117.833 22 -169.5s-1.83301 -95.5 -5.5 -131.5s-9.83398 -71.833 -18.501 -107.5s-20.167 -70.167 -34.5 -103.5s-32.5 -62.666 -54.5 -87.999c-46.667 -55.333 -108.167 -83 -184.5 -83s-128.833 23.667 -157.5 71l5 193
c30.667 -55.333 65.834 -83 105.501 -83s69.167 10.5 88.5 31.5s34 46.833 44 77.5c16 49.333 24 111.333 24 186zM242.999 572.999c27.333 23.333 62.5029 34.998 105.503 34.998s78.833 -7.66699 107.5 -23s52 -36 70 -62c36.667 -51.333 55 -115.666 55 -192.999
c0 -156 -43.333 -261.333 -130 -316c-32 -20.667 -70.333 -31 -115 -31s-81.834 6.83301 -111.501 20.5s-54.667 31.834 -75 54.501s-36.5 48.834 -48.5 78.501s-21 60.5 -27 92.5c-10.667 52 -16 119.833 -16 203.5s14 158.167 42 223.5s64.667 118.333 110 159
c87.333 77.333 197 116 329 116c114 0 211 -27.333 291 -82c86 -59.333 129 -136 129 -230c0 -58.667 -17.333 -109.334 -52 -152.001c-12 -14.667 -26.333 -27.334 -43 -38.001c63.333 -38.667 95 -102.667 95 -192c0 -72 -19.667 -131.667 -59 -179
c-43.333 -53.333 -103.666 -80 -180.999 -80c-26 0 -53.667 3.33301 -83 10l-9 171c23.333 -19.333 46 -29 68 -29s37.167 3.66699 45.5 11s15.166 16.333 20.499 27c10.667 22.667 16 44.334 16 65.001s-3.33301 37.667 -10 51s-15 24 -25 32c-19.333 14.667 -44 22 -74 22
h-29v154h46c25.333 0 44.666 12.667 57.999 38c10.667 19.333 16 42.666 16 69.999s-6 49.5 -18 66.5s-28.333 31.167 -49 42.5c-41.333 23.333 -85.833 35 -133.5 35s-85.834 -2.66699 -114.501 -8s-56 -14.666 -82 -27.999c-56 -28 -95.667 -73 -119 -135z
M368.002 423.997c-10 11.333 -23.167 16.999 -39.5 16.999s-30 -5.66699 -41 -17s-20.167 -24.666 -27.5 -39.999c-12.667 -29.333 -19 -54.5 -19 -75.5s1.5 -39.833 4.5 -56.5s7.83301 -32.667 14.5 -48c17.333 -38.667 40.333 -58 69 -58c40 0 65 36 75 108
c2.66699 16.667 4 30 4 40c0 56.667 -13.333 100 -40 130z" />
    <glyph glyph-name="uni0D14" unicode="&#xd14;" horiz-adv-x="1809" 
d="M243 573c27.333 23.333 62.5029 34.998 105.503 34.998s78.833 -7.66699 107.5 -23s52 -36 70 -62c36.667 -51.333 55 -115.666 55 -192.999c0 -156 -43.333 -261.333 -130 -316c-32 -20.667 -70.333 -31 -115 -31s-81.834 6.83301 -111.501 20.5
s-54.667 31.834 -75 54.501s-36.5 48.834 -48.5 78.501s-21 60.5 -27 92.5c-10.667 52 -16 119.833 -16 203.5s14 158.167 42 223.5s64.667 118.333 110 159c87.333 77.333 197 116 329 116c114 0 211 -27.333 291 -82c86 -59.333 129 -136 129 -230
c0 -58.667 -17.333 -109.334 -52 -152.001c-12 -14.667 -26.333 -27.334 -43 -38.001c63.333 -38.667 95 -102.667 95 -192c0 -72 -19.667 -131.667 -59 -179c-43.333 -53.333 -103.666 -80 -180.999 -80c-26 0 -53.667 3.33301 -83 10l-9 171c23.333 -19.333 46 -29 68 -29
s37.167 3.66699 45.5 11s15.166 16.333 20.499 27c10.667 22.667 16 44.334 16 65.001s-3.33301 37.667 -10 51s-15 24 -25 32c-19.333 14.667 -44 22 -74 22h-29v154h46c25.333 0 44.666 12.667 57.999 38c10.667 19.333 16 42.666 16 69.999s-6 49.5 -18 66.5
s-28.333 31.167 -49 42.5c-41.333 23.333 -85.833 35 -133.5 35s-85.834 -2.66699 -114.501 -8s-56 -14.666 -82 -27.999c-56 -28 -95.667 -73 -119 -135zM368.003 423.998c-10 11.333 -23.167 16.999 -39.5 16.999s-30 -5.66699 -41 -17s-20.167 -24.666 -27.5 -39.999
c-12.667 -29.333 -19 -54.5 -19 -75.5s1.5 -39.833 4.5 -56.5s7.83301 -32.667 14.5 -48c17.333 -38.667 40.333 -58 69 -58c40 0 65 36 75 108c2.66699 16.667 4 30 4 40c0 56.667 -13.333 100 -40 130zM1130.5 849.997c31 18 71.498 26.9971 121.498 26.9971
s88.333 -24.667 115 -74c20 35.333 52.333 59.666 97 72.999c14.667 4.66699 29.334 7 44.001 7c96 0 171.333 -45.667 226 -137c46.667 -78 70 -159.667 70 -245s-10.5 -158 -31.5 -218s-51.167 -112 -90.5 -156c-86 -94.667 -194 -142 -324 -142s-219.333 27.667 -268 83
v189c30 -37.333 66.667 -67.166 110 -89.499s89.666 -33.5 138.999 -33.5s92.5 9.83301 129.5 29.5s67.5 45.834 91.5 78.501c48 64.667 72 146.334 72 245.001c0 82 -17.333 144.667 -52 188c-13.333 16.667 -28 25 -44 25s-29.167 -2.83301 -39.5 -8.5
s-19.166 -13.167 -26.499 -22.5c-16.667 -20 -25 -42.667 -25 -68v-141h-150v160c0 32.667 -11 56.334 -33 71.001c-7.33301 4.66699 -16.666 7 -27.999 7s-22.5 -3.83301 -33.5 -11.5s-19.833 -17.167 -26.5 -28.5c-14.667 -24 -22 -51.667 -22 -83s5.66699 -63.333 17 -96
l34 -101h-168c-6.66699 32 -13.5 62.667 -20.5 92s-10.5 62 -10.5 98s4 72.833 12 110.5s21.333 71.167 40 100.5s43.5 53 74.5 71z" />
    <glyph glyph-name="k1" unicode="&#xd15;" horiz-adv-x="1293" 
d="M355 563c26 241.333 133.004 361.998 321.004 361.998c148.667 0 244.667 -73.667 288 -221c13.333 -44 22.666 -91 27.999 -141h33c80.667 0 145.667 -29.667 195 -89c46.667 -55.333 70 -124.333 70 -207c0 -80 -22 -148.333 -66 -205
c-46.667 -60.667 -109.667 -91 -189 -91h-17v179h17c51.333 0 77 39 77 117c0 54.667 -14.667 93 -44 115c-10.667 8 -25 12 -43 12h-29c-10 -195.333 -66 -322.666 -168 -381.999c-40 -23.333 -93.833 -35 -161.5 -35s-120.167 18 -157.5 54
c-47.333 -40 -96.833 -60 -148.5 -60s-94.834 7.83301 -129.501 23.5s-64.334 36.834 -89.001 63.501c-54 58 -81 127.667 -81 209c0 84 27.667 154.333 83 211s125.666 85 210.999 85zM813.004 562.998c-8 86.667 -31.667 142.334 -71 167.001
c-17.333 10.667 -39.5 16 -66.5 16s-49 -5.33301 -66 -16s-30.833 -24.667 -41.5 -42c-16 -26.667 -27.333 -68.334 -34 -125.001h279zM818.004 393.998l-289 0.000976562c4 -70.667 12 -120.334 24 -149.001c25.333 -60 66.333 -90 123 -90c80.667 0 126 53.667 136 161
c2.66699 28 4.66699 54 6 78zM300.504 159.499c13 -6.33301 24.501 -9.5 34.501 -9.5s21 1.33301 33 4c14.667 2.66699 24.667 4 30 4c-26.667 63.333 -42.334 142 -47.001 236h-6c-32 0 -58.333 -13.667 -79 -41c-18 -24.667 -27 -49 -27 -73s2.5 -43.167 7.5 -57.5
s12 -26.833 21 -37.5s20 -19.167 33 -25.5z" />
    <glyph glyph-name="k2" unicode="&#xd16;" horiz-adv-x="1146" 
d="M848.5 644c17 -56 25.5 -121.831 25.5 -197.498s-25 -172.834 -75 -291.501h174l-10 754h179l10 -909l-392 1v-1h-191v37c55.333 92.667 92.666 199 111.999 319c6 37.333 9 73.833 9 109.5s-4 70.667 -12 105s-21.333 64.833 -40 91.5c-40 57.333 -99 86 -177 86
c-94.667 0 -161.334 -42 -200.001 -126c-12 -26.667 -20.333 -56 -25 -88c26 24.667 57.833 37 95.5 37s70.834 -8.5 99.501 -25.5s52.334 -39.5 71.001 -67.5c38 -54.667 57 -120 57 -196c0 -76.667 -22.333 -145.334 -67 -206.001
c-49.333 -65.333 -110.666 -98 -183.999 -98c-170 0 -255 144.333 -255 433c0 233.333 73.333 390.333 220 471c52 28.667 113.833 43 185.5 43s133.167 -12 184.5 -36s94.166 -56.833 128.499 -98.5s60 -90.5 77 -146.5zM311 404.002
c-38.667 0 -63.334 -29.667 -74.001 -89c-2.66699 -14.667 -4 -27.334 -4 -38.001c0 -50 13.667 -87.667 41 -113c10 -9.33301 22.333 -14 37 -14c38.667 0 63.334 29.667 74.001 89c2.66699 14.667 4 27.334 4 38.001c0 51.333 -13.667 89 -41 113
c-10 9.33301 -22.333 14 -37 14z" />
    <glyph glyph-name="k3" unicode="&#xd17;" horiz-adv-x="1035" 
d="M710 746c-74.667 0 -111.998 -41 -111.998 -123c0 -48.667 7.16699 -96 21.5 -142s24.833 -81.833 31.5 -107.5s10 -56.667 10 -93s-4.83301 -72.666 -14.5 -108.999s-25.167 -68.833 -46.5 -97.5c-46.667 -62 -117 -93 -211 -93c-205.333 0 -315.666 117 -330.999 351
c-2 36 -3 69.333 -3 100s2.16699 66.167 6.5 106.5s11.166 82.833 20.499 127.5c20.667 103.333 48 184.666 82 243.999h190c-42.667 -56.667 -76.334 -164 -101.001 -322c-9.33301 -58.667 -14 -111 -14 -157s2.33301 -86.833 7 -122.5s12.667 -65.167 24 -88.5
c20.667 -44 57 -66 109 -66c32 0 57.667 14.667 77 44c16.667 27.333 23.667 55.333 21 84s-7.5 56.167 -14.5 82.5s-13.833 53.5 -20.5 81.5c-18.667 72 -28 130 -28 174s4.83301 84.5 14.5 121.5s26.167 69.5 49.5 97.5c49.333 60.667 126.666 91 231.999 91
c194.667 0 300.667 -112 318 -336c2.66699 -34 4 -64 4 -90s-1.5 -52.333 -4.5 -79s-7.16699 -55.5 -12.5 -86.5s-11.833 -62.667 -19.5 -95s-15.834 -63.5 -24.501 -93.5c-19.333 -67.333 -39 -117.333 -59 -150h-188c44.667 78 80.334 193 107.001 345
c11.333 64 17 113.667 17 149c0 168 -46 252 -138 252z" />
    <glyph glyph-name="k4" unicode="&#xd18;" horiz-adv-x="1602" 
d="M606 580c0 -36 -3.33594 -77.3359 -10.0029 -124.003h77c0 183.333 43.333 316 130 398c53.333 50.667 116.333 76 189 76s130.167 -12.833 172.5 -38.5s76.5 -59.167 102.5 -100.5c48 -76 72 -175 72 -297c-0.666992 -33.333 -1 -65.333 -1 -96v-102h-481v-137h560
l-10 750h184l10 -909h-928v296c-3.33301 -1.33301 -15 -2 -35 -2c-43.333 -1.33301 -128 -0.666016 -254 2.00098l31.5 143.5c9.66699 45.667 14.5 83.334 14.5 113.001s-1.66699 52.334 -5 68.001s-8.66602 30.167 -15.999 43.5c-17.333 32 -38.166 48 -62.499 48
s-42.833 -5 -55.5 -15s-23 -22.333 -31 -37c-15.333 -29.333 -23 -70 -23 -122s16.667 -132.667 50 -242h-184c-28 106 -42 187.333 -42 244s5.83301 103.167 17.5 139.5s28.834 68.833 51.501 97.5c52 64 120.333 96 205 96c83.333 0 150.333 -30.333 201 -91
c46.667 -56 70 -123.333 70 -202zM1154 455.997c0 193.333 -49 290 -147 290c-100 0 -150 -96.667 -150 -290h297z" />
    <glyph glyph-name="ng" unicode="&#xd19;" horiz-adv-x="1321" 
d="M308 -22c-172 0 -258.003 144.666 -258.003 433.999c0 270 86 434.333 258 493c39.333 13.333 78 20 116 20s72.167 -2.16699 102.5 -6.5s59.833 -11.833 88.5 -22.5c66 -23.333 110 -58 132 -104c17.333 48 53.333 84.667 108 110c44.667 20 93 30 145 30
s97.667 -7 137 -21s73.333 -34.333 102 -61c61.333 -56 92 -130.667 92 -224c0 -54 -3 -89.667 -9 -107c-12 -37.333 -40.333 -68.333 -85 -93c54 -22.667 84.333 -62.334 91 -119.001c2 -17.333 3 -39.666 3 -66.999s-4.5 -56.333 -13.5 -87s-22.5 -57.667 -40.5 -81
c-38.667 -49.333 -94 -74 -166 -74h-88v183c58.667 0 96.334 10.333 113.001 31c7.33301 10 11 23.333 11 40c0 42 -25.667 64.667 -77 68c-14.667 1.33301 -29.667 2 -45 2v183h21c32 0 57.333 14.333 76 43c16.667 24 25 49.833 25 77.5s-4.16699 48.5 -12.5 62.5
s-19.166 25.333 -32.499 34c-24.667 14.667 -55.834 22 -93.501 22s-67.167 -5.5 -88.5 -16.5s-38 -25.833 -50 -44.5c-20 -32.667 -30 -82 -30 -148v-535h-183v519c0 68.667 -17.667 123.334 -53 164.001s-89.666 61 -162.999 61c-116 0 -183.333 -68 -202 -204
c26.667 25.333 58.334 38 95.001 38s69.5 -9.16699 98.5 -27.5s52.833 -41.833 71.5 -70.5c38 -58 57 -125.333 57 -202s-22.333 -144.667 -67 -204c-49.333 -64 -111.333 -96 -186 -96zM382.997 239.999c2.66699 14 4 26.5 4 37.5s-1.33301 23.667 -4 38
s-7 27.833 -13 40.5c-14 30.667 -33.667 46 -59 46c-37.333 0 -61.333 -28.667 -72 -86c-2.66699 -14.667 -4 -27.5 -4 -38.5s1.33301 -23.5 4 -37.5s7 -27.333 13 -40c14 -30.667 33.667 -46 59 -46c37.333 0 61.333 28.667 72 86z" />
    <glyph glyph-name="ch1" unicode="&#xd1a;" horiz-adv-x="1152" 
d="M756 159l214 0.00195312l-10 750h184l10 -909h-1104l10 149l434 10c42 1.33301 78 24.333 108 69c27.333 42 41 85 41 129c0 112.667 -44.5 169 -133.5 169s-133.5 -59 -133.5 -177c0 -49.333 12 -90.333 36 -123h-184c-22 44 -33 91.667 -33 143
s6.5 97.666 19.5 138.999s32.5 76.666 58.5 105.999c54.667 62 133 93 235 93c98 0 176.333 -29 235 -87c58.667 -57.333 88 -132.5 88 -225.5s-25 -171.5 -75 -235.5z" />
    <glyph glyph-name="ch2" unicode="&#xd1b;" horiz-adv-x="1628" 
d="M1253 925c252.667 0 378.998 -156.996 378.998 -470.996c0 -192.667 -26.667 -323.334 -80 -392.001c-42 -54.667 -102.333 -82 -181 -82c-86.667 0 -151.667 37.333 -195 112c-36.667 62 -55 138.667 -55 230c0 152 38.333 255.333 115 310c30 21.333 68.333 32 115 32
c39.333 0 68.333 -10 87 -30c-25.333 73.333 -87.666 110 -186.999 110c-77.333 0 -135 -30.333 -173 -91c-31.333 -50.667 -47 -124.667 -47 -222s34.667 -241 104 -431h-1085l10 149l404 10c42 1.33301 78 24.333 108 69c27.333 42 41 79.667 41 113
s-2.16699 60.166 -6.5 80.499s-11.833 38.166 -22.5 53.499c-23.333 34 -58.666 51 -105.999 51c-88 0 -132 -59 -132 -177c0 -49.333 12 -90.333 36 -123h-184c-22 44 -33 91.667 -33 143s6.5 97.5 19.5 138.5s32.833 76.5 59.5 106.5c54.667 62 132.667 93 234 93
c98 0 176.333 -29 235 -87c58.667 -57.333 88 -132.333 88 -225s-25 -171.334 -75 -236.001h177c-36.667 126 -55 224 -55 294s8 133.333 24 190s40.667 105.667 74 147c70.667 90 173 135 307 135zM1446 321.004c0 61.333 -14.001 109.666 -42.001 144.999
c-10.667 13.333 -23.5 20 -38.5 20s-27.167 -6.5 -36.5 -19.5s-16.666 -28.5 -21.999 -46.5c-9.33301 -31.333 -14 -64.333 -14 -99c0 -63.333 12 -111.666 36 -144.999c9.33301 -13.333 21.5 -20 36.5 -20s27.667 6.5 38 19.5s18.5 28.5 24.5 46.5c12 32 18 65 18 99z" />
    <glyph glyph-name="ch3" unicode="&#xd1c;" horiz-adv-x="1175" 
d="M629 844c49.333 62 118.667 92.9971 208 92.9971c98 0 175.333 -31.667 232 -95c54.667 -60.667 82 -139.334 82 -236.001c0 -74.667 -16.667 -139 -50 -193c-12 -19.333 -26.667 -36 -44 -50c28 -16 48.5 -39 61.5 -69s19.5 -61 19.5 -93s-5.83301 -61 -17.5 -87
s-27.834 -48.333 -48.501 -67c-41.333 -38 -95 -57 -161 -57c-90.667 0 -155.667 31 -195 93c-12.667 20.667 -20.667 44.667 -24 72c-23.333 -58 -67 -102.667 -131 -134c-87.333 -42.667 -185.666 -52 -294.999 -28c-80 17.333 -139 53 -177 107
c-20 28 -30 58.833 -30 92.5s4.83301 60.834 14.5 81.501s22.834 38 39.501 52c34.667 30 78 45 130 45h553c56 0 100 24.333 132 73c27.333 41.333 41 92 41 152c0 116 -42.667 174 -128 174c-32 0 -58.333 -7.83301 -79 -23.5s-31 -40.167 -31 -73.5v-267h-189
c0 23.333 0.666992 46 2 68c4 90.667 2.33301 152 -5 184c-8.66699 38.667 -22.334 65.667 -41.001 81c-34 27.333 -71 41 -111 41c-80 0 -133.667 -20 -161 -60c23.333 16 47.833 24 73.5 24s48.5 -4.16699 68.5 -12.5s37 -20.166 51 -35.499
c28.667 -30.667 43 -65.667 43 -105s-4.83301 -70.666 -14.5 -93.999s-23.5 -42.666 -41.5 -57.999c-36 -31.333 -78 -47 -126 -47s-85 7.16699 -111 21.5s-47.333 33.166 -64 56.499c-32 46 -48 98.833 -48 158.5s8.33301 107.834 25 144.501s39.667 67 69 91
c58 48.667 137 73 237 73s180.333 -31 241 -93zM897.001 273.997c-30.667 0 -52.333 -16.3311 -65 -48.998c-4 -9.33301 -6 -21.333 -6 -36s6 -29.334 18 -44.001s28.167 -22 48.5 -22s37.833 7.16699 52.5 21.5s22 29 22 44s-1.83301 27.167 -5.5 36.5
s-8.5 17.666 -14.5 24.999c-13.333 16 -30 24 -50 24zM310.502 626.499c-9.66699 13 -22.667 19.5 -39 19.5s-29.5 -6.5 -39.5 -19.5s-15 -27.333 -15 -43s5 -30.334 15 -44.001s23.167 -20.5 39.5 -20.5s29.333 6.83301 39 20.5s14.5 28.334 14.5 44.001
s-4.83301 30 -14.5 43zM246.002 199.999c0 -46 51.333 -69 154 -69c105.333 0 168.666 36.333 189.999 109h-302c-11.333 0 -21.166 -4 -29.499 -12s-12.5 -17.333 -12.5 -28z" />
    <glyph glyph-name="ch4" unicode="&#xd1d;" horiz-adv-x="2079" 
d="M2007 910c43.333 -130 64.9971 -272.33 64.9971 -426.997c0 -258 -71.333 -417.667 -214 -479c-34.667 -14.667 -75 -22 -121 -22c-79.333 0 -148.333 35 -207 105c-56 -70 -130.333 -105 -223 -105c-88 0 -157.667 26.667 -209 80c-51.333 54 -77 124.667 -77 212
c0 54 3.5 107.333 10.5 160s10.5 106 10.5 160s-12.5 94.833 -37.5 122.5s-65.833 41.5 -122.5 41.5c-24 0 -46.333 -5 -67 -15c92 -85.333 138 -198 138 -338c0 -186.667 -51 -314.667 -153 -384c-38.667 -26 -82.167 -39 -130.5 -39s-87.5 6.33301 -117.5 19
s-56 29.667 -78 51s-40.667 46.166 -56 74.499s-27.666 58.5 -36.999 90.5c-17.333 59.333 -26 124.666 -26 195.999c0 137.333 41 247 123 329l-50 2c-66.667 1.33301 -116.667 -33.667 -150 -105c-25.333 -54.667 -38 -120 -38 -196c0 -177.333 39.667 -325 119 -443h-204
c-66 150.667 -99 298.334 -99 443.001c0 132 29.333 242.333 88 331c68 103.333 164.333 155 289 155c79.333 0 148.666 -18.333 207.999 -55c59.333 36 120.833 54 184.5 54s118.834 -6.5 165.501 -19.5s87.667 -32.833 123 -59.5c78 -58 117 -140.333 117 -247
c0 -55.333 -3.5 -110 -10.5 -164s-10.5 -103 -10.5 -147c0 -85.333 34 -128 102 -128c39.333 0 69.333 12.667 90 38s31 56.666 31 93.999v610h180v-610c0 -58.667 21.667 -99.667 65 -123c14.667 -8 35.834 -12 63.501 -12s52.334 10 74.001 30s38.167 44.667 49.5 74
c18.667 48 28 110 28 186c0 149.333 -24.667 302.666 -74 459.999h188zM767.997 336.003c0.666992 28.667 1 54 1 76s-1.83301 46.167 -5.5 72.5s-9.83398 51.833 -18.501 76.5c-19.333 55.333 -50.333 94.333 -93 117c-56.667 -33.333 -92.334 -97.333 -107.001 -192
c-4 -26 -6 -49.167 -6 -69.5s1.33301 -44.833 4 -73.5s8.33398 -57 17.001 -85c20 -66.667 51.667 -100 95 -100c70.667 0 108.334 59.333 113.001 178z" />
    <glyph glyph-name="nj" unicode="&#xd1e;" horiz-adv-x="1826" 
d="M1221 874c60.667 36.667 129 54.998 205 54.998s139.167 -12 189.5 -36s91.166 -57 122.499 -99c60.667 -79.333 91 -187 91 -323s-33.333 -293 -100 -471h-207c82 162.667 123 317.334 123 464.001c0 188 -71.333 281 -214 279h-36
c46.667 -42.667 81.334 -94 104.001 -154s34 -117.667 34 -173s-4.5 -108.333 -13.5 -159s-24.833 -97 -47.5 -139c-51.333 -95.333 -130.333 -143 -237 -143c-106 0 -185 49 -237 147c-42 78 -63 180.333 -63 307s41 231 123 313c-17.333 1.33301 -37.5 2 -60.5 2
s-45.667 -5.16699 -68 -15.5s-40.833 -24.5 -55.5 -42.5c-28.667 -35.333 -43 -82.333 -43 -141v-545h-184v553c0 69.333 -17.667 118.5 -53 147.5s-86.333 43.5 -153 43.5c-116 0 -183.333 -68 -202 -204c26.667 25.333 58.334 38 95.001 38s69.5 -9.16699 98.5 -27.5
s52.833 -41.833 71.5 -70.5c38 -58 57 -125.333 57 -202s-22.333 -144.667 -67 -204c-49.333 -64 -111.333 -96 -186 -96c-114 0 -192 82 -234 246c-15.333 60 -23 114.833 -23 164.5s3.33301 95.334 10 137.001s17 82 31 121s31.833 75.333 53.5 109s47.5 63.167 77.5 88.5
c64 54 140.667 81 230 81c92 0 168.333 -22.667 229 -68c21.333 -16 38 -35.333 50 -58c59.333 86.667 153 130 281 130c79.333 0 148.666 -18.333 207.999 -55zM1347 335.998c1.33301 28.667 2 53.668 2 75.001s-2 45.333 -6 72s-10.333 52.334 -19 77.001
c-21.333 58 -52 97.333 -92 118c-54.667 -30.667 -90 -95.334 -106 -194.001c-4.66699 -26 -7 -48.833 -7 -68.5s1.5 -43.834 4.5 -72.501s8.5 -56.667 16.5 -84c20.667 -67.333 52.334 -101 95.001 -101c69.333 0 106.666 59.333 111.999 178zM350 389.999
c-11.333 8 -24.499 12 -39.499 12s-27.833 -4.16699 -38.5 -12.5s-19.334 -18.833 -26.001 -31.5c-14 -24 -21 -50.667 -21 -80c0 -50 15.667 -87.333 47 -112c10.667 -8 23.5 -12 38.5 -12s28 4.16699 39 12.5s19.833 18.833 26.5 31.5c14 24 21 50.667 21 80
c0 50.667 -15.667 88 -47 112z" />
    <glyph glyph-name="t1" unicode="&#xd1f;" horiz-adv-x="774" 
d="M747 835l-0.000976562 -237.999c-42.667 71.333 -113 117 -211 137c-28.667 5.33301 -55 8 -79 8s-47.333 -2 -70 -6s-43.667 -10.667 -63 -20c-44.667 -22.667 -67 -56.667 -67 -102c0 -36.667 13.333 -64 40 -82c8.66699 -5.33301 22.5 -8 41.5 -8
s41.333 3.16699 67 9.5s55 9.5 88 9.5s67.667 -5.66699 104 -17s68.5 -28 96.5 -50c60.667 -48.667 91 -113.334 91 -194.001c0 -96 -40.333 -172.333 -121 -229c-72 -50.667 -164.333 -76 -277 -76s-213.334 30 -302.001 90v242c87.333 -100.667 180.333 -151 279 -151
c90 0 155.667 16 197 48c17.333 14 26 30 26 48s-3 32.667 -9 44s-14 21.333 -24 30c-20 17.333 -43 26 -69 26l-194 -15c-67.333 0 -122.666 29.333 -165.999 88c-39.333 52.667 -59 110.167 -59 172.5s10.333 113.333 31 153s48.334 72.5 83.001 98.5
c68.667 51.333 159.5 77 272.5 77s211.167 -31 294.5 -93z" />
    <glyph glyph-name="t2" unicode="&#xd20;" horiz-adv-x="782" 
d="M420 -14c-130.667 0 -226.667 47.332 -288 141.999c-50 78.667 -75 187 -75 325c0 218 62.333 363.667 187 437c46.667 27.333 105.334 41 176.001 41c129.333 0 224.333 -48 285 -144c49.333 -78 74 -186.333 74 -325c0 -219.333 -61 -364.666 -183 -435.999
c-46.667 -26.667 -105.334 -40 -176.001 -40zM561 637.999c-28 66.667 -75.001 99.999 -141.001 99.999c-116 0 -174 -96.667 -174 -290c0 -118.667 28.667 -200 86 -244c22.667 -17.333 52 -26 88 -26c64.667 0 111.334 31.667 140.001 95
c20.667 46.667 31 95.334 31 146.001c0 98 -10 171 -30 219z" />
    <glyph glyph-name="t3" unicode="&#xd21;" horiz-adv-x="1543" 
d="M1362 418c0 154 -42.999 316.999 -128.999 488.999h189c57.333 -89.333 94.666 -202.666 111.999 -339.999c4.66699 -40 7 -84.167 7 -132.5s-4.33301 -101 -13 -158s-25.334 -107.833 -50.001 -152.5c-53.333 -97.333 -139.833 -146 -259.5 -146
s-200.167 35.333 -241.5 106c-42.667 -73.333 -115.334 -110 -218.001 -110c-93.333 0 -165.666 30.667 -216.999 92c-46.667 56 -70 130 -70 222c0 34 4.33301 75.333 13 124c16.667 92.667 25 152.167 25 178.5s-1 49 -3 68s-6.66699 36.167 -14 51.5
c-16.667 35.333 -44 53 -82 53s-67.833 -8.33301 -89.5 -25s-39.5 -37.334 -53.5 -62.001c-24.667 -46 -37 -101.333 -37 -166c0 -228.667 54 -399.334 162 -512.001h-208c-64 82.667 -105 196 -123 340c-4.66699 40.667 -7 84.334 -7 131.001s5 98.334 15 155.001
s28 108 54 154c58.667 103.333 153 155 283 155c86.667 0 157.334 -32.333 212.001 -97c50 -59.333 75 -134.666 75 -225.999c0 -38 -4 -80 -12 -126c-16 -87.333 -24 -144.666 -24 -171.999s2 -49.833 6 -67.5s10.667 -33.834 20 -48.501c20 -32 44.5 -48 73.5 -48
s51 5.16699 66 15.5s27.167 23.5 36.5 39.5c19.333 31.333 29 67.666 29 108.999v585h181v-585c0 -40 9.33301 -72 28 -96c33.333 -44 69.5 -66 108.5 -66s69 8.66699 90 26s36.167 39.333 45.5 66c13.333 35.333 20 94 20 176z" />
    <glyph glyph-name="t4" unicode="&#xd22;" horiz-adv-x="1635" 
d="M1373 925c172.667 0 259.001 -144.664 259.001 -433.997c0 -266.667 -85.333 -429.667 -256 -489c-40 -13.333 -79.333 -20 -118 -20s-70.5 3.16699 -95.5 9.5s-48.5 15.833 -70.5 28.5c-48.667 26 -85.334 60.667 -110.001 104c-35.333 -66 -92.333 -110 -171 -132
c-24 -6.66699 -53.833 -10 -89.5 -10s-70.667 7.66699 -105 23s-62.5 36.333 -84.5 63c-43.333 53.333 -65 126.666 -65 219.999c0 34 4.33301 75.333 13 124c16.667 92.667 25 156 25 190c0 107.333 -37.667 161 -113 161c-56.667 0 -98.667 -29 -126 -87
c-20 -44 -30 -99.333 -30 -166c0 -226.667 54 -397.334 162 -512.001h-208c-86.667 118 -130 270.333 -130 457c0 318.667 112.333 478 337 478c87.333 0 159 -33 215 -99c51.333 -60.667 77 -135.334 77 -224.001c0 -38 -4.33301 -80 -13 -126
c-15.333 -87.333 -23 -150 -23 -188c0 -92 32 -138 96 -138c38.667 0 70 16.667 94 50c20.667 29.333 31 64 31 104v585h181v-455c0 -92 20.667 -164.667 62 -218c36.667 -47.333 82 -71 136 -71c72 0 126.333 39 163 117c12 26 20.667 56.667 26 92
c-26.667 -25.333 -58 -38 -94 -38s-68 9 -96 27s-51 41.333 -69 70c-34.667 55.333 -52 123.333 -52 204c0 79.333 20.667 147 62 203c46.667 64.667 106.667 97 180 97zM1371 748.003c-29.333 0 -52.001 -16.002 -68.001 -48.002c-12 -23.333 -18 -44.166 -18 -62.499
s1.33301 -34.666 4 -48.999s7.33398 -27.833 14.001 -40.5c16 -32 38.667 -48 68 -48s52 16 68 48c12 23.333 18 44.333 18 63c0 36 -7 67.833 -21 95.5s-35.667 41.5 -65 41.5z" />
    <glyph glyph-name="nh" unicode="&#xd23;" horiz-adv-x="1749" 
d="M960 927c110 0 185.003 -34.665 225.003 -103.998c29.333 40.667 63.666 68.167 102.999 82.5s81.5 21.5 126.5 21.5s83.5 -6.5 115.5 -19.5s60 -30.5 84 -52.5s44.167 -47.833 60.5 -77.5s29.5 -61.5 39.5 -95.5c18.667 -62.667 28 -120.5 28 -173.5
s-2.33301 -101 -7 -144s-11 -87.167 -19 -132.5c-20 -104 -41.333 -181 -64 -231h-188c40.667 83.333 69.667 204 87 362c4.66699 42.667 7 77.5 7 104.5s-1.83301 56.167 -5.5 87.5s-10.834 61 -21.501 89c-25.333 68 -63.333 102 -114 102s-87.334 -10.167 -110.001 -30.5
s-34 -53.833 -34 -100.5v-614h-180v614c0 39.333 -10 71.166 -30 95.499s-50.667 36.5 -92 36.5s-73.333 -12 -96 -36s-34 -56 -34 -96v-614h-184v530c0 71.333 -16.167 124.666 -48.5 159.999s-84.833 53 -157.5 53c-116 0 -183.333 -68 -202 -204
c26.667 25.333 58.334 38 95.001 38s69 -9.33301 97 -28s51 -42.667 69 -72c34 -54.667 51 -121.334 51 -200.001c0 -79.333 -19.667 -146.666 -59 -201.999c-45.333 -64.667 -105 -97 -179 -97c-40.667 0 -77.5 10.5 -110.5 31.5s-59.667 47 -80 78s-36.5 64.5 -48.5 100.5
c-21.333 64 -32 126.833 -32 188.5s3.33301 113.334 10 155.001s17.167 81.667 31.5 120s32.333 74.166 54 107.499s47.167 62.333 76.5 87c64.667 53.333 141 80 229 80c63.333 0 110.666 -5.66699 141.999 -17c55.333 -20.667 104 -50.667 146 -90
c35.333 41.333 64.333 67.333 87 78c38 19.333 82 29 132 29zM316.003 402.002c-27.333 0 -49.333 -14.667 -66 -44c-13.333 -24 -20 -50.667 -20 -80c0 -50 15.667 -87.333 47 -112c10.667 -8 23.667 -12 39 -12c27.333 0 49.333 14.667 66 44c13.333 24 20 50.667 20 80
c0 50 -15.667 87.333 -47 112c-10.667 8 -23.667 12 -39 12z" />
    <glyph glyph-name="th1" unicode="&#xd24;" horiz-adv-x="1251" 
d="M641 874c59.333 36.667 127.335 54.998 204.002 54.998s140.167 -12 190.5 -36s91.166 -57 122.499 -99c60.667 -79.333 91 -188.166 91 -326.499s-33.333 -294.166 -100 -467.499h-207c82 164 123 318.667 123 464c0 134 -37.667 220 -113 258
c-29.333 14.667 -66.333 21.667 -111 21h-26c92 -84.667 138 -197.334 138 -338.001c0 -220 -64.333 -357 -193 -411c-30.667 -12.667 -65.667 -19 -105 -19c-138 0 -229.667 80.333 -275 241c-16.667 61.333 -25 127 -25 197c0 137.333 41 247 123 329
c-13.333 1.33301 -33.833 2 -61.5 2s-53.5 -10.5 -77.5 -31.5s-43.333 -46.5 -58 -76.5c-27.333 -56.667 -41 -121 -41 -193c0 -177.333 39.667 -325 119 -443h-204c-66 152.667 -99 300.334 -99 443.001c0 134 28.667 244.667 86 332c68 102.667 165 154 291 154
c79.333 0 148.666 -18.333 207.999 -55zM767.002 337.998c1.33301 28.667 1.99902 53.5 1.99902 74.5s-2 44.833 -6 71.5s-10.667 52.667 -20 78c-21.333 56.667 -51.666 95.334 -90.999 116.001c-53.333 -27.333 -88.666 -91.333 -105.999 -192
c-4.66699 -26.667 -7 -48.334 -7 -65.001s0.5 -33.334 1.5 -50.001s3 -34.5 6 -53.5s7.33301 -38 13 -57s12.5 -35.833 20.5 -50.5c19.333 -34.667 43.666 -52 72.999 -52s51.833 9.5 67.5 28.5s27 41.833 34 68.5s11.167 54.334 12.5 83.001z" />
    <glyph glyph-name="th2" unicode="&#xd25;" horiz-adv-x="969" 
d="M664 932c204 0 306 -142.667 306 -428v-505l-912 1l8 908h185l-10 -749l115 -1v346c0 196 52.667 326.667 158 392c40 24 90 36 150 36zM664 757c-88.667 0 -133 -84.333 -133 -253v-346h264v346c0 71.333 -4.66699 122.333 -14 153c-20 66.667 -59 100 -117 100z" />
    <glyph glyph-name="th3" unicode="&#xd26;" horiz-adv-x="765" 
d="M56 458c0 317.333 122.667 476 368 476c97.333 0 178 -27 242 -81c66 -56 99 -127 99 -213c0 -67.333 -24 -123 -72 -167c-16 -14.667 -34.667 -27 -56 -37c42 -19.333 74 -46.5 96 -81.5s33 -71.667 33 -110s-5.5 -73.333 -16.5 -105s-27.5 -59.5 -49.5 -83.5
c-49.333 -54 -119.666 -81 -210.999 -81c-48.667 0 -101.334 10.667 -158.001 32v174c44 -22.667 86.5 -34 127.5 -34s69.333 9 85 27s23.5 37.167 23.5 57.5s-2.83301 37.333 -8.5 51s-13.5 25.5 -23.5 35.5c-21.333 22.667 -48 34 -80 34h-66v168
c62 0 101.667 3.33301 119 10c34 14.667 51 46.667 51 96c0 34.667 -14.667 64 -44 88c-28 23.333 -62.333 35 -103 35s-72.5 -10 -95.5 -30s-40.167 -45 -51.5 -75c-16.667 -43.333 -25 -105 -25 -185s3 -157.5 9 -232.5s9.66699 -150.5 11 -226.5h-184
c-1.33301 76.667 -5 153 -11 229s-9 152.333 -9 229z" />
    <glyph glyph-name="th4" unicode="&#xd27;" horiz-adv-x="1192" 
d="M825 164c118.667 0 177.999 91.001 177.999 273.001c0 126.667 -25 247.667 -75 363l-51 110h183c54 -71.333 93.333 -181 118 -329c8 -48 12 -97.167 12 -147.5s-6.66699 -102.5 -20 -156.5s-33.666 -103 -60.999 -147c-62 -99.333 -145.333 -149 -250 -149
c-72.667 0 -133.334 18.333 -182.001 55c-17.333 12.667 -34.666 28 -51.999 46c-36 -37.333 -66.667 -61.333 -92 -72c-86 -38 -168.333 -41.333 -247 -10c-90 36 -154.667 114 -194 234c-22.667 66.667 -34 131.667 -34 195s4.16699 117.666 12.5 162.999
s18.833 88 31.5 128c26 82.667 54.333 146 85 190h185c-66 -134.667 -105.333 -244.667 -118 -330c-6 -37.333 -9 -75.166 -9 -113.499s2.16699 -74.833 6.5 -109.5s12.833 -66.334 25.5 -95.001c28.667 -65.333 75 -98 139 -98c86 0 129 47 129 141v595h176v-594
c0 -53.333 6.66699 -88 20 -104c20.667 -25.333 48.667 -38 84 -38z" />
    <glyph glyph-name="n1" unicode="&#xd28;" horiz-adv-x="1170" 
d="M615 828c54 54 110.667 86 170 96c21.333 4 48 6 80 6s63.333 -6.5 94 -19.5s57.834 -30.5 81.501 -52.5s43.667 -47.833 60 -77.5s29.833 -61.5 40.5 -95.5c20.667 -66 31 -129.667 31 -191s-3 -116.166 -9 -164.499s-14 -93.5 -24 -135.5
c-21.333 -89.333 -47 -154 -77 -194h-188c76 149.333 114 307.333 114 474c0 80 -7.16699 136.833 -21.5 170.5s-32.666 59 -54.999 76s-47.5 25.5 -75.5 25.5s-48.667 -2.16699 -62 -6.5s-24.666 -11.5 -33.999 -21.5c-18 -21.333 -27 -59 -27 -113v-595h-180v595
c0 94 -44.333 141 -133 141c-92.667 0 -144.667 -64.333 -156 -193c-2.66699 -34.667 -4 -71.167 -4 -109.5s2.16699 -76.333 6.5 -114s11.166 -74.167 20.499 -109.5c16 -60 45.333 -133.333 88 -220h-190c-47.333 68 -80.666 174 -99.999 318c-6 44.667 -9 87.667 -9 129
s2.16699 81.166 6.5 119.499s11.666 75.166 21.999 110.499s23.666 68.333 39.999 99s36.5 57.334 60.5 80.001c51.333 49.333 121.666 74 210.999 74s162.333 -34 219 -102z" />
    <glyph glyph-name="p1" unicode="&#xd2a;" horiz-adv-x="952" 
d="M607 307c0 -40.667 -3.66895 -86.667 -11.002 -138h169v740h184v-904h-565c30.667 135.333 46 236.333 46 303c0 58 -16.667 101 -50 129c-11.333 10 -25.833 15 -43.5 15s-33 -5.5 -46 -16.5s-23.5 -24.167 -31.5 -39.5c-15.333 -30.667 -23 -63.667 -23 -99
c0 -83.333 17 -180.666 51 -291.999h-184c-29.333 111.333 -44 198 -44 260s5.83301 112.833 17.5 152.5s28.834 75.167 51.501 106.5c51.333 68.667 120.333 103 207 103c84.667 0 152.334 -33 203.001 -99c46 -60.667 69 -134.334 69 -221.001z" />
    <glyph glyph-name="p2" unicode="&#xd2b;" horiz-adv-x="1291" 
d="M607 280c0 -39.333 -3.66992 -79.666 -11.0029 -120.999l85 3v346c0 191.333 54 320.666 162 387.999c38.667 24 86.667 36 144 36s105.333 -11.833 144 -35.5s69.667 -55.167 93 -94.5c43.333 -74 65 -172 65 -294v-499l-905 -4c5.33301 24.667 10.833 48 16.5 70
s10.834 43.667 15.501 65c9.33301 48.667 14 87.167 14 115.5s-1.66699 50.833 -5 67.5s-8.66602 32.334 -15.999 47.001c-17.333 34.667 -38.166 52 -62.499 52s-43.166 -5.5 -56.499 -16.5s-24.333 -24.167 -33 -39.5c-17.333 -32 -26 -62.833 -26 -92.5
s1.5 -55.167 4.5 -76.5s7.16699 -42.333 12.5 -63s11.333 -41.334 18 -62.001l21 -67h-184l-17 67.5c-5.33301 21 -10 41.5 -14 61.5c-8.66699 44.667 -13 88.167 -13 130.5s5.5 83.333 16.5 123s27.833 75.167 50.5 106.5c50.667 68.667 118.667 103 204 103
s153.666 -33 204.999 -99c48 -62 72 -134.667 72 -218zM1102 511c0 104.667 -18.333 176.333 -55 215c-15.333 16.667 -35 25 -59 25s-43.5 -8.16699 -58.5 -24.5s-26.833 -36.5 -35.5 -60.5c-16 -42 -24 -93.667 -24 -155v-349h232v349z" />
    <glyph glyph-name="p3" unicode="&#xd2c;" horiz-adv-x="1613" 
d="M1250 159l187.002 0.00195312l-10 750h184l10 -909h-633v33c67.333 65.333 113.666 180.333 138.999 345c6.66699 43.333 10 80.666 10 111.999s-2.83301 62 -8.5 92s-15.167 57.333 -28.5 82c-30.667 55.333 -79 83 -145 83c-78 0 -119.667 -40 -125 -120
c-2 -23.333 -3 -47.666 -3 -72.999v-554h-182v535c0 63.333 -16.333 114 -49 152s-81 57 -145 57c-90 0 -153 -41.333 -189 -124c-11.333 -24.667 -19 -51.334 -23 -80.001c26.667 25.333 58.334 38 95.001 38s69.5 -9.16699 98.5 -27.5s52.833 -41.833 71.5 -70.5
c38 -58 57 -125.333 57 -202s-22.333 -144.667 -67 -204c-49.333 -64 -111.333 -96 -186 -96c-116 0 -194 82 -234 246c-14 58.667 -21 119 -21 181s7.5 124 22.5 186s38.5 117.667 70.5 167c71.333 111.333 173.666 167 306.999 167c90 0 165.667 -22.333 227 -67
c21.333 -16 39.666 -35.333 54.999 -58c47.333 86 120 129.667 218 131c125.333 1.33301 219 -42 281 -130c53.333 -74.667 80 -174.334 80 -299.001s-21.333 -239 -64 -343zM311.002 406.002c-29.333 0 -51.666 -16.667 -66.999 -50c-11.333 -24 -17 -50 -17 -78
c0 -49.333 14.333 -87 43 -113c10.667 -10 24.334 -15 41.001 -15c29.333 0 51.666 16.667 66.999 50c11.333 24 17 50 17 78c0 49.333 -14.333 87 -43 113c-10.667 10 -24.334 15 -41.001 15z" />
    <glyph glyph-name="p4" unicode="&#xd2d;" horiz-adv-x="737" 
d="M507 393l57.999 2.99902c54.667 0 97.667 -21.333 129 -64c28 -37.333 42 -79 42 -125s-6 -82.5 -18 -109.5s-29 -49.5 -51 -67.5c-43.333 -35.333 -102.666 -53 -177.999 -53c-42.667 0 -88.334 7.33301 -137.001 22v169c28.667 -20 64 -30 106 -30
c44.667 0 73.667 8.33301 87 25c6 7.33301 9 17.166 9 29.499s-1.5 21.666 -4.5 27.999s-7.16699 10.833 -12.5 13.5c-8 4.66699 -21 7 -39 7l-38 -1c-44 0 -80.667 22 -110 66c-25.333 38.667 -38 75.5 -38 110.5s3.83301 64.667 11.5 89s18.5 46.5 32.5 66.5
c33.333 44.667 75 67 125 67l44 -4c12 0 21.833 3.83301 29.5 11.5s11.5 18.667 11.5 33s-4.33301 27 -13 38s-19.667 19.833 -33 26.5c-23.333 12 -53.166 18 -89.499 18s-67 -7.16699 -92 -21.5s-44.833 -33.166 -59.5 -56.499c-28 -46 -40.833 -103 -38.5 -171
s4.16602 -125 5.49902 -171s2.33301 -83.667 3 -113s1.5 -58.166 2.5 -86.499s1.83301 -55.333 2.5 -81s1.33398 -48.5 2.00098 -68.5h-185c-0.666992 20.667 -1.33398 44.5 -2.00098 71.5s-1.5 55.5 -2.5 85.5s-1.83301 60.5 -2.5 91.5s-1.66699 71 -3 120l-4.5 168.5
c-1.66699 63.333 5.5 118.5 21.5 165.5s40.333 87.833 73 122.5c71.333 76.667 166 115 284 115c84.667 0 154.334 -22.333 209.001 -67c58.667 -47.333 88 -111.666 88 -192.999c0 -88.667 -27 -149 -81 -181c-19.333 -12 -43 -18 -71 -18l-65 7
c-20.667 0 -31 -14.667 -31 -44s7.66699 -44 23 -44z" />
    <glyph glyph-name="m1" unicode="&#xd2e;" horiz-adv-x="821" 
d="M818 8h-762.001v436c0 227.333 65.333 377.333 196 450c48 27.333 107.833 41 179.5 41s131.834 -12.5 180.501 -37.5s88 -58.833 118 -101.5c58.667 -83.333 88 -194 88 -332v-456zM488.999 165l148.999 -0.000976562v299c0 87.333 -10 149 -30 185
s-42.833 61.667 -68.5 77s-62.5 23 -110.5 23c-96.667 0 -156.667 -54 -180 -162c22 16.667 52.667 25 92 25s71.833 -7.16699 97.5 -21.5s46.834 -33.166 63.501 -56.499c31.333 -44 47 -103 47 -177s-20 -138 -60 -192zM382.998 352.999c0 70 -29.333 105 -88 105
c-22.667 0 -42.667 -14 -60 -42v-251h61c40 35.333 66.667 81 80 137c4.66699 18 7 35 7 51z" />
    <glyph glyph-name="y1" unicode="&#xd2f;" horiz-adv-x="1251" 
d="M1077 441c0 134 -43.666 288.334 -130.999 463.001h201c53.333 -142.667 84.833 -245.5 94.5 -308.5s14.5 -120.5 14.5 -172.5s-6.5 -106.167 -19.5 -162.5s-34.5 -105.833 -64.5 -148.5c-64.667 -90.667 -164.667 -136 -300 -136c-98.667 0 -168.667 22 -210 66
c-54.667 -44 -120.334 -66 -197.001 -66s-140.167 14.667 -190.5 44s-91.833 67.666 -124.5 114.999c-64 92.667 -96 207 -96 343c0 227.333 56.667 370 170 428c28.667 14.667 62.667 22 102 22c66.667 0 121.667 -31.333 165 -94c51.333 62.667 116 94 194 94
c114 0 195 -77 243 -231c18 -58 27 -109.5 27 -154.5s-3.16699 -84.667 -9.5 -119s-15.5 -68.166 -27.5 -101.499c-28 -74.667 -64.667 -133.334 -110 -176.001l33 -8c106 -26 177.667 24 215 150c14 48 21 99 21 153zM670.001 216.001
c68.667 82.667 102.999 188.667 102.999 318c0 88.667 -15.333 152 -46 190c-13.333 16 -31.666 24 -54.999 24s-42.333 -9.33301 -57 -28s-26 -41 -34 -67c-12.667 -41.333 -19 -82.666 -19 -123.999s0.666992 -74.5 2 -99.5s5.33301 -49.5 12 -73.5
c16 -54.667 47.333 -101.334 94 -140.001zM528 139.001c-95.333 96.667 -143 214.333 -143 353l7 108c0 50.667 -10 88.667 -30 114c-8.66699 10 -19.667 15 -33 15c-44 0 -74 -53 -90 -159c-4.66699 -31.333 -7 -59 -7 -83s2 -49.833 6 -77.5s10.333 -55.667 19 -84
s20 -55.666 34 -81.999s30.667 -48.833 50 -67.5c48 -47.333 102 -61 162 -41c4.66699 1.33301 13 2.66602 25 3.99902z" />
    <glyph glyph-name="r3" unicode="&#xd30;" horiz-adv-x="863" 
d="M135 0c-52.667 179.333 -79.001 327 -79.001 443c0 225.333 74 373.666 222 444.999c52.667 24.667 115.834 37 189.501 37s135.5 -14.667 185.5 -44s90.333 -67.666 121 -114.999c56.667 -90 85 -206.333 85 -349c0 -106.667 -19 -200.334 -57 -281.001
c-48 -102 -120.333 -153 -217 -153c-80 0 -143 38 -189 114c-40 65.333 -60 140.333 -60 225c0 148 38.667 248.667 116 302c29.333 20 59.666 30 90.999 30c52 0 88.667 -10 110 -30c-11.333 34.667 -34.666 63 -69.999 85c-32 20 -68.167 30 -108.5 30
s-75.333 -8.66699 -105 -26s-54.167 -40 -73.5 -68c-37.333 -55.333 -56 -122.666 -56 -201.999c0 -137.333 28.333 -285 85 -443h-190zM661.999 311c0 57.333 -14.668 102.332 -44.001 134.999c-10 12 -22.5 18 -37.5 18s-27.167 -6 -36.5 -18s-16.666 -26 -21.999 -42
c-9.33301 -28.667 -14 -59.667 -14 -93c0 -59.333 12 -104.333 36 -135c9.33301 -12 21.5 -18 36.5 -18s27.667 5.83301 38 17.5s18.833 25.834 25.5 42.501c12 29.333 18 60.333 18 93z" />
    <glyph glyph-name="rh" unicode="&#xd31;" horiz-adv-x="759" 
d="M761 464c0 -122.667 -18.332 -277.334 -54.999 -464.001h-180c38.667 198.667 58 353.334 58 464.001c0 121.333 -26.667 205.333 -80 252c-22.667 19.333 -53.167 29 -91.5 29s-69.333 -10.5 -93 -31.5s-41.834 -46.833 -54.501 -77.5
c-20.667 -50.667 -31 -114.667 -31 -192c0 -148 20 -296 60 -444h-182c-36 155.333 -54 303.333 -54 444c0 198 39.667 335.333 119 412c56.667 54 134.667 81 234 81c210 0 325 -122.333 345 -367c3.33301 -36.667 5 -72 5 -106z" />
    <glyph glyph-name="l3" unicode="&#xd32;" horiz-adv-x="985" 
d="M984 0h-928v473c0 177.333 44.667 306 134 386c53.333 47.333 120 71 200 71c154 0 255 -82 303 -246c18.667 -64 28 -136 28 -216v-172h-481v-137h560l-10 750h184zM538 494c0 109.333 -23.667 184.668 -71 226.001c-19.333 17.333 -45.333 26 -78 26
s-58.667 -10.5 -78 -31.5s-34.333 -46.5 -45 -76.5c-17.333 -48.667 -26 -108.334 -26 -179.001h297z" />
    <glyph glyph-name="lh" unicode="&#xd33;" horiz-adv-x="967" 
d="M972 577c0 -90.667 -38.6641 -161.665 -115.997 -212.998c76.667 -39.333 115 -115 115 -227c0 -80.667 -26.333 -145.667 -79 -195c-53.333 -49.333 -121.666 -74 -204.999 -74h-397c-11.333 0 -20.5 -3.66699 -27.5 -11s-10.5 -16 -10.5 -26
s3.83301 -19.833 11.5 -29.5s16.5 -14.5 26.5 -14.5h659v-167h-689c-52.667 0 -98.334 21.333 -137.001 64c-36.667 40 -55 87.333 -55 142s18 101.334 54 140.001c36.667 39.333 82.667 59 138 59h397c37.333 0 67.333 10.167 90 30.5s34 49.166 34 86.499
s-9.33301 67.5 -28 90.5s-46.334 34.5 -83.001 34.5h-29v189l10 -1h18c66 0 99 44 99 132c0 56.667 -24.667 100.667 -74 132c-45.333 28 -92.5 42 -141.5 42s-89.5 -3.83301 -121.5 -11.5s-61 -18.834 -87 -33.501c-58.667 -32 -92.334 -75.667 -101.001 -131
c25.333 21.333 55.5 32 90.5 32s66.667 -8.16699 95 -24.5s51.5 -37.833 69.5 -64.5c36.667 -52.667 55 -108 55 -166s-7 -103.667 -21 -137s-32.333 -61.333 -55 -84c-46.667 -46.667 -102.667 -70 -168 -70c-112 0 -188.333 65.333 -229 196
c-14.667 46 -22 100.5 -22 163.5s6.66699 124.167 20 183.5s37.333 112.666 72 159.999c77.333 106 200.666 159 369.999 159c132 0 239 -30.333 321 -91c87.333 -64.667 131 -153 131 -265zM311.003 445.002c-36 0 -59 -25 -69 -75c-2.66699 -12.667 -4 -24.667 -4 -36
c0 -46 13 -79.333 39 -100c9.33301 -7.33301 20.666 -11 33.999 -11c36 0 59 25 69 75c2.66699 12.667 4 24.667 4 36c0 46 -13 79.333 -39 100c-9.33301 7.33301 -20.666 11 -33.999 11z" />
    <glyph glyph-name="zh" unicode="&#xd34;" horiz-adv-x="855" 
d="M409 434c-55.333 55.333 -82.999 123.997 -82.999 205.997c0 92.667 25.333 165.334 76 218.001c46.667 48.667 106 73 178 73c87.333 0 156 -28.333 206 -85c46.667 -51.333 70 -116.666 70 -195.999c0 -70.667 -6.66699 -122 -20 -154
c-24.667 -62 -70.334 -119 -137.001 -171c33.333 -36 50 -76 50 -120s-7.33301 -79.667 -22 -107s-34.334 -50 -59.001 -68c-46.667 -34 -113.834 -51 -201.501 -51s-158.834 20.5 -213.501 61.5s-82 99.167 -82 174.5h189c0 -38 23.667 -63.667 71 -77
c13.333 -3.33301 26.333 -5 39 -5s24.334 1.5 35.001 4.5s20.334 7.5 29.001 13.5c18.667 12.667 28 28.334 28 47.001c0 26.667 -9.66699 51.667 -29 75c-29.333 -7.33301 -63.666 -11 -102.999 -11h-1c-118 0 -211.667 43.333 -281 130c-62.667 77.333 -94 173 -94 287
c0 82.667 18 159.334 54 230.001h201c-46 -57.333 -69 -137.333 -69 -240c0 -106.667 30.333 -178.334 91 -215.001c21.333 -13.333 47.333 -20 78 -20zM680.001 566.997c4 18 5.99805 36.501 5.99805 55.501s-2 37.167 -6 54.5s-10 33 -18 47c-18 30 -38.667 45 -62 45
s-40.666 -4 -51.999 -12s-20.666 -19 -27.999 -33c-12.667 -25.333 -19 -53 -19 -83s1.66699 -54.333 5 -73s8.66602 -35.334 15.999 -50.001c16.667 -32 40.334 -48 71.001 -48c43.333 0 72.333 32.333 87 97z" />
    <glyph glyph-name="v1" unicode="&#xd35;" horiz-adv-x="1044" 
d="M743 570c2.66699 -36.667 4 -82.167 4 -136.5s-9.33301 -142.5 -28 -264.5h125v741h197v-910h-537c39.333 203.333 59 358 59 464c0 186 -53 279 -159 279c-112 0 -168 -99.667 -168 -299c0 -146.667 20 -294.667 60 -444h-185c-36.667 159.333 -55 307.333 -55 444
c0 199.333 37.667 336 113 410c56 55.333 133.333 83 232 83c210 0 324 -122.333 342 -367z" />
    <glyph glyph-name="z1" unicode="&#xd36;" horiz-adv-x="1233" 
d="M375 -25c-213.333 0 -320.004 154 -320.004 462c0 120 23 241 69 363c14.667 39.333 31.334 76 50.001 110h190c-62 -94 -101.333 -223.333 -118 -388c-4.66699 -46.667 -7 -84.667 -7 -114s1.83301 -57.833 5.5 -85.5s10.167 -54.167 19.5 -79.5
c22.667 -60.667 58 -91 106 -91c29.333 0 53.333 12.667 72 38c17.333 22 26 46.167 26 72.5s-2.33301 50 -7 71s-9.66699 41.833 -15 62.5c-14.667 56.667 -22 106.5 -22 149.5s8 89.333 24 139s40.667 92.834 74 129.501c72 78 173.667 117 305 117
c164.667 0 278.334 -57 341.001 -171c48 -86 72 -205 72 -357c0 -102.667 -20 -194.334 -60 -275.001c-49.333 -100 -120.666 -150 -213.999 -150c-81.333 0 -144.666 41 -189.999 123c-38 68 -57 146 -57 234c0 142 39.667 241 119 297c30 21.333 60.333 32 91 32
c48.667 0 85 -10 109 -30c-29.333 81.333 -101.666 122 -216.999 122c-70.667 0 -124.334 -22 -161.001 -66c-34.667 -41.333 -52 -97 -52 -167c0 -30 5 -62.333 15 -97c18.667 -64.667 28 -114.5 28 -149.5s-4.83301 -71.167 -14.5 -108.5s-25.167 -70.333 -46.5 -99
c-48 -62.667 -119.667 -94 -215 -94zM1046 321c0 61.333 -14 109.667 -42 145c-10.667 13.333 -23.667 20 -39 20c-26 0 -45.667 -22 -59 -66c-8.66699 -29.333 -13 -56 -13 -80s0.833008 -45.167 2.5 -63.5s5.16699 -36.5 10.5 -54.5c13.333 -44 33 -66 59 -66
c26.667 0 47.667 22 63 66c12 32 18 65 18 99z" />
    <glyph glyph-name="sh" unicode="&#xd37;" horiz-adv-x="1364" 
d="M1362 0l-980 -0.00195312c5.33301 24.667 10.833 46.834 16.5 66.501s10.834 38.5 15.501 56.5c10 42.667 15 75 15 97s-1.66699 40 -5 54s-8.66602 27.333 -15.999 40c-16.667 29.333 -37.667 44 -63 44s-44.333 -4.66699 -57 -14s-23 -20.666 -31 -33.999
c-15.333 -25.333 -23 -51 -23 -77s1.33301 -47.5 4 -64.5s6.16699 -34 10.5 -51s9.66602 -34.833 15.999 -53.5s13.166 -40 20.499 -64h-184c-6 24 -11.833 45.667 -17.5 65s-10.5 38 -14.5 56c-8.66699 39.333 -13 77.166 -13 113.499s5.83301 71.833 17.5 106.5
s29.167 65.667 52.5 93c52 60.667 121 91 207 91c84.667 0 152.334 -29 203.001 -87c47.333 -53.333 71 -117.333 71 -192c0 -16.667 -1 -28.667 -3 -36c-3.33301 -10.667 -6.66602 -26 -9.99902 -46h246l10 226c-8.66699 -1.33301 -17.334 -2 -26.001 -2h-25
c-82.667 0 -152.334 25.333 -209.001 76c-58 52.667 -87 120.334 -87 203.001c0 77.333 23.667 140.333 71 189c48 48.667 110.333 73 187 73c78 0 143 -24.667 195 -74c52.667 -50 79 -114 79 -192v-78c78 0 122.333 65 133 195c2 28 2 71 0 129h184zM761.5 578.498
c13 -5 27 -7.5 42 -7.5s30.5 0.666992 46.5 2v90c0 22.667 -7.66699 42.834 -23 60.501s-34.5 26.5 -57.5 26.5s-41.5 -7.33301 -55.5 -22s-21 -31.334 -21 -50.001s3.16699 -34.167 9.5 -46.5s14.5 -23 24.5 -32s21.5 -16 34.5 -21zM1178 163.998l-10 297
c-42.667 -36 -87 -58 -133 -66l-10 -231h153z" />
    <glyph glyph-name="s1" unicode="&#xd38;" 
d="M1383 910c80.667 -104.667 121.001 -267.338 121.001 -488.005c0 -165.333 -38 -287.666 -114 -366.999c-46.667 -49.333 -101.5 -74 -164.5 -74s-115.5 6.33301 -157.5 19s-77.333 32 -106 58c-60.667 54 -91 133.667 -91 239c0 37.333 3 79.333 9 126
c11.333 88 17 150.333 17 187c0 95.333 -32.333 143 -97 143c-41.333 0 -72.333 -17 -93 -51c-17.333 -27.333 -26 -63.333 -26 -108v-584h-186v585c0 105.333 -31.667 158 -95 158c-88.667 0 -139 -50.333 -151 -151c-4.66699 -39.333 -6.83398 -70.166 -6.50098 -92.499
s0.5 -44.666 0.5 -66.999s2.66699 -53.666 8 -93.999s12.333 -81.833 21 -124.5c20 -91.333 42.333 -166 67 -224h-196c-59.333 167.333 -89 318.333 -89 453c0 98 5.16699 169.833 15.5 215.5s23 83.5 38 113.5s34.833 56 59.5 78c52 46.667 126.333 70 223 70
c46.667 0 85.667 -7.33301 117 -22s59 -42 83 -82c26 42 57.333 69.833 94 83.5s79.167 20.5 127.5 20.5s90 -7.83301 125 -23.5s63.833 -37.167 86.5 -64.5c43.333 -53.333 65 -128 65 -224c0 -31.333 -3.33301 -71.666 -10 -120.999c-12 -96 -18 -159.667 -18 -191
c0 -105.333 40 -158 120 -158c94 0 139.333 75.667 136 227c-0.666992 14.667 -1 28.667 -1 42c0 226.667 -49 391 -147 493h215z" />
    <glyph glyph-name="h1" unicode="&#xd39;" horiz-adv-x="1439" 
d="M610 301c0 -42 -3.66699 -88.001 -11 -138.001h113c-4 22 -8.5 44.667 -13.5 68s-9.83301 47 -14.5 71c-10 56 -15 108.167 -15 156.5s7.5 101.666 22.5 159.999s38.167 110.833 69.5 157.5c70 104.667 167.667 157 293 157c162.667 0 277 -82 343 -246
c28 -69.333 42 -133.666 42 -192.999c0 -105.333 -18 -231.333 -54 -378c-9.33301 -38 -18 -76.667 -26 -116h-193c8.66699 40 17.834 79 27.501 117s18.5 76.333 26.5 115c20 90 30 158.333 30 205s-3.33301 86.5 -10 119.5s-17.334 63.5 -32.001 91.5
c-34.667 64.667 -84.667 97 -150 97c-68 0 -120 -35 -156 -105c-29.333 -56.667 -44 -113 -44 -169s2.33301 -102.5 7 -139.5s11 -74.167 19 -111.5c11.333 -52.667 31 -126 59 -220h-563c11.333 50 22.166 100.167 32.499 150.5s15.5 91.833 15.5 124.5
s-1.66699 57.167 -5 73.5s-8.33301 31.5 -15 45.5c-16.667 34 -37.167 51 -61.5 51s-42.666 -5.33301 -54.999 -16s-22.166 -23.667 -29.499 -39c-15.333 -30 -23 -62.667 -23 -98c0 -84.667 17.333 -182 52 -292h-190c-29.333 112.667 -44 199.667 -44 261
s5.83301 112 17.5 152s29.167 75.667 52.5 107c52.667 69.333 122 104 208 104c85.333 0 153.666 -33.333 204.999 -100c46.667 -61.333 70 -135.666 70 -222.999z" />
    <glyph glyph-name="uni0D3D" unicode="&#xd3d;" horiz-adv-x="770" 
d="M678 1112l12.001 51.999c0 6.66699 -3.33301 10 -10 10c-17.333 0 -38 -55.333 -62 -166c-9.33301 -42 -16.333 -80.667 -21 -116l-19 -147.5c-8 -63 -18.333 -132.833 -31 -209.5l-36 -225c-24.667 -157.333 -51 -282.333 -79 -375
c-53.333 -172 -119.333 -258 -198 -258c-57.333 0 -86 32.667 -86 98c0 37.333 10 64.333 30 81c6.66699 4.66699 14 7 22 7c36 0 54 -20 54 -60c0 -3.33301 -4.66699 -20 -14 -50c2.66699 -2.66699 4.66699 -4 6 -4c24 0 50.667 58.333 80 175
c10 38.667 17.667 76.834 23 114.501s9.66602 66.167 12.999 85.5l118 714l10 55c3.33301 18.667 7.33301 37.667 12 57c28 112.667 61.333 192.667 100 240c24 28 50 42 78 42s51.333 -8.5 70 -25.5s28 -42.5 28 -76.5c0 -52 -18 -78 -54 -78c-30.667 0 -46 20 -46 60z
M734.001 499.999l-496 -128v114l496 126v-112z" />
    <glyph glyph-name="uni0D3E" unicode="&#xd3e;" horiz-adv-x="506" 
d="M318 463c0 181.333 -43.3359 271.999 -130.003 271.999c-25.333 0 -50.166 -7.83301 -74.499 -23.5s-43.5 -37.5 -57.5 -65.5l-5 204c18 37.333 60 61 126 71c17.333 2.66699 39 4 65 4s53.5 -7 82.5 -21s54 -32.667 75 -56s38.333 -50.333 52 -81s24.5 -63 32.5 -97
c14.667 -61.333 22 -117.833 22 -169.5s-1.83301 -95.5 -5.5 -131.5s-9.83398 -71.833 -18.501 -107.5s-20.167 -70.167 -34.5 -103.5s-32.166 -62.666 -53.499 -87.999c-47.333 -55.333 -109.166 -83 -185.499 -83s-128.833 23.667 -157.5 71l5 193
c30.667 -55.333 65.834 -83 105.501 -83s69.167 10.5 88.5 31.5s34 46.833 44 77.5c16 49.333 24 111.333 24 186z" />
    <glyph glyph-name="uni0D3F" unicode="&#xd3f;" horiz-adv-x="266" 
d="M-206 1056l-1 18.001c0 65.333 23.667 116.333 71 153c44 33.333 96.667 50 158 50c63.333 0 118 -17 164 -51c50 -38 75 -89 75 -153v-1073h-175v1046c0 21.333 -7.16699 37.333 -21.5 48s-29.5 16 -45.5 16s-30.167 -4.83301 -42.5 -14.5s-18.5 -24.167 -18.5 -43.5v-6
l2 -30c0.666992 -7.33301 1.16699 -14.333 1.5 -21s0.833008 -10.334 1.5 -11.001h-164z" />
    <glyph glyph-name="uni0D40" unicode="&#xd40;" horiz-adv-x="288" 
d="M96 939c-17.333 -14.667 -42.166 -21.999 -74.499 -21.999s-59.833 4 -82.5 12s-43 19.333 -61 34c-38 32 -57 69 -57 111s5.66699 75.667 17 101s26.666 46.666 45.999 63.999c39.333 35.333 91 53 155 53c112 0 187.667 -40 227 -120c13.333 -26.667 20 -58 20 -94
v-1088h-190v949zM120 1096c0 17.333 -6.33301 32.334 -19 45.001s-27.667 19 -45 19s-32.333 -6.16699 -45 -18.5s-19 -27.333 -19 -45s6.33301 -32.834 19 -45.501s27.667 -19 45 -19s32.333 6.33301 45 19s19 27.667 19 45z" />
    <glyph glyph-name="u1" unicode="&#xd41;" horiz-adv-x="478" 
d="M499 23.5c25.333 -40.333 38 -84.167 38 -131.5s-6.83301 -88.166 -20.5 -122.499s-32.5 -64.833 -56.5 -91.5c-52 -56.667 -116 -85 -192 -85c-75.333 0 -139 28.333 -191 85c-51.333 56.667 -77 123.334 -77 200.001c-0 104 44.333 180.667 133 230
c26.667 15.333 55.667 25.666 87 30.999c4 14.667 12.667 36 26 64c112 247.333 85 482.666 -81 705.999h184c102.667 -142 151.667 -285 147 -429c-3.33301 -98.667 -23.333 -189.334 -60 -272.001l-20.5 -47c-7 -15.333 -12.833 -30.666 -17.5 -45.999
c42 -20.667 75.667 -51.167 101 -91.5zM375 -112.001c0 48.667 -21.666 83 -64.999 103c-12.667 6 -26.667 9 -42 9c-46.667 0 -79.334 -23.333 -98.001 -70c-6 -13.333 -9 -27.5 -9 -42.5s2.83301 -29.167 8.5 -42.5s13.167 -25 22.5 -35c20 -22.667 45.333 -34 76 -34
c30 0 52.667 8 68 24c26 28 39 57.333 39 88z" />
    <glyph glyph-name="u2" unicode="&#xd42;" horiz-adv-x="478" 
d="M404 135c110 -46.667 165 -147.333 165 -302c0 -89.333 -28.333 -163.666 -85 -222.999c-57.333 -60 -129 -90 -215 -90c-86.667 0 -158.334 30 -215.001 90c-55.333 59.333 -83 133.666 -83 222.999c0 94.667 23.667 171 71 229c44.667 56 105.667 88 183 96
c2.66699 14 10 33.667 22 59c116 243.333 88.667 474 -82 692h184c105.333 -140.667 155 -284 149 -430c-4 -96 -24 -183 -60 -261c-17.333 -37.333 -28.666 -65 -33.999 -83zM194 0.000976562c-36 -28 -54.001 -72.6689 -54.001 -134.002c0 -45.333 9 -80 27 -104
c32 -41.333 66 -62 102 -62s67 16.667 93 50c24 32 36 74 36 126s-18 93.333 -54 124h-4c12.667 -19.333 19 -38.166 19 -56.499s-2.33301 -34 -7 -47s-11 -24.5 -19 -34.5c-18 -21.333 -40 -32 -66 -32c-25.333 0 -44.666 8 -57.999 24c-22 26.667 -33 52.834 -33 78.501
s6 48.167 18 67.5h1h-1zM194.999 -0.000976562h-1h1z" />
    <glyph glyph-name="r1" unicode="&#xd43;" horiz-adv-x="387" 
d="M63 -257c-35.333 41.333 -79.668 62.001 -133.001 62.001c-46 0 -76.667 -6.16699 -92 -18.5s-23 -24.166 -23 -35.499c0 -35.333 36.667 -53 110 -53c87.333 0 156.333 28 207 84c47.333 53.333 71 123.666 71 210.999v7h-3l-35 909h184c0 -98 4.33301 -220 13 -366
c17.333 -276.667 26 -453.834 26 -531.501s-10.833 -145.167 -32.5 -202.5s-52.167 -107.333 -91.5 -150c-85.333 -92.667 -195.666 -139 -330.999 -139c-128.667 0 -219.334 39.667 -272.001 119c-18.667 28 -28 61.5 -28 100.5s9.33301 72.5 28 100.5
s42.334 51.333 71.001 70c58 36 117.333 54 178 54s110 -7.66699 148 -23s74.667 -41 110 -77z" />
    <glyph glyph-name="uni0D46" unicode="&#xd46;" horiz-adv-x="863" 
d="M261 593c19.333 17.333 49.8311 26.002 91.498 26.002s77.167 -8.33301 106.5 -25s53 -38.667 71 -66c33.333 -51.333 50 -120 50 -206c0 -84.667 -20 -159.667 -60 -225c-46 -76 -109 -114 -189 -114c-133.333 0 -218.666 82.333 -255.999 247
c-12.667 55.333 -19 116.166 -19 182.499s6.66699 129.833 20 190.5s35.333 115 66 163c67.333 106 169 159 305 159c140.667 0 246.334 -46.667 317.001 -140c63.333 -82.667 95 -189.834 95 -321.501s-26 -286.167 -78 -463.5h-190c56 156 84 303.667 84 443
c0 129.333 -43 219.333 -129 270c-30 17.333 -59.833 26 -89.5 26s-54.167 -4.16699 -73.5 -12.5s-37.333 -19.166 -54 -32.499c-37.333 -30.667 -60 -64.334 -68 -101.001zM406.998 294.002c0 56 -12.333 98.6689 -37 128.002c-10 11.333 -22.5 17 -37.5 17
s-27.667 -5.5 -38 -16.5s-18.833 -24.167 -25.5 -39.5c-12 -27.333 -18 -57 -18 -89c0 -54.667 14.333 -97.334 43 -128.001c10.667 -11.333 23.5 -17 38.5 -17s27.333 5.66699 37 17s17.167 24.666 22.5 39.999c10 28.667 15 58 15 88z" />
    <glyph glyph-name="uni0D47" unicode="&#xd47;" horiz-adv-x="654" 
d="M453 486c-100 0 -161.332 59.332 -183.999 177.999c-26 -58.667 -39 -125 -39 -199s13.333 -143.333 40 -208c12 60 34.667 103.667 68 131s67.166 41 101.499 41s63.333 -4.66699 87 -14s44.834 -23 63.501 -41c40.667 -39.333 61 -88.666 61 -147.999
c0 -64 -21.667 -118 -65 -162c-50 -49.333 -118.667 -74 -206 -74c-90.667 0 -165.334 35 -224.001 105c-70 83.333 -105 208.333 -105 375c0 158 35 276.667 105 356c58.667 67.333 133.667 101 225 101c88 0 156.667 -24 206 -72c42.667 -41.333 64 -93.333 64 -156
s-20.667 -114.667 -62 -156c-38 -38 -83.333 -57 -136 -57zM481.001 680.999l-0.000976562 6.99902c-0.666992 18 -5.66699 34.5 -15 49.5s-22.666 22.5 -39.999 22.5s-30.5 -6.66699 -39.5 -20s-13.5 -29.333 -13.5 -48s4.5 -36.167 13.5 -52.5s22.167 -24.5 39.5 -24.5
s31 6.83301 41 20.5s14.667 28.834 14 45.501zM481 225.998l-0.000976562 6.99902c-0.666992 18 -5.66699 34.5 -15 49.5s-22.666 22.5 -39.999 22.5s-30.5 -6.66699 -39.5 -20s-13.5 -29.333 -13.5 -48s4.5 -36.167 13.5 -52.5s22.167 -24.5 39.5 -24.5s31 6.83301 41 20.5
s14.667 28.834 14 45.501z" />
    <glyph glyph-name="uni0D48" unicode="&#xd48;" horiz-adv-x="1707" 
d="M1111 593c19.333 17.333 49.8311 26.002 91.498 26.002s77.167 -8.33301 106.5 -25s53 -38.667 71 -66c33.333 -51.333 50 -120 50 -206c0 -84.667 -20 -159.667 -60 -225c-46 -76 -109 -114 -189 -114c-133.333 0 -218.666 82.333 -255.999 247
c-12.667 55.333 -19 116.166 -19 182.499s6.66699 129.833 20 190.5s35.333 115 66 163c67.333 106 169 159 305 159c140.667 0 246.334 -46.667 317.001 -140c63.333 -82.667 95 -189.834 95 -321.501s-26 -286.167 -78 -463.5h-190c56 156 84 303.667 84 443
c0 129.333 -43 219.333 -129 270c-30 17.333 -59.833 26 -89.5 26s-54.167 -4.16699 -73.5 -12.5s-37.333 -19.166 -54 -32.499c-37.333 -30.667 -60 -64.334 -68 -101.001zM260.998 593.002c19.333 17.333 49.8311 26.002 91.498 26.002s77.167 -8.33301 106.5 -25
s53 -38.667 71 -66c33.333 -51.333 50 -120 50 -206c0 -84.667 -20 -159.667 -60 -225c-46 -76 -109 -114 -189 -114c-133.333 0 -218.666 82.333 -255.999 247c-12.667 55.333 -19 116.166 -19 182.499s6.66699 129.833 20 190.5s35.333 115 66 163
c67.333 106 169 159 305 159c140.667 0 246.334 -46.667 317.001 -140c63.333 -82.667 95 -189.834 95 -321.501s-26 -286.167 -78 -463.5h-190c56 156 84 303.667 84 443c0 129.333 -43 219.333 -129 270c-30 17.333 -59.833 26 -89.5 26s-54.167 -4.16699 -73.5 -12.5
s-37.333 -19.166 -54 -32.499c-37.333 -30.667 -60 -64.334 -68 -101.001zM1257 294.004c0 56 -12.333 98.6689 -37 128.002c-10 11.333 -22.5 17 -37.5 17s-27.667 -5.5 -38 -16.5s-18.833 -24.167 -25.5 -39.5c-12 -27.333 -18 -57 -18 -89
c0 -54.667 14.333 -97.334 43 -128.001c10.667 -11.333 23.5 -17 38.5 -17s27.333 5.66699 37 17s17.167 24.666 22.5 39.999c10 28.667 15 58 15 88zM406.996 294.006c0 56 -12.333 98.6689 -37 128.002c-10 11.333 -22.5 17 -37.5 17s-27.667 -5.5 -38 -16.5
s-18.833 -24.167 -25.5 -39.5c-12 -27.333 -18 -57 -18 -89c0 -54.667 14.333 -97.334 43 -128.001c10.667 -11.333 23.5 -17 38.5 -17s27.333 5.66699 37 17s17.167 24.666 22.5 39.999c10 28.667 15 58 15 88z" />
    <glyph glyph-name="uni0D4A" unicode="&#xd4a;" horiz-adv-x="2310" 
d="M458 371.5c0 -37.667 13.999 -70.667 41.999 -99s60.167 -42.5 96.5 -42.5s68.333 13 96 39s41.5 57.5 41.5 94.5s-12.667 69.667 -38 98s-52.666 42.5 -81.999 42.5c-48 0 -86 -12.667 -114 -38s-42 -56.833 -42 -94.5zM1246 510
c0 -138.667 -79.333 -267.332 -238 -385.999l-94 38c117.333 83.333 176 190.666 176 321.999c0 86.667 -31 161 -93 223s-138.5 93 -229.5 93s-167.667 -31.833 -230 -95.5s-99.5 -141.167 -111.5 -232.5l6 -8c56 78.667 122.667 118 200 118
c60 0 112.667 -24.167 158 -72.5s68 -104 68 -167s-20 -113.167 -60 -150.5s-98.167 -56 -174.5 -56s-138.333 29 -186 87s-71.5 131 -71.5 219c0 122.667 41.667 228 125 316s184.333 132 303 132s223.667 -35.5 315 -106.5s137 -162.167 137 -273.5zM1492 530.002v-84
h-176v84h176zM2092 524.002c0 -258.667 -91.3311 -387.997 -273.998 -387.997c-86.667 0 -150 19.833 -190 59.5s-60 103.167 -60 190.5v4h62c6.66699 -37.333 13.334 -65.333 20.001 -84c17.333 -45.333 58.666 -68 123.999 -68c37.333 0 68.5 8.33301 93.5 25
s41.833 37.667 50.5 63c16 49.333 24.667 90.166 26 122.499s2 58.166 2 77.499c0 190.667 -50 286 -150 286c-64.667 0 -107.334 -20 -128.001 -60c-18.667 -36.667 -31.334 -84 -38.001 -142h-62v4c0 95.333 17 165.166 51 209.499s95.667 66.5 185 66.5
c192 0 288 -122 288 -366zM2222 282.005l0.000976562 506.001c0 84 -29.333 155.333 -88 214s-129.334 88 -212.001 88h-1372c-84 0 -154.667 -29.167 -212 -87.5s-86 -129.833 -86 -214.5v-506c0 -82 28.667 -152 86 -210c56.667 -58 127.334 -87 212.001 -87h1372
c83.333 0 154.166 29.167 212.499 87.5s87.5 128.166 87.5 209.499zM2310 876.006v-686c0 -82.667 -29.333 -153.167 -88 -211.5s-130 -87.5 -214 -87.5h-1544c-82.667 0 -153.334 29.333 -212.001 88s-88 129 -88 211v686c0 82.667 29.333 153.334 88 212.001
s129.334 88 212.001 88h1544c83.333 0 154.5 -29.333 213.5 -88s88.5 -129.334 88.5 -212.001z" />
    <glyph glyph-name="uni0D4B" unicode="&#xd4b;" horiz-adv-x="2126" 
d="M978 340c0 21.333 -7.83301 39.667 -23.5 55s-34.5 23 -56.5 23c-46.667 0 -70 -28 -70 -84s18.667 -94.667 56 -116c62.667 16 94 56.667 94 122zM898 606.001c53.333 0 79.999 31.667 79.999 95s-31.333 100.333 -94 111c-25.333 -12.667 -42.666 -38.667 -51.999 -78
c-2.66699 -11.333 -4 -22 -4 -32c0 -64 23.333 -96 70 -96zM1038 336.001c0 -66.667 -32.001 -115.998 -96.001 -147.998s-133.333 -48 -208 -48c-116 0 -205.333 34.167 -268 102.5s-94 160.166 -94 275.499s32 206.666 96 273.999c64.667 66.667 153.334 100 266.001 100
c108 0 192 -26 252 -78c34.667 -29.333 52 -68 52 -116c0 -98.667 -46.667 -148 -140 -148c-47.333 0 -87.333 12 -120 36c-32 24 -48 62.667 -48 116s18.667 94 56 122c-12 8 -32.667 12 -62 12c-142.667 0 -214 -107 -214 -321s71.333 -321 214 -321c22 0 42.667 4 62 12
c-37.333 24 -56 62.333 -56 115s16.5 91 49.5 115s70.833 36 113.5 36s77.5 -12.333 104.5 -37s40.5 -57.667 40.5 -99zM1290 528.003v-82h-178v82h178zM1888 522.003c0 -260 -90.666 -390 -271.999 -390c-88 0 -151.667 20.167 -191 60.5s-59 104.833 -59 193.5v4h60
c9.33301 -50 22.666 -87.333 39.999 -112c8 -14 21.167 -24.167 39.5 -30.5s41.5 -9.5 69.5 -9.5s53.333 6.16699 76 18.5s38.334 25.5 47.001 39.5c29.333 50 44 126 44 228c0 189.333 -50.667 284 -152 284c-33.333 0 -60.333 -4.33301 -81 -13
c-37.333 -15.333 -62.333 -61.666 -75 -138.999c-2.66699 -13.333 -5.33398 -29.333 -8.00098 -48h-60v6c0 91.333 16.667 160.166 50 206.499s95.333 69.5 186 69.5c190.667 0 286 -122.667 286 -368zM2056 258.003l-0.000976562 529.999c0 84 -29.333 155.333 -88 214
c-59.333 58.667 -130.666 88 -213.999 88h-1196c-82.667 0 -153.334 -29.333 -212.001 -88s-88 -130 -88 -214v-530c0 -81.333 29.333 -151.166 88 -209.499s129.334 -87.5 212.001 -87.5h1196c82.667 0 154 29 214 87c58.667 58.667 88 128.667 88 210zM2128 876.002v-686
c0 -82 -29.333 -152.333 -88 -211s-129.334 -88 -212.001 -88h-1364c-82.667 0 -153.334 29.333 -212.001 88s-88 129 -88 211v686c0 82.667 29.333 153.334 88 212.001s129.334 88 212.001 88h1364c82.667 0 153.334 -29.333 212.001 -88s88 -129.334 88 -212.001z" />
    <glyph glyph-name="uni0D4C" unicode="&#xd4c;" horiz-adv-x="860" 
d="M180.5 850c31 18 71.498 26.9971 121.498 26.9971s88.333 -24.667 115 -74c20 35.333 52.333 59.666 97 72.999c14.667 4.66699 29.334 7 44.001 7c96 0 171.333 -45.667 226 -137c46.667 -78 70 -159.667 70 -245s-10.5 -158 -31.5 -218s-51.167 -112 -90.5 -156
c-86 -94.667 -194 -142 -324 -142s-219.333 27.667 -268 83v189c30 -37.333 66.667 -67.166 110 -89.499s89.666 -33.5 138.999 -33.5s92.5 9.83301 129.5 29.5s67.5 45.834 91.5 78.501c48 64.667 72 146.334 72 245.001c0 82 -17.333 144.667 -52 188
c-13.333 16.667 -28 25 -44 25s-29.167 -2.83301 -39.5 -8.5s-19.166 -13.167 -26.499 -22.5c-16.667 -20 -25 -42.667 -25 -68v-141h-150v160c0 32.667 -11 56.334 -33 71.001c-7.33301 4.66699 -16.666 7 -27.999 7s-22.5 -3.83301 -33.5 -11.5
s-19.833 -17.167 -26.5 -28.5c-14.667 -24 -22 -51.667 -22 -83s5.66699 -63.333 17 -96l34 -101h-168c-6.66699 32 -13.5 62.667 -20.5 92s-10.5 62 -10.5 98s4 72.833 12 110.5s21.333 71.167 40 100.5s43.5 53 74.5 71z" />
    <glyph glyph-name="xx" unicode="&#xd4d;" horiz-adv-x="41" 
d="M238 1279c4.66699 -29.333 7 -59.165 7 -89.498s-6.66699 -61.333 -20 -93s-30.666 -57.834 -51.999 -78.501c-42.667 -41.333 -95.334 -62 -158.001 -62c-63.333 0 -117.666 21.333 -162.999 64c-49.333 46.667 -74 108.667 -74 186c0 23.333 2.66699 47.666 8 72.999
h187c-7.33301 -20.667 -11 -45.5 -11 -74.5s5.16699 -50 15.5 -63s22.166 -19.5 35.499 -19.5s25.833 7 37.5 21s17.5 35.833 17.5 65.5s-3.33301 53.167 -10 70.5h180z" />
    <glyph glyph-name="uni0D57" unicode="&#xd57;" horiz-adv-x="860" 
d="M180.5 850c31 18 71.498 26.9971 121.498 26.9971s88.333 -24.667 115 -74c20 35.333 52.333 59.666 97 72.999c14.667 4.66699 29.334 7 44.001 7c96 0 171.333 -45.667 226 -137c46.667 -78 70 -159.667 70 -245s-10.5 -158 -31.5 -218s-51.167 -112 -90.5 -156
c-86 -94.667 -194 -142 -324 -142s-219.333 27.667 -268 83v189c30 -37.333 66.667 -67.166 110 -89.499s89.666 -33.5 138.999 -33.5s92.5 9.83301 129.5 29.5s67.5 45.834 91.5 78.501c48 64.667 72 146.334 72 245.001c0 82 -17.333 144.667 -52 188
c-13.333 16.667 -28 25 -44 25s-29.167 -2.83301 -39.5 -8.5s-19.166 -13.167 -26.499 -22.5c-16.667 -20 -25 -42.667 -25 -68v-141h-150v160c0 32.667 -11 56.334 -33 71.001c-7.33301 4.66699 -16.666 7 -27.999 7s-22.5 -3.83301 -33.5 -11.5
s-19.833 -17.167 -26.5 -28.5c-14.667 -24 -22 -51.667 -22 -83s5.66699 -63.333 17 -96l34 -101h-168c-6.66699 32 -13.5 62.667 -20.5 92s-10.5 62 -10.5 98s4 72.833 12 110.5s21.333 71.167 40 100.5s43.5 53 74.5 71z" />
    <glyph glyph-name="uni0d60" unicode="&#xd60;" horiz-adv-x="930" 
d="M299 543c53.333 -40.667 118.998 -61.001 196.998 -61.001c77.333 0 142 20.333 194 61c-51.333 -1.33301 -94 17.667 -128 57c-30.667 36.667 -46 74.834 -46 114.501s4.5 71.834 13.5 96.501s21.833 45.667 38.5 63c36.667 38 78.834 57 126.501 57
s85.334 -7.5 113.001 -22.5s50.5 -34.5 68.5 -58.5c36.667 -48.667 55 -108.334 55 -179.001c0 -70 -19.333 -129.667 -58 -179c-13.333 -16.667 -29 -31 -47 -43c50 -30 75 -82 75 -156c0 -98 -45.333 -173.667 -136 -227c-78 -45.333 -167.333 -68 -268 -68
c-104.667 0 -195.667 23 -273 69c-92.667 55.333 -139 131 -139 227c0 72.667 25.667 124.334 77 155.001c-70.667 47.333 -106 119.666 -106 216.999c0 72 17.667 132.667 53 182c40 55.333 95 83 165 83c91.333 0 152 -38.667 182 -116c9.33301 -24 14 -49 14 -75
s-4 -50.667 -12 -74s-19.333 -44 -34 -62c-32 -40.667 -73.667 -61 -125 -61zM763.998 724.999c0 28 -10 48.333 -30 61c-6 4 -13 6 -21 6c-23.333 0 -39 -14 -47 -42c-2.66699 -8 -4 -16 -4 -24c0 -29.333 10 -51.333 30 -66c6 -4.66699 13.333 -7 22 -7
c24 0 39.667 15.667 47 47c2 8.66699 3 17 3 25zM329.998 724.999c0 28 -10.001 48.333 -30.001 61c-6.66699 4 -14 6 -22 6c-23.333 0 -39.333 -14 -48 -42c-2 -8 -3 -16 -3 -24c0 -29.333 9.66699 -51.333 29 -66c6.66699 -4.66699 14.334 -7 23.001 -7
c24.667 0 40.667 15.667 48 47c2 8.66699 3 17 3 25zM499.997 305.999c16.667 11.333 36.998 16.9961 60.998 16.9961s44.333 -2.5 61 -7.5s30.667 -11.5 42 -19.5c21.333 -16 32 -34.667 32 -56c0 -2 -0.166992 -4 -0.5 -6s-0.5 -4 -0.5 -6c8.66699 15.333 13 32 13 50
c0 39.333 -18.667 69.333 -56 90c-52.667 -15.333 -105.167 -23 -157.5 -23s-105.833 7.66699 -160.5 23c-36.667 -21.333 -55 -49.166 -55 -83.499s9.33301 -60 28 -77s41.334 -30.167 68.001 -39.5v29c36.667 -16 70.167 -24 100.5 -24s53.833 2 70.5 6
s30.334 9.33301 41.001 16c20.667 12.667 31 28.334 31 47.001c0 27.333 -15.333 41 -46 41c-11.333 0 -20.5 -2.16699 -27.5 -6.5s-10.5 -8.16602 -10.5 -11.499v-30h-67v34c0 2 -2 4.83301 -6 8.5s-11.833 5.5 -23.5 5.5s-20.5 -2.83301 -26.5 -8.5s-9 -10.667 -9 -15
s8.66699 -18.166 26 -41.499h-77c-10 20 -15 35.833 -15 47.5s8.16699 24 24.5 37s39.833 19.5 70.5 19.5s53.667 -5.33301 69 -16z" />
    <glyph glyph-name="l2" unicode="&#xd61;" horiz-adv-x="1788" 
d="M447 925c140 0 245.993 -46.999 317.993 -140.999c52.667 70 125.334 115.333 218.001 136c28.667 6 61.334 9 98.001 9s75.334 -6.33301 116.001 -19s78.334 -31 113.001 -55c72.667 -50.667 122.667 -117.334 150 -200.001c106 -23.333 188 -79.333 246 -168
c54 -82 81 -179.333 81 -292c0 -158 -47 -292.667 -141 -404c-98.667 -117.333 -226 -176 -382 -176c-78 0 -157.333 17.667 -238 53v211c74.667 -55.333 145.334 -83 212.001 -83s121.334 11.167 164.001 33.5s78.667 51.833 108 88.5c60.667 75.333 91 166.666 91 273.999
c0 139.333 -39 228 -117 266l1 -48c4.66699 -224.667 -50 -362.667 -164 -414c-28.667 -13.333 -63.667 -20 -105 -20s-79 9.5 -113 28.5s-62.333 44.167 -85 75.5c-46.667 62 -70 136.333 -70 223c0 93.333 27.333 172.333 82 237c55.333 65.333 129.333 105.333 222 120
c-36.667 54.667 -87.667 82 -153 82c-68.667 0 -126.667 -27.333 -174 -82c-44.667 -50.667 -67 -111.334 -67 -182.001v-478h-185v478c0 70.667 -20.667 131.334 -62 182.001c-43.333 52.667 -100.333 79 -171 79c-61.333 0 -111.333 -22.333 -150 -67
c-12 -14 -21.333 -30 -28 -48c22.667 20 54.5 30 95.5 30s76.333 -10.167 106 -30.5s53.167 -46.5 70.5 -78.5c30.667 -56.667 46 -131 46 -223c0 -85.333 -20 -160 -60 -224c-46.667 -76.667 -109.667 -115 -189 -115c-65.333 0 -120.666 25 -165.999 75
c-72.667 80 -109 199.667 -109 359c0 228.667 68.667 383.334 206 464.001c50 29.333 111.667 44 185 44zM1219.99 165.001c63.333 0 92.001 92.668 86.001 278.001c-0.666992 20.667 -1 37 -1 49c-78 -10 -129.667 -51.333 -155 -124
c-7.33301 -22.667 -11 -43.334 -11 -62.001s1.33301 -35.5 4 -50.5s7 -29.5 13 -43.5c15.333 -31.333 36.666 -47 63.999 -47zM407.994 311.002c0 58 -12.333 103.001 -37 135.001c-9.33301 12 -21.5 18 -36.5 18s-27.5 -5.83301 -37.5 -17.5s-18.333 -25.834 -25 -42.501
c-12 -29.333 -18 -60.333 -18 -93c0 -56.667 14.333 -101.667 43 -135c10 -12 22.5 -18 37.5 -18s27.167 6 36.5 18s17 26 23 42c9.33301 28 14 59 14 93z" />
    <glyph glyph-name="uni0D66" unicode="&#xd66;" horiz-adv-x="1146" 
d="M1142 744l-0.000976562 -78.001c0 -58.667 -33.333 -88 -100 -88h-542c-61.333 0 -107.666 -25.833 -138.999 -77.5s-47 -109.834 -47 -174.501s16.333 -121.5 49 -170.5s78 -73.5 136 -73.5s103.333 25.5 136 76.5s49 105.5 49 163.5c0 84.667 -23.333 150.667 -70 198
h130c16 -40 24 -92 24 -156c0 -98 -29.167 -183.167 -87.5 -255.5s-135.833 -108.5 -232.5 -108.5c-44.667 0 -86.334 13.333 -125.001 40s-67.667 51.334 -87 74.001c-57.333 67.333 -86 151.333 -86 252s26.833 188.834 80.5 264.501s126.834 113.5 219.501 113.5h692z
" />
    <glyph glyph-name="uni0D67" unicode="&#xd67;" horiz-adv-x="1350" 
d="M1288 78v364c0 96.667 -27.333 181.5 -82 254.5s-126.5 109.5 -215.5 109.5s-163.333 -25.5 -223 -76.5s-89.5 -117.5 -89.5 -199.5v-452h610zM348 -229h358.001v-84h-358c-58.667 0 -107.334 19.333 -146.001 58s-58 87.334 -58 146.001
c0 83.333 42.667 139.666 128 168.999c37.333 12 64 18 80 18h160v510c0 107.333 43.333 190.166 130 248.499s186.167 87.5 298.5 87.5s209 -39.5 290 -118.5s121.5 -180.167 121.5 -303.5v-503h-1004c-29.333 0 -52.166 -9.66699 -68.499 -29
s-25.833 -40.166 -28.5 -62.499s-0.333984 -43.5 6.99902 -63.5c17.333 -48.667 47.333 -73 90 -73z" />
    <glyph glyph-name="uni0D68" unicode="&#xd68;" horiz-adv-x="1382" 
d="M1388 0h-726v44c146.667 106.667 220 227.334 220 362.001c0 102 -26.333 184.667 -79 248c-52.667 64 -129 96 -229 96c-99.333 0 -178 -30.667 -236 -92c-58.667 -60.667 -88 -141.334 -88 -242.001c0 -165.333 74.667 -292 224 -380l-34 -55
c-79.333 48 -146 113 -200 195c-53.333 83.333 -80 169.333 -80 258c0 145.333 42.667 263 128 353c84.667 90 194.667 135 330 135c134.667 0 240.667 -44.667 318 -134s116 -201.333 116 -336c0 -134 -56.667 -261.333 -170 -382h506v-70z" />
    <glyph glyph-name="uni0D69" unicode="&#xd69;" horiz-adv-x="1912" 
d="M1912 70v-69.999h-720v70h2c105.333 87.333 158 216 158 386c0 99.333 -24.333 184.5 -73 255.5s-116.334 106.5 -203.001 106.5c-51.333 0 -94.833 -15.667 -130.5 -47s-53.5 -71 -53.5 -119v-652h-170v566c0 71.333 -19.667 126.833 -59 166.5s-87 59.5 -143 59.5
c-85.333 0 -153.333 -35.333 -204 -106c-50.667 -70 -76 -155.333 -76 -256c0 -88 18.667 -167.167 56 -237.5s94.666 -123.833 171.999 -160.5l-56 -51c-87.333 46.667 -152.666 111.667 -195.999 195c-42.667 83.333 -64 172.666 -64 267.999
c0 128.667 37.167 241.167 111.5 337.5s172 144.5 293 144.5s220.167 -52 297.5 -156c76 102.667 169.333 154 280 154s202.334 -48 275.001 -144s109 -207.333 109 -334c0 -150 -53.333 -275.333 -160 -376h554z" />
    <glyph glyph-name="uni0D6A" unicode="&#xd6a;" horiz-adv-x="1376" 
d="M1176 422c0 110 -37.666 198.5 -112.999 265.5s-169 100.5 -281 100.5v-532c0 -56.667 36.333 -96.667 109 -120c19.333 -6.66699 39.666 -10 60.999 -10c69.333 0 124 30.833 164 92.5s60 129.5 60 203.5zM1374 440c0 -120.667 -35.3311 -225.333 -105.998 -314
s-164 -133 -280 -133c-86.667 0 -162.334 23.833 -227.001 71.5s-97 111.5 -97 191.5v532c-96 0 -183.667 -36 -263 -108s-119 -156 -119 -252c0 -56 12.667 -108.667 38 -158s51.666 -85.666 78.999 -108.999c45.333 -38.667 90.333 -80.334 135 -125.001l-66 -49
c-86 34.667 -160.167 96 -222.5 184s-93.5 177.667 -93.5 269c0 141.333 49.667 258 149 350s220.333 138 363 138v416h118v-416c160 0 298.667 -42.667 416 -128s176 -205.333 176 -360z" />
    <glyph glyph-name="uni0D6B" unicode="&#xd6b;" horiz-adv-x="1432" 
d="M1430 180c0 -62 -8.66602 -123.67 -25.999 -185.003h-138c28 72 42 193 42 363c0 182.667 -36 343.334 -108 482.001c-36.667 72.667 -89.834 131.5 -159.501 176.5s-150.667 67.5 -243 67.5s-175 -21.5 -248 -64.5s-129.5 -99.5 -169.5 -169.5
c-84 -140.667 -126 -300.667 -126 -480c0 -102 18.667 -202.667 56 -302c37.333 -96.667 96 -177.667 176 -243s175.333 -98 286 -98c205.333 0 308 109 308 327c0 30 -5.83301 58.167 -17.5 84.5s-26.667 46 -45 59s-36.833 22.5 -55.5 28.5
c-34.667 12 -64.667 18.667 -90 20c-80.667 4 -134 5.33301 -160 4v100c190.667 0 286 71.333 286 214c0 46.667 -20.167 81.667 -60.5 105s-86.833 35 -139.5 35c-100 0 -183.667 -38.167 -251 -114.5s-101 -166.666 -101 -270.999s24.667 -212.833 74 -325.5l-84 -18
c-38.667 56 -63.667 110.167 -75 162.5s-17 117.166 -17 194.499c0 136 47 249 141 339s210.333 135 349 135c80 0 157.667 -22 233 -66s113 -104 113 -180c0 -126.667 -42 -204 -126 -232c117.333 -31.333 176 -123.166 176 -275.499s-41.833 -265 -125.5 -338
s-201.167 -109.5 -352.5 -109.5c-176.667 0 -318.667 67 -426 201c-116 146 -174 332 -174 558c0 214 50.667 404.667 152 572c52 85.333 120.333 152.333 205 201s183 73 295 73c212.667 0 374 -94 484 -282c94.667 -163.333 142 -412.666 142 -747.999z" />
    <glyph glyph-name="uni0D6C" unicode="&#xd6c;" horiz-adv-x="1440" 
d="M1389 -13.5c-35.333 -99 -91.6689 -186.333 -169.002 -262s-168.333 -113.5 -273 -113.5s-191.667 18.667 -261 56l-12 116c63.333 -38.667 139.5 -58 228.5 -58s161.5 22 217.5 66c55.333 44 96 102.667 122 176c46.667 126 70 269 70 429c0 268 -62 402 -186 402
c-32.667 0 -59.5 -13.833 -80.5 -41.5s-31.5 -57.834 -31.5 -90.501v-667h-132v589c0 128 -39.333 192 -118 192c-30.667 0 -55.667 -11.667 -75 -35s-29 -49.666 -29 -78.999v-667h-140v595c0 120 -26.667 180 -80 180c-114.667 0 -172 -119.333 -172 -358
c0 -173.333 50 -312 150 -416l-72 -31c-120 118.667 -180 279 -180 481c0 322.667 90 484 270 484c69.333 0 131.333 -47.333 186 -142c28.667 88 88.834 132 180.501 132s155.5 -38.667 191.5 -116c50.667 84 101.334 126 152.001 126c98 0 168 -42.667 210 -128
c20 -40.667 36.333 -81.5 49 -122.5s20.667 -83.5 24 -127.5c8.66699 -113.333 13 -211.833 13 -295.5s-17.667 -175 -53 -274z" />
    <glyph glyph-name="uni0D6D" unicode="&#xd6d;" horiz-adv-x="1410" 
d="M682 159c22.667 30 34.001 62.998 34.001 98.998c0 61.333 -16.333 108.833 -49 142.5s-72.167 50.334 -118.5 50.001s-92 -14.5 -137 -42.5s-67.5 -67.167 -67.5 -117.5s22 -97.166 66 -140.499c44.667 -43.333 92 -65.333 142 -66
c47.333 -1.33301 90.666 23.667 129.999 75zM1290 -155.002c-43.333 -69.333 -99.9971 -125.667 -169.997 -169s-153.833 -65 -251.5 -65s-183.834 19.333 -258.501 58l-22 140c64.667 -40 146.667 -60 246 -60c138 0 246 62 324 186c61.333 98 92 217.333 92 358
s-50.667 259.334 -152 356.001s-221.333 145 -360 145c-114.667 0 -209.834 -33.333 -285.501 -100s-125.834 -157.334 -150.501 -272.001c66.667 92 147.5 138 242.5 138s174 -26.833 237 -80.5s94.5 -123.334 94.5 -209.001s-34.667 -157.167 -104 -214.5
c-72 -56.667 -150.667 -85 -236 -85c-114 0 -205.167 41.667 -273.5 125s-102.5 182 -102.5 296c0 160 62.833 289.333 188.5 388s273.5 148 443.5 148s317.5 -59.5 442.5 -178.5s187.5 -264.167 187.5 -435.5s-44 -327.666 -132 -468.999z" />
    <glyph glyph-name="uni0D6E" unicode="&#xd6e;" horiz-adv-x="1388" 
d="M1388 898v-911.001c0 -131.333 -33.333 -226.666 -100 -285.999c-68 -60 -209.333 -90 -424 -90c-54.667 0 -144 23.333 -268 70l-18 124c86 -41.333 169.333 -62 250 -62h84l76 6c33.333 2.66699 58 7 74 13c57.333 19.333 94.666 43 111.999 71c28 40.667 42 94 42 160
h-548c142.667 72 214 213 214 423c0 90.667 -28 170 -84 238s-130 102 -222 102s-169.333 -33.333 -232 -100s-94 -146.667 -94 -240c0 -152 72.667 -278.667 218 -380l-34 -55c-178.667 88 -268 241 -268 459c0 136.667 43.167 251.5 129.5 344.5
s194.833 139.5 325.5 139.5s235.834 -44 315.501 -132s119.5 -196.667 119.5 -326c0 -170.667 -58 -304 -174 -400h334v832h172z" />
    <glyph glyph-name="uni0D6F" unicode="&#xd6f;" horiz-adv-x="1402" 
d="M1262 382c0 282.667 -73.333 424 -220 424v-536c0 -108 26.667 -162 80 -162c93.333 0 140 91.333 140 274zM928 806c-106.667 0 -160 -34.668 -160 -104.001v-703h-146v629c0 46.667 -16 86 -48 118s-71.333 48 -118 48c-137.333 0 -206 -125.333 -206 -376
c0 -170.667 64 -299.334 192 -386.001l-66 -57c-140 110 -210 267 -210 471c0 112 25.333 216.667 76 314c24.667 48 60 87.333 106 118s97.333 46 154 46c90.667 0 162 -48 214 -144c27.333 40.667 59.666 74.834 96.999 102.501s77.666 41.5 120.999 41.5v344h108v-344
c64 0 120.833 -16.5 170.5 -49.5s87.5 -76.167 113.5 -129.5c49.333 -101.333 74 -215 74 -341c0 -94 -16.667 -186 -50 -276c-17.333 -45.333 -44.666 -82.166 -81.999 -110.499s-80.666 -42.5 -129.999 -42.5c-90 0 -150.667 59.667 -182 179
c-14.667 54.667 -22 110 -22 166v486h-6z" />
    <glyph glyph-name="nhcil" unicode="&#xd7a;" horiz-adv-x="1854" 
d="M1706 802c97.333 -80.667 145.997 -213.33 145.997 -397.997c0 -104 -20 -196.333 -60 -277c-50 -99.333 -123.333 -149 -220 -149c-118 0 -198.667 72.667 -242 218c-16 54 -24 112.333 -24 175c0 179.333 40.667 306.666 122 381.999c-13.333 2.66699 -28 4 -44 4
s-33.167 -3.5 -51.5 -10.5s-34.5 -16.833 -48.5 -29.5c-30.667 -28 -46 -62 -46 -102v-614h-180v614c0 60.667 -23.333 101.334 -70 122.001c-15.333 6.66699 -33 10 -53 10c-57.333 0 -93 -27 -107 -81c-4.66699 -16 -7 -33 -7 -51v-614h-184v530
c0 106.667 -32 173 -96 199c-24 9.33301 -52.5 14 -85.5 14s-61.167 -5.5 -84.5 -16.5s-43.666 -25.5 -60.999 -43.5c-32 -35.333 -52.333 -83.333 -61 -144c26.667 25.333 58 38 94 38s68 -9.5 96 -28.5s51 -42.833 69 -71.5c35.333 -57.333 53 -124 53 -200
c0 -76.667 -21 -144 -63 -202c-47.333 -65.333 -107.333 -98 -180 -98c-124.667 0 -204.667 82 -240 246c-12 53.333 -18 108.666 -18 165.999s2.83301 107.166 8.5 149.499s14.667 82.5 27 120.5s28.5 73.333 48.5 106s44.667 60.667 74 84c62 51.333 142.167 77 240.5 77
s185.833 -35.667 262.5 -107c28 32.667 57.667 58.667 89 78s69.666 29 114.999 29c109.333 0 184.333 -34.667 225 -104c54 73.333 134 110 240 110c57.333 0 110 -10.667 158 -32c31.333 35.333 47 76.666 47 123.999c0 46 -17.667 78.333 -53 97
c-11.333 6 -25.166 9 -41.499 9s-31.166 -4.16699 -44.499 -12.5s-24 -19.166 -32 -32.499c-18 -28.667 -24.333 -59.334 -19 -92.001h-185c-1.33301 86 21.334 158.667 68.001 218c49.333 62.667 117 94 203 94c84 0 153.333 -29.667 208 -89c54 -58 81 -127.333 81 -208
s-24.667 -149.667 -74 -207zM1574 673.004c-54 -42 -83.332 -113.668 -87.999 -215.001c-1.33301 -27.333 -2 -50.5 -2 -69.5s1 -41.167 3 -66.5s6 -50.666 12 -75.999c14.667 -61.333 39 -92 73 -92c51.333 0 81.333 68.667 90 206c1.33301 14.667 2 29.667 2 45
s-1.33301 36 -4 62s-7.33398 51.667 -14.001 77c-15.333 59.333 -39.333 102.333 -72 129zM391.998 278.003c0 50.667 -13.333 87.667 -40 111c-9.33301 8.66699 -21.333 13 -36 13c-26 0 -46 -15 -60 -45c-10.667 -22.667 -16 -49 -16 -79
c0 -50.667 13.333 -87.667 40 -111c9.33301 -8.66699 21.333 -13 36 -13c26 0 46 15 60 45c10.667 22.667 16 49 16 79z" />
    <glyph glyph-name="n1cil" unicode="&#xd7b;" horiz-adv-x="1328" 
d="M1186 802c97.333 -79.333 146.002 -210.664 146.002 -393.997c0 -102.667 -20 -195.334 -60 -278.001c-50 -101.333 -123.333 -152 -220 -152c-93.333 0 -164 48.333 -212 145c-39.333 78.667 -59 168 -59 268c0 163.333 42.333 284 127 362
c-16.667 3.33301 -36.667 5 -60 5c-90 0 -135 -46 -135 -138v-610h-180v595c0 43.333 -11 77.666 -33 102.999s-50.5 38 -85.5 38s-61.167 -4.66699 -78.5 -14s-32 -21.833 -44 -37.5s-21.5 -33.5 -28.5 -53.5s-12.167 -41 -15.5 -63
c-5.33301 -34.667 -8 -76.334 -8 -125.001c0 -147.333 38.333 -298.333 115 -453h-190c-54 79.333 -88.333 192.666 -103 339.999c-4 40 -6 77.5 -6 112.5s2.16699 71 6.5 108s11.333 73.167 21 108.5s22.667 68.833 39 100.5s36.5 59.167 60.5 82.5
c52.667 52 121.5 78 206.5 78s160.167 -34 225.5 -102c63.333 67.333 137.166 101 221.499 101s148.166 -9.33301 191.499 -28c29.333 32 44 71.333 44 118c0 48.667 -17.333 82.334 -52 101.001c-11.333 6 -25 9 -41 9s-30.5 -4.16699 -43.5 -12.5
s-23.5 -19.166 -31.5 -32.499c-17.333 -26 -23.666 -56 -18.999 -90h-185c0 87.333 22.667 160 68 218c48 63.333 115.333 95 202 95c83.333 0 152.666 -29.667 207.999 -89c54.667 -58.667 82 -128.334 82 -209.001s-24.667 -149.667 -74 -207zM1059 668.002
c-63.333 -48.667 -95 -139.667 -95 -273c0 -114.667 20 -191.667 60 -231c9.33301 -10 22 -15 38 -15s30 10 42 30s21.333 43.667 28 71c10.667 46.667 16 87.667 16 123s-1 66 -3 92s-6.33301 51.667 -13 77c-14 56.667 -38.333 98.667 -73 126z" />
    <glyph glyph-name="r3cil" unicode="&#xd7c;" horiz-adv-x="888" 
d="M741 802c97.333 -79.333 146.002 -210.666 146.002 -393.999c0 -104 -20.333 -196.667 -61 -278c-50.667 -101.333 -123.667 -152 -219 -152c-92.667 0 -163.334 48.333 -212.001 145c-39.333 78.667 -59 168 -59 268c0 163.333 42.333 284 127 362
c-10 2 -19.667 3 -29 3c-60 0 -108 -38.667 -144 -116c-29.333 -62.667 -44 -130.334 -44 -203.001s8.66699 -145.5 26 -218.5s37 -145.833 59 -218.5h-191c-39.333 152 -62.333 254.333 -69 307s-10 105 -10 157s7 107.5 21 166.5s36.667 110.833 68 155.5
c69.333 96 173.333 144 312 144c40.667 0 81 -9.66699 121 -29c29.333 29.333 44 68.666 44 117.999c0 47.333 -16.667 80.333 -50 99c-11.333 6 -25 9 -41 9s-30.5 -4 -43.5 -12s-23.833 -18.333 -32.5 -31c-17.333 -27.333 -24 -57.333 -20 -90h-185
c0 87.333 22.333 160 67 218c49.333 62.667 116.666 94 201.999 94c83.333 0 153 -30 209 -90c54.667 -58 82 -127.167 82 -207.5s-24.667 -149.166 -74 -206.499zM614.002 673c-63.333 -48.667 -94.999 -139.666 -94.999 -272.999c0 -114.667 19.667 -192 59 -232
c10 -9.33301 21.333 -14 34 -14c50.667 0 80.667 68.667 90 206c0.666992 15.333 1 31 1 47s-1 37 -3 63s-6 51.333 -12 76c-14.667 57.333 -39.334 99.666 -74.001 126.999z" />
    <glyph glyph-name="l3cil" unicode="&#xd7d;" horiz-adv-x="1527" 
d="M1376 802c97.333 -81.333 145.999 -212.665 145.999 -393.998c0 -104 -20.333 -195.667 -61 -275c-50 -98 -123 -147 -219 -147c-92.667 0 -162.667 47 -210 141c-37.333 75.333 -56 163.333 -56 264c0 147.333 40.667 268 122 362c-56 26 -110.833 39 -164.5 39
s-102.5 -8 -146.5 -24c84 -95.333 126 -216.333 126 -363c0 -102 -19.667 -193 -59 -273c-29.333 -58.667 -70.666 -100.667 -123.999 -126c-27.333 -13.333 -58.5 -20 -93.5 -20s-66.333 6.5 -94 19.5s-52 30.667 -73 53s-38.833 47.833 -53.5 76.5s-26.667 59 -36 91
c-16.667 59.333 -25 121.666 -25 186.999c0 140.667 39.667 253.667 119 339l-46 2c-69.333 2.66699 -120 -33.333 -152 -108c-24 -54 -36 -121.667 -36 -203c0 -177.333 39.667 -325 119 -443h-204c-66 150.667 -99 298.334 -99 443.001c0 131.333 29.667 241.333 89 330
c69.333 104 165.333 156 288 156c85.333 0 153.333 -19.667 204 -59c80 54.667 177.667 82 293 82s211.333 -17 288 -51c30 31.333 45 68.666 45 111.999c0 49.333 -16.667 83.666 -50 102.999c-11.333 6.66699 -25 10 -41 10s-30.5 -4 -43.5 -12s-23.833 -18.333 -32.5 -31
c-19.333 -27.333 -26.333 -57 -21 -89h-185c-1.33301 85.333 21.334 157.666 68.001 216.999c49.333 62 116.666 93 201.999 93c84 0 153.333 -29.333 208 -88c54.667 -58 82 -127.167 82 -207.5s-24.667 -149.166 -74 -206.499zM1342 360.001
c0.666992 15.333 1 31.334 1 48.001s-0.833008 37.834 -2.5 63.501s-5.5 50.5 -11.5 74.5c-13.333 55.333 -38.333 97.666 -75 126.999c-52 -40.667 -81.333 -107 -88 -199c-1.33301 -25.333 -2 -46.333 -2 -63s0.333008 -32.834 1 -48.501s2.16699 -32.5 4.5 -50.5
s5.5 -36.167 9.5 -54.5s9 -34.833 15 -49.5c14.667 -34.667 34 -52 58 -52c51.333 0 81.333 68 90 204zM632.999 665.002c-44.667 -42.667 -74.001 -104.67 -88.001 -186.003c-4 -23.333 -6 -42.666 -6 -57.999s0.5 -31.333 1.5 -48s2.83301 -34.5 5.5 -53.5
s6.33398 -38.167 11.001 -57.5s10.667 -36.666 18 -51.999c16.667 -36 37.667 -54 63 -54c43.333 0 72 54 86 162c3.33301 29.333 5 57.333 5 84c0 120.667 -32 208.334 -96 263.001z" />
    <glyph glyph-name="lhcil" unicode="&#xd7e;" horiz-adv-x="1253" 
d="M1118 775c89.333 -102 133.997 -235.333 133.997 -400c0 -140.667 -37.333 -248.667 -112 -324c-42 -43.333 -94 -65 -156 -65c-119.333 0 -201.333 75.333 -246 226c-17.333 56.667 -26 116 -26 178c0 156.667 38.333 281.667 115 375c-18.667 3.33301 -37.5 5 -56.5 5
s-38.667 -3.16699 -59 -9.5s-38.166 -15.833 -53.499 -28.5c-33.333 -26.667 -50 -63 -50 -109c0 -38.667 4 -81 12 -127c14 -86 21 -148.667 21 -188s-6.33301 -78.166 -19 -116.499s-31 -72.166 -55 -101.499c-53.333 -66 -121.666 -99 -204.999 -99
c-141.333 0 -235 81 -281 243c-17.333 60.667 -26 128.334 -26 203.001c0 173.333 39.667 331 119 473h195c-63.333 -92 -104 -209.333 -122 -352c-5.33301 -42.667 -8 -78.5 -8 -107.5s1.33301 -58.333 4 -88s8.33398 -58.5 17.001 -86.5c21.333 -68 56 -102 104 -102
c43.333 0 72.333 25.333 87 76c4 14 6 31.333 6 52s-1.66699 44.834 -5 72.501s-7.33301 55.5 -12 83.5c-10.667 70 -16 127.333 -16 172s7.83301 86.667 23.5 126s37.834 72.666 66.501 99.999c58.667 56.667 131.5 85 218.5 85s168.833 -17 245.5 -51c24 30 36 69 36 117
c0 51.333 -19.667 87.333 -59 108c-12.667 6.66699 -27.334 10 -44.001 10s-31.334 -3.83301 -44.001 -11.5s-23.334 -17.834 -32.001 -30.501c-17.333 -25.333 -24 -55 -20 -89h-185c-1.33301 87.333 21.334 159.666 68.001 216.999c50.667 61.333 118.334 92 203.001 92
c82.667 0 151.667 -28.333 207 -85c54 -55.333 81 -128.833 81 -220.5s-23.667 -165.834 -71 -222.501zM984.997 669c-55.333 -59.333 -83 -155.334 -83 -288.001c0 -85.333 15 -149.666 45 -192.999c12 -17.333 27.5 -26 46.5 -26s34 7.5 45 22.5s19.5 32.833 25.5 53.5
c10 33.333 15 67 15 101s-1.5 65.5 -4.5 94.5s-7.83301 57.833 -14.5 86.5c-16 64 -41 113.667 -75 149z" />
    <glyph glyph-name="k1cil" unicode="&#xd7f;" horiz-adv-x="1293" 
d="M509 29c-45.333 -38.667 -94.166 -58 -146.499 -58s-96 8 -131 24s-65.5 37.667 -91.5 65c-54.667 58.667 -82 128 -82 208c0 83.333 28.167 153.833 84.5 211.5s126.5 86.5 210.5 86.5c16 166.667 77.333 276.667 184 330c38.667 19.333 88.167 29 148.5 29
s115 -17.333 164 -52s86.833 -82 113.5 -142c42 13.333 75 47.666 99 102.999c19.333 44.667 29 83.5 29 116.5s-1.16699 58.167 -3.5 75.5s-6.83301 33.666 -13.5 48.999c-16.667 36 -41.667 54 -75 54c-34 0 -61.333 -14.333 -82 -43c-22 -30.667 -27 -61 -15 -91h-184
l-1 49c-2.66699 76.667 25.333 139.334 84 188.001c56 47.333 123 71 201 71c85.333 0 152.333 -29 201 -87c46 -55.333 69 -126.666 69 -213.999c0 -88 -21.333 -172.667 -64 -254c-47.333 -88 -108 -149 -182 -183c128 -10 211 -71 249 -183
c12 -34.667 18 -71.834 18 -111.501s-5.33301 -77.167 -16 -112.5s-26.667 -66.666 -48 -93.999c-46.667 -60.667 -106.834 -91 -180.501 -91s-132.167 23 -175.5 69c-50.667 -43.333 -114.5 -65 -191.5 -65s-134.5 17.333 -172.5 52zM810 566
c-8 81.333 -32 134.667 -72 160c-16 10 -36.667 15 -62 15c-82 0 -128.333 -58.333 -139 -175h273zM966 198.001c22.667 -29.333 43.332 -44 61.999 -44s32.667 3.83301 42 11.5s17 17.167 23 28.5c10.667 20 16 40.667 16 62s-1.33301 39.333 -4 54s-7 28 -13 40
c-15.333 28 -37.666 42 -66.999 42h-27c-3.33301 -75.333 -14 -140 -32 -194zM531.998 392.001c4 -154.667 52 -232 144 -232c52.667 0 90.667 27.333 114 82c14 34 22 84 24 150h-282zM392.998 163.001c-25.333 59.333 -40.334 135.668 -45.001 229.001h-3
c-30 0 -55 -13.333 -75 -40c-18.667 -24.667 -28 -52.667 -28 -84c0 -30 7 -53.333 21 -70c24.667 -29.333 52 -44 82 -44c8.66699 0 16.834 1.16699 24.501 3.5s15.5 4.16602 23.5 5.49902z" />
    <glyph glyph-name="ZWNJ" unicode="&#x200c;" horiz-adv-x="324" 
d="M66 44v988h160v-988h-160z" />
    <glyph glyph-name="ZWJ" unicode="&#x200d;" horiz-adv-x="324" 
d="M226 44l-2 878l-70 108h-12l-76 -116v-870h160zM388 834h-106l-58 88v108h-70l-6 10l-6 -10l-76 2v-118l-52 -80h-103l185 272l-171 248h107l114 -180l124 180h106l-178 -244z" />
    <glyph glyph-name="quoteleft" unicode="&#x2018;" horiz-adv-x="302" 
d="M230 1276l34.999 -0.00195312c-45.333 -50.667 -73.666 -114.667 -84.999 -192c36.667 -7.33301 66.334 -21.333 89.001 -42s34 -48.167 34 -82.5s-10.5 -62.5 -31.5 -84.5s-45 -33 -72 -33s-48.333 3.83301 -64 11.5s-28.834 17.834 -39.501 30.501
c-23.333 27.333 -35 58.333 -35 93s3.66699 66.834 11 96.501s18 57.5 32 83.5c31.333 56 73.333 95.667 126 119z" />
    <glyph glyph-name="quoteright" unicode="&#x2019;" horiz-adv-x="302" 
d="M126 834l-34.999 0.00195312c45.333 50.667 73.666 114.667 84.999 192c-36.667 7.33301 -66.334 21.333 -89.001 42s-34 48.167 -34 82.5s10.5 62.5 31.5 84.5s45 33 72 33s48.333 -3.83301 64 -11.5s28.834 -17.834 39.501 -30.501c23.333 -27.333 35 -58.333 35 -93
s-3.66699 -66.834 -11 -96.501s-18 -57.5 -32 -83.5c-31.333 -56 -73.333 -95.667 -126 -119z" />
    <glyph glyph-name="quotedblleft" unicode="&#x201c;" horiz-adv-x="555" 
d="M555 973c0 60.667 -41.668 99.334 -125.001 116.001c12 77.333 37 140.333 75 189h-11c-50 -21.333 -90 -60 -120 -116c-27.333 -50 -41 -105.333 -41 -166c0 -36.667 7.66699 -64.334 23 -83.001c28 -32.667 58.833 -49 92.5 -49s59.834 10.167 78.501 30.5
s28 46.5 28 78.5zM284.999 973c0 60.667 -41.668 99.334 -125.001 116.001c12 77.333 37 140.333 75 189h-11c-50 -21.333 -90 -60 -120 -116c-27.333 -50 -41 -105.333 -41 -166c0 -36.667 7.66699 -64.334 23 -83.001c28 -32.667 58.833 -49 92.5 -49
s59.834 10.167 78.501 30.5s28 46.5 28 78.5z" />
    <glyph glyph-name="quotedblright" unicode="&#x201d;" horiz-adv-x="555" 
d="M61 1166c0 -60.667 41.668 -99.334 125.001 -116.001c-12 -77.333 -37 -140.333 -75 -189h11c50 21.333 90 60 120 116c27.333 50 41 105.333 41 166c0 36.667 -7.66699 64.334 -23 83.001c-28 32.667 -58.833 49 -92.5 49s-59.834 -10.167 -78.501 -30.5
s-28 -46.5 -28 -78.5zM331.001 1166c0 -60.667 41.668 -99.334 125.001 -116.001c-12 -77.333 -37 -140.333 -75 -189h11c50 21.333 90 60 120 116c27.333 50 41 105.333 41 166c0 36.667 -7.66699 64.334 -23 83.001c-28 32.667 -58.833 49 -92.5 49
s-59.834 -10.167 -78.501 -30.5s-28 -46.5 -28 -78.5z" />
    <glyph glyph-name="uni20B9" unicode="&#x20b9;" horiz-adv-x="1101" 
d="M1027 1250l-239.001 -0.000976562c28 -36 47.667 -81.667 59 -137h233l-53 -121h-178c-12.667 -99.333 -57.667 -179 -135 -239c-69.333 -53.333 -154.666 -83.666 -255.999 -90.999l466 -659h-206l-461 626v123h122c136 0 230.333 43.333 283 130
c20.667 34.667 31 71 31 109v1h-483l64 121h405c-30 75.333 -89.333 118.333 -178 129c-34 5.33301 -79 8 -135 8h-156l64 120h806z" />
    <glyph glyph-name="uni25CC" unicode="&#x25cc;" horiz-adv-x="956" 
d="M232 92c-52 33.333 -83.333 56.667 -94 70h-2l-44 64l90 60c28.667 -42.667 46.667 -66.667 54 -72l58 -38zM398 132.001c33.333 -6.66699 60 -10 80 -10s48 3.33301 84 10l16 -102c-26 -6.66699 -53.333 -10 -82 -10c-48 0 -86.667 3.33301 -116 10zM148 370.001
l-108 -16c-13.333 60.667 -13.333 122.667 0 186l108 -16c-6.66699 -18 -10 -43.333 -10 -76s3.33301 -58.667 10 -78zM232 802.001l62 -84.002c-44.667 -24.667 -70.667 -44 -78 -58c-13.333 -17.333 -24.666 -34.666 -33.999 -51.999l-90 62
c29.333 42.667 48.666 68.334 57.999 77.001c12 10.667 39.333 29 82 55zM780 285.999l89.998 -60.001c-31.333 -46 -54.666 -76 -69.999 -90h-2c-5.33301 -5.33301 -16.666 -13.166 -33.999 -23.499l-34 -20.5l-62 84c44 26 70.5 45.5 79.5 58.5s16.167 24 21.5 33z
M815.998 369.998c5.33301 36 8 62.667 8 80s-2.66699 42 -8 74l104 16c16 -60.667 16 -122.667 0 -186zM561.998 763.998c-36 5.33301 -63.666 8 -82.999 8s-46.333 -2.66699 -81 -8l-18 100c40 8 73.667 12 101 12s59.666 -4 96.999 -12zM717.999 685.998
c-20 14.667 -36.667 25.334 -50 32.001l62 84c48 -30.667 80 -54 96 -70c20 -26.667 34.667 -47.334 44 -62.001l-90 -62c-25.333 44 -45.333 70 -60 78h-2z" />
    <glyph glyph-name=".null" horiz-adv-x="0" 
 />
    <glyph glyph-name="r4" horiz-adv-x="306" 
d="M1032 -380l-451 0.000976562c-121.333 0 -224.333 42 -309 126c-72.667 71.333 -128.667 169.333 -168 294c-33.333 108 -50 221 -50 339c0 111.333 6.33301 195.666 19 252.999c22.667 103.333 59.334 195.666 110.001 276.999h240
c-104.667 -119.333 -164.334 -247.666 -179.001 -384.999c-4.66699 -46.667 -7 -94.5 -7 -143.5s3 -95.5 9 -139.5s15.5 -87.167 28.5 -129.5s30 -82.5 51 -120.5s46.5 -71.333 76.5 -100c66 -62 147 -93 243 -93h355z" />
    <glyph glyph-name="y2" horiz-adv-x="444" 
d="M265 44l-39.001 844h180l38 -836c0.666992 -6 1 -12 1 -18v-16c0 -110 -31.667 -194.667 -95 -254c-52.667 -48 -114 -72 -184 -72c-58.667 0 -106 17.333 -142 52c-11.333 10 -19.666 21.333 -24.999 34v214c8 -32 22.667 -56.333 44 -73
c36.667 -29.333 66.667 -44 90 -44s42 3 56 9s26.667 16 38 30c25.333 30 38 73.333 38 130z" />
    <glyph glyph-name="y2u1" horiz-adv-x="444" 
d="M387 -192c89.333 -42 134 -106.668 134 -194.001c0 -63.333 -21 -117.333 -63 -162c-43.333 -46 -95 -69 -155 -69s-111.667 23 -155 69c-42 44.667 -63 98.667 -63 162c0 30.667 6.33301 59.334 19 86.001c-54.667 14.667 -89.667 40.667 -105 78v214
c8 -32 22.667 -56.333 44 -73c36.667 -29.333 66.667 -44 90 -44s42 3 56 9s26.333 16 37 30c25.333 30.667 38 74 38 130v23l-38 821h180l38 -836c0.666992 -6 1 -12 1 -18v-16c0 -83.333 -19.333 -153.333 -58 -210zM365 -441.501
c16.667 18.333 24.998 36.668 24.998 55.001s-2.16699 33 -6.5 44s-10.5 20.5 -18.5 28.5c-17.333 18.667 -38 28 -62 28s-42.333 -6.66699 -55 -20c-21.333 -22.667 -32 -46.334 -32 -71.001s8.33301 -46.167 25 -64.5s37.334 -27.5 62.001 -27.5
s45.334 9.16699 62.001 27.5z" />
    <glyph glyph-name="y2u2" horiz-adv-x="444" 
d="M445 18c0 -74.667 -14 -136.331 -42 -184.998c78 -20.667 129.667 -69.334 155 -146.001c9.33301 -26.667 14 -57.334 14 -92.001s-6 -67.5 -18 -98.5s-28.667 -57.833 -50 -80.5c-46.667 -48.667 -105 -73 -175 -73s-128 24.333 -174 73c-45.333 48 -68 108.333 -68 181
c0 38 6.66699 72 20 102c-56.667 14.667 -92.667 41 -108 79v214c8 -32 22.667 -56.333 44 -73c36.667 -29.333 66.667 -44 90 -44s42 3 56 9s26.333 16 37 30c25.333 30.667 38 74 38 130v23l-38 821h180l38 -836c0.666992 -6 1 -12 1 -18v-16zM383 -260.997
c12.667 -16.667 19.001 -36.168 19.001 -58.501s-7 -42.166 -21 -59.499s-29 -26 -45 -26s-28.5 2.33301 -37.5 7s-16.833 11 -23.5 19c-14 16.667 -21 33 -21 49s1 28.667 3 38l-12 -4c-14 -24 -21 -47.833 -21 -71.5s2.66699 -43.667 8 -60s12.666 -30.5 21.999 -42.5
c20.667 -27.333 45.667 -41 75 -41s54.333 13.667 75 41c20 26 30 54 30 84c0 59.333 -17 101 -51 125z" />
    <glyph glyph-name="v2" horiz-adv-x="254" 
d="M259 -219h-450v174h267l-3 784h172z" />
    <glyph glyph-name="NameMe_195550" horiz-adv-x="1772" 
d="M1368 394v55.999h-54c-57.333 0 -107.333 -14.667 -150 -44c-44 -31.333 -66 -76.666 -66 -135.999c0 -43.333 12 -81.5 36 -114.5s56 -49.5 96 -49.5c92 0 138 96 138 288zM1770 537.999l-0.000976562 -88.001h-246c0 -113.333 -18 -212.666 -54 -297.999
c-45.333 -114 -118.666 -171 -219.999 -171c-67.333 0 -122.833 29 -166.5 87s-65.5 123.833 -65.5 197.5s27.333 137.5 82 191.5s124 81 208 81h50c-9.33301 66.667 -42 129.667 -98 189s-114.667 89 -176 89s-110.333 -14.333 -147 -43s-55 -69 -55 -121v-652h-170v566
c0 61.333 -10 108.333 -30 141c-34.667 58 -78.667 87 -132 87c-87.333 0 -159.5 -37 -216.5 -111s-85.5 -157.667 -85.5 -251c0 -152.667 80 -285.334 240 -398.001l-56 -53c-77.333 44.667 -142.333 112 -195 202s-79 179.667 -79 269c0 120.667 36.333 228.5 109 323.5
s169 142.5 289 142.5c140 0 236 -49.333 288 -148c52 98.667 143.333 148 274 148c97.333 0 185.333 -39.333 264 -118c78 -79.333 122.667 -166.666 134 -261.999h254z" />
    <glyph glyph-name="k1u1" horiz-adv-x="1280" 
d="M1238 264c29.333 -32 44.0029 -63.168 44.0029 -93.501s-4.5 -57.166 -13.5 -80.499s-21.833 -43.333 -38.5 -60c-34.667 -36.667 -78.667 -55 -132 -55l-46 -1v159c5.33301 -0.666992 7.16602 -1.16699 5.49902 -1.5s0.166016 -0.5 5.49902 -0.5
c11.333 0 21.666 4.16699 30.999 12.5s14 20.166 14 35.499s-10.667 23 -32 23c-6 0 -11.333 -0.333008 -16 -1v120h8c9.33301 -0.666992 18.5 2.5 27.5 9.5s13.5 15.5 13.5 25.5c0 24 -10.333 36 -31 36h-80c-10.667 -276.667 -118 -415 -322 -415
c-74.667 0 -130.334 17.333 -167.001 52c-45.333 -38.667 -94.333 -58 -147 -58s-96.5 7.83301 -131.5 23.5s-65.167 36.834 -90.5 63.501c-54.667 57.333 -82 127.333 -82 210c0 84 28 154.667 84 212c56.667 57.333 127 86 211 86c16 167.333 77 277.333 183 330
c38.667 19.333 85.334 29 140.001 29c188.667 0 294.667 -119.667 318 -359h91c54.667 0 101 -18.333 139 -55c38.667 -37.333 58 -79.5 58 -126.5s-14.667 -87.167 -44 -120.5zM810.003 565.999c-5.33301 53.333 -14.333 90.667 -27 112c-25.333 42 -61 63 -107 63
s-81 -18.333 -105 -55c-18 -27.333 -29.333 -67.333 -34 -120h273zM532.003 392c4 -154.667 52 -232 144 -232s138 77.333 138 232h-282zM393.003 163c-25.333 59.333 -40.333 135.667 -45 229h-3c-30 0 -55 -13.333 -75 -40c-18.667 -24.667 -28 -52.667 -28 -84
c0 -30 7 -53.333 21 -70c24.667 -29.333 52 -44 82 -44c10 0 26 3 48 9z" />
    <glyph glyph-name="k1u2" horiz-adv-x="1199" 
d="M1150 239c34.667 -43.333 52 -93.666 52 -150.999c0 -60 -19.667 -111.333 -59 -154c-40.667 -44.667 -91.667 -67 -153 -67l-710 2c-11.333 0 -20.833 -4.66699 -28.5 -14s-11.5 -19.5 -11.5 -30.5s3.83301 -20.667 11.5 -29s17.167 -12.5 28.5 -12.5h858v-163h-888
c-53.333 0 -99.333 20.667 -138 62c-36.667 39.333 -55 86.666 -55 141.999c0 54 18.333 100.333 55 139c36.667 39.333 82.667 59 138 59h696c25.333 0 46.333 6.66699 63 20s25 35.666 25 66.999s-14.667 47 -44 47h-30v163h6c45.333 -3.33301 68 13.667 68 51
c0 42.667 -25.333 66.334 -76 71.001c-13.333 1.33301 -26.333 2 -39 2h-13c-10.667 -247.333 -108 -371 -292 -371c-66 0 -116 15.333 -150 46c-42 -34 -86.167 -51 -132.5 -51s-85.333 7.16699 -117 21.5s-59.167 33.5 -82.5 57.5c-49.333 52 -74 115.333 -74 190
c0 76 25 139.667 75 191c50.667 52 113.667 78 189 78c16 150.667 71.333 249 166 295c34.667 17.333 76.667 26 126 26c169.333 0 265.333 -107 288 -321h72c63.333 0 117.333 -21.667 162 -65s67 -94.5 67 -153.5s-17.667 -108.167 -53 -147.5zM730 605
c-8 71.333 -28.667 117 -62 137c-14 8.66699 -32 13 -54 13c-69.333 0 -109.333 -50 -120 -150h236zM734 443h-245c2.66699 -90 22.667 -150.333 60 -181c16 -12.667 37.5 -19 64.5 -19s48.333 6.66699 64 20s27.5 30 35.5 50c12 30 19 73.333 21 130zM356 245
c-22.667 56.667 -35.333 122.668 -38 198.001c-26.667 0 -46 -8.33301 -58 -25c-20.667 -27.333 -31 -54.333 -31 -81s7.83301 -49.834 23.5 -69.501s37.5 -29.5 65.5 -29.5c6.66699 0 13.167 0.833008 19.5 2.5s12.5 3.16699 18.5 4.5z" />
    <glyph glyph-name="k1r1" horiz-adv-x="1306" 
d="M355 563c26 241.333 133.002 362.002 321.002 362.002c99.333 0 176.666 -37 231.999 -111c45.333 -62 73.333 -145.667 84 -251c5.33301 -1.33301 9.83301 -2 13.5 -2s6.83398 -0.333008 9.50098 -1c94 -16.667 166.333 -63 217 -139c47.333 -70 71 -156 71 -258
c0 -155.333 -48.667 -295 -146 -419c-107.333 -136 -244.333 -204 -411 -204c-142 0 -242 38 -300 114c-20 27.333 -30 59.666 -30 96.999s9.16699 69.166 27.5 95.499s42.5 47.833 72.5 64.5c58 32.667 127.667 49 209 49c122 0 208 -28.667 258 -86l-79 -109
c-38 35.333 -95 53 -171 53s-114 -22.333 -114 -67c0 -40 43.667 -60 131 -60c113.333 0 206.333 54.667 279 164c64.667 96.667 97 201.667 97 315c0 52.667 -9.16699 98.167 -27.5 136.5s-46.166 61.833 -83.499 70.5c-2 0.666992 -4 1 -6 1c-4.66699 0 -9 0.666992 -13 2
c-7.33301 -182.667 -64 -305.334 -170 -368.001c-40 -23.333 -93.5 -35 -160.5 -35s-119.167 18 -156.5 54c-47.333 -40 -96.833 -60 -148.5 -60s-94.834 7.83301 -129.501 23.5s-64.334 36.834 -89.001 63.501c-54 58 -81 127.667 -81 209c0 84 27.667 154.333 83 211
s125.666 85 210.999 85zM813.002 563.002c-8 86.667 -31.667 142.334 -71 167.001c-17.333 10.667 -39.5 16 -66.5 16s-49 -5.33301 -66 -16s-30.833 -24.667 -41.5 -42c-16 -26.667 -27.333 -68.334 -34 -125.001h279zM818.002 394.002l-289 0.000976562
c4 -70.667 12 -120.334 24 -149.001c25.333 -60 66.333 -90 123 -90c80.667 0 126 53.667 136 161c2.66699 28 4.66699 54 6 78zM300.502 159.503c13 -6.33301 24.501 -9.5 34.501 -9.5s21 1.33301 33 4c14.667 2.66699 24.667 4 30 4
c-26.667 63.333 -42.334 142 -47.001 236h-6c-32 0 -58.333 -13.667 -79 -41c-18 -24.667 -27 -49 -27 -73s2.5 -43.167 7.5 -57.5s12 -26.833 21 -37.5s20 -19.167 33 -25.5z" />
    <glyph glyph-name="k1l1" horiz-adv-x="1293" 
d="M355 582c26 228.667 133.004 342.999 321.004 342.999c148.667 0 244.667 -70.333 288 -211c13.333 -41.333 22.666 -85.333 27.999 -132h33c80 0 145 -28 195 -84c46.667 -53.333 70 -119.333 70 -198c0 -76 -22 -141.333 -66 -196
c-46.667 -57.333 -109.667 -86 -189 -86h-17v171h17c51.333 0 77 37 77 111c0 52.667 -14.667 89.334 -44 110.001c-10.667 7.33301 -25 11 -43 11h-29c-10 -185.333 -66 -306.333 -168 -363c-40 -22.667 -94.5 -34 -163.5 -34s-120.833 17.333 -155.5 52
c-47.333 -38.667 -96.833 -58 -148.5 -58s-94.834 7.5 -129.501 22.5s-64.334 35.5 -89.001 61.5c-54 54.667 -81 120.667 -81 198c0 80 27.667 147 83 201s125.666 81 210.999 81zM317.004 -162.001c23.333 12.667 46.6719 19.001 70.0049 19.001s45.333 -4.5 66 -13.5
s39 -21.5 55 -37.5c34.667 -34.667 52 -71.667 52 -111s-5.83301 -71.5 -17.5 -96.5s-27.167 -45.833 -46.5 -62.5c-38.667 -35.333 -85.334 -53 -140.001 -53c-57.333 0 -105.666 19.667 -144.999 59c-44.667 44.667 -67 106 -67 184c0 76 23.667 140.333 71 193
c55.333 61.333 134.666 92 237.999 92c59.333 0 100.666 -5 123.999 -15c34 -13.333 69.333 -37 106 -71c35.333 34 64 55.667 86 65c35.333 14 82.166 21 140.499 21s107 -8.5 146 -25.5s70.833 -39.167 95.5 -66.5c47.333 -52.667 71 -117 71 -193
c0 -78.667 -22 -140 -66 -184c-39.333 -39.333 -88 -59 -146 -59c-54.667 0 -101.334 17.667 -140.001 53c-42.667 37.333 -64 86.666 -64 147.999c0 47.333 17.667 88 53 122c34.667 34 74 51 118 51c24.667 0 49 -6.33301 73 -19c-19.333 28 -52 45.667 -98 53
c-48.667 8.66699 -87.667 6.66699 -117 -6c-55.333 -24.667 -83 -57.667 -83 -99v-293h-138v293c0 41.333 -22.667 72 -68 92c-62 27.333 -124.667 26 -188 -4c-16.667 -7.33301 -30.334 -19.333 -41.001 -36zM813.01 582c-8 82 -31.667 134.666 -71 157.999
c-17.333 10 -39.5 15 -66.5 15s-49 -5 -66 -15s-30.833 -23.333 -41.5 -40c-16 -25.333 -27.333 -64.666 -34 -117.999h279zM818.01 420.999l-289 -0.00195312c4 -67.333 12 -114.666 24 -141.999c24.667 -56.667 65.667 -85 123 -85c80.667 0 126 51 136 153
c2.66699 26.667 4.66699 51.334 6 74.001zM1077.01 -326.003c0 32 -11.999 56.668 -35.999 74.001c-8.66699 6.66699 -19.334 10 -32.001 10c-22 0 -38.667 -11.333 -50 -34c-8 -15.333 -12 -32 -12 -50c0 -32.667 10.333 -57.334 31 -74.001c8 -6 18.333 -9 31 -9
c22 0 39.667 10.667 53 32c10 16 15 33 15 51zM345.011 188.998l43.001 7c2 0 5.33301 0.333008 10 1c-26.667 60 -42.334 134.667 -47.001 224h-6c-32 0 -58.333 -13 -79 -39c-18 -23.333 -27 -46.5 -27 -69.5s2.5 -41.167 7.5 -54.5s12.167 -25.333 21.5 -36
c19.333 -22 45 -33 77 -33zM419.012 -326.002c0 32 -10.333 56.6689 -31 74.002c-8 6.66699 -18.167 10 -30.5 10s-22.833 -3.16699 -31.5 -9.5s-16 -13.833 -22 -22.5c-10 -16.667 -15 -34 -15 -52c0 -30.667 12.333 -55.334 37 -74.001c8.66699 -6 19.167 -9 31.5 -9
s22.5 3.16699 30.5 9.5s14.333 14.166 19 23.499c8 15.333 12 32 12 50z" />
    <glyph glyph-name="k1k1" horiz-adv-x="1568" 
d="M509 39c-36 -45.333 -90.6719 -68.001 -164.005 -68.001c-81.333 0 -149.666 29 -204.999 87c-54.667 57.333 -82 127.333 -82 210c0 84.667 28 155.334 84 212.001c56 57.333 126.333 86 211 86c16.667 171.333 77.667 284.333 183 339c38 20 76.667 30 116 30
s70.833 -2.83301 94.5 -8.5s46.167 -13.834 67.5 -24.501c46.667 -24.667 79.334 -56 98.001 -94c30.667 52.667 95.334 86.334 194.001 101.001c27.333 4 53 6 77 6c132 0 231.667 -43.667 299 -131c60 -78 90 -183.833 90 -317.5s-26.667 -289.167 -80 -466.5h-188
c56 180.667 84 335.334 84 464.001c0 81.333 -10.5 139.166 -31.5 173.499s-44.833 59 -71.5 74s-56.5 22.5 -89.5 22.5s-60.167 -2 -81.5 -6s-40.666 -10.667 -57.999 -20c-38 -20.667 -64 -52.667 -78 -96l9 -46h82c70.667 0 128.334 -32 173.001 -96
c40 -58.667 60 -124 60 -196c0 -76 -23 -143.333 -69 -202c-49.333 -62.667 -111 -94 -185 -94c-56 0 -102 15.667 -138 47c-12.667 10.667 -21.667 23 -27 37c-25.333 -41.333 -74.333 -68 -147 -80c-20.667 -3.33301 -40.667 -5 -60 -5c-89.333 0 -145 20.667 -167 62z
M1120 273.999c0 47.333 -12.0029 82.667 -36.0029 106c-8.66699 8 -19.667 12 -33 12h-61c-2.66699 -24 -4.66699 -48.167 -6 -72.5s-4.66602 -48.166 -9.99902 -71.499c4.66699 -34.667 20.667 -60.334 48 -77.001c8.66699 -5.33301 18.834 -8 30.501 -8
s21.834 3.83301 30.501 11.5s15.667 17.5 21 29.5c10.667 22.667 16 46 16 70zM809.992 566c-5.33301 55.333 -14.3311 94.333 -26.998 117c-25.333 45.333 -61 68 -107 68c-66.667 0 -109.334 -40 -128.001 -120c-4.66699 -22 -8.33398 -43.667 -11.001 -65h273z
M813.994 392l-282.001 0.000976562c2 -66 9.33301 -113.667 22 -143c26 -59.333 66.667 -89 122 -89c78.667 0 123 52 133 156c2.66699 27.333 4.33398 52.666 5.00098 75.999zM392.993 163.001c-25.333 59.333 -40.334 135.669 -45.001 229.002h-3
c-30 0 -55 -13.333 -75 -40c-18.667 -24.667 -28 -48.667 -28 -72s2.33301 -41.833 7 -55.5s11.667 -25.834 21 -36.501c20 -22.667 45 -34 75 -34c8.66699 0 16.834 1.16699 24.501 3.5s15.5 4.16602 23.5 5.49902z" />
    <glyph glyph-name="k1k1u1" horiz-adv-x="1658" 
d="M393 163c-25.333 59.333 -40.333 135.667 -45 229h-3c-30 0 -55 -13.333 -75 -40c-18.667 -24.667 -28 -52.667 -28 -84c0 -30 7 -53.333 21 -70c24.667 -29.333 52 -44 82 -44c10 0 26 3 48 9zM532 392.001c4 -154.667 52 -232 144 -232s138 77.333 138 232h-282z
M1095.5 239.501c2.33301 13 3.49902 24.667 3.49902 35s-1 22.333 -3 36s-5.66699 26.5 -11 38.5c-12.667 28.667 -31 43 -55 43h-40c-5.33301 -62.667 -9.33301 -100.5 -12 -113.5s-4 -23.333 -4 -31s1.16699 -16.5 3.5 -26.5s5.83301 -19 10.5 -27
c10 -20.667 22.667 -31 38 -31s27.333 3.83301 36 11.5s15.834 17.167 21.501 28.5s9.66699 23.5 12 36.5zM809.999 566.001c-5.33301 53.333 -14.333 90.667 -27 112c-25.333 42 -61 63 -107 63s-81 -18.333 -105 -55c-18 -27.333 -29.333 -67.333 -34 -120h273z
M1544 429.002c64 -38.667 95.999 -103.666 95.999 -194.999c0 -68.667 -20 -127 -60 -175c-45.333 -54 -105.666 -81 -180.999 -81c-26 0 -53.667 3.33301 -83 10l-9 171c23.333 -19.333 45.5 -29 66.5 -29s35.5 3 43.5 9s15 13.667 21 23c12.667 20.667 19 41 19 61
s-2 36.333 -6 49s-10.333 24 -19 34c-18.667 21.333 -46.667 32 -84 32h-29v154h46c32 0 55 22 69 66c4 12.667 6 27 6 43s-3.66699 33 -11 51s-19.666 34.333 -36.999 49c-38 33.333 -94.333 50 -169 50c-79.333 0 -143.666 -18 -192.999 -54
c-20.667 -15.333 -34.5 -32 -41.5 -50s-10.5 -28.5 -10.5 -31.5s3 -19.5 9 -49.5h61c70.667 0 128 -32 172 -96c40.667 -58.667 61 -124 61 -196c0 -76 -23 -143.333 -69 -202c-49.333 -62.667 -111 -94 -185 -94c-49.333 0 -89 15.667 -119 47
c-10.667 10.667 -19 23 -25 37c-38 -56.667 -104 -85 -198 -85s-152.667 20.667 -176 62c-36.667 -45.333 -91.334 -68 -164.001 -68c-82 0 -150.333 29.167 -205 87.5s-82 128.166 -82 209.499c0 84 28 154.667 84 212c56.667 57.333 127 86 211 86
c16 167.333 77 277.333 183 330c38.667 19.333 77 29 115 29s68.833 -2.83301 92.5 -8.5s46.5 -13.834 68.5 -24.501c49.333 -25.333 82.666 -56.666 99.999 -93.999c82 87.333 192 131 330 131c121.333 0 220.333 -34.667 297 -104c68.667 -62 103 -133 103 -213
s-32.667 -141 -98 -183z" />
    <glyph glyph-name="k1k1u2" horiz-adv-x="1540" 
d="M1421 379c71.333 -47.333 106.998 -124.666 106.998 -231.999c0 -82 -26 -148.667 -78 -200c-53.333 -52 -121 -78 -203 -78h-967c-11.333 0 -20.833 -4.66699 -28.5 -14s-11.5 -19.5 -11.5 -30.5s3.83301 -20.667 11.5 -29s17.167 -12.5 28.5 -12.5h1236v-163h-1266
c-53.333 0 -99 20.667 -137 62c-37.333 41.333 -56 88.666 -56 141.999c0 54.667 18.333 101 55 139c38 39.333 84 59 138 59h967c58.667 0 98 27.667 118 83c6 16.667 9 34.5 9 53.5s-3.16699 36.5 -9.5 52.5s-15.166 29.667 -26.499 41c-24 24 -55.333 34.667 -94 32v185
h7c34.667 -1.33301 63.667 12.334 87 41.001c22 25.333 33 54.666 33 87.999s-6.66699 60.166 -20 80.499s-30.666 36.833 -51.999 49.5c-40.667 23.333 -89.667 35 -147 35c-83.333 0 -148.666 -21.333 -195.999 -64c-16.667 -15.333 -28.667 -34.333 -36 -57l7 -36h69
c63.333 0 116 -29 158 -87c36.667 -51.333 55 -110.666 55 -177.999c0 -68.667 -21 -129.667 -63 -183c-44.667 -57.333 -100.667 -86 -168 -86c-48.667 0 -89 12.667 -121 38c-11.333 9.33301 -20.333 20.333 -27 33c-36 -48 -94.667 -72 -176 -72s-134.333 17.667 -159 53
c-32.667 -38.667 -81 -58 -145 -58c-74 0 -136.333 26.667 -187 80c-50 52.667 -75 116 -75 190c0 76 25.333 139.667 76 191c50 51.333 112.667 77.666 188 78.999c16 149.333 72 247.333 168 294c34.667 17.333 69.167 26 103.5 26s61.666 -1.83301 81.999 -5.5
s39.833 -9.5 58.5 -17.5c42 -17.333 73 -43 93 -77c56 70 152.333 105 289 105c123.333 0 224 -29.667 302 -89c81.333 -62.667 122 -142.667 122 -240s-39.667 -171.666 -119 -222.999zM729.998 606c-10.667 97.333 -48.667 146 -114 146c-57.333 0 -94 -31 -110 -93
c-4 -17.333 -7 -35 -9 -53h233zM899.998 441c-6.66699 -70.667 -11.3311 -111.331 -13.998 -121.998c5.33301 -30 18.666 -51.667 39.999 -65c7.33301 -4 15.833 -6 25.5 -6s18 3.33301 25 10s12.833 14.667 17.5 24c8.66699 17.333 13 33.666 13 48.999
s-0.833008 28.666 -2.5 39.999s-4.83398 22.333 -9.50098 33c-11.333 24.667 -26.333 37 -45 37h-50zM734.001 441.003l-241.999 0.000976562c2.66699 -88.667 22.667 -147.667 60 -177c16 -12.667 37.167 -19 63.5 -19s47.166 6.5 62.499 19.5s27 29.5 35 49.5
c12 29.333 19 71.666 21 126.999zM356.002 246.004c-22.667 55.333 -35.333 120.332 -38 194.999c-24.667 0 -45.667 -11.667 -63 -35c-15.333 -20.667 -23 -40.667 -23 -60s2 -34.666 6 -45.999s10 -21.333 18 -30c16.667 -20 38 -30 64 -30c6 0 18 2 36 6z" />
    <glyph glyph-name="k1k1r1" horiz-adv-x="1577" 
d="M509 39c-36 -45.333 -90.668 -67.999 -164.001 -67.999c-81.333 0 -149.666 29 -204.999 87c-54.667 57.333 -82 127.333 -82 210c0 84.667 28 155.334 84 212.001c56 57.333 126.333 86 211 86c16.667 171.333 77.667 284.333 183 339c38 20 76.667 30 116 30
s70.833 -2.83301 94.5 -8.5s46.167 -13.834 67.5 -24.501c46.667 -24.667 79.334 -56 98.001 -94c30.667 51.333 86.667 85.333 168 102c26 5.33301 53 8 81 8c133.333 0 237.666 -56.667 312.999 -170c67.333 -102.667 101 -234 101 -394c0 -206 -53 -389.333 -159 -550
c-71.333 -108.667 -163 -185.334 -275 -230.001c-56.667 -22.667 -111 -34 -163 -34s-98 3.83301 -138 11.5s-76.667 19.834 -110 36.501c-76 39.333 -114 94 -114 164c0 68 35 121 105 159c60 32.667 131.333 49 214 49c120 0 205 -28.667 255 -86l-79 -109
c-38 35.333 -90 53 -156 53c-90.667 0 -136 -22.333 -136 -67c0 -40 47 -60 141 -60c86 0 164 36.333 234 109c96 100 158.333 238.667 187 416c8.66699 53.333 13 105 13 155c0 167.333 -41.667 279.666 -125 336.999c-28 19.333 -57 29 -87 29s-55.333 -3.16699 -76 -9.5
s-39.334 -14.833 -56.001 -25.5c-36 -23.333 -60 -53.333 -72 -90l9 -46h82c70.667 0 128.334 -32 173.001 -96c40 -58.667 60 -124 60 -196c0 -76 -23 -143.333 -69 -202c-49.333 -62.667 -111 -94 -185 -94c-56 0 -102 15.667 -138 47c-12.667 10.667 -21.667 23 -27 37
c-25.333 -41.333 -74.333 -68 -147 -80c-20.667 -3.33301 -40.667 -5 -60 -5c-89.333 0 -145 20.667 -167 62zM809.999 566.001c-5.33301 55.333 -14.3311 94.333 -26.998 117c-25.333 45.333 -61 68 -107 68c-66.667 0 -109.334 -40 -128.001 -120
c-4.66699 -22 -8.33398 -43.667 -11.001 -65h273zM1120 274.001c0 47.333 -12.0029 82.667 -36.0029 106c-8.66699 8 -19.667 12 -33 12h-61c-2.66699 -24 -4.66699 -48.167 -6 -72.5s-4.66602 -48.166 -9.99902 -71.499c4.66699 -34.667 20.667 -60.334 48 -77.001
c8.66699 -5.33301 18.834 -8 30.501 -8s21.834 3.83301 30.501 11.5s15.667 17.5 21 29.5c10.667 22.667 16 46 16 70zM813.998 392.002l-282.001 0.000976562c2 -66 9.33301 -113.667 22 -143c26 -59.333 66.667 -89 122 -89c78.667 0 123 52 133 156
c2.66699 27.333 4.33398 52.666 5.00098 75.999zM392.997 163.003c-25.333 59.333 -40.334 135.669 -45.001 229.002h-3c-30 0 -55 -13.333 -75 -40c-18.667 -24.667 -28 -48.667 -28 -72s2.33301 -41.833 7 -55.5s11.667 -25.834 21 -36.501c20 -22.667 45 -34 75 -34
c8.66699 0 16.834 1.16699 24.501 3.5s15.5 4.16602 23.5 5.49902z" />
    <glyph glyph-name="k1k1r3" horiz-adv-x="1831" 
d="M643 163c-25.333 59.333 -40.334 135.669 -45.001 229.002h-3c-30 0 -55 -13.333 -75 -40c-18.667 -24.667 -28 -48.667 -28 -72s2.33301 -41.833 7 -55.5s11.667 -25.834 21 -36.501c20 -22.667 45 -34 75 -34c8.66699 0 16.834 1.16699 24.501 3.5
s15.5 4.16602 23.5 5.49902zM1064 392.003l-282.001 0.000976562c2 -66 9.33301 -113.667 22 -143c26 -59.333 66.667 -89 122 -89c78.667 0 123 52 133 156c2.66699 27.333 4.33398 52.666 5.00098 75.999zM1370 274.004c0 47.333 -12.0029 82.667 -36.0029 106
c-8.66699 8 -19.667 12 -33 12h-61c-2.66699 -24 -4.66699 -48.167 -6 -72.5s-4.66602 -48.166 -9.99902 -71.499c4.66699 -34.667 20.667 -60.334 48 -77.001c8.66699 -5.33301 18.834 -8 30.501 -8s21.834 3.83301 30.501 11.5s15.667 17.5 21 29.5
c10.667 22.667 16 46 16 70zM1060 566.005c-5.33301 55.333 -14.3311 94.333 -26.998 117c-25.333 45.333 -61 68 -107 68c-66.667 0 -109.334 -40 -128.001 -120c-4.66699 -22 -8.33398 -43.667 -11.001 -65h273zM1163 808.005c47.333 82 125.663 123.002 234.996 123.002
c138.667 0 246.667 -57.333 324 -172c68.667 -102.667 103 -227.334 103 -374.001s-18.333 -267.334 -55 -362.001s-92 -172 -166 -232c-144 -116 -368.667 -174 -674 -174c-301.333 0 -520.666 56.667 -657.999 170c-143.333 118 -215 309.667 -215 575
c0 156.667 25 300.667 75 432c16 42 34.333 80.333 55 115h210c-78 -96.667 -129.667 -229.667 -155 -399c-7.33301 -52.667 -11 -117.167 -11 -193.5s14.5 -150.333 43.5 -222s73.5 -130.5 133.5 -176.5c115.333 -89.333 299 -134 551 -134c236 0 407.667 43.333 515 130
c114.667 92 172 244 172 456c0 170 -44.333 285.333 -133 346c-30 20 -65 30 -105 30s-76.667 -11.833 -110 -35.5s-56.666 -56.5 -69.999 -98.5l9 -46h82c70.667 0 128.334 -32 173.001 -96c40 -58.667 60 -124 60 -196c0 -76 -23 -143.333 -69 -202
c-49.333 -62.667 -111 -94 -185 -94c-56 0 -102 15.667 -138 47c-12.667 10.667 -21.667 23 -27 37c-25.333 -41.333 -74.333 -68 -147 -80c-20.667 -3.33301 -40.667 -5 -60 -5c-89.333 0 -145 20.667 -167 62c-36 -45.333 -90.667 -68 -164 -68
c-81.333 0 -149.666 29 -204.999 87c-54.667 57.333 -82 127.333 -82 210c0 84.667 28 155.334 84 212.001c56 57.333 126.333 86 211 86c16.667 171.333 77.667 284.333 183 339c38 20 76.667 30 116 30s70.833 -2.83301 94.5 -8.5s46.167 -13.834 67.5 -24.501
c45.333 -24.667 78.333 -56 99 -94z" />
    <glyph glyph-name="k1k1r3u1" horiz-adv-x="1831" 
d="M1163 808c47.333 82 125.662 122.998 234.995 122.998c138.667 0 246.667 -57.333 324 -172c68.667 -102.667 103 -234 103 -394c0 -113.333 -10 -212.666 -30 -297.999s-56.667 -157.666 -110 -216.999c81.333 -46.667 122 -120.667 122 -222
c0 -76.667 -25.667 -143.334 -77 -200.001c-52 -56.667 -116 -85 -192 -85s-140 28.333 -192 85c-51.333 56.667 -77 123.334 -77 200.001c0 6.66699 0.333008 11.667 1 15c-96.667 -17.333 -211.167 -26 -343.5 -26s-254.166 13.5 -365.499 40.5
s-204.333 70.167 -279 129.5c-150 119.333 -225 311 -225 575c0 156.667 25 300.667 75 432c16 42 34.333 80.333 55 115h210c-78 -96.667 -129.667 -229.667 -155 -399c-7.33301 -52.667 -11 -117.167 -11 -193.5s15.5 -150.333 46.5 -222s77.5 -130.5 139.5 -176.5
c120.667 -89.333 308 -134 562 -134c234.667 0 403.334 43.333 506.001 130c107.333 90 161 242 161 456c0 170 -44.333 285.333 -133 346c-30 20 -65 30 -105 30s-76.667 -11.833 -110 -35.5s-56.666 -56.5 -69.999 -98.5l9 -46h82c70.667 0 128.334 -32 173.001 -96
c40 -58.667 60 -124 60 -196c0 -76 -23 -143.333 -69 -202c-49.333 -62.667 -111 -94 -185 -94c-56 0 -102 15.667 -138 47c-12.667 10.667 -21.667 23 -27 37c-25.333 -41.333 -74.333 -68 -147 -80c-20.667 -3.33301 -40.667 -5 -60 -5c-89.333 0 -145 20.667 -167 62
c-36 -45.333 -90.667 -68 -164 -68c-81.333 0 -149.666 29 -204.999 87c-54.667 57.333 -82 127.333 -82 210c0 84.667 28 155.334 84 212.001c56 57.333 126.333 86 211 86c16.667 171.333 77.667 284.333 183 339c38 20 76.667 30 116 30s70.833 -2.83301 94.5 -8.5
s46.167 -13.834 67.5 -24.501c45.333 -24.667 78.333 -56 99 -94zM1060 565.998c-5.33301 55.333 -14.3311 94.333 -26.998 117c-25.333 45.333 -61 68 -107 68c-66.667 0 -109.334 -40 -128.001 -120c-4.66699 -22 -8.33398 -43.667 -11.001 -65h273zM1370 273.998
c0 47.333 -12.0029 82.667 -36.0029 106c-8.66699 8 -19.667 12 -33 12h-61c-2.66699 -24 -4.66699 -48.167 -6 -72.5s-4.66602 -48.166 -9.99902 -71.499c4.66699 -34.667 20.667 -60.334 48 -77.001c8.66699 -5.33301 18.834 -8 30.501 -8s21.834 3.83301 30.501 11.5
s15.667 17.5 21 29.5c10.667 22.667 16 46 16 70zM1064 391.999l-282.001 0.000976562c2 -66 9.33301 -113.667 22 -143c26 -59.333 66.667 -89 122 -89c78.667 0 123 52 133 156c2.66699 27.333 4.33398 52.666 5.00098 75.999zM1636.99 -405
c5.33301 13.333 8.00195 30.332 8.00195 50.999s-7.66699 41.334 -23 62.001s-35.333 34 -60 40c-36.667 -23.333 -76.334 -42.666 -119.001 -57.999c-8 -16 -12 -32.5 -12 -49.5s2.83301 -32.167 8.5 -45.5s13.167 -25 22.5 -35c20 -22.667 45.333 -34 76 -34
c30 0 52.667 8.16699 68 24.5s25.666 31.166 30.999 44.499zM642.996 162.999c-25.333 59.333 -40.334 135.669 -45.001 229.002h-3c-30 0 -55 -13.333 -75 -40c-18.667 -24.667 -28 -48.667 -28 -72s2.33301 -41.833 7 -55.5s11.667 -25.834 21 -36.501
c20 -22.667 45 -34 75 -34c8.66699 0 16.834 1.16699 24.501 3.5s15.5 4.16602 23.5 5.49902z" />
    <glyph glyph-name="k1k1r3u2" horiz-adv-x="1831" 
d="M1163 808c47.333 82 125.662 123 234.995 123c138.667 0 246.667 -57.333 324 -172c68.667 -102.667 103 -234 103 -394c0 -112 -9.66699 -210.167 -29 -294.5s-55 -156.5 -107 -216.5c72.667 -35.333 120.334 -94 143.001 -176c8 -28.667 12 -62.834 12 -102.501
s-7.5 -78.5 -22.5 -116.5s-35.833 -71 -62.5 -99c-57.333 -60 -129 -90 -215 -90s-157.667 30 -215 90c-56 58.667 -84 133 -84 223c0 18.667 1.33301 37.334 4 56.001c-89.333 -14.667 -201.833 -22 -337.5 -22s-258.167 13.5 -367.5 40.5s-200 70.167 -272 129.5
c-143.333 118 -215 309.667 -215 575c0 156.667 25 300.667 75 432c16 42 34.333 80.333 55 115h210c-78 -96.667 -129.667 -229.667 -155 -399c-7.33301 -52.667 -11 -117.167 -11 -193.5s15.5 -150.333 46.5 -222s77.5 -130.5 139.5 -176.5
c120.667 -89.333 308 -134 562 -134c234.667 0 403.334 43.333 506.001 130c107.333 90 161 242 161 456c0 170 -44.333 285.333 -133 346c-30 20 -65 30 -105 30s-76.667 -11.833 -110 -35.5s-56.666 -56.5 -69.999 -98.5l9 -46h82c70.667 0 128.334 -32 173.001 -96
c40 -58.667 60 -124 60 -196c0 -76 -23 -143.333 -69 -202c-49.333 -62.667 -111 -94 -185 -94c-56 0 -102 15.667 -138 47c-12.667 10.667 -21.667 23 -27 37c-25.333 -41.333 -74.333 -68 -147 -80c-20.667 -3.33301 -40.667 -5 -60 -5c-89.333 0 -145 20.667 -167 62
c-36 -45.333 -90.667 -68 -164 -68c-81.333 0 -149.666 29 -204.999 87c-54.667 57.333 -82 127.333 -82 210c0 84.667 28 155.334 84 212.001c56 57.333 126.333 86 211 86c16.667 171.333 77.667 284.333 183 339c38 20 76.667 30 116 30s70.833 -2.83301 94.5 -8.5
s46.167 -13.834 67.5 -24.501c45.333 -24.667 78.333 -56 99 -94zM1060 566c-5.33301 55.333 -14.3311 94.333 -26.998 117c-25.333 45.333 -61 68 -107 68c-66.667 0 -109.334 -40 -128.001 -120c-4.66699 -22 -8.33398 -43.667 -11.001 -65h273zM1370 274
c0 47.333 -12.0029 82.667 -36.0029 106c-8.66699 8 -19.667 12 -33 12h-61c-2.66699 -24 -4.66699 -48.167 -6 -72.5s-4.66602 -48.166 -9.99902 -71.499c4.66699 -34.667 20.667 -60.334 48 -77.001c8.66699 -5.33301 18.834 -8 30.501 -8s21.834 3.83301 30.501 11.5
s15.667 17.5 21 29.5c10.667 22.667 16 46 16 70zM1064 392.001l-282.001 0.000976562c2 -66 9.33301 -113.667 22 -143c26 -59.333 66.667 -89 122 -89c78.667 0 123 52 133 156c2.66699 27.333 4.33398 52.666 5.00098 75.999zM1609.99 -241.998
c16 -21.333 23.999 -42.001 23.999 -62.001s-2.33301 -36.5 -7 -49.5s-11 -24.5 -19 -34.5c-18 -21.333 -40 -32 -66 -32c-25.333 0 -44.666 8 -57.999 24c-22 26.667 -33 54.334 -33 83.001v6c-4 -1.33301 -8 -2.83301 -12 -4.5s-8.33301 -3.16699 -13 -4.5
c-7.33301 -23.333 -11 -46 -11 -68c0 -45.333 9 -80 27 -104c32 -41.333 66 -62 102 -62s66.667 16.667 92 50c24.667 32 37 66.333 37 103c0 74 -21 125.667 -63 155zM642.993 163.001c-25.333 59.333 -40.334 135.669 -45.001 229.002h-3c-30 0 -55 -13.333 -75 -40
c-18.667 -24.667 -28 -48.667 -28 -72s2.33301 -41.833 7 -55.5s11.667 -25.834 21 -36.501c20 -22.667 45 -34 75 -34c8.66699 0 16.834 1.16699 24.501 3.5s15.5 4.16602 23.5 5.49902z" />
    <glyph glyph-name="k1t1" horiz-adv-x="1293" 
d="M355 582c26 228.667 133.004 342.999 321.004 342.999c148.667 0 244.667 -70.333 288 -211c13.333 -41.333 22.666 -85.333 27.999 -132h33c80 0 145 -28 195 -84c46.667 -53.333 70 -119.333 70 -198c0 -76 -22 -141.333 -66 -196
c-46.667 -57.333 -109.667 -86 -189 -86h-17v171h17c51.333 0 77 37 77 111c0 52.667 -14.667 89.334 -44 110.001c-10.667 7.33301 -25 11 -43 11h-29c-10 -185.333 -66 -306.333 -168 -363c-40 -22.667 -94.5 -34 -163.5 -34s-120.833 17.333 -155.5 52
c-47.333 -38.667 -96.833 -58 -148.5 -58s-94.834 7.5 -129.501 22.5s-64.334 35.5 -89.001 61.5c-54 54.667 -81 120.667 -81 198c0 80 27.667 147 83 201s125.666 81 210.999 81zM742.004 739.999c-17.333 10 -39.5 14.999 -66.5 14.999s-49 -5 -66 -15
s-30.833 -23.333 -41.5 -40c-16 -25.333 -27.333 -64.666 -34 -117.999h279c-8 82 -31.667 134.667 -71 158zM529.004 420.998c4 -67.333 12 -114.668 24 -142.001c24.667 -56.667 65.667 -85 123 -85c80.667 0 126 51 136 153c2.66699 26.667 4.66699 51.334 6 74.001h-289
zM398.004 196.996c-26.667 60 -42.333 134.667 -47 224h-6c-32 0 -58.333 -13 -79 -39c-18 -23.333 -27 -46.5 -27 -69.5s2.5 -41.167 7.5 -54.5s12.167 -25.333 21.5 -36c19.333 -22 45 -33 77 -33l43 7c2 0 5.33301 0.333008 10 1zM809.005 -162.004l87.0029 9
c48 0 85.333 -8.33301 112 -25c47.333 -30 71 -66.333 71 -109c0 -50 -25 -91 -75 -123c-44 -28 -97.5 -42 -160.5 -42s-124.5 16.333 -184.5 49v138c34 -32.667 59.667 -53 77 -61c27.333 -12 52.666 -18 75.999 -18s41.166 -0.166992 53.499 -0.5s23.833 0.5 34.5 2.5
c23.333 6 35 21.333 35 46c0 16.667 -12.667 25 -38 25l-107 -7c-43.333 0 -78.333 15.333 -105 46c-24.667 28 -37 57.5 -37 88.5s6.5 56.333 19.5 76s29.833 36.167 50.5 49.5c40.667 24.667 93.667 37 159 37s125.666 -16 180.999 -48v-140
c-23.333 30 -49.666 49.667 -78.999 59s-63 14 -101 14c-60 0 -90 -14 -90 -42c0 -6 2.16699 -11.5 6.5 -16.5s9.16602 -7.5 14.499 -7.5z" />
    <glyph glyph-name="k1t1r3" horiz-adv-x="1293" 
d="M355 582c26 228.667 133.004 342.999 321.004 342.999c148.667 0 244.667 -70.333 288 -211c13.333 -41.333 22.666 -85.333 27.999 -132h33c80 0 145 -28 195 -84c46.667 -53.333 70 -119.333 70 -198c0 -76 -22 -141.333 -66 -196
c-46.667 -57.333 -109.667 -86 -189 -86h-17v171h17c51.333 0 77 37 77 111c0 52.667 -14.667 89.334 -44 110.001c-10.667 7.33301 -25 11 -43 11h-29c-10 -185.333 -66 -306.333 -168 -363c-40 -22.667 -94.5 -34 -163.5 -34s-120.833 17.333 -155.5 52
c-47.333 -38.667 -96.833 -58 -148.5 -58s-94.834 7.5 -129.501 22.5s-64.334 35.5 -89.001 61.5c-54 54.667 -81 120.667 -81 198c0 80 27.667 147 83 201s125.666 81 210.999 81zM813.004 581.999c-8 82 -31.667 134.666 -71 157.999c-17.333 10 -39.5 15 -66.5 15
s-49 -5 -66 -15s-30.833 -23.333 -41.5 -40c-16 -25.333 -27.333 -64.666 -34 -117.999h279zM818.004 420.998l-289 -0.00195312c4 -67.333 12 -114.666 24 -141.999c24.667 -56.667 65.667 -85 123 -85c80.667 0 126 51 136 153c2.66699 26.667 4.66699 51.334 6 74.001z
M345.004 188.996l43.001 7c2 0 5.33301 0.333008 10 1c-26.667 60 -42.334 134.667 -47.001 224h-6c-32 0 -58.333 -13 -79 -39c-18 -23.333 -27 -46.5 -27 -69.5s2.5 -41.167 7.5 -54.5s12.167 -25.333 21.5 -36c19.333 -22 45 -33 77 -33zM773.005 -212.004l154.997 10
c67.333 0 120.333 -13.833 159 -41.5s58 -65.5 58 -113.5c0 -58 -29 -105.667 -87 -143c-62.667 -40 -149.667 -60 -261 -60c-129.333 0 -239.666 25.333 -330.999 76c-104.667 57.333 -157 137 -157 239v15c4.66699 78 21.334 136 50.001 174c12 15.333 27 30 45 44h184
c-88 -48.667 -132 -118.334 -132 -209.001v-12c2.66699 -71.333 42.334 -123.666 119.001 -156.999c61.333 -27.333 130 -41 206 -41c141.333 0 212 21.333 212 64c0 25.333 -21.667 38 -65 38c-14 0 -28.833 -0.5 -44.5 -1.5l-47.5 -3l-48 -3
c-16 -1 -35.167 -1.5 -57.5 -1.5s-45 5 -68 15s-42.167 23 -57.5 39c-30.667 30.667 -46 63.667 -46 99s7.83301 65 23.5 89s37.167 44.333 64.5 61c56.667 34.667 127.667 52 213 52c46 0 90.5 -4.16699 133.5 -12.5s86.167 -27.5 129.5 -57.5v-137
c-36.667 32.667 -71 53.667 -103 63c-47.333 12.667 -97.333 19 -150 19c-102 0 -153 -19 -153 -57c0 -10 4.83301 -20.333 14.5 -31s23.5 -16 41.5 -16z" />
    <glyph glyph-name="k1nh" horiz-adv-x="1293" 
d="M355 582c26 228.667 133.004 342.999 321.004 342.999c148.667 0 244.667 -70.333 288 -211c13.333 -41.333 22.666 -85.333 27.999 -132h33c80 0 145 -28 195 -84c46.667 -53.333 70 -119.333 70 -198c0 -76 -22 -141.333 -66 -196
c-46.667 -57.333 -109.667 -86 -189 -86h-17v171h17c51.333 0 77 37 77 111c0 52.667 -14.667 89.334 -44 110.001c-10.667 7.33301 -25 11 -43 11h-29c-10 -185.333 -66 -306.333 -168 -363c-40 -22.667 -94.5 -34 -163.5 -34s-120.833 17.333 -155.5 52
c-47.333 -38.667 -96.833 -58 -148.5 -58s-94.834 7.5 -129.501 22.5s-64.334 35.5 -89.001 61.5c-54 54.667 -81 120.667 -81 198c0 80 27.667 147 83 201s125.666 81 210.999 81zM884.004 -50.001c44 34 88.501 50.9971 133.501 50.9971s81.667 -6.33301 110 -19
s52.5 -30 72.5 -52c42 -46 63 -102.333 63 -169c0 -59.333 -15.667 -125.666 -47 -198.999c-10 -22 -20.333 -39.667 -31 -53h-148c38 46.667 63.667 100.667 77 162c4 18.667 6 38.334 6 59.001s-3.5 40.5 -10.5 59.5s-16.167 34.5 -27.5 46.5
c-21.333 24.667 -47 37 -77 37c-35.333 0 -53 -25 -53 -75v-289h-140v309c0 19.333 -6 35 -18 47c-14 14 -30.667 21 -50 21s-34.5 -8.5 -45.5 -25.5s-16.5 -37.833 -16.5 -62.5v-289h-133v265c0 45.333 -32.333 77 -97 95c-19.333 5.33301 -42.833 8 -70.5 8
s-55.334 -7 -83.001 -21s-45.167 -32 -52.5 -54c21.333 11.333 46.5 17 75.5 17s54.5 -4.5 76.5 -13.5s40 -20.833 54 -35.5c27.333 -27.333 41 -57.166 41 -89.499s-3.66699 -58.5 -11 -78.5s-18.666 -38 -33.999 -54c-35.333 -34.667 -84.333 -52 -147 -52
c-55.333 0 -100 22 -134 66c-31.333 40.667 -47 84.667 -47 132s6 88.333 18 123s30.667 65.667 56 93c56 62.667 133 94 231 94c63.333 0 122.666 -18.667 177.999 -56c38 38 91.667 57 161 57c39.333 0 79.333 -18.333 120 -55zM813.005 581.996
c-8 82 -31.667 134.666 -71 157.999c-17.333 10 -39.5 15 -66.5 15s-49 -5 -66 -15s-30.833 -23.333 -41.5 -40c-16 -25.333 -27.333 -64.666 -34 -117.999h279zM818.005 420.995l-289 -0.00195312c4 -67.333 12 -114.666 24 -141.999c24.667 -56.667 65.667 -85 123 -85
c80.667 0 126 51 136 153c2.66699 26.667 4.66699 51.334 6 74.001zM345.005 188.993l43.001 7c2 0 5.33301 0.333008 10 1c-26.667 60 -42.334 134.667 -47.001 224h-6c-32 0 -58.333 -13 -79 -39c-18 -23.333 -27 -46.5 -27 -69.5s2.5 -41.167 7.5 -54.5
s12.167 -25.333 21.5 -36c19.333 -22 45 -33 77 -33zM372.006 -342.007c0 25.333 -11.333 44 -34 56c-8 4.66699 -17.667 7 -29 7c-30 0 -49.667 -14.333 -59 -43c-2.66699 -7.33301 -4 -14 -4 -20c0 -25.333 11.333 -44 34 -56c8 -4.66699 17.667 -7 29 -7
c30 0 49.667 14.333 59 43c2.66699 7.33301 4 14 4 20z" />
    <glyph glyph-name="k1th1" horiz-adv-x="2292" 
d="M1681 874c59.333 36.667 127.337 55 204.004 55s140.167 -12 190.5 -36s91.166 -57 122.5 -99c60.667 -79.333 91 -188.166 91 -326.499s-33.333 -294.166 -100 -467.499h-207c82 164 123 318.667 123 464c0 134 -37.667 220 -113 258
c-29.333 14.667 -66.333 21.667 -111 21h-26c92 -84.667 138 -197.334 138 -338.001c0 -112.667 -20 -208.334 -60 -287.001c-49.333 -98 -128.666 -147 -237.999 -147c-138 0 -229.667 81.667 -275 245c-16.667 62 -25 127.667 -25 197c0 137.333 41 247 123 329
c-13.333 1.33301 -33.833 2 -61.5 2s-53.667 -9.16699 -78 -27.5s-43.833 -41.833 -58.5 -70.5c-28 -56 -41.333 -123.667 -40 -203l10 -443h-177l-10 331c0 35.333 -26 56.333 -78 63c-3.33301 0.666992 -6.33301 1 -9 1h-10c-3.33301 0 -6.66602 -0.333008 -9.99902 -1
c-10 -196.667 -66 -325.667 -168 -387c-40 -24 -92.833 -36 -158.5 -36s-119.167 20 -160.5 60c-47.333 -40 -96.833 -60 -148.5 -60s-94.834 7.83301 -129.501 23.5s-64.334 36.834 -89.001 63.501c-54 58 -81 127.667 -81 209c0 84 27.667 154.333 83 211
s125.666 85 210.999 85c26 241.333 133 362 321 362c148.667 0 244.667 -73.667 288 -221c13.333 -44 22.666 -91 27.999 -141h33c27.333 0 53.666 -3.66699 78.999 -11c22.667 171.333 95.334 286.666 218.001 345.999c43.333 20.667 99.166 31 167.499 31
s132.166 -18.333 191.499 -55zM1807 338c1.33301 28.667 1.99902 53.5 1.99902 74.5s-2 44.833 -6 71.5s-10.667 52.667 -20 78c-21.333 56.667 -51.666 95.334 -90.999 116.001c-53.333 -27.333 -88.666 -91.333 -105.999 -192c-4.66699 -26.667 -7 -48.334 -7 -65.001
s0.5 -33.334 1.5 -50.001s3 -34.5 6 -53.5s7.33301 -38 13 -57s12.5 -35.833 20.5 -50.5c19.333 -34.667 43.666 -52 72.999 -52s51.833 9.5 67.5 28.5s27 41.833 34 68.5s11.167 54.334 12.5 83.001zM813.003 563c-8 86.667 -31.667 142.334 -71 167.001
c-17.333 10.667 -39.5 16 -66.5 16s-49 -5.33301 -66 -16s-30.833 -24.667 -41.5 -42c-16 -26.667 -27.333 -68.334 -34 -125.001h279zM818.003 394l-289 0.000976562c4 -70.667 12 -120.334 24 -149.001c25.333 -60 66.333 -90 123 -90c80.667 0 126 53.667 136 161
c2.66699 28 4.66699 54 6 78zM300.503 159.501c13 -6.33301 24.501 -9.5 34.501 -9.5s21 1.33301 33 4c14.667 2.66699 24.667 4 30 4c-26.667 63.333 -42.334 142 -47.001 236h-6c-32 0 -58.333 -13.667 -79 -41c-18 -24.667 -27 -49 -27 -73s2.5 -43.167 7.5 -57.5
s12 -26.833 21 -37.5s20 -19.167 33 -25.5z" />
    <glyph glyph-name="k1th1u1" horiz-adv-x="2146" 
d="M370 221c-25.333 60 -39.334 132.001 -42.001 216.001h-5c-29.333 0 -53.666 -12.333 -72.999 -37c-16.667 -22.667 -25 -49.334 -25 -80.001c0 -48 19 -80.667 57 -98c12 -6 23.333 -9 34 -9s21 1.33301 31 4s17.667 4 23 4zM755.999 437.001h-264.002
c2.66699 -98.667 24 -164.334 64 -197.001c17.333 -14.667 40.833 -22 70.5 -22s52.834 7.16699 69.501 21.5s29.334 32.5 38.001 54.5c12.667 32.667 20 80.334 22 143.001zM751.997 593.001c-5.33301 52 -13.666 88 -24.999 108c-22.667 39.333 -56 59 -100 59
c-64 0 -104 -35.333 -120 -106c-4.66699 -20 -8.33398 -40.333 -11.001 -61h256zM1668 388.001c1.33301 24.667 2.00195 46.667 2.00195 66s-1.83301 41.333 -5.5 66s-9.83398 48.667 -18.501 72c-20 53.333 -48 89 -84 107c-32 -17.333 -58 -52.666 -78 -105.999
c-16.667 -44.667 -25 -82.834 -25 -114.501s1.16699 -60 3.5 -85s7.5 -49.5 15.5 -73.5c18.667 -60 47.667 -90 87 -90c63.333 0 97.666 52.667 102.999 158zM1553 879.001c56.667 34.667 121.001 52.001 193.001 52.001s133 -13.667 183 -41s91 -63.666 123 -108.999
c63.333 -88 95 -200.333 95 -337c0 -148 -35.333 -278.667 -106 -392c-76 -122 -173.333 -183 -292 -183h-1451c-12 0 -21.667 -4.66699 -29 -14s-11 -19.5 -11 -30.5s3.83301 -20.667 11.5 -29s17.167 -12.5 28.5 -12.5h1824v-163h-1854c-54.667 0 -100.667 20 -138 60
c-36.667 38.667 -55 85 -55 139c0 54.667 18.333 102 55 142c36.667 40.667 82.667 61 138 61h1439c76 0 138.333 44.667 187 134c44.667 82 67 176 67 282c0 144.667 -40.333 242.667 -121 294c-28 18 -61.333 27 -100 27h-3l-25 -1c84.667 -76.667 127 -180 127 -310
c0 -171.333 -46.333 -288.333 -139 -351c-35.333 -24 -75.666 -36 -120.999 -36s-81.833 5.83301 -109.5 17.5s-51.834 27.334 -72.501 47.001s-37.834 42.5 -51.501 68.5s-24.834 53.333 -33.501 82c-15.333 54.667 -23 114 -23 178c0 129.333 38 230.666 114 303.999
c-6.66699 0.666992 -14.334 1 -23.001 1h-24c-59.333 0 -104.333 -30.333 -135 -91c-24.667 -48.667 -37 -110.334 -37 -185.001l1 -408h-162l-1 290c0 20 -7.33301 37 -22 51s-32 21 -52 21h-27c-10.667 -256 -108.667 -384 -294 -384c-68 0 -119.333 16.667 -154 50
c-43.333 -37.333 -88.666 -56 -135.999 -56s-87 7.16699 -119 21.5s-59.667 34.166 -83 59.499c-50 53.333 -75 117.333 -75 192c0 77.333 25.667 142 77 194c51.333 52.667 116.333 79 195 79c22.667 222 121 333 295 333c170.667 0 267.334 -111 290.001 -333h31
c26 0 50.333 -3.33301 73 -10c23.333 158.667 90.333 265 201 319c39.333 18.667 90 28 152 28s121.667 -17 179 -51z" />
    <glyph glyph-name="k1th1u2" horiz-adv-x="2209" 
d="M1551 879c54.667 34 119.33 51.0039 193.997 51.0039s140.834 -7.83301 198.501 -23.5s105.834 -37.834 144.501 -66.501c78.667 -58.667 118 -138.834 118 -240.501s-39.667 -178.5 -119 -230.5c78.667 -51.333 118 -123.666 118 -216.999
c0 -80 -26.5 -147.167 -79.5 -201.5s-120.5 -81.5 -202.5 -81.5h-1627c-11.333 0 -20.833 -4.66699 -28.5 -14s-11.5 -19.5 -11.5 -30.5s3.83301 -20.667 11.5 -29s17.167 -12.5 28.5 -12.5h1886v-163h-1916c-52 0 -97.333 20 -136 60c-38 39.333 -57 85.666 -57 138.999
c0 54.667 18.333 101.667 55 141c38.667 41.333 84.667 62 138 62h1627c37.333 0 68 12.667 92 38c23.333 24.667 35 56.5 35 95.5s-12 70.333 -36 94s-55 35.5 -93 35.5l-11 -1v175h10c32 -1.33301 59.333 13 82 43c22.667 28.667 34 57.5 34 86.5s-4.33301 53.5 -13 73.5
s-23 38 -43 54c-44 35.333 -112.667 53 -206 53h-9l-24 -1c62.667 -56.667 102.334 -135.334 119.001 -236.001c5.33301 -29.333 8 -61.666 8 -96.999s-4 -76.333 -12 -123s-22.333 -89.334 -43 -128.001c-47.333 -88.667 -120.666 -133 -219.999 -133
c-126.667 0 -210.334 74.333 -251.001 223c-16 56.667 -24 116.667 -24 180c0 129.333 37.667 230.333 113 303c-13.333 1.33301 -32.5 2 -57.5 2s-48.667 -8.5 -71 -25.5s-40.5 -38.833 -54.5 -65.5c-26.667 -52 -38.667 -113.667 -36 -185l11 -408h-163l-11 303
c-0.666992 18 -8.33398 32.333 -23.001 43s-30.667 16 -48 16h-27c-10.667 -260 -108.667 -390 -294 -390c-64 0 -115.333 18.667 -154 56c-43.333 -37.333 -88.666 -56 -135.999 -56s-87 7.16699 -119 21.5s-59.667 34.166 -83 59.499c-50 53.333 -75 117.333 -75 192
c0 77.333 25.667 142 77 194c51.333 52.667 116.333 79 195 79c22.667 222 121 333 295 333c170.667 0 267.334 -111 290.001 -333h31c25.333 0 49.333 -3.33301 72 -10c23.333 158.667 90.333 265 201 319c39.333 18.667 90.166 28 152.499 28s121.5 -17 177.5 -51z
M1563 220.004c70.667 0 106 77 106 231c0 83.333 -19.333 151 -58 203c-14 19.333 -31 34 -51 44c-48 -26 -80 -85 -96 -177c-4.66699 -24.667 -7 -45.834 -7 -63.501s1.33301 -39.667 4 -66s7.66699 -52.166 15 -77.499c18 -62.667 47 -94 87 -94zM751.996 593.004
c-5.33301 52 -13.666 88 -24.999 108c-22.667 39.333 -56 59 -100 59c-64 0 -104 -35.333 -120 -106c-4.66699 -20 -8.33398 -40.333 -11.001 -61h256zM755.996 437.004h-264.002c2.66699 -98.667 24 -164.334 64 -197.001c17.333 -14.667 40.833 -22 70.5 -22
s52.834 7.16699 69.501 21.5s29.334 32.5 38.001 54.5c12.667 32.667 20 80.334 22 143.001zM369.994 221.004c-25.333 60 -39.334 132.001 -42.001 216.001h-5c-29.333 0 -53.666 -12.333 -72.999 -37c-16.667 -22.667 -25 -49.334 -25 -80.001c0 -48 19 -80.667 57 -98
c12 -6 23.333 -9 34 -9s21 1.33301 31 4s17.667 4 23 4z" />
    <glyph glyph-name="k1th1r1" horiz-adv-x="2330" 
d="M1681 874c59.333 36.667 123.004 54.999 191.004 54.999s123.333 -7.66699 166 -23s80.167 -36.833 112.5 -64.5s59.666 -60.5 82 -98.5c22.333 -38 40.5 -79.667 54.5 -125c26.667 -86.667 40 -173.834 40 -261.501s-5.5 -162.834 -16.5 -225.501
s-27.667 -122.667 -50 -180s-50.166 -111.166 -83.5 -161.499c-33.333 -50.333 -72.333 -93.833 -117 -130.5c-96.667 -79.333 -208 -119 -334 -119c-88 0 -165 16 -231 48c-79.333 39.333 -119 94 -119 164c0 68 36.667 121 110 159c62.667 32.667 135.667 49 219 49
c120 0 205 -28.667 255 -86l-79 -109c-38 35.333 -90 53 -156 53c-90.667 0 -136 -22.333 -136 -67c0 -40 47 -60 141 -60c82.667 0 156.667 33.667 222 101c90 91.333 148.333 221 175 389c8 50.667 12 102 12 154s-5.16699 103 -15.5 153s-26.166 94 -47.499 132
c-46 83.333 -110 124.333 -192 123h-29c92 -84.667 138 -197.334 138 -338.001c0 -183.333 -50.333 -307.666 -151 -372.999c-38.667 -24.667 -82.667 -37 -132 -37s-89 6 -119 18s-56.167 28.333 -78.5 49s-41 44.834 -56 72.501s-27.167 56.834 -36.5 87.501
c-16.667 58 -25 121.667 -25 191c0 137.333 41 247 123 329c-13.333 1.33301 -33.833 2 -61.5 2s-53.667 -9.16699 -78 -27.5s-43.833 -41.833 -58.5 -70.5c-28 -56 -41.333 -123.667 -40 -203l10 -443h-177l-10 331c0 35.333 -26 56.333 -78 63
c-3.33301 0.666992 -6.33301 1 -9 1h-10c-3.33301 0 -6.66602 -0.333008 -9.99902 -1c-10 -196.667 -66 -325.667 -168 -387c-40 -24 -92.833 -36 -158.5 -36s-119.167 20 -160.5 60c-47.333 -40 -96.833 -60 -148.5 -60s-94.834 7.83301 -129.501 23.5
s-64.334 36.834 -89.001 63.501c-54 58 -81 127.667 -81 209c0 84 27.667 154.333 83 211s125.666 85 210.999 85c26 241.333 133 362 321 362c148.667 0 244.667 -73.667 288 -221c13.333 -44 22.666 -91 27.999 -141h33c27.333 0 53.666 -3.66699 78.999 -11
c22.667 171.333 95.334 286.666 218.001 345.999c43.333 20.667 99.166 31 167.499 31s132.166 -18.333 191.499 -55zM1807 341.999c1.33301 26 1.99805 49.4971 1.99805 70.4971s-2 44.833 -6 71.5s-10.667 52.667 -20 78c-21.333 56.667 -51.666 95.334 -90.999 116.001
c-53.333 -27.333 -88.666 -91.333 -105.999 -192c-4.66699 -26.667 -7 -49.667 -7 -69s1.33301 -42.166 4 -68.499s8.33398 -52.166 17.001 -77.499c20 -62 51.667 -93 95 -93c69.333 0 106.666 54.667 111.999 164zM813.002 562.996c-8 86.667 -31.667 142.334 -71 167.001
c-17.333 10.667 -39.5 16 -66.5 16s-49 -5.33301 -66 -16s-30.833 -24.667 -41.5 -42c-16 -26.667 -27.333 -68.334 -34 -125.001h279zM818.002 393.996l-289 0.000976562c4 -70.667 12 -120.334 24 -149.001c25.333 -60 66.333 -90 123 -90c80.667 0 126 53.667 136 161
c2.66699 28 4.66699 54 6 78zM300.502 159.497c13 -6.33301 24.501 -9.5 34.501 -9.5s21 1.33301 33 4c14.667 2.66699 24.667 4 30 4c-26.667 63.333 -42.334 142 -47.001 236h-6c-32 0 -58.333 -13.667 -79 -41c-18 -24.667 -27 -49 -27 -73s2.5 -43.167 7.5 -57.5
s12 -26.833 21 -37.5s20 -19.167 33 -25.5z" />
    <glyph glyph-name="k1th1r3" horiz-adv-x="2561" 
d="M1931 874c59.333 36.667 123.675 55.0049 193.008 55.0049s125.666 -7.33301 168.999 -22s80.833 -34.834 112.5 -60.501s58 -55.834 79 -90.501s37.5 -72.667 49.5 -114c23.333 -76 35 -170.333 35 -283s-26.5 -217.167 -79.5 -313.5s-133.5 -177.166 -241.5 -242.499
c-218 -132.667 -542.667 -199 -974 -199c-418 0 -726 62 -924 186c-195.333 122 -293 312.667 -293 572c0 156.667 25 300.667 75 432c16 42 34.333 80.333 55 115h210c-78 -96.667 -129.667 -229.667 -155 -399c-7.33301 -52.667 -11 -105.334 -11 -158.001
c0 -192 78.333 -334.667 235 -428c169.333 -100 438.666 -150 807.999 -150c567.333 0 919 111.333 1055 334c45.333 74.667 68 161.667 68 261c0 107.333 -12.333 185 -37 233s-54 83.667 -88 107s-79 34.666 -135 33.999h-32c92 -84.667 138 -197.334 138 -338.001
c0 -112.667 -20 -208.334 -60 -287.001c-49.333 -98 -128.666 -147 -238 -147c-138 0 -229.667 81.667 -275 245c-16.667 62 -25 127.667 -25 197c0 137.333 41 247 123 329c-13.333 1.33301 -33.5 2 -60.5 2s-52.5 -8.66699 -76.5 -26s-43.667 -40 -59 -68
c-28 -52 -42 -117 -42 -195v-12l10 -443h-177l-10 331c0 25.333 -16.333 44 -49 56c-14.667 5.33301 -28.667 8 -42 8l-11 -1h-5c-10 -196.667 -66 -325.667 -168 -387c-40 -24 -92.833 -36 -158.5 -36s-119.167 20 -160.5 60c-47.333 -40 -96.833 -60 -148.5 -60
s-94.834 7.83301 -129.501 23.5s-64.334 36.834 -89.001 63.501c-54 58 -81 127.667 -81 209c0 84 27.667 154.333 83 211s125.666 85 210.999 85c26 241.333 133 362 321 362c148.667 0 244.667 -73.667 288 -221c13.333 -44 22.666 -91 27.999 -141h33
c27.333 0 53.666 -3.66699 78.999 -11c22.667 171.333 95.334 286.666 218.001 345.999c43.333 20.667 99.166 31 167.499 31s132.166 -18.333 191.499 -55zM2057.01 338.005c1.33301 28.667 1.99902 53.5 1.99902 74.5s-2 44.833 -6 71.5s-10.667 52.667 -20 78
c-21.333 56.667 -51.666 95.334 -90.999 116.001c-53.333 -27.333 -88.666 -91.333 -105.999 -192c-4.66699 -26.667 -7 -48.334 -7 -65.001s0.5 -33.334 1.5 -50.001s3 -34.5 6 -53.5s7.33301 -38 13 -57s12.5 -35.833 20.5 -50.5c19.333 -34.667 43.666 -52 72.999 -52
s51.833 9.5 67.5 28.5s27 41.833 34 68.5s11.167 54.334 12.5 83.001zM1063.01 563.005c-8 86.667 -31.667 142.334 -71 167.001c-17.333 10.667 -39.5 16 -66.5 16s-49 -5.33301 -66 -16s-30.833 -24.667 -41.5 -42c-16 -26.667 -27.333 -68.334 -34 -125.001h279z
M1068.01 394.005l-289 0.000976562c4 -70.667 12 -120.334 24 -149.001c25.333 -60 66.333 -90 123 -90c80.667 0 126 53.667 136 161c2.66699 28 4.66699 54 6 78zM550.508 159.506c13 -6.33301 24.501 -9.5 34.501 -9.5s21 1.33301 33 4c14.667 2.66699 24.667 4 30 4
c-26.667 63.333 -42.334 142 -47.001 236h-6c-32 0 -58.333 -13.667 -79 -41c-18 -24.667 -27 -49 -27 -73s2.5 -43.167 7.5 -57.5s12 -26.833 21 -37.5s20 -19.167 33 -25.5z" />
    <glyph glyph-name="k1n1" horiz-adv-x="1293" 
d="M355 582c26 228.667 133.004 342.999 321.004 342.999c148.667 0 244.667 -70.333 288 -211c13.333 -41.333 22.666 -85.333 27.999 -132h33c80 0 145 -28 195 -84c46.667 -53.333 70 -119.333 70 -198c0 -76 -22 -141.333 -66 -196
c-46.667 -57.333 -109.667 -86 -189 -86h-17v171h17c51.333 0 77 37 77 111c0 52.667 -14.667 89.334 -44 110.001c-10.667 7.33301 -25 11 -43 11h-29c-10 -185.333 -66 -306.333 -168 -363c-40 -22.667 -94.5 -34 -163.5 -34s-120.833 17.333 -155.5 52
c-47.333 -38.667 -96.833 -58 -148.5 -58s-94.834 7.5 -129.501 22.5s-64.334 35.5 -89.001 61.5c-54 54.667 -81 120.667 -81 198c0 80 27.667 147 83 201s125.666 81 210.999 81zM813.004 581.999c-8 82 -31.667 134.666 -71 157.999c-17.333 10 -39.5 15 -66.5 15
s-49 -5 -66 -15s-30.833 -23.333 -41.5 -40c-16 -25.333 -27.333 -64.666 -34 -117.999h279zM818.004 420.998l-289 -0.00195312c4 -67.333 12 -114.666 24 -141.999c24.667 -56.667 65.667 -85 123 -85c80.667 0 126 51 136 153c2.66699 26.667 4.66699 51.334 6 74.001z
M345.004 188.996l43.001 7c2 0 5.33301 0.333008 10 1c-26.667 60 -42.334 134.667 -47.001 224h-6c-32 0 -58.333 -13 -79 -39c-18 -23.333 -27 -46.5 -27 -69.5s2.5 -41.167 7.5 -54.5s12.167 -25.333 21.5 -36c19.333 -22 45 -33 77 -33zM740.005 -44.0039
c35.333 32 75.001 47.999 119.001 47.999s78.167 -7 102.5 -21s43.833 -31.667 58.5 -53c28.667 -41.333 43 -90.333 43 -147c0 -70.667 -13.667 -133 -41 -187c-8.66699 -16.667 -18.334 -30.667 -29.001 -42h-142c50 78.667 75 155 75 229
c0 51.333 -11.333 83.666 -34 96.999c-10 6 -22.667 9 -38 9s-26.5 -2.5 -33.5 -7.5s-10.5 -18.167 -10.5 -39.5v-284h-134v284c0 31.333 -18.333 47 -55 47c-42.667 0 -65.667 -25 -69 -75c-1.33301 -13.333 -2 -28.166 -2 -44.499s1.16699 -32.666 3.5 -48.999
s6.5 -32.833 12.5 -49.5c10.667 -30.667 30.667 -69.667 60 -117h-143c-30 34 -51 86.333 -63 157c-4 21.333 -6 43.5 -6 66.5s3 48.167 9 75.5s16.333 52.333 31 75c34.667 50.667 86.667 76 156 76c50 0 93.333 -16 130 -48z" />
    <glyph glyph-name="k1m1" horiz-adv-x="1293" 
d="M398 197c-26.667 60 -42.333 134.667 -47 224h-6c-32 0 -58.333 -13 -79 -39c-18 -23.333 -27 -46.5 -27 -69.5s2.5 -41.167 7.5 -54.5s12.167 -25.333 21.5 -36c19.333 -22 45 -33 77 -33l43 7c2 0 5.33301 0.333008 10 1zM529.001 421
c4 -67.333 12 -114.668 24 -142.001c24.667 -56.667 65.667 -85 123 -85c80.667 0 126 51 136 153c2.66699 26.667 4.66699 51.334 6 74.001h-289zM742.001 739.998c-17.333 10 -39.5 14.999 -66.5 14.999s-49 -5 -66 -15s-30.833 -23.333 -41.5 -40
c-16 -25.333 -27.333 -64.666 -34 -117.999h279c-8 82 -31.667 134.667 -71 158zM355.001 581.997c26 228.667 133.004 342.999 321.004 342.999c148.667 0 244.667 -70.333 288 -211c13.333 -41.333 22.666 -85.333 27.999 -132h33c80 0 145 -28 195 -84
c46.667 -53.333 70 -119.333 70 -198c0 -76 -22 -141.333 -66 -196c-46.667 -57.333 -109.667 -86 -189 -86h-17v171h17c51.333 0 77 37 77 111c0 52.667 -14.667 89.334 -44 110.001c-10.667 7.33301 -25 11 -43 11h-29c-10 -185.333 -66 -306.333 -168 -363
c-40 -22.667 -94.5 -34 -163.5 -34s-120.833 17.333 -155.5 52c-47.333 -38.667 -96.833 -58 -148.5 -58s-94.834 7.5 -129.501 22.5s-64.334 35.5 -89.001 61.5c-54 54.667 -81 120.667 -81 198c0 80 27.667 147 83 201s125.666 81 210.999 81zM1076 -435.004
l-478 -0.000976562v246c0 96 43.667 159.667 131 191c29.333 10 63.5 15 102.5 15s73.667 -4.66699 104 -14s55.833 -22.666 76.5 -39.999c42.667 -36 64 -83.667 64 -143v-255zM924.005 -127.505c-19.333 21 -48 31.499 -86 31.499s-66.333 -12.667 -85 -38
c4 0.666992 8 1 12 1h13c42.667 0 77 -12.333 103 -37c24 -22.667 36 -49.667 36 -81s-6.66699 -58.666 -20 -81.999h56v126c0 32 -9.66699 58.5 -29 79.5zM763.005 -333.006c33.333 24 50 51 50 81s-16.667 45 -50 45c-10 0 -20.667 -5.66699 -32 -17v-109h32z" />
    <glyph glyph-name="k1r3" horiz-adv-x="1559" 
d="M550.5 159.5c13 -6.33301 24.501 -9.5 34.501 -9.5s21 1.33301 33 4c14.667 2.66699 24.667 4 30 4c-26.667 63.333 -42.334 142 -47.001 236h-6c-32 0 -58.333 -13.667 -79 -41c-18 -24.667 -27 -49 -27 -73s2.5 -43.167 7.5 -57.5s12 -26.833 21 -37.5
s20 -19.167 33 -25.5zM1068 394l-289 0.000976562c4 -70.667 12 -120.334 24 -149.001c25.333 -60 66.333 -90 123 -90c80.667 0 126 53.667 136 161c2.66699 28 4.66699 54 6 78zM1063 563.001c-8 86.667 -31.667 142.334 -71 167.001c-17.333 10.667 -39.5 16 -66.5 16
s-49 -5.33301 -66 -16s-30.833 -24.667 -41.5 -42c-16 -26.667 -27.333 -68.334 -34 -125.001h279zM605.001 563.001c26 241.333 133.004 361.998 321.004 361.998c148.667 0 244.667 -73.667 288 -221c13.333 -44 22.666 -91 27.999 -141h53c80 0 145 -35.667 195 -107
c48.667 -67.333 73 -150.666 73 -249.999c0 -152.667 -52.333 -284.334 -157 -395.001c-76 -80 -181.333 -136.333 -316 -169c-69.333 -16.667 -155.166 -25 -257.499 -25s-202.333 14.167 -300 42.5s-181.834 72.5 -252.501 132.5c-148.667 127.333 -223 317.333 -223 570
c0 156.667 25 300.667 75 432c16 42 34.333 80.333 55 115h210c-78 -96.667 -129.667 -229.667 -155 -399c-7.33301 -52.667 -11 -116.5 -11 -191.5s15.833 -148.167 47.5 -219.5s75.5 -130.333 131.5 -177c110.667 -90.667 262.667 -136 456 -136
c228.667 0 385 82.333 469 247c32 62.667 48 127.667 48 195c0 76 -21 127.333 -63 154c-13.333 8 -28.333 12 -45 12h-29c-10 -195.333 -66 -322.666 -168 -381.999c-40 -23.333 -93.833 -35 -161.5 -35s-120.167 18 -157.5 54c-47.333 -40 -96.833 -60 -148.5 -60
s-94.834 7.83301 -129.501 23.5s-64.334 36.834 -89.001 63.501c-54 58 -81 127.667 -81 209c0 84 27.667 154.333 83 211s125.666 85 210.999 85z" />
    </font>
</defs>
</svg>
